<?xml version="1.0" standalone="no"?>
<!DOCTYPE svg PUBLIC "-//W3C//DTD SVG 1.1//EN" "http://www.w3.org/Graphics/SVG/1.1/DTD/svg11.dtd" >
<svg xmlns="http://www.w3.org/2000/svg">
<metadata>
Created by FontForge 20120731 at Wed Jan 13 15:06:37 2016
 By Ads
</metadata>
<defs>
<font id="iconfont" horiz-adv-x="1024" >
  <font-face 
    font-family="iconfont"
    font-weight="500"
    font-stretch="normal"
    units-per-em="1024"
    panose-1="2 0 6 3 0 0 0 0 0 0"
    ascent="896"
    descent="-128"
    x-height="792"
    bbox="0 -224 1481 873"
    underline-thickness="50"
    underline-position="-100"
    unicode-range="U+0078-E653"
  />
<missing-glyph horiz-adv-x="374" 
d="M34 0v682h272v-682h-272zM68 34h204v614h-204v-614z" />
    <glyph glyph-name=".notdef" horiz-adv-x="374" 
d="M34 0v682h272v-682h-272zM68 34h204v614h-204v-614z" />
    <glyph glyph-name=".null" horiz-adv-x="0" 
 />
    <glyph glyph-name="nonmarkingreturn" horiz-adv-x="341" 
 />
    <glyph glyph-name="x" unicode="x" horiz-adv-x="1001" 
d="M281 543q-27 -1 -53 -1h-83q-18 0 -36.5 -6t-32.5 -18.5t-23 -32t-9 -45.5v-76h912v41q0 16 -0.5 30t-0.5 18q0 13 -5 29t-17 29.5t-31.5 22.5t-49.5 9h-133v-97h-438v97zM955 310v-52q0 -23 0.5 -52t0.5 -58t-10.5 -47.5t-26 -30t-33 -16t-31.5 -4.5q-14 -1 -29.5 -0.5
t-29.5 0.5h-32l-45 128h-439l-44 -128h-29h-34q-20 0 -45 1q-25 0 -41 9.5t-25.5 23t-13.5 29.5t-4 30v167h911zM163 247q-12 0 -21 -8.5t-9 -21.5t9 -21.5t21 -8.5q13 0 22 8.5t9 21.5t-9 21.5t-22 8.5zM316 123q-8 -26 -14 -48q-5 -19 -10.5 -37t-7.5 -25t-3 -15t1 -14.5
t9.5 -10.5t21.5 -4h37h67h81h80h64h36q23 0 34 12t2 38q-5 13 -9.5 30.5t-9.5 34.5q-5 19 -11 39h-368zM336 498v228q0 11 2.5 23t10 21.5t20.5 15.5t34 6h188q31 0 51.5 -14.5t20.5 -52.5v-227h-327z" />
    <glyph glyph-name="uniE600" unicode="&#xe600;" 
d="M255 -43v357h39v44h-200v-40h39v-361h122zM32 397h967q18 8 17.5 22t-16.5 25q-22 14 -485 349l-483 -349q-9 -6 -13.5 -12.5t-5 -13t4.5 -12t14 -9.5zM515 628q29 0 49.5 -20.5t20.5 -49.5t-20.5 -49.5t-49.5 -20.5t-49.5 20.5t-20.5 49.5t20.5 49.5t49.5 20.5zM56 -122
h919v39h-919v-39zM16 -202h999v36h-999v-36zM576 -43v359h39v39h-199v-37h39v-361h121zM895 -43v359h39v39h-199v-37h39v-361h121z" />
    <glyph glyph-name="uniE601" unicode="&#xe601;" 
d="M960 258q-3 -7 -8.5 -18t-26.5 -40.5t-47.5 -54t-72 -49.5t-98.5 -36t-128.5 -3.5t-160.5 38.5l32 78q0 1 1 3.5t2 10.5t0 14t-4.5 14.5t-12 12t-21.5 6t-35 -2.5l-274 -73q-1 -1 -3 -1.5t-8 -3.5t-11 -7t-10 -10t-7 -13t-1 -17t7 -21l157 -267q2 -2 5.5 -4.5t13 -7
t19 -5t20.5 5.5t20 22l31 78v-1q105 -38 223 -33q249 11 352 236q30 67 46 149zM43 360q2 6 8 17t28 40t49 53t73.5 48t99 33t128.5 0t160 -42l-34 -77q-2 -3 -3 -8t-1 -17t5 -20.5t22 -13.5t45 -1l276 66q1 0 3 1l8 4q6 3 11 6.5t10.5 9.5t7.5 13t1 17t-6 22l-151 270l-3 3
q-1 1 -6.5 4.5t-11 6t-13 3.5t-14.5 -0.5t-15 -8t-15 -17.5l-33 -77l-20 7q-12 5 -48 14t-71.5 13.5t-85.5 4t-95 -10.5t-94 -36t-88.5 -66.5t-73.5 -107.5t-53 -153z" />
    <glyph glyph-name="uniE602" unicode="&#xe602;" 
d="M475 186h-240q-5 0 -8.5 -3.5t-3.5 -8.5q0 -4 1.5 -7t4.5 -4.5t6 -1.5h240q5 0 8.5 3.5t3.5 9t-3.5 9t-8.5 3.5zM475 299h-240q-5 0 -8.5 -3.5t-3.5 -9t3.5 -9t8.5 -3.5h240q5 0 8.5 3.5t3.5 9.5q0 3 -1.5 6t-4.5 4.5t-6 1.5zM475 412h-240q-5 0 -8.5 -3.5t-3.5 -9
t3.5 -9t8.5 -3.5h240q5 0 8.5 3.5t3.5 9.5q0 3 -1.5 6t-4.5 4.5t-6 1.5zM936 42q-70 68 -162 91q-3 2 -5 2h-6q-3 0 -5 -1.5t-5 -2.5t-7 -3l-9 -3h-1q-1 0 -2.5 -0.5t-2.5 -1.5q-3 -1 -9 -2q-3 0 -8 -1q-6 -1 -8 -1q-4 0 -8 -0.5t-8 -0.5h-4h-3q-17 1 -33.5 5t-28.5 10
q-2 2 -5 2h-4q-1 0 -2 -1q-95 -22 -167 -92q-3 -3 -3 -7v-38q0 -4 3 -7t7 -3h233h63h183q4 0 7 3t3 7v38q0 1 -0.5 2.5t-1 2.5t-1.5 2zM718 474q-5 1 -11 2h-1h-3q-8 1 -13 1q-47 0 -80 -34.5t-33 -84.5q0 -10 1.5 -19.5t4.5 -18.5q-5 -3 -8 -8t-3 -11t2.5 -10.5t7 -7.5
t9.5 -3q3 -41 32 -74t67 -33h8q1 0 3 1q3 0 6 1h3l1 1q1 0 4 1t4 2h2l1 1q27 12 45 40t21 60q5 0 9.5 3t7 7.5t2.5 10.5t-3 11t-8 8q6 18 6 38q0 41 -23 72.5t-59 42.5q-1 0 -2 1zM683 -91h-539v775h416v-102q0 -8 5.5 -13.5t13.5 -5.5h104v-42h3h4q7 0 14.5 -0.5t14.5 -2
t13.5 -3.5t13.5 -5v86q0 6 -2.5 12t-6.5 10l-122 120q-9 9 -22 9h-481q-13 0 -22 -9t-9 -22v-839q0 -13 9 -22t22 -9h603q13 0 22 9t9 22v66h-63v-34z" />
    <glyph glyph-name="uniE603" unicode="&#xe603;" 
d="M472 540l-399 -400q-17 -16 -17 -39.5t16.5 -40t40 -16.5t40.5 16l359 360l359 -360q11 -10 25.5 -14t29 0t25.5 14q7 7 11 15t5 16.5t0 17.5t-5 17t-11 14l-399 400q-17 16 -40 16t-40 -16z" />
    <glyph glyph-name="uniE604" unicode="&#xe604;" 
d="M472 60l-399 400q-11 11 -15 25.5t0 29t15 25t25.5 14.5t29 0t25.5 -14l359 -360l359 360q11 10 25.5 14t29 0t25.5 -14q6 -6 9.5 -12.5t5.5 -13.5t2 -14.5t-2 -14.5t-5.5 -13.5t-9.5 -11.5l-399 -400q-17 -16 -40 -16t-40 16z" />
    <glyph glyph-name="uniE605" unicode="&#xe605;" 
d="M847 -18v64v365h-637v-365v-64v-32h637v32zM675 172l-206 -160q-9 -7 -19 -2q-4 2 -7 6.5t-3 9.5v320q0 11 10 16q3 1 6.5 1.5t6.5 -0.5t6 -3l206 -160q7 -5 7 -14q0 -4 -2 -8t-5 -6zM914 568h-295l167 167q13 13 13 31t-13 30q-6 6 -14 9.5t-16 3.5t-16.5 -3.5
t-14.5 -9.5l-197 -196l-196 196q-13 13 -31 13t-30.5 -12.5t-12.5 -30.5t12 -31l168 -167h-295q-19 0 -35 -9.5t-25 -25.5t-9 -35v-631q0 -19 9 -35t25 -25.5t35 -9.5h771q18 0 34.5 9.5t25.5 25.5t9 35v631q0 11 -3.5 22t-10 19.5t-15 15t-19 10t-21.5 3.5zM919 -139h-781
v642h781v-642z" />
    <glyph glyph-name="uniE606" unicode="&#xe606;" 
d="M942 73q-9 -9 -21.5 -9.5t-21.5 7.5l-370 370q-8 9 -12.5 11t-9 0t-13.5 -11l-370 -370q-8 -8 -21 -7.5t-22 10t-9.5 22t8.5 21.5l411 411q7 7 18 8h5q6 -1 10.5 -3t8.5 -5l411 -411q16 -17 3 -38q-3 -4 -5 -6z" />
    <glyph glyph-name="uniE607" unicode="&#xe607;" 
d="M953 279l-420 449q-2 2 -4.5 3.5t-4.5 2t-4.5 1t-5.5 1.5h-5q-5 -1 -10 -2.5t-8 -5.5l-418 -449q-8 -9 -8 -22t10 -22v-1q10 -9 22 -9h95v-353q0 -14 11 -24q9 -11 22 -11h192q13 0 22 11q12 9 12 24v9v1v2v196q0 7 4.5 11.5t11.5 4.5h93q7 0 11.5 -4.5t4.5 -11.5v-196
v-1v-1v-10q0 -7 3 -13.5t9 -10.5q9 -11 22 -11h191q14 0 23 11q11 10 11 24v353h94q7 0 12.5 2.5t9.5 7.5h1q6 6 8.5 14t0.5 16t-8 14zM417 161q-12 0 -21 -9.5t-9 -22.5v-1v-1v-226h-131v355q0 7 -3 13q-8 20 -28 20h-56l325 352q12 12 18 12t17 -12l328 -352h-55
q-21 0 -28 -20q-3 -6 -3 -13v-355h-131v227v1q0 5 -1.5 10t-4.5 8.5t-7 6.5t-8.5 5t-9.5 2h-192z" />
    <glyph glyph-name="uniE608" unicode="&#xe608;" 
d="M512 737q-93 0 -158.5 -65.5t-65.5 -158.5q0 -61 30 -112.5t81.5 -81.5t112.5 -30q93 0 158.5 65.5t65.5 158.5q0 46 -17.5 87.5t-47.5 71.5t-71.5 47.5t-87.5 17.5zM512 353q-43 0 -80 21.5t-58.5 58.5t-21.5 80q0 66 47 113t113 47q26 0 50.5 -8t44 -23t34.5 -34.5
t23 -44t8 -50.5q0 -43 -21.5 -80t-58.5 -58.5t-80 -21.5zM959 -65q-8 114 -69.5 209.5t-161.5 151t-216 55.5q-91 0 -173.5 -35.5t-142.5 -95t-95.5 -142t-36.5 -173.5v-1v-1v0q1 -18 9.5 -32t23 -22.5t31.5 -8.5h2h1h1h671q6 0 12 2.5t10.5 7t7 10t2.5 12.5q0 13 -9.5 22.5
t-22.5 9.5h-644q-14 0 -19 1t-10 6.5t-3.5 18.5t7.5 37q23 137 130 228.5t248 91.5q150 0 260 -101.5t122 -249.5q2 -19 2 -31v-35q1 -13 10 -21.5t22 -8.5q8 0 15 4t11.5 11t5.5 15z" />
    <glyph glyph-name="uniE609" unicode="&#xe609;" 
d="M942 494q-9 9 -21.5 9.5t-21.5 -7.5l-370 -370q-8 -8 -12.5 -10.5t-9 0t-13.5 10.5l-370 370q-3 3 -7.5 5t-9 2.5t-9 -0.5t-9 -3.5t-8.5 -5.5q-9 -10 -9.5 -22.5t8.5 -21.5l411 -411q7 -7 18 -8h5q12 1 19 8l411 411q3 3 4.5 6.5t2.5 7.5t1 8t-1.5 7.5t-3.5 7.5t-5 7z
" />
    <glyph glyph-name="uniE60A" unicode="&#xe60a;" 
d="M877 320zM896 364q0 78 -30.5 149t-82 122.5t-122.5 82t-149 30.5q-104 0 -192.5 -51.5t-140 -140t-51.5 -192.5q0 -52 13.5 -101t38 -91t58.5 -77l1 -1q0 -1 1 -1l2 -2l217 -217q22 -22 53 -22t53 22l217 217l3 3l1 1q52 53 81 122.5t29 146.5zM565 -35v-1
q-40 -39 -53 -39t-53 40l-173 174q-94 93 -94 225q0 87 43 160.5t116.5 116.5t160.5 43q65 0 124.5 -25.5t102 -68t68 -102t25.5 -124.5q0 -132 -94 -225zM512 556q-80 0 -136 -56t-56 -136t56 -136t136 -56t136 56t56 136t-56 136t-136 56zM512 236q-53 0 -90.5 37.5
t-37.5 90.5t37.5 90.5t90.5 37.5t90.5 -37.5t37.5 -90.5t-37.5 -90.5t-90.5 -37.5z" />
    <glyph glyph-name="uniE60B" unicode="&#xe60b;" 
d="M877 320zM758.5 -138.5q9.5 9.5 10 22.5t-7.5 22l-377 376q-12 12 -12 18t12 18l377 376q4 5 6 10.5t1.5 11.5t-3 11.5t-6.5 10.5q-10 9 -23 9.5t-22 -7.5l-418 -419q-7 -7 -8 -18v-6q0 -5 2 -10t6 -8l418 -419q9 -8 22 -8t22.5 9.5z" />
    <glyph glyph-name="uniE60C" unicode="&#xe60c;" 
d="M877 320zM512 -148q-185 0 -316.5 131.5t-131.5 316.5t131.5 316.5t316.5 131.5t316.5 -131.5t131.5 -316.5t-131.5 -316.5t-316.5 -131.5zM512 684q-104 0 -192.5 -51.5t-140 -140t-51.5 -192.5t51.5 -192.5t140 -140t192.5 -51.5t192.5 51.5t140 140t51.5 192.5
t-51.5 192.5t-140 140t-192.5 51.5zM727 419q-9 9 -22.5 9t-22.5 -9l-234 -236l-103 106q-9 9 -22.5 9.5t-23 -9t-9.5 -22.5t9 -23l126 -129h1v-1q1 -1 5 -4h2l1 -1l2 -2q6 -2 12 -2q7 0 12 2q1 1 2 1.5t1.5 1t1.5 0.5q4 2 6 4v1l256 259q10 9 9.5 22t-9.5 23zM727 419z" />
    <glyph glyph-name="uniE60D" unicode="&#xe60d;" 
d="M877 320zM575 302l372 369q13 13 13 32t-13 32t-31.5 13t-31.5 -13l-372 -370l-368 370q-13 13 -31.5 13t-32 -13t-13.5 -31.5t13 -32.5l369 -369l-372 -370q-13 -13 -13 -31.5t13 -31.5q6 -7 14.5 -10t17.5 -3q18 0 31 13l372 369l371 -373q3 -2 6 -4.5t6 -4t6.5 -2.5
t7 -1.5t6.5 -0.5q19 0 32 13t13 31.5t-13 31.5zM575 302z" />
    <glyph glyph-name="uniE60E" unicode="&#xe60e;" 
d="M805 663q-54 21 -104.5 20.5t-82 -13t-60 -34t-36.5 -31.5t-13 -16q-5 6 -13.5 16t-36.5 31.5t-59.5 34t-82.5 13t-104 -20.5q-60 -23 -100.5 -76.5t-46.5 -131.5t25.5 -164t129.5 -183.5t253 -181.5q19 -10 35 -11v0v0q16 1 35 11q88 48 158 100t116 102.5t77.5 102
t44 99t14 92t-10 82.5t-31 69.5t-47 54t-60.5 35.5zM539 -4q-9 -5 -16.5 -7t-13.5 -2q-14 0 -30 9q-137 78 -222 162.5t-110.5 155.5t-18 133t44.5 102.5t88 56.5q46 12 78.5 6.5t60.5 -22.5t46 -35.5t35 -33t28 -14.5v0v0q12 0 35.5 21.5t49 44.5t68.5 36t94 -3
q37 -11 67 -35t48 -60t23 -79.5t-13.5 -96t-57 -106.5t-111.5 -115t-173 -118z" />
    <glyph glyph-name="uniE60F" unicode="&#xe60f;" 
d="M877 278zM856 187l-320 -327q-8 -7 -19 -9h-3h-1h-3q-12 2 -19 9l-321 327q-9 9 -9 22t9 22.5t22 9.5t22 -9l268 -273v757q0 13 9 22t22 9h1q13 0 22 -9t9 -22v-757l267 273q10 9 22.5 9t21.5 -9q4 -4 6 -8.5t3 -9.5t0 -9.5t-3 -9t-6 -8.5z" />
    <glyph glyph-name="uniE610" unicode="&#xe610;" horiz-adv-x="1029" 
d="M877 320zM704 332h-192v256q0 13 -9.5 22.5t-22.5 9.5q-9 0 -16 -4.5t-11.5 -11.5t-4.5 -16v-288q0 -13 9.5 -22.5t22.5 -9.5h224q13 0 22.5 9.5t9.5 22.5t-9.5 22.5t-22.5 9.5zM1028 -22zM224 492h-96v96q0 13 -9.5 22.5t-22.5 9.5t-22.5 -9.5t-9.5 -22.5v-128
q0 -13 9.5 -22.5t22.5 -9.5h128q13 0 22.5 9.5t9.5 22.5t-9.5 22.5t-22.5 9.5zM139 209q-5 30 -33 30q-9 0 -16 -4.5t-11 -11.5t-4 -16q0 -3 2 -8q1 -5 1 -7q37 -148 157.5 -244t276.5 -96q122 0 225 60t163 163t60 225t-60 225t-163 163t-225 60q-141 0 -255 -80t-163 -208
h69q47 101 141 162.5t208 61.5q159 0 271.5 -112.5t112.5 -271.5t-112.5 -271.5t-271.5 -112.5q-133 0 -236 81t-135 207z" />
    <glyph glyph-name="uniE611" unicode="&#xe611;" 
d="M931 336l-81 44q-17 9 -25.5 18.5t-11.5 25.5t4 39l26 88q3 13 3.5 19t-0.5 12t-5 10l-26 26q-2 2 -5 3.5t-5 2t-6.5 0t-7 -0.5t-8.5 -1.5t-8 -2.5l-88 -25q-16 -4 -27.5 -4t-21 4t-17.5 12t-16 22l-45 81q-10 16 -15.5 22t-14.5 6h-36q-3 0 -5 -0.5t-4 -1.5t-4 -2.5
t-3.5 -3t-3.5 -4.5t-3 -5t-3.5 -5.5t-3.5 -5.5l-48 -75q-22 -48 -88 -32l-79 19q-33 7 -41 -1l-26 -26q-2 -2 -3 -4t-1.5 -4t-1 -4.5t-0.5 -4.5t1 -5.5t1 -5.5t1 -6t2 -7l25 -88q19 -57 -34 -82l-81 -45l-12 -8q-4 -2 -8.5 -6t-6 -7.5t-1.5 -7.5v-37q0 -2 0.5 -4.5t1.5 -4
t2.5 -3.5t3 -3.5t4.5 -3.5t5 -3.5t5.5 -3.5t5.5 -4l80 -44q28 -16 35 -34t-1 -48l-26 -89q-7 -32 1 -41l26 -26q2 -2 4 -3t5 -1.5t5 -0.5t6 0.5t6.5 0.5t7 1.5t7.5 1.5l88 26q57 17 82 -35l45 -81q9 -16 15 -22t14 -6h37q2 0 4.5 0.5t4.5 1.5t4 3t3 3.5t3 4t3.5 4.5t3.5 5.5
t4 5.5l44 81q26 47 82 33l89 -26q18 -4 25 -4t16 6l26 26q2 2 3.5 5t2 5t0 7t-1.5 7l-2 8q-1 6 -1 8l-26 88q-3 11 -4 21t1 18.5t7 16t12.5 14.5t18.5 12l81 45q16 10 22 15.5t6 14.5v36q0 12 -22 26q-4 3 -6 4zM892 285q0 -4 -3 -7t-12 -8l-106 -59q-16 -9 -22.5 -22
t-1.5 -34l33 -115q3 -10 3 -12t-3 -9l-2 -2q-5 -5 -22 -1l-116 34q-40 9 -57 -23l-57 -104l-2 -4q-8 -11 -14 -11h-3q-7 0 -16 15l-58 106q-7 14 -22 21t-34 3l-115 -33q-17 -4 -21 0l-3 2q-4 5 0 22l33 116q10 35 -22 57l-105 57q-1 1 -3 2q-11 8 -11 14v3q0 6 14 16
l106 58q14 7 21.5 24t2.5 32l-33 115q-3 17 1 21l2 3q5 4 21 0l107 -24q36 -5 57 23l67 95q1 1 2 3q7 11 14 11h3q4 0 7 -3t8 -11l62 -100q6 -9 14.5 -15.5t19 -8.5t20.5 1l113 27q11 2 12.5 2.5t8.5 -2.5l3 -3q4 -4 0 -21l-33 -116q-2 -8 0.5 -16.5t6.5 -14t9 -13.5t7 -14
l104 -58q1 -1 4 -2q11 -8 11 -14v-3v0zM511 449q-33 0 -62.5 -12.5t-51 -34t-34 -51t-12.5 -62.5q0 -66 47 -113t113 -47t113 47t47 113q0 19 -4.5 37t-12 33.5t-18.5 29.5t-25 25t-30 19t-34 12t-36 4zM511 193q-40 0 -68 28t-28 68t28 68t68 28t68 -28t28 -68t-28 -68
t-68 -28z" />
    <glyph glyph-name="uniE612" unicode="&#xe612;" 
d="M877 320zM512 -115q-5 0 -10 1.5t-9 4.5t-7 7l-65 91q-156 27 -256.5 133t-100.5 243q0 104 60 192.5t163.5 140t224.5 51.5t224.5 -51.5t163.5 -140t60 -192.5q0 -138 -100.5 -243.5t-256.5 -132.5l-65 -91q-10 -13 -26 -13zM512 685q-78 0 -149 -25.5t-122.5 -68.5
t-82 -102t-30.5 -124q0 -77 40.5 -144t113 -112.5t162.5 -58.5q13 -2 21 -13l47 -65l47 65q7 11 21 13q137 20 226.5 109t89.5 206q0 86 -51.5 160t-140 117t-192.5 43zM288 301q-26 0 -45 18.5t-19 45t19 45.5t45.5 19t45 -19t18.5 -45.5t-18.5 -45t-45.5 -18.5zM288 365
v-32v32zM736 301q-7 0 -14.5 1.5t-13.5 4.5t-12 7.5t-10 10t-7.5 12t-5 13.5t-1.5 15q0 26 19 45t45 19q10 0 20 -3.5t18 -9.5t14 -13.5t9 -17.5t3 -20q0 -27 -18.5 -45.5t-45.5 -18.5zM736 365v-32v32zM512 301q-26 0 -45 18.5t-19 45t19 45.5t45 19q10 0 20 -3.5t18 -9.5
t14 -13.5t9 -17.5t3 -20q0 -27 -18.5 -45.5t-45.5 -18.5zM512 365v-32v32zM512 365z" />
    <glyph glyph-name="uniE613" unicode="&#xe613;" 
d="M929.5 604q-13.5 0 -22.5 -9.5t-9 -22.5v-45q-60 101 -162.5 161t-223.5 60q-122 0 -225 -60t-163 -163t-60 -225t60 -225t163 -163t225 -60q110 0 205.5 50t157.5 137v1h1l1 2l2 2h-1q3 4 4.5 8.5t1.5 9.5q1 13 -8.5 22.5t-23.5 9.5q-19 0 -28 -18h-1
q-35 -49 -82.5 -84.5t-106.5 -55.5t-122 -20q-104 0 -192.5 51.5t-140 140t-51.5 192.5q0 159 112.5 271.5t271.5 112.5q110 0 201 -57t140 -151h-51q-14 0 -23 -9.5t-9 -22.5t9 -22.5t23 -9.5h128q13 0 22.5 9.5t9.5 22.5v128q0 13 -9.5 22.5t-23 9.5z" />
    <glyph glyph-name="uniE614" unicode="&#xe614;" 
d="M877 320zM298 -138.5q-9 9.5 -10 22.5t8 22l376 376q12 12 12 18t-12 18l-376 376q-9 9 -8 22t10 22q6 6 14.5 8.5t16.5 0.5t13 -7l419 -419q7 -7 7 -18v-6q0 -5 -2 -10t-5 -8l-419 -419q-8 -8 -21.5 -8t-22.5 9.5z" />
    <glyph glyph-name="uniE615" unicode="&#xe615;" 
d="M877 320zM695 354l-160 161q-7 7 -16.5 9t-18.5 -1q0 -1 -0.5 -1.5t-1.5 -0.5q-5 -3 -8 -5v-1l-161 -159q-4 -5 -6.5 -11t-2.5 -12t2.5 -12t6.5 -11q10 -9 23.5 -9t22.5 9l104 104v-307q0 -13 9.5 -22.5t23 -9.5t22.5 9.5t9 22.5v309l106 -107q2 -2 5 -4t6 -3l6 -2
q3 -1 6 -1q13 0 22.5 9.5t9.5 23t-9 22.5zM995 213z" />
    <glyph glyph-name="uniE616" unicode="&#xe616;" 
d="M877 320zM856 411l-320 327q-8 8 -19 9h-3h-1h-3q-12 -1 -19 -9l-321 -327q-9 -9 -9 -22t9 -22.5t22 -9.5t22 10l268 273v-757q0 -13 9 -22.5t22 -9.5h1q13 0 22 9.5t9 22.5v757l267 -273q6 -6 14 -8.5t16 0t14 8.5q9 9 9 22t-9 22z" />
    <glyph glyph-name="uniE617" unicode="&#xe617;" 
d="M888 546h-752q-30 0 -51 -21t-21 -51v-349q0 -30 21 -51t51 -21h752q19 0 36 9.5t26.5 26t9.5 36.5v349q0 30 -21 51t-51 21zM323 186h-51l-98 189v-188h-31v224h46l100 -194h3v195h31v-226zM527 315v-30l-125 -1v-6q0 -30 9.5 -45t27.5 -15h88v-30h-88q-14 0 -26.5 5
t-21.5 16q-20 23 -20 69v53q0 36 20 56t48 25h2q13 2 86 1v-31q-69 1 -83 0q-9 -2 -17 -5.5t-16.5 -15.5t-8.5 -30v-16h125zM816 186h-46l-46 180l-50 -180h-48l-65 226h33l58 -185l2 1l52 185h38l50 -195l60 194h32zM816 186z" />
    <glyph glyph-name="uniE618" unicode="&#xe618;" 
d="M344 -148q-21 45 -28.5 83t-1.5 70.5t17 56.5t31 53q14 20 25.5 42.5t18 40.5t11 32.5t6.5 22.5l1 8q2 -2 4.5 -6t9 -17.5t9 -27.5t5 -36.5t-3.5 -44.5q24 28 41.5 65.5t24 70.5t9 65t-3.5 48q58 -41 99 -104t60 -134t13 -147t-39 -141q69 40 119 85.5t76 91t39 93t10 92
t-13.5 88t-30 82t-39 71t-41.5 59t-37.5 43t-26.5 24.5q11 -24 14.5 -54t-4 -60t-27.5 -48q-12 44 -27.5 83t-32.5 68.5t-35.5 55t-36.5 43t-35.5 32t-31.5 23t-25 14.5t-17 8l-6 2q25 -170 -168 -410q-3 50 -9.5 81t-26.5 68q-3 -44 -24.5 -93.5t-46.5 -101.5t-34 -93
q-21 -107 25.5 -188t183.5 -159zM344 -148z" />
    <glyph glyph-name="uniE619" unicode="&#xe619;" 
d="M510 -127q-26 0 -71 39l-190 157h-85q-14 0 -27 3.5t-24 10t-20 16t-15.5 20t-10 23.5t-3.5 27v263q0 16 5 31t14.5 27.5t21.5 21.5t27 14t32 5h85l190 158q45 38 71 38q21 0 36.5 -15t15.5 -47v-730q0 -32 -15.5 -47t-36.5 -15zM164 465q-9 0 -17 -4.5t-12.5 -12
t-4.5 -16.5v-263q0 -7 3 -13t7.5 -10.5t10.5 -7.5t13 -3h99q3 0 6.5 -0.5t6.5 -1.5t5.5 -3t5.5 -4l199 -167q5 -6 9 -9v701l-9 -9l-199 -167q-5 -5 -11 -7.5t-13 -2.5h-99zM678 74q-11 0 -20 6q-7 5 -10.5 13t-3 17t6.5 16l13 18q22 31 32.5 47.5t21 46.5t10.5 62
q0 34 -9.5 62.5t-19 44t-31.5 44.5q-10 13 -17 23q-6 7 -6.5 16t3 17t10.5 13q11 9 24.5 6.5t22.5 -13.5q5 -7 16 -22q18 -24 27.5 -38t22 -39t18 -52.5t5.5 -61.5q0 -42 -13.5 -81.5t-26 -60t-37.5 -53.5l-13 -17q-3 -5 -7 -8t-9 -4.5t-10 -1.5zM790 -39q-12 0 -21 8
q-11 9 -12 23t8 24q19 21 33.5 39.5t30 41t26.5 45t20 48t14 53.5t5 57q0 57 -19.5 111.5t-45 91.5t-64.5 81q-9 11 -8 24.5t12 22.5q5 5 11 7t12.5 1.5t12.5 -3.5t10 -8q31 -35 53.5 -66.5t45 -73t34.5 -89t12 -99.5q0 -97 -39.5 -174.5t-105.5 -153.5l-3 -2q-1 -2 -3 -3
t-3.5 -2t-3.5 -2t-4 -1t-4 -0.5t-4 -0.5zM790 -39z" />
    <glyph glyph-name="uniE61A" unicode="&#xe61a;" 
d="M896 364q0 78 -30.5 149t-82 122.5t-122.5 82t-149 30.5q-104 0 -192.5 -51.5t-140 -140t-51.5 -192.5q0 -52 13.5 -101t38 -91t58.5 -77l1 -1q0 -1 1 -1l2 -2l217 -217q22 -22 53 -22t53 22l217 217l3 3l1 1q52 53 81 122.5t29 146.5zM512 236q-53 0 -90.5 37.5
t-37.5 90.5t37.5 90.5t90.5 37.5t90.5 -37.5t37.5 -90.5t-37.5 -90.5t-90.5 -37.5z" />
    <glyph glyph-name="uniE61B" unicode="&#xe61b;" 
d="M672 427q13 0 22 -9q7 -7 9 -15t0 -16.5t-8 -14.5l-160 -161q-7 -7 -16.5 -9t-18.5 2q-1 1 -2 1q-5 3 -8 6v0l-161 160q-9 9 -9 22.5t9.5 23t22.5 9.5z" />
    <glyph glyph-name="uniE61C" unicode="&#xe61c;" 
d="M536 2v-51h25q10 0 17.5 -7.5t7.5 -18t-7.5 -17.5t-17.5 -7h-99q-10 0 -17.5 7t-7.5 18q0 7 3.5 12.5t9 9t12.5 3.5h25v51q-92 8 -161.5 71t-86.5 152h50q17 -75 80 -124.5t142 -49.5q32 0 62 8.5t56 24t47.5 37t36 48.5t21.5 56h49q-10 -59 -45.5 -108t-88.5 -79.5
t-113 -35.5zM511 101q-35 0 -67 13.5t-55 37t-37 56t-14 67.5v250q0 48 23.5 88t63 63.5t86.5 23.5t87 -23.5t63 -63.5t23 -88v-250q0 -28 -8.5 -54.5t-24.5 -48t-37.5 -38t-47.5 -25t-55 -8.5z" />
    <glyph glyph-name="uniE61D" unicode="&#xe61d;" 
d="M695 622h123v16v134q0 16 -12 27q-2 2 -4.5 4t-5.5 3.5t-6 2.5t-6.5 1.5t-6.5 0.5h-161h-3v-114q0 -33 24 -54q6 -5 13 -9t14.5 -7t15 -4t15.5 -1zM472 16v15v5q0 1 0.5 4t1.5 5h-269q-14 0 -26 4.5t-23 13.5q-20 19 -20 45q0 27 20 46q19 19 49 19h316q45 63 109 96
q66 36 150 36h17q4 0 10 -1t10 -1v253h-158q-30 0 -52 13q-25 16 -36 32q-6 9 -11 19.5t-10 21.5q-1 6 -2 11.5t-2 10.5t-1.5 10.5t-0.5 9.5v128h-307h-109h-87q-16 0 -29 -12q-12 -11 -12 -26v-94v-35v-625v-130q0 -15 11.5 -26.5t29.5 -11.5h96h3h386q-7 9 -12.5 18
t-10.5 18.5t-9 19.5t-8 21q-14 37 -14 87zM156 409q6 7 14 11t16.5 5.5t18.5 1.5h408q14 0 26 -4.5t23 -13.5q20 -20 20 -44q0 -28 -20 -46q-21 -20 -49 -20h-408q-14 0 -26 5t-23 15q-20 18 -20 46q1 28 20 44zM1005 101q-21 43 -51 72q-17 15 -36 27.5t-40 20.5
q-22 9 -45.5 13.5t-47.5 4.5q-49 0 -93 -18q-41 -16 -75 -48q-16 -15 -28.5 -33t-22.5 -39q-19 -41 -19 -87t19 -88q20 -42 51 -72q7 -6 14 -11.5t14 -10.5t15 -10t16 -9t16 -7q23 -9 46 -13.5t47 -4.5q47 0 93 18q41 16 76 48q31 30 51 72q9 20 14 42t5 46q0 47 -19 87z
M951 105l-221 -221q-3 -3 -7 -3q-2 0 -3.5 1t-2.5 2l-100 86q-3 2 -3 4.5t3 5.5l31 28q3 2 6 2q1 0 6 -2l57 -50q1 -1 2.5 -2t3.5 -1l7 3l177 184q4 2 7 3l6 -3l31 -28q3 -3 3 -5l-2 -2z" />
    <glyph glyph-name="uniE61E" unicode="&#xe61e;" 
d="M958 600q0 62 -44 105.5t-106 43.5h-598q-40 0 -74.5 -20t-54.5 -54t-20 -75v-598q0 -30 12 -58t32 -48t47.5 -31.5t57.5 -11.5h598q62 0 106 43.5t44 105.5v598zM883 28q0 -27 -13.5 -50.5t-37 -37.5t-51.5 -14h-544q-42 0 -72 30t-30 72v545q0 42 30 72t72 30h544
q12 0 23.5 -3t21.5 -8t19 -12t16 -15.5t12 -19t7.5 -21.5t2.5 -23v-545zM720 112zM712 459q47 0 81.5 -34.5t34.5 -82.5v-261h-58v87h-522v-87h-58v435h58v-261h233v204h231zM364 285q-35 0 -61 26t-26 61t26 61t61 26t61 -26t26 -61t-26 -61t-61 -26zM364 285z" />
    <glyph glyph-name="uniE61F" unicode="&#xe61f;" 
d="M449 245h126v315h189l-252 252l-252 -252h189v-315zM638 371v-97l289 -108l-415 -155l-415 155l289 108v97l-378 -142v-252l504 -189l504 189v252z" />
    <glyph glyph-name="uniE620" unicode="&#xe620;" 
d="M461 72q0 14 1.5 29t4.5 29.5t7.5 28.5t9.5 28q23 53 64 94t94 63q1 0 1 1q-14 8 -28.5 14.5t-29.5 12.5q45 33 70.5 82.5t25.5 106.5q0 98 -69 167t-166.5 69t-166.5 -69t-69 -167q0 -57 25.5 -106.5t69.5 -82.5q-141 -54 -225 -197q-75 -130 -76 -285h519
q-23 30 -39 66q-23 55 -23 116zM757 326q-106 0 -180.5 -74.5t-74.5 -180t74.5 -180t180.5 -74.5q52 0 99 20t81 54t54.5 81.5t20.5 99.5q0 41 -13 80t-36.5 70t-55 55t-70.5 36.5t-80 12.5zM869 46v-37h-96v-89h-37v89h-96v37h96v16l-109 161h42q86 -129 86 -130l85 130h47
l-114 -162v-15h96z" />
    <glyph glyph-name="uniE621" unicode="&#xe621;" 
d="M374 534q-2 3 -22.5 23t-48 46t-54.5 51.5t-45 43.5l-19 17l-81 -58l227 -228q71 67 43 105zM439 239q-36 36 -62 65.5t-38.5 47t-19.5 31.5t-7.5 19t-0.5 8l-226 227q-10 -19 -16 -44t-2.5 -76.5t25 -107.5t79 -136.5t147.5 -163.5q67 -62 128.5 -107t107 -69t86 -35.5
t67 -12.5t49 4t33 11t18.5 12l-217 218q-8 -2 -22.5 4t-48.5 32t-80 73zM610 149l215 -216l71 81q-3 3 -8.5 8t-20.5 20.5t-29.5 30.5t-33 34t-33.5 34.5t-28.5 29.5t-20.5 21.5t-7 8.5q-40 20 -105 -52zM458 565h1q52 57 126 78q52 15 104 7t95.5 -32t76.5 -66t47 -93
q20 -73 -2 -144.5t-77 -120.5v-2q0 -1 0.5 -3.5t0.5 -5t1 -5.5t2.5 -6t4 -5t5 -3.5t7 -1.5t9.5 2q63 57 87.5 139t1.5 167q-13 48 -40 89t-63.5 69t-81 46t-92 20t-97.5 -10q-43 -12 -80 -35t-66 -55l1 -1q0 -3 0.5 -7.5t3 -12.5t8.5 -9t17 1zM785 313v45h25v18h-25v135h-26
l-98 -135v-18h98v-45h26zM688 376l71 99v-99h-71zM593 387q56 36 53 74q-4 49 -67 53q-13 0 -24.5 -3.5t-20 -10.5t-15 -17.5t-10.5 -23.5h25q3 9 7 16t10 12t13 7.5t16 2.5q13 0 21.5 -4t12.5 -12t4 -20q1 -10 -3.5 -19.5t-15 -20.5t-26.5 -22q-7 -5 -12.5 -9.5t-11 -9.5
t-10.5 -10t-9.5 -10t-8.5 -10t-7.5 -10.5t-6.5 -10.5v-16h139v16h-111q7 14 21.5 28.5t36.5 29.5zM593 387z" />
    <glyph glyph-name="uniE622" unicode="&#xe622;" horiz-adv-x="1028" 
d="M476 174q7 -8 17 -12.5t21 -4.5q7 0 14.5 2t13 5.5t10.5 9.5q34 32 65.5 68t69.5 88t61 111.5t23 113.5q0 107 -75.5 182t-181.5 75q-70 0 -129 -34.5t-93.5 -93.5t-34.5 -129q0 -54 23 -113.5t61 -111.5t69.5 -88t65.5 -68zM514 708q31 0 59.5 -12.5t49 -33t32.5 -48.5
t12 -60q0 -38 -19 -86.5t-40.5 -83.5t-49.5 -71q-14 -26 -44 -26t-45 26q-108 143 -108 241q0 42 20.5 77.5t55.5 56t77 20.5zM975 555h-1v0q-5 0 -9 -0.5t-8.5 -2t-8.5 -4.5l-76 -44q-18 -10 -23.5 -30.5t4.5 -39.5q7 -11 19 -18t25 -7t26 7v-393l-247 -126l-307 162
q-14 10 -30 10h-5q-3 0 -5.5 -0.5t-5 -1.5t-5 -1.5t-4.5 -2t-4 -2.5t-4 -3l-201 -108v405l51 29q18 10 23.5 30.5t-5 39t-31 24t-38.5 -5.5l-76 -44q-15 -8 -22 -24q-4 -10 -4 -21v-518q0 -8 3 -17v-1q1 -1 1.5 -3t1.5 -3q10 -19 30 -25.5t39 3.5l260 140l315 -165
q29 -15 55 5l289 148q20 10 26 30q2 8 2 16v511q0 21 -14.5 35.5t-35.5 15.5zM975 555z" />
    <glyph glyph-name="uniE623" unicode="&#xe623;" 
d="M510 686q2 0 5 2q6 4 16 14q12 11 24 16t32 -3q10 -3 16 -8.5t11.5 -10.5t12 -8.5t16.5 -3.5t17 3t13.5 5.5t13 3.5t15.5 -2q10 -4 13.5 -11.5t2 -15.5t-7 -16t-13.5 -13q-19 -12 -29 -24.5t-20 -26.5q-5 -7 -11 -16t-11 -18q-6 -11 -13 -21h-207q-7 12 -14 23
q-6 10 -13 20t-12 18q-10 15 -22.5 26.5t-24.5 20.5q-13 9 -18 24.5t9 26.5q7 5 16 4t19 -4t19.5 -6t17.5 -1q14 3 21 10.5t24 18.5q13 8 29 5.5t24 -10.5q4 -5 8.5 -8.5t9.5 -6.5q5 -4 11 -7zM623 486q12 -16 30 -35q15 -17 37 -38.5t51 -45.5q24 -21 49.5 -49.5
t44.5 -66.5t26.5 -87.5t-2.5 -110.5q-9 -50 -35.5 -94.5t-70.5 -77.5t-104.5 -52.5t-137.5 -19.5q-79 0 -140 22.5t-103.5 58.5t-67.5 80.5t-33 88.5q-9 49 -2.5 94t23.5 84.5t42.5 72.5t55.5 59q26 23 47 43.5t35 37.5q17 19 30 36h225zM517 179l-48 48q-10 10 -14 15
q-8 7 -21 11.5t-22 -5.5q-8 -11 -4 -21.5t9 -16.5l15 -14q11 -12 24 -26q15 -16 33 -34l-1 -21h-68q-9 0 -15.5 -7t-6.5 -15t6 -14t16 -6h68v-35h-68q-9 0 -15.5 -5.5t-6.5 -14.5q-1 -8 5.5 -13.5t16.5 -5.5h68v-20q1 -14 9 -19.5t20 -5.5q12 -1 19.5 7.5t7.5 17.5v20h70
q10 0 16.5 4.5t5.5 14.5q0 21 -28 21h-64l1 34l65 1q14 -1 20 5.5t6 15.5q0 8 -6.5 14.5t-20.5 6.5h-65v19q17 16 31 31q12 12 24 24.5t18 17.5q23 20 10 35q-7 9 -18 9t-20 -8q-5 -4 -17 -14.5t-24 -21.5q-14 -13 -31 -29z" />
    <glyph glyph-name="uniE624" unicode="&#xe624;" 
d="M912 747h-800q-20 0 -33.5 -13.5t-13.5 -33.5v-658q0 -19 13.5 -33t33.5 -14h329v-48h-94l-94 -94h518l-94 94h-94v48h329q13 0 24 6.5t17 17.5t6 23v658q0 20 -13.5 33.5t-33.5 13.5zM865 184q0 -20 -13.5 -33.5t-33.5 -13.5h-612q-19 0 -33 13.5t-14 33.5v422
q0 19 14 33t33 14h612q20 0 33.5 -14t13.5 -33v-422zM394 229l283 165l-283 165v-330z" />
    <glyph glyph-name="uniE625" unicode="&#xe625;" 
d="M985 773h-40v-79h-118v79h-630v-79h-118v79h-40q-16 0 -27.5 -11.5t-11.5 -28.5v-866q0 -17 11.5 -28.5t27.5 -11.5h40v40h118v-40h630v40h118v-40h40q6 0 12 2t11 6t8.5 8.5t5.5 10.5t2 13v866q0 17 -11.5 28.5t-27.5 11.5zM197 -15h-118v118h118v-118zM197 221h-118
v118h118v-118zM197 458h-118v118h118v-118zM693 274l-256 -149q-7 -3 -14 -3q-2 0 -5 0.5t-5.5 1.5t-4.5 2q-14 8 -14 25v298q0 17 14 25.5t29 0.5l256 -149q16 -8 16 -26t-16 -26zM945 -15h-118v118h118v-118zM945 221h-118v118h118v-118zM945 458h-118v118h118v-118z" />
    <glyph glyph-name="uniE626" unicode="&#xe626;" 
d="M952 624h-876q-11 0 -18.5 -7.5t-7.5 -18.5v-606q0 -6 3.5 -12t9.5 -9.5t13 -3.5h876q11 0 18.5 7.5t7.5 17.5v606q0 7 -3.5 13t-9.5 9.5t-13 3.5zM189 57q0 -5 -3.5 -9t-9.5 -4h-58q-3 0 -6 2t-4.5 4.5t-1.5 6.5v58q0 5 3.5 9t8.5 4h58q3 0 4.5 -1t3.5 -2t3 -2.5
t1.5 -3.5t0.5 -4v-58zM189 199q0 -4 -1.5 -7t-4.5 -4.5t-7 -1.5h-58q-5 0 -8.5 3.5t-3.5 9.5v58q0 5 3.5 9t8.5 4h58q13 0 13 -13v-58zM189 334q0 -5 -3.5 -9t-9.5 -4h-58q-3 0 -6 2t-4.5 4.5t-1.5 6.5v58q0 5 3.5 9t8.5 4h58q6 0 9.5 -4t3.5 -9v-58zM189 476q0 -2 -0.5 -4
t-1.5 -3.5t-3 -3t-3.5 -2t-4.5 -0.5h-58q-3 0 -6 1.5t-4.5 4.5t-1.5 7v58q0 5 3.5 9t8.5 4h58q6 0 9.5 -4t3.5 -9v-58zM778 53q0 -11 -7.5 -18.5t-18.5 -7.5h-476q-11 0 -18.5 7.5t-7.5 18.5v486q0 10 7.5 17.5t18.5 7.5h476q11 0 18.5 -7.5t7.5 -17.5v-486zM922 57
q0 -5 -3.5 -9t-9.5 -4h-58q-5 0 -9 4t-4 9v58q0 5 4 9t9 4h58q3 0 5.5 -1t4 -3t2.5 -4t1 -5v-58zM922 199q0 -6 -3.5 -9.5t-9.5 -3.5h-58q-3 0 -6 1.5t-5 4.5t-2 7v58q0 5 4 9t9 4h58q4 0 7 -2t4.5 -5t1.5 -6v-58zM922 334q0 -5 -3.5 -9t-9.5 -4h-58q-3 0 -6 2t-5 4.5
t-2 6.5v58q0 5 4 9t9 4h58q6 0 9.5 -4t3.5 -9v-58zM922 476q0 -6 -3.5 -9.5t-9.5 -3.5h-58q-5 0 -9 3.5t-4 9.5v58q0 5 4 9t9 4h58q4 0 7 -2t4.5 -5t1.5 -6v-58zM411 176l238 119l-238 119v-238z" />
    <glyph glyph-name="uniE627" unicode="&#xe627;" 
d="M512 660q101 0 186.5 -50t135.5 -135.5t50 -186.5t-50 -186.5t-135.5 -135.5t-186.5 -50t-187 50t-135.5 135.5t-49.5 186.5t49.5 186.5t135.5 135.5t187 50zM903 66q54 94 59 202v6h-55q-2 -64 -24 -124q-12 -31 -27 -57zM962 285v3q0 54 -12.5 105.5t-36.5 99.5
l-49 -25q22 -42 32.5 -87t10.5 -93v-2h55v-1zM883 543q-33 48 -77.5 86t-96.5 64l-24 -49q31 -15 58.5 -35t51.5 -44.5t43 -52.5zM655 715q-69 23 -143 23h-11h-4h-5h-3h-3l-3 -1h-3h-3h-3l-2 -1h-3h-3h-3h-3l-3 -1h-3l-2 -1h-3l-3 -1h-3h-2l-3 -1h-3l-3 -1h-3l-3 -1l10 -54
h1l3 1h2l2 1h3l2 1h2h3l2 1h3h2l3 1h2h3l3 1h2h2l3 1h5h3h2h3h5h2h13h18q9 0 18.5 -1t18.5 -2t18 -3t17.5 -4t17.5 -4.5t18 -5.5zM369 715q-55 -18 -104 -50t-88 -76l41 -37q71 79 169 111zM141 543q-33 -48 -53 -103t-25 -113l55 -5q8 103 68 190zM62 269q5 -118 68 -220
l46 29q-27 43 -42 92.5t-17 100.5zM164 2q76 -92 187 -135l19 52q-98 38 -164 118zM407 -150h1l2 -1h3l3 -1l2 -1h3l3 -1h2l3 -1h3l3 -1h3l2 -1h3l3 -1h3l3 -1h2h3h3l3 -1h3l2 -1h3h3h3l3 -1h3h3h3h2h3h9l3 -1h12l3 1h8h3h3h3h3h3l3 1h2h3h3l3 1h2l3 1h3h3l3 1h3h3l2 1h3
l3 1h3l3 1h2l3 1h3l3 1h2l3 1l2 1h3l3 1l3 1h3l2 1l3 1l2 1h3l3 1h1l-15 53h-1l-2 -1l-2 -1h-3l-3 -1l-2 -1h-2l-2 -1l-3 -1h-2l-2 -1h-3l-2 -1h-3l-2 -1h-3l-4 -1h-3l-2 -1h-3h-2l-2 -1h-3l-2 -1h-3h-3h-2l-3 -1h-2h-3h-2l-3 -1h-2h-2h-3h-3h-2h-5l-3 -1h-20l-3 1h-5h-2h-3
h-2h-3h-2l-3 1h-3h-2h-2l-3 1h-3h-2h-3l-2 1h-3l-2 1h-2h-3l-2 1h-3l-4 1h-3l-2 1l-3 1h-2h-3l-2 1h-2l-3 1h-1zM691 -125q53 23 99.5 59t81.5 83l-44 33q-31 -41 -71.5 -73t-87.5 -52zM660 397q1 14 1 23q0 54 -28 85t-85 38v40h-57v-40q-62 -7 -93 -38t-31 -87
q0 -37 14 -68q14 -29 35 -46q10 -8 29 -21t47 -31q34 -21 40 -39q1 -4 2 -10t2 -13.5t1.5 -16.5t0.5 -19q0 -8 -1.5 -14t-4.5 -10.5t-8 -6.5t-11 -2q-14 0 -18 12q-4 11 -4 61v30h-123v-24q0 -82 37 -115q36 -33 86 -38v-47h57v46q63 9 95 46q31 38 31 103q0 21 -3 38t-9 31
q-12 27 -28 42t-64 44q-28 16 -44.5 27.5t-21.5 17.5q-12 11 -12 40q0 9 1.5 15.5t4.5 10.5q5 9 17 9q13 0 18 -10q4 -11 4 -43v-20h123z" />
    <glyph glyph-name="uniE628" unicode="&#xe628;" 
d="M892 754h-760q-30 0 -52 -22t-22 -52v-760q0 -30 22 -52t52 -22h760q15 0 28.5 6t23.5 16t16 23.5t6 28.5v760q0 20 -10 37t-27 27t-37 10zM889 -77h-755v755h756zM282 4q-19 11 -19 33v528q0 22 19 33t39 0l19 -11v-88v-395l342 197l-278 161v88l373 -216q6 -3 10.5 -8
t6.5 -11.5t2 -13.5q0 -22 -19 -33l-457 -264q-1 -1 -3 -2h-4l-4 -2h-4q-2 -1 -4 -1q-10 0 -19 5z" />
    <glyph glyph-name="uniE629" unicode="&#xe629;" 
d="M512 716q-172 0 -294 -122t-122 -294t122 -294t294 -122t294 122t122 294t-122 294t-294 122zM544 16v-43q0 -7 -4.5 -11.5t-11.5 -4.5h-32q-7 0 -11.5 4.5t-4.5 11.5v44q-135 20 -135 173v2v1q0 15 11 26t26.5 11t26.5 -11t11 -26v-3v-1q1 -117 92 -117q86 0 89 97
q0 64 -109 104q-138 52 -138 161q7 130 126 152v41q0 7 4.5 11.5t11.5 4.5h32q7 0 11.5 -4.5t4.5 -11.5v-41q116 -21 123 -161v-1q0 -10 -5 -18.5t-13.5 -13.5t-19 -5t-19 5t-13.5 13.5t-5 18.5v4q-6 95 -83 98q-75 -6 -78 -86q0 -20 11.5 -37.5t34 -32.5t55.5 -27
q144 -52 147 -171q-8 -138 -135 -156zM512 812q-139 0 -257 -68.5t-186.5 -186.5t-68.5 -257t68.5 -257t186.5 -186.5t257 -68.5t257 68.5t186.5 186.5t68.5 257t-68.5 257t-186.5 186.5t-257 68.5zM512 -164q-192 0 -328 136t-136 328t136 328t328 136t328 -136t136 -328
t-136 -328t-328 -136z" />
    <glyph glyph-name="uniE62A" unicode="&#xe62a;" 
d="M708 43q13 -35 37 -64q22 -27 57 -59t59 -50l24 -18h-727q93 69 144 131q10 13 17.5 25.5t12.5 24.5q-58 32 -101 82.5t-67.5 115.5t-24.5 136q0 103 50 191t136 139t187 51q51 0 99 -13.5t89 -38.5t75.5 -60t58.5 -77t37.5 -91t13.5 -101q0 -101 -48 -187t-129 -137z
M512 615q-100 0 -171 -73t-71 -175.5t71 -175t171 -72.5t171 72.5t71 175t-71 175.5t-171 73zM512 233q-27 0 -51 10.5t-41.5 28.5t-28 43t-10.5 52q0 55 38.5 94t92.5 39q21 0 41 -6.5t36 -19t28 -29t19 -37t7 -41.5q0 -56 -38.5 -95t-92.5 -39z" />
    <glyph glyph-name="uniE62B" unicode="&#xe62b;" 
d="M971 706q0 17 -11 28t-28 11h-841q-16 0 -27 -11t-11 -28v-654q0 -16 16.5 -32.5t32.5 -16.5h820q16 0 32.5 16.5t16.5 32.5v654zM897 77h-770v594h770v-594zM301 -145h471v74h-471v-74zM376 523v-322l322 161z" />
    <glyph glyph-name="uniE62C" unicode="&#xe62c;" 
d="M413 163l223 112q8 4 12 11t4 14t-4 14t-12 11l-223 112q-10 4 -19 2t-15.5 -9.5t-6.5 -17.5v-224q0 -16 13.5 -24t27.5 -1zM876 636h-728q-35 0 -59.5 -25t-24.5 -60v-502q0 -35 24.5 -60t59.5 -25h728q35 0 59.5 25t24.5 60v502q0 18 -6.5 33.5t-18 26.5t-27 18
t-32.5 7zM232 48q0 -5 -2 -10.5t-6 -9t-9 -6t-11 -2.5h-55q-12 0 -20.5 8t-8.5 20v56q0 12 8 20t21 8h55q12 0 20 -8t8 -20v-56zM232 272q0 -12 -8 -20t-20 -8h-55q-12 0 -20.5 8t-8.5 20v56q0 12 8 20t21 8h55q12 0 20 -8t8 -20v-56zM232 496q0 -6 -2 -11t-6 -9t-9 -6
t-11 -2h-55q-12 0 -20.5 8t-8.5 20v56q0 11 8 19.5t21 8.5h55q12 0 20 -8t8 -20v-56zM736 20h-448v560h448v-560zM904 48q0 -11 -8 -19.5t-21 -8.5h-55q-6 0 -11 2t-9 6t-6 9t-2 11v56q0 12 8 20t20 8h56q11 0 19.5 -8t8.5 -20v-56zM904 272q0 -12 -8 -20t-21 -8h-55
q-12 0 -20 8t-8 20v56q0 12 8 20t20 8h56q5 0 10.5 -2t9 -6t6 -9t2.5 -11v-56zM904 496q0 -12 -8 -20t-21 -8h-55q-12 0 -20 8t-8 20v56q0 11 8 19.5t20 8.5h56q5 0 10.5 -2t9 -6t6 -9t2.5 -11v-56z" />
    <glyph glyph-name="uniE62D" unicode="&#xe62d;" 
d="M524 131h-242q-6 0 -11 -2t-8.5 -5.5t-5.5 -8.5t-2 -11v-32q0 -4 1 -8.5t3.5 -7.5t6 -5.5t7.5 -4t9 -1.5h242q11 0 19 8t8 19v32q0 11 -8 19t-19 8zM742 342h-460q-12 0 -19.5 -8t-7.5 -19v-32q0 -3 0.5 -6t2 -6t3 -5t4 -4t5 -3.5t6 -2t6.5 -0.5h460q5 0 9 1.5t7.5 4
t6 5.5t3.5 7t1 9v32q0 11 -7.5 19t-19.5 8zM742 557h-460q-12 0 -19.5 -7.5t-7.5 -19.5v-32q0 -7 3.5 -13t9.5 -10t14 -4h460q12 0 19.5 8t7.5 19v32q0 12 -7.5 19.5t-19.5 7.5zM927 812h-830q-23 0 -38.5 -16t-15.5 -38v-916q0 -22 15.5 -38t38.5 -16h561q26 0 54 27
l242 243q21 20 27 53v647q0 22 -15.5 38t-38.5 16zM895 133l-27 -2l-4 -5q-3 1 -5.5 2t-5.5 2h-6q-3 1 -5 1h-150q-32 0 -43 -11.5t-11 -42.5v-149q0 -11 5 -22l-5 -5l-1 -27h-483q-11 0 -19 8t-8 19v800q0 11 8 19t19 8h715q11 0 18.5 -8t7.5 -19v-568z" />
    <glyph glyph-name="uniE62E" unicode="&#xe62e;" 
d="M714 763h-555q-33 0 -56 -23.5t-23 -55.5v-735q0 -33 23 -56t56 -23h735q13 0 25 4t21.5 11t17 17t11.5 22t4 25v555zM928 485v-2h-176q-8 0 -15.5 2t-13.5 5.5t-11 9t-9 11.5t-6 13.5t-2 14.5v178zM894 -85h-735q-9 0 -17 4.5t-12.5 12t-4.5 17.5v735q0 14 10 24t24 10
h491v-179q0 -27 13.5 -50.5t37 -37t51.5 -13.5h176v-489q0 -14 -10 -24t-24 -10zM665 352l-189 110q-18 10 -36 10q-14 0 -25 -6t-19 -20.5t-8 -34.5v-219q0 -30 15.5 -45.5t36.5 -15.5q4 0 8.5 0.5t9 2t9 3.5t9.5 4l189 110q16 9 25 22.5t9 27.5q0 10 -4 19.5t-11.5 17.5
t-18.5 14zM646 283l-189 -109q-5 -3 -9.5 -4t-7.5 -1q-8 0 -11 7t-3 16v219q0 23 14 23q8 0 17 -5l189 -110q5 -2 8.5 -5t5.5 -6.5t2 -6.5q0 -1 -1 -3l-2 -4q-1 -2 -3 -3.5t-4.5 -3.5t-5.5 -4zM160 664h75v-74h-75v74zM160 513h75v-75h-75v75zM160 361h75v-74h-75v74z
M160 210h75v-74h-75v74zM160 59h75v-75h-75v75zM802 361h74v-74h-74v74zM802 210h74v-74h-74v74zM802 59h74v-75h-74v75z" />
    <glyph glyph-name="uniE62F" unicode="&#xe62f;" 
d="M928 388q19 13 24 25.5t5 32.5v145q0 17 -6.5 33t-18 27t-27 18t-32.5 7h-723q-35 0 -60 -25t-25 -60v-145q0 -21 6 -34.5t26 -24.5q65 -31 65 -85q0 -12 -2 -22t-5.5 -18t-8.5 -14.5t-10 -11t-11.5 -8.5t-12.5 -6.5t-13 -4.5l-2 -1q-19 -12 -25.5 -28.5t-6.5 -30.5v-144
q0 -35 25 -60t60 -25h723q35 0 59.5 25t24.5 60v144q0 23 -6.5 34.5t-23.5 24.5q-37 19 -51.5 37.5t-14.5 48t14 47.5t53 39zM668 314q0 -5 -2 -9.5t-5 -7.5t-7.5 -5t-9.5 -2h-96v-24h96q10 0 17 -7t7 -17v-24q0 -11 -7 -18t-17 -7h-96v-72q0 -10 -7 -17t-17 -7h-25
q-10 0 -17 7t-7 17v72h-96q-4 0 -7.5 1.5t-6.5 3.5t-5.5 5t-3.5 7t-1 8v24q0 10 7 17t17 7h96v24h-96q-10 0 -17 7t-7 17v24q0 10 7 17t17 7h63l-80 86q-6 7 -6 17t6 16l15 17q7 7 17 7t17 -7l100 -108l101 108q3 4 7.5 5.5t9 1.5t9 -1.5t7.5 -5.5l16 -17q6 -7 6 -16.5
t-6 -16.5l-80 -86h63q10 0 17 -7t7 -17v-24z" />
    <glyph glyph-name="uniE630" unicode="&#xe630;" horiz-adv-x="1276" 
d="M795 798q137 -76 219 -212t82 -298t-82 -298t-219 -212q99 6 188 48.5t153 110t101.5 159.5t37.5 192q0 67 -17 131t-47.5 118.5t-74.5 101.5t-97 80.5t-115.5 54t-128.5 24.5zM410 458q-13 -13 -13 -30q0 -6 2 -12t5 -10.5t8 -8.5q16 -11 40 -17l5 -1v98q-7 -1 -19 -4
q-15 -3 -28 -15zM594 233q-14 9 -28 12l-8 1v-104h9q6 0 23 6q5 2 10 4.5t8.5 6t5.5 6.5q7 11 7 27q-1 7 -2.5 13t-4.5 10.5t-8 9t-12 8.5zM512 800q-139 0 -257 -68.5t-186.5 -186.5t-68.5 -257t68.5 -257t186.5 -186.5t257 -68.5t257 68.5t186.5 186.5t68.5 257t-68.5 257
t-186.5 186.5t-257 68.5zM749 187q-1 -21 -6.5 -40t-16.5 -35q-22 -34 -55 -52q-34 -19 -62 -25q-13 -3 -24.5 -4t-20.5 -1h-6v-49l-100 -24l-1 76q-2 1 -6 1.5t-13 1.5q-15 2 -37 9q-21 7 -49 24t-49.5 47t-27.5 66l-6 36h134q1 -13 4 -26q1 -4 3 -8t4.5 -8t6.5 -8
q12 -12 30 -18l6 -2v119q-9 1 -13 2l-14 3l-50 9q-44 10 -67.5 28t-33.5 36q-3 6 -5.5 12.5t-4 13t-2.5 12.5q-2 12 -2 33v6v6v6v8q2 39 29 71t61 48q11 5 23 9t24 7t25 5l24 4l6 1v75h101v-77q3 -1 15 -2t40 -9t51 -22.5t41 -38t22 -44.5l10 -41h-137q-1 9 -3 17q-1 4 -4 8
t-8 8q-10 8 -19 11l-8 2v-114h1q12 -2 23 -4q18 -2 54 -14q35 -11 61 -32t40 -51q12 -28 12 -65v-7v0z" />
    <glyph glyph-name="uniE631" unicode="&#xe631;" 
d="M512 749q-91 0 -174.5 -35.5t-143.5 -95.5t-95.5 -143t-35.5 -174t35.5 -174t95.5 -143t143.5 -95.5t174.5 -35.5t174.5 35.5t143.5 95.5t95.5 143t35.5 174q0 73 -22.5 141.5t-64 123.5t-97 96.5t-124 64t-141.5 22.5zM766 142h-513v64h513v-64zM766 267h-513v64h513
v-64zM766 394h-513v64h513v-64z" />
    <glyph glyph-name="uniE632" unicode="&#xe632;" 
d="M521 330q-12 0 -20 8l-124 129q-8 8 -8 20t8 20q4 3 8 5t8 2.5t8.5 0t8.5 -3t7 -5.5l102 -106l84 104q7 9 18.5 10.5t20.5 -6t10.5 -19t-6.5 -20.5l-103 -129q-8 -10 -21 -10h-1zM677 315h-306q-8 0 -14.5 3.5t-10 10t-3.5 14.5q0 12 8 20t20 8h306q11 0 19.5 -8t8.5 -20
t-8.5 -20t-19.5 -8zM713 211h-377q-10 0 -18 4t-12.5 10.5t-4.5 13.5q0 6 3 11t7.5 9t11 6t13.5 2h377q14 0 24 -8t10 -20t-10 -20t-24 -8zM368 235h306h-306zM521 42q-11 0 -19.5 8.5t-8.5 20.5v272q0 12 8.5 20t20 8t19.5 -8t8 -20v-272q0 -21 -20 -27zM514 -147
q-30 0 -61 4q-88 12 -164.5 56.5t-131.5 115.5q-52 68 -74.5 154t-11.5 175.5t53.5 166.5t108.5 129q51 38 110.5 61t121 28t124.5 -7.5t120 -42.5q36 -18 67 -43q5 -3 7.5 -8t3 -10.5t-1 -11t-4.5 -9.5q-7 -9 -18.5 -10.5t-20.5 5.5q-28 21 -59 38q-100 52 -213.5 43
t-201.5 -78q-39 -30 -68.5 -70t-48 -88t-25.5 -99q-9 -79 10.5 -154.5t65.5 -134.5q48 -62 115 -101t144 -49.5t151 9.5t135 67q83 64 121 160t23.5 199t-78.5 187q-8 9 -6.5 20.5t11 18.5t21 5.5t18.5 -10.5q74 -96 90.5 -214t-27.5 -227.5t-139 -183.5q-118 -91 -267 -91z
" />
    <glyph glyph-name="uniE633" unicode="&#xe633;" 
d="M580 -210q-12 0 -25.5 -1t-25.5 -1t-23.5 0.5t-21 0.5t-16.5 0.5t-11 0.5h-4l-63 7q-181 31 -251 143q-36 60 -36 138q0 45 11.5 89t31 81t44.5 72.5t53 63.5t56 53t53.5 43t45 31t31.5 19l11 7h155q6 -5 17.5 -13t45 -35.5t63.5 -56.5t67 -72.5t64 -86.5t45 -96.5
t18 -104t-18.5 -93.5t-48 -71.5t-65 -51t-71.5 -34.5t-65.5 -19.5t-48.5 -10.5zM440 555v55h155v-55h-155zM592 628h-149l-80 180q47 -37 76 -37q6 0 13.5 2t15 5.5t15 7.5t13.5 8t11 7.5t8 5.5l3 2q5 -4 13.5 -10.5t28.5 -17t32.5 -10.5t32.5 10t33 19l13 10zM471 -51h70
v68h93v55h-93v30h93v55h-66l79 156h-77l-51 -105q-8 -19 -13 -35l-2 6q-1 3 -2 6.5t-2.5 7t-3.5 7.5t-3 8l-50 105h-77l78 -156h-65v-55h92v-30h-92v-55h92v-68z" />
    <glyph glyph-name="uniE634" unicode="&#xe634;" 
d="M897 -71h-75h-175h-200h-152h-38l25 -25v75v175v201v152v37l-1 -1l-1 -1l-1 -1l-1 -1l-1 -1l-1 -1l-1 -1l-1 -1l-1 -1l-1 -1l-1 -1l-1 -1l-1 -1l-1 -1l-1 -1l-1 -1l-1 -1l-1 -1l-1 -1l-1 -1l-1 -1l-1 -1l-1 -1l-2 -2h75h175h201h151h38l-25 25v-75v-175v-200v-152v-38
q0 -10 7.5 -17t17.5 -7t17 7t7 17v75v175v201v152v37q0 10 -7 17.5t-17 7.5h-75h-175h-200h-152h-38q-3 0 -6 -1t-6 -2.5t-5 -4t-3.5 -5t-2.5 -6t-1 -6.5v-75v-175v-200v-152v-38q0 -10 7 -17t17 -7h75h175h201h151h38q10 0 17 7t7 17q0 19 -18 24q-3 1 -6 1zM193 57h-64
l25 -25v75v175v201v151v38l-1 -1l-1 -1l-1 -1l-1 -1l-1 -1l-1 -1l-1 -1l-1 -1l-1 -1l-1 -1l-1 -1l-1 -1l-1 -1l-1 -1l-1 -1l-1 -1l-1 -1l-1 -1l-1 -1l-1 -1l-1 -1l-1 -1l-1 -1l-2 -2h75h175h201h151h38l-25 25v-64q0 -10 7.5 -17.5t17.5 -7.5t17.5 7.5t7.5 17.5v64
q0 10 -7.5 17t-17.5 7h-75h-175h-200h-152h-38q-10 0 -17 -7t-7 -17v-75v-175v-200v-152v-38q0 -10 7 -17t17 -7h64q4 0 8 1t7 3.5t5 5.5t3.5 6.5t1.5 7.5q0 7 -3.5 12.5t-9 9t-12.5 3.5zM385 360h111h195h78q10 0 17.5 7t7.5 17t-7.5 17.5t-17.5 7.5h-111h-195h-78
q-10 0 -17 -7.5t-7 -17.5q0 -7 3 -12.5t9 -8.5t12 -3zM385 200h111h195h78q3 0 5.5 0.5t5 1.5t4.5 3l4 4q2 2 3 5l2 4q1 3 1 6q0 4 -1.5 8t-4 7t-5.5 5t-6.5 3.5t-7.5 1.5h-111h-195h-78q-10 0 -17 -7.5t-7 -17.5q0 -3 0.5 -6t2.5 -6t4 -5t5 -4t6 -2.5t6 -0.5zM385 40h111
h195h78q10 0 17.5 7t7.5 17t-7.5 17.5t-17.5 7.5h-111h-195h-78q-10 0 -17 -7.5t-7 -17.5t7 -17t17 -7z" />
    <glyph glyph-name="uniE635" unicode="&#xe635;" horiz-adv-x="1025" 
d="M512 812q-104 0 -199 -40.5t-163.5 -109t-109 -163.5t-40.5 -199t40.5 -199t109 -163.5t163.5 -109t199 -40.5t199 40.5t163.5 109t109 163.5t40.5 199t-40.5 199t-109 163.5t-163.5 109t-199 40.5zM512 -148q-91 0 -174 35.5t-143 95.5t-95.5 143t-35.5 174t35.5 174
t95.5 143t143 95.5t174 35.5t174 -35.5t143 -95.5t95.5 -143t35.5 -174t-35.5 -174t-95.5 -143t-143 -95.5t-174 -35.5zM734 174zM752 211q14 0 24.5 -8t10.5 -20q0 -11 -10.5 -19t-24.5 -8h-193v-158q0 -12 -10 -21.5t-25 -9.5q-14 0 -25 10t-11 21v158h-186
q-14 0 -23.5 8.5t-9.5 19.5q0 6 2.5 11t7 8.5t11 5.5t12.5 2h186v82h-186q-7 0 -13 2t-10.5 5.5t-7 9t-2.5 11.5q0 5 1.5 8.5t4.5 7t7.5 5.5t9.5 3.5t10 1.5h160l-129 173q-2 8 -2 15.5t4.5 15.5t11.5 11q13 6 25 2.5t19 -12.5l134 -181l137 167q22 33 50 16q5 -3 8 -7t4 -8
t1.5 -8t-0.5 -7.5t-1.5 -6.5t-1.5 -4l-1 -2l-134 -164h157q14 0 24.5 -8t10.5 -19.5t-10 -19t-25 -7.5h-185v-82h193zM752 211z" />
    <glyph glyph-name="uniE636" unicode="&#xe636;" 
d="M1021 731h-102v-101h102v-41q-12 0 -23.5 -2.5t-21.5 -7.5t-18.5 -12t-15.5 -16t-12 -19t-8 -21t-3 -23v-406q0 -42 30 -72t72 -30v-40h-102v-102h102v-41h-1015v41h101v102h-101v40h20q42 0 71.5 30t29.5 72v426q0 21 -7.5 36.5t-21.5 25.5t-32.5 14.5t-39.5 4.5h-20v41
h101v101h-101v41h1015v-41zM676 -162h162v102h-162v-102zM432 -162h163v102h-163v-102zM188 -162h163v102h-163v-102zM351 731h-163v-101h163v101zM595 731h-163v-101h163v101zM838 731h-162v-101h162v101zM858 488q0 42 -29.5 71.5t-71.5 29.5h-467q-17 0 -32 -3t-28 -9.5
t-22 -15.5t-14.5 -22.5t-5.5 -30.5v-426q0 -42 30 -72t72 -30h467q42 0 71.5 30t29.5 72v406zM527.5 5q-114.5 0 -194.5 77.5t-80 190.5q0 114 80.5 194.5t194.5 80.5q74 0 137.5 -37t100.5 -100t37 -138q0 -113 -80.5 -190.5t-195 -77.5zM474 448v-323l195 163z" />
    <glyph glyph-name="uniE637" unicode="&#xe637;" 
d="M512 300zM62 300.5q0 91.5 36 174.5t96 143t143 96t174.5 36t175 -36t143.5 -96t95.5 -143t35.5 -174.5t-35.5 -175t-95.5 -143.5t-143.5 -95.5t-175 -35.5t-174.5 35.5t-143 95.5t-96 143.5t-36 175zM300 538l49 -116h361l41 116q0 2 -1.5 5t-8 9t-15 9.5t-24.5 2.5
t-36 -8q-7 -2 -21 -7.5t-19 -7t-15.5 -5t-14.5 -3.5t-11.5 -0.5t-11.5 2t-10.5 6t-11.5 9.5t-11 14q-14 19 -21.5 28t-20 19t-22 11t-23 -5t-27.5 -22q-16 -19 -35 -24.5t-32 -1.5t-26.5 6t-19.5 -1q-9 -5 -12.5 -14.5t-2.5 -15.5zM809 190l-102 189h-357l-101 -189
q-2 -4 -3 -12.5t-0.5 -32.5t6.5 -45t24.5 -47t48 -44t82 -29t121.5 -8q70 -3 122.5 8t82 30t48.5 42.5t24.5 48t6.5 44.5t-1 33t-2 12zM642 331l-79 -142h63v-23h-73v-38h73v-23h-73v-70h-35v69h-74v24h74v37h-74v24h62l-77 141h39l68 -132l69 132h37v1z" />
    <glyph glyph-name="uniE638" unicode="&#xe638;" horiz-adv-x="1481" 
d="M0 525q0 44 15 64q3 4 9 7.5t14 6t18 3.5t23 1h205v-819h-88q-39 0 -70 1q-46 1 -47 1q-43 -2 -61 14.5t-18 62.5v236q0 18 6 27q2 4 8 7t15 5q6 0 18 5q11 5 22 16q12 11 19 27q8 18 8 42q0 38 -20 59q-10 11 -20.5 17t-21.5 8q-18 3 -26 10.5t-8 25.5v173v0zM133 681
v20v1v2v20q0 16 6.5 31t19 29t26 21t27.5 7h222v-131h-301v0zM1442 325q-13 -3 -18 -14q-3 -5 -4.5 -11t-1.5 -12q0 -7 1.5 -13t4.5 -12q5 -13 18 -18t20 -19q8 -15 8 -32q1 -16 -4 -31q-5 -14 -14 -21q-11 -7 -18 -14t-10.5 -14.5t-3.5 -15.5q0 -25 32 -49q6 -5 12 -18
q6 -14 6 -27t-7 -22q-2 -4 -5 -6t-7.5 -3t-9.5 -1h-87q-10 0 -10 1q-1 1 -0.5 2.5t2.5 3.5q3 4 8 9q4 5 8 12q8 23 0 39q-8 17 -27 28q-3 1 -6 3.5t-5.5 5t-4 5.5t-3.5 6q-2 7 -3.5 14.5t-0.5 14.5q0 4 0.5 7.5t1 6.5t1.5 6l2 6q5 12 14 17q5 1 8.5 3.5t6.5 6t5 8.5
q6 12 6 27q0 8 -1 14.5t-3 13.5q-2 3 -3.5 5.5t-3 4.5t-4 3.5t-4.5 3.5q-7 3 -12 8t-8 11q-7 13 -7 30q0 8 1.5 16t4.5 16q7 16 21 25q10 6 16 18q2 4 3.5 8t2.5 8t1 8q1 12 -5 26q-5 12 -20 20q-8 4 -13.5 10t-9.5 14q-7 16 -7 32q0 8 1.5 16t5.5 15q7 15 20 23
q28 15 30 40q1 9 0.5 17t-1.5 15.5t-3 14.5q-5 17 -19 30q-5 4 -11 7t-12.5 4.5t-13.5 1.5h-771v129h904q6 0 10.5 -2t8.5 -6t6.5 -9t4.5 -11q0 -4 0.5 -8t-0.5 -8l-2 -8q-4 -12 -15 -20l-4 -4q-2 -2 -3.5 -4t-3.5 -4t-3.5 -4.5t-2.5 -4.5q-4 -7 -6 -13.5t-2 -14.5
q-1 -3 0 -7v-6q1 -4 2 -7.5t2 -6.5q2 -7 6.5 -12.5t10.5 -8.5q9 -5 15.5 -11.5t11.5 -15.5q9 -17 9 -34q0 -6 -1 -11.5t-3 -10.5t-5 -10q-9 -15 -25 -21q-18 -7 -26 -19q-4 -6 -6 -13t-2.5 -14.5t1 -14.5t5.5 -14q7 -14 23 -24q8 -5 14 -11.5t10 -14.5q6 -16 6 -33
q0 -5 -1 -10t-3 -10t-4.5 -10t-5.5 -8t-7 -5t-9 -3v0zM1233 350l-6 -2q-3 -1 -5 -2l-6 -4l-4 -2q-3 -2 -5 -4t-3 -5q-5 -7 -8 -14t-4 -15q0 -4 1 -9t3 -10l4 -10q10 -15 27 -21q16 -7 24 -20q3 -4 5 -9t3 -9.5t1 -9.5q0 -7 -1 -14t-5 -14q-6 -13 -19 -19q-13 -7 -22 -14.5
t-14 -16t-5 -17.5q-2 -27 30 -44q7 -4 13 -9t10 -12q2 -3 4 -6.5t3 -7.5t2 -7.5t1 -7.5q1 -16 -6 -28q-6 -12 -21 -17q-6 -2 -11.5 -4.5t-10 -6t-8.5 -7.5q-10 -13 -11 -28t8 -30q9 -14 28 -24q13 -7 19 -21q3 -7 4 -13.5t0 -13.5q-2 -13 -9 -23q-7 -11 -20 -11h-840v819
h850q2 0 4.5 -0.5t4.5 -1t4 -2t4 -3.5l3 -3l4 -8q2 -4 3 -8t1 -8.5t-0.5 -8.5t-2 -8.5t-3.5 -8.5q-6 -14 -21 -18q-5 -2 -9 -4.5t-7.5 -5.5t-6.5 -7q-9 -11 -11 -25q-1 -14 7 -27q4 -7 11 -12t16 -8q15 -7 24 -19q4 -7 6.5 -14t2.5 -13q1 -14 -6 -27q-4 -6 -9.5 -10.5
t-14.5 -6.5v0zM846 240l-17 2q-8 2 -4 10q12 17 16 23q15 21 30 41q4 5 15 20t17 22q0 1 1 2q14 20 16 23q8 13 -9 31q-3 3 -13 10q-9 6 -18 10q-13 4 -18 1q-6 -4 -14 -15q-11 -16 -16 -23t-27 -40q-12 -18 -27 -39q-6 -9 -9.5 -14t-3.5 -6q-2 -4 -5 -5t-8 0q-8 1 -11 8
q-4 5 -15 19q-14 17 -27 35q-9 12 -28 37q-13 16 -19 24q-5 9 -10 14t-10 6t-10 -2q-11 -7 -21 -14q-4 -4 -8 -7l-8 -6q-16 -11 -5 -29q9 -11 17 -21.5t16 -20.5t15 -19q24 -30 34 -44q15 -20 19 -25q1 -2 0.5 -3.5t-2 -2t-5.5 -0.5h-19q-4 0 -10 -0.5t-13 -0.5h-14
q-8 0 -14 1q-5 0 -8.5 -1t-6.5 -2t-6 -4q-4 -3 -5 -7t0 -9q2 -7 2 -20v-20q0 -4 1 -6t4 -2q4 -1 11 -1h93q19 0 19 -8v-31q0 -9 -3 -9h-8h-16h-32h-32h-20q-9 2 -12 -4q-3 -7 -5 -15q-2 -9 0 -16q1 -3 1 -6v-6q0 -22 21 -22h97h4q2 0 3.5 -0.5t1.5 -1.5q2 -3 2 -11
q2 -9 1 -29q0 -4 -0.5 -9.5t-0.5 -8.5v-5v-5q0 -18 21 -18h51q13 0 13 8v12v54q0 8 3.5 12t10.5 4h15q14 0 25 1q19 1 26 1h21q23 0 23 16v36q0 15 -16 15h-94q-16 -3 -16 7v5q0 3 -0.5 6.5t-0.5 7.5v7q0 3 1.5 5.5t3.5 3.5q3 2 6 3t6 1h95q8 0 12 3t4 8v40q0 6 -5 13
q-6 6 -14 6h-55v0zM846 240z" />
    <glyph glyph-name="uniE639" unicode="&#xe639;" 
d="M700 628q11 -6 21 -26t13.5 -45t0.5 -49t-18.5 -40.5t-41.5 -18.5h-12q-40 0 -67 16.5t-40 42.5t-18.5 58t-4 63t5.5 58.5t7 43t4 16.5q-56 -17 -97 -45.5t-62 -60.5t-33.5 -67.5t-14.5 -67.5t-1 -57.5t4 -40.5l4 -15q-1 1 -4 4.5t-11 14.5t-14 22.5t-15 29.5t-12 36.5
t-6 42.5t3 47q-32 -20 -53 -55t-28 -70.5t-9.5 -67.5t0.5 -52l2 -21q-1 1 -2.5 1.5t-6.5 3.5t-9 7t-10.5 10t-10.5 13t-9 17t-6.5 21t-3 25.5t2.5 30.5q-46 -85 -46 -189q0 -112 54.5 -206.5t149.5 -149.5t206 -55t206 55t149.5 149.5t54.5 206.5q0 58 -16 114t-45.5 102.5
t-70.5 84.5t-90 63zM389 46h-45v90h-66v-90h-45v202h45v-68h66v68h45v-202zM595 68.5q-25 -26.5 -67 -26.5q-43 0 -68.5 26.5t-25.5 72.5q0 29 9 49q7 14 18 26t25 17q18 8 41 8q42 0 67.5 -26.5t25.5 -73.5q0 -46 -25 -72.5zM789 203h-57l1 -157h-39l-1 157h-56v45h152v-45
zM527.5 208q-23.5 0 -38.5 -16.5t-15 -49.5t15 -49.5t38.5 -16.5t38 16.5t14.5 49.5t-14.5 49.5t-38 16.5z" />
    <glyph glyph-name="uniE63A" unicode="&#xe63a;" 
d="M852 -200h-603v829h264v-344l133 101l131 -101v344h150v-754q0 -15 -6 -29t-16 -24t-24 -16t-29 -6v0zM646 436l-95 -76v306h188v-306zM136 704v-38q0 -15 11 -26t27 -11h38v-829h-38q-6 0 -12 1t-12 3t-11 4.5t-9.5 6t-9 7.5t-7.5 8.5t-6 10t-5 11t-2.5 11.5t-0.5 12
v829q0 21 10 38t27 27.5t38 10.5h678q20 0 37.5 -10.5t27.5 -27.5h-743q-16 0 -27 -11t-11 -27v0z" />
    <glyph glyph-name="uniE63B" unicode="&#xe63b;" 
d="M811 256h-194v-57h194v57zM811 362h-194v-57h194v57zM811 468h-194v-57h194v57zM348 160q63 0 107.5 44t44.5 106h-152v-150zM306 201v150h151q0 62 -44 106t-107 44t-107 -44t-44 -106q0 -41 20 -75.5t55 -54.5t76 -20zM899 71h-784v505h784v-505zM533 725v84h-59v-84
h-468v-149h51v-563h358l-218 -177l37 -45l273 222h2l273 -222l37 45l-218 177h357v563h62v149h-487z" />
    <glyph glyph-name="uniE63C" unicode="&#xe63c;" 
d="M298 -157h-195v711h195v-711zM265 517h-128v-65h128v65zM359 709h193v-866h-193v866zM524 676h-132v-68h132v68zM972 -99l-186 -60l-220 676l186 60zM731 532l-121 -39l20 -63l121 40z" />
    <glyph glyph-name="uniE63D" unicode="&#xe63d;" 
d="M512 784q-99 0 -188.5 -38t-154.5 -103t-103 -154.5t-38 -188.5q0 -79 24.5 -153t69 -133.5t104 -104t133.5 -69t153 -24.5q99 0 188.5 38t154.5 103t103 154.5t38 188.5t-38 188.5t-103 154.5t-154.5 103t-188.5 38zM933 316h-187q-3 103 -36 196q61 25 117 68
q101 -113 106 -264zM495 -121q-79 66 -128 165q61 19 129 21v-186h-1zM529 721q45 -37 80 -85.5t60 -105.5q-23 -8 -46 -13.5t-47 -8.5t-48 -4v217h1zM581 716q130 -22 224 -113q-25 -19 -51.5 -35t-55.5 -28q-43 102 -117 176zM496 721v-217q-73 2 -141 26q50 116 140 191
h1v0zM326 540q-14 6 -28 13t-27.5 15t-26.5 16.5t-25 18.5q94 91 224 113q-74 -74 -117 -176zM343 501q12 -4 24.5 -8t25 -7t25.5 -5l26 -4q13 -2 26 -3t26 -1v-157h-186q2 98 33 185zM496 284v-188q-74 -2 -141 -24q-43 100 -45 212h186zM443 -116q-58 10 -110 34.5
t-95 61.5q48 33 100 53q41 -85 105 -149zM528 -121v186q68 -2 129 -21q-49 -99 -128 -165h-1v0zM686 33q52 -20 100 -53q-89 -76 -205 -96q32 32 58.5 69.5t46.5 79.5zM669 72q-67 22 -141 24v188h186q-2 -112 -45 -212zM528 316v157q79 2 153 28q31 -87 33 -185h-186z
M197 580q56 -43 117 -68q-33 -93 -36 -196h-187q6 151 106 264zM91 284h187q3 -117 47 -223q-57 -22 -110 -60q-56 56 -88.5 129t-35.5 154zM809 1q-53 38 -110 60q44 106 47 223h187q-3 -81 -35.5 -154t-88.5 -129z" />
    <glyph glyph-name="uniE63E" unicode="&#xe63e;" horiz-adv-x="1044" 
d="M0 737zM360 666q25 0 43 -17.5t18 -42.5v-240q0 -25 -18 -42.5t-43 -17.5h-240q-25 0 -42 17.5t-18 42.5v240q0 25 17.5 42.5t42.5 17.5h240zM360 186q25 0 43 -17.5t18 -42.5v-241q0 -25 -18 -42t-43 -17h-240q-25 0 -42 17t-18 42v241q0 25 17.5 42.5t42.5 17.5h240z
M841 186q25 0 42.5 -17.5t17.5 -42.5v-241q0 -25 -17.5 -42t-42.5 -17h-240q-25 0 -42.5 17t-17.5 42v241q0 25 17.5 42.5t42.5 17.5h240zM975 560q19 -19 19 -45t-19 -44l-179 -179q-19 -19 -44.5 -19t-44.5 19l-179 179q-18 18 -18 44t18 45l179 179q19 18 44.5 18
t44.5 -18z" />
    <glyph glyph-name="uniE63F" unicode="&#xe63f;" 
d="M854 -149v3q-1 -1 -3 -2t-3 -1h6zM424 -85h-271v768h640v-251q16 -6 31 -14t30 -18v347h-768v-896h409q-14 9 -27 19.5t-25 22.5l-7 7q-3 3 -6 7.5t-6 7.5zM216 537h512v-64h-512v64zM216 332v-64h162q16 34 40 64h-202zM345 127h-129v-64h135q-6 31 -6 64zM869 317
q-53 53 -124.5 71t-142.5 -1.5t-123.5 -73t-70.5 -125t2 -142.5t73 -123q82 -80 196.5 -79t194.5 83t78.5 196t-83.5 194zM874 61l-177 -2h-73l-1 71l-1 180q0 8 5 13.5t13 5.5l37 1q7 0 12.5 -5.5t5.5 -13.5l2 -180l176 1q5 0 9.5 -2.5t7 -6.5t2.5 -9v-35q0 -3 -1 -5.5
t-2.5 -5t-4 -4t-5 -2.5t-5.5 -1z" />
    <glyph glyph-name="uniE640" unicode="&#xe640;" 
d="M924 269h-571q-9 0 -16 4.5t-11.5 12t-4.5 16.5q0 14 9.5 23.5t22.5 9.5h571q13 0 22.5 -9.5t9.5 -23.5q0 -9 -4.5 -16.5t-11.5 -12t-16 -4.5zM924 530h-571q-7 0 -12.5 2.5t-10 7t-7 10.5t-2.5 13q0 13 9.5 22.5t22.5 9.5h571q13 0 22.5 -9.5t9.5 -22.5q0 -5 -1 -9
t-3 -7.5t-5 -6.5t-6.5 -5.5t-8 -3.5t-8.5 -1zM131 -24q-26 0 -45 19t-19 46t19 46.5t45 19.5t44.5 -19.5t18.5 -46.5q0 -13 -5 -25t-13.5 -20.5t-20 -14t-24.5 -5.5zM131 237q-17 0 -32 8.5t-23.5 23.5t-8.5 33t8.5 33t23.5 23.5t32 8.5q26 0 44.5 -19t18.5 -46t-18.5 -46
t-44.5 -19zM131 498q-13 0 -25 5t-20.5 13.5t-13.5 20.5t-5 25.5t5 25.5t13.5 21t20.5 14t25 5q26 0 44.5 -19t18.5 -46t-18.5 -46t-44.5 -19zM353 74h571q13 0 22.5 -9.5t9.5 -23t-9.5 -23t-22.5 -9.5h-571q-13 0 -22.5 9.5t-9.5 22.5q0 4 1 8t2.5 7t3.5 6t5 5t6 3.5
t6.5 2.5t7.5 1z" />
    <glyph glyph-name="uniE641" unicode="&#xe641;" 
d="M623 108q-12 -17 -23 -28q0 -1 0.5 -1.5t0.5 -1.5v-89q0 -12 -6 -22.5t-16.5 -16.5t-22.5 -6h-89q-9 0 -17.5 3.5t-14.5 9.5t-9.5 14.5t-3.5 17.5v89q0 1 0.5 1.5t0.5 1.5q-6 6 -11.5 13t-11.5 15q-51 29 -81.5 80.5t-30.5 112.5q0 92 65.5 157.5t157.5 65.5
q61 0 112.5 -30t81.5 -81.5t30 -112t-30.5 -112t-81.5 -80.5zM489 -102h45q9 0 15.5 -6.5t6.5 -15.5t-6.5 -15.5t-15.5 -6.5h-45q-9 0 -15.5 6.5t-6.5 15.5q0 5 1.5 9t4.5 7t7.5 4.5t8.5 1.5zM914 256h-90q-23 0 -33.5 11t-10.5 34q0 44 44 44h90q44 0 44 -44.5t-44 -44.5z
M788 504q-5 -6 -11.5 -9.5t-13.5 -5t-14.5 -1.5t-14.5 1.5t-13.5 5t-11.5 9.5q-8 8 -12 18t-4 20.5t4 20.5t12 18l39 39q17 16 40 16t39.5 -16t16.5 -39t-17 -39zM511.5 569q-44.5 0 -44.5 44v90q0 45 44.5 45t44.5 -45v-90q0 -44 -44.5 -44zM235 504l-40 38q-16 16 -16 39
t16.5 39t39.5 16t39 -16l40 -39q16 -16 16 -38.5t-16 -38.5t-39.5 -16t-39.5 16zM243 301q0 -23 -10.5 -34t-33.5 -11h-90q-23 0 -34 11t-11 34q0 44 45 44h90q44 0 44 -44z" />
    <glyph glyph-name="uniE642" unicode="&#xe642;" 
d="M956 453l-55 48q-20 17 -33 2l-307 -336l-71 -85l92 -84l33 41q6 6 14 15.5t13.5 16t8.5 9.5l2 3l2 3l302 336q15 17 -1 31zM455 44q-3 -5 -7 -13t-16 -31t-21.5 -42.5t-18.5 -41t-13 -34.5q-2 -7 -2 -11.5t1 -7t4 -2.5t7 0.5t11 3.5q48 16 146 97zM531 -114h101l37 -2
l65 2q20 0 30.5 13t10.5 35v132v96l-188 -219q-48 -53 -56 -57zM775 474v216q0 21 -10 32t-31 11h-571q-6 0 -11 -1t-9 -2.5t-7.5 -4t-6.5 -6t-5 -7.5t-3 -9.5t-1 -11.5v-331v-20v-43v-33v-337q0 -41 43 -41h148h19h16l84 200l302 336zM499 299h-266q-9 0 -16 4t-11 11
t-4 15.5t4 15.5t11 11.5t16 4.5h266q13 0 22 -9.5t9 -22t-9 -21.5t-22 -9zM663 443h-430q-9 0 -16 4.5t-11 11.5t-4 15q0 13 9 22t22 9h430q12 0 21 -9t9 -22q0 -3 -0.5 -6t-1.5 -6t-3 -5.5t-4 -4.5l-4 -4l-6 -2q-2 -2 -5 -2.5t-6 -0.5zM663 588h-430q-13 0 -22 9t-9 22
q0 8 4 15.5t11 11.5t16 4h430q8 0 15 -4t11 -11.5t4 -15.5q0 -13 -9 -22t-21 -9z" />
    <glyph glyph-name="uniE643" unicode="&#xe643;" 
d="M512 744q-72 0 -140 -22.5t-122.5 -63.5t-95.5 -95.5t-63.5 -122.5t-22.5 -140q0 -90 35 -172.5t94.5 -142t142 -94.5t172.5 -35t172.5 35t142 94.5t94.5 142t35 172.5t-35 172.5t-94.5 142t-142 94.5t-172.5 35zM334 107v79h-30q-18 0 -31.5 14t-13.5 34v235
q0 10 4 18.5t10 15t14 10.5t17 4h335q18 0 31.5 -14t13.5 -34v-235q0 -20 -13.5 -34t-31.5 -14h-195q0 -1 -1 -1l-89 -92q-20 -20 -20 14zM768 157q0 -20 -13 -34t-32 -14h-39v-79q0 -7 -1 -12t-2.5 -8t-6 -1.5t-10.5 7.5l-89 91l-2 2h-150l-8 2q-2 2 2 7q3 4 11.5 14
t17 19.5t11.5 12.5q2 3 5.5 4.5t6.5 1.5h2h182q19 0 33.5 15t14.5 36v219l1 9q3 4 8 -1q3 -4 11.5 -13t16.5 -17.5t15.5 -16.5t8.5 -9q3 -3 4.5 -7t1.5 -7v-6v-215zM768 157z" />
    <glyph glyph-name="uniE644" unicode="&#xe644;" 
d="M803 442l211 211l-172 -12l12 171l-211 -211l-9 -132l-124 -124q-5 0 -10 -1t-9.5 -4t-8.5 -7q-6 -5 -9 -13t-3 -15.5t3 -15t9 -13.5q12 -12 28.5 -12t28.5 12q15 15 12 36l120 121zM687 581l115 115l-8 -103l104 7l-115 -115l-104 -7zM991 454l-37 -34q17 -65 14 -131
q-6 -190 -145 -319.5t-328 -122.5q-93 3 -177 42.5t-143 103t-92.5 149.5t-30 179t42.5 176.5t102.5 142.5t149.5 92.5t179 30.5q43 -2 87 -12l39 36q-61 18 -124 20q-186 7 -331 -110q-138 -110 -177 -280q-10 -47 -12 -95q-3 -102 33.5 -196.5t101.5 -164t156.5 -112.5
t193.5 -46.5t196.5 33t164 101.5t112.5 156.5t47 193.5q3 86 -22 167zM714 383q11 -29 14 -59q8 -90 -50.5 -159.5t-148 -77t-159 50.5t-77 147.5t50.5 159t148 77.5q39 3 78 -8l-4 47q-39 9 -78 5q-108 -9 -178 -92.5t-60.5 -191.5t92.5 -178t191.5 -60.5t178 92.5
t60.5 192q-1 10 -2.5 20t-4 19.5t-5.5 19.5z" />
    <glyph glyph-name="uniE645" unicode="&#xe645;" 
d="M512 -212q-139 0 -257 68.5t-186.5 186.5t-68.5 257t68.5 257t186.5 186.5t257 68.5t257 -68.5t186.5 -186.5t68.5 -257t-68.5 -257t-186.5 -186.5t-257 -68.5zM512 744q-170 0 -296 -113q-121 -109 -144 -270q-4 -31 -4 -61q0 -90 35.5 -172.5t94.5 -141.5t141.5 -94.5
t172.5 -35.5t172.5 35.5t141.5 94.5t94.5 141.5t35.5 172.5t-35.5 172.5t-94.5 141.5t-141.5 94.5t-172.5 35.5zM478 437h68v-410h-68v410zM478 573h68v-68h-68v68z" />
    <glyph glyph-name="uniE646" unicode="&#xe646;" horiz-adv-x="1086" 
d="M894 810zM168 554h204v-204h-204v204zM892 566v246h-892v-943q0 -38 25 -59.5t65 -21.5h899q41 0 68.5 21.5t27.5 59.5v697h-193zM504 605h233v-70h-233v70zM504 361h233v-68h-233v68zM116 605h310v-311h-310v311zM737 -56h-617v67h617v-67zM737 99h-621v61h621v-61z
M1036 -131q0 -9 -3.5 -17t-10 -13.5t-15 -8.5t-18.5 -3h-47q-13 0 -24.5 5t-18.5 15t-7 22v571v-1v88h144v-658z" />
    <glyph glyph-name="uniE648" unicode="&#xe648;" 
d="M381 283l-4 11l-3 -11l-16 -42h39zM808 -68v38l-1 427v5h-590v-41l1 -432l19 1v-1h571v1v2zM369 316h18l41 -110h-18l-10 24h-46l-9 -24h-16zM320 37v41h384v-41h-384zM320 131v41h384v-40zM470 220v41l234 1v-41zM261 460h502v-31h-502v31zM298 519h428v-30h-428v30z
" />
    <glyph glyph-name="uniE649" unicode="&#xe649;" 
d="M504 -212q-258 0 -342 107q-63 81 -28 219q12 50 25 92t30.5 89.5t39 86.5t47.5 74.5t59 61.5t70 41l-148 209l39 6q23 3 33 12q8 8 18.5 13.5t22.5 8.5t25 3q41 0 66 -25q15 -14 42 -14q13 0 24 3.5t19 10.5q25 25 66 25q41 -1 66 -25q5 -4 13 -7.5t19 -4.5l38 -6
l-147 -209q43 -16 81.5 -47.5t70.5 -76.5q86 -122 122 -323q28 -153 -36 -228q-41 -49 -122.5 -72.5t-212.5 -23.5zM504 529q-112 0 -190 -103t-133 -324q-29 -115 19 -177q70 -89 304 -89q233 0 298 79q49 58 26 189q-34 190 -114 303q-86 122 -210 122zM504 622
q36 0 75 -10l88 124q-13 6 -22 15q-12 11 -33 11q-7 0 -13 -1t-11.5 -3.5t-8.5 -6.5q-29 -28 -76 -28q-22 0 -41.5 7.5t-33.5 20.5q-12 11 -33 11q-10 0 -19 -2.5t-14 -8.5q-3 -3 -7 -5l-8 -6l-8 -4l87 -123q38 9 78 9zM662 372q0 -4 -1 -7l-68 -135h29q4 0 7.5 -1.5t6 -4
t4 -6t1.5 -7.5v-27q0 -8 -5.5 -13.5t-13.5 -5.5h-62l-16 -31h78q4 0 7.5 -1.5t6 -4.5t4 -6.5t1.5 -7.5v-26q0 -2 -0.5 -4.5t-1.5 -4t-2.5 -3.5t-3 -3t-3.5 -2t-4 -1.5t-4 -0.5h-78v-134q0 -4 -1.5 -7.5t-4 -6t-6 -4t-7.5 -1.5h-44q-8 0 -13.5 5.5t-5.5 13.5v134h-78
q-5 0 -9.5 2.5t-7 7t-2.5 9.5v26q0 6 2.5 10t7 7t9.5 3h78l-16 31h-62q-8 0 -13.5 5.5t-5.5 13.5v27q5 15 19 19h29l-68 135q-1 2 -1.5 3.5t-0.5 3.5q0 14 15 14h42q3 0 4.5 -0.5t3.5 -1t3.5 -1.5t3 -2.5t3 -3.5t2.5 -5l4 -7l79 -152l79 152q6 13 10.5 17t12.5 4h43
q14 0 14 -14z" />
    <glyph glyph-name="uniE64A" unicode="&#xe64a;" 
d="M830 749q27 0 50.5 -12.5t41.5 -31.5t29 -43t11 -47v-636q0 -23 -11.5 -46t-30.5 -41.5t-43 -30.5t-49 -12h-641q-22 0 -44 11t-39.5 28.5t-28 41t-10.5 49.5v634q0 26 10.5 50.5t29.5 43.5t43.5 30.5t52.5 11.5h629z" />
    <glyph glyph-name="uniE64B" unicode="&#xe64b;" 
d="M512 812q-104 0 -199 -40.5t-163.5 -109t-109 -163.5t-40.5 -199q0 -188 122 -332q116 -136 292 -171q49 -9 98 -9q104 0 199 40.5t163.5 109t109 163.5t40.5 199q0 83 -26 161.5t-73 141.5t-110 110t-141.5 73t-161.5 26zM760 343v-59h-178v-118h178v-60h-178v-118h-118
v118h-178v60h178v118h-178v59h178l-237 237h118l178 -177l178 177h118l-237 -237h178z" />
    <glyph glyph-name="uniE64C" unicode="&#xe64c;" 
d="M934 749h-846q-5 0 -9.5 -2t-8 -5.5t-5.5 -8t-2 -9.5v-557q0 -10 7.5 -17.5t17.5 -7.5h846q7 0 13 3.5t9 9t3 12.5v557q0 7 -3 12.5t-9 9t-13 3.5zM910 192h-797v507h797v-507zM351 283q9 -1 19 -1q56 0 98.5 37.5t49.5 94.5q5 38 -10 73q-3 7 -10 7q-2 0 -7 -1.5
t-30.5 -12.5t-77.5 -34l15 121q0 3 -0.5 5t-2 4t-3.5 3t-5 1q-3 1 -6 1h-6h-6q-56 0 -98.5 -37.5t-49.5 -93.5q-8 -62 30.5 -110.5t99.5 -56.5zM436 513q2 0 3 1l104 44l3 3v5q-8 20 -22.5 35.5t-33 25t-39.5 12.5q-7 0 -7 -6l-14 -112q-1 -4 2 -6zM641 304h165q3 0 6 1t5 3
l4 4q2 2 3 5t1 6q0 8 -5.5 13.5t-13.5 5.5h-165q-5 0 -9.5 -2.5t-7 -7t-2.5 -9.5q0 -8 5.5 -13.5t13.5 -5.5zM641 421h165q8 0 13.5 5.5t5.5 13t-5.5 13t-13.5 5.5h-165q-4 0 -7.5 -1.5t-6 -4t-4 -6t-1.5 -7.5q0 -7 5.5 -12.5t13.5 -5.5zM641 536h165q8 0 13.5 5.5t5.5 13
t-5.5 13t-13.5 5.5h-165q-5 0 -9.5 -2.5t-7 -6.5t-2.5 -9.5t2.5 -9.5t7 -6.5t9.5 -2.5zM864 -110l-260 143v67h-170v-61l-262 -150q-6 -4 -8.5 -11t1.5 -14q2 -5 6.5 -7.5t9.5 -2.5h4q2 0 4 1l330 145l330 -145q2 -1 4 -1h4q8 0 13.5 5.5t5.5 12.5q0 3 -1 6t-2.5 5t-3.5 4
t-5 3z" />
    <glyph glyph-name="uniE64D" unicode="&#xe64d;" 
d="M859 -166h-47v916h47q20 0 34 -13.5t14 -33.5v-822q0 -20 -14 -33.5t-34 -13.5zM212 -119v47h79q39 0 67 28t28 67t-28 67t-67 28h-79v79h79q39 0 67 28t28 67t-28 67t-67 28h-79v79h79q39 0 67 27.5t28 67t-28 67t-67 27.5h-79v48q0 13 6.5 24t17.5 17t23 6h506v-916
h-506q-19 0 -33 13.5t-14 33.5zM338 561q0 -20 -13.5 -34t-33.5 -14h-126q-20 0 -34 14t-14 34q0 12 6.5 23t17.5 17.5t24 6.5h126q31 0 44 -29q3 -9 3 -18zM165 339h126q20 0 33.5 -13.5t13.5 -33.5t-13.5 -33.5t-33.5 -13.5h-126q-20 0 -34 13.5t-14 33.5q0 13 6.5 24
t17.5 17t24 6zM165 71h126q20 0 33.5 -14t13.5 -33.5t-13.5 -33.5t-33.5 -14h-126q-20 0 -34 14t-14 33q0 10 4 18.5t10.5 15t15 10.5t18.5 4z" />
    <glyph glyph-name="uniE64F" unicode="&#xe64f;" 
d="M781 351q33 83 115 73q23 -2 23 -4q-19 -22 -40.5 -36.5t-38 -21t-30.5 -9.5t-21 -3zM678 506q2 5 6 13.5t17 29.5t26.5 37t33 29t37.5 12l-11 -37q-35 -82 -109 -84zM797 109q-135 17 -245 80.5t-176.5 164t-74.5 221.5q6 24 19.5 35t37.5 17q154 -36 269.5 -155
t188.5 -311q-4 -6 -4.5 -13.5t1 -13.5t-2 -13t-13.5 -12zM729 264q-4 8 -14 22q-22 34 -34 51t-34.5 46.5t-39.5 45.5t-43.5 38t-52.5 34t-60.5 23t-73.5 16q28 -131 127.5 -225t242.5 -120q0 12 -9 35t-9 34zM574 299l-103 103h9q6 0 22.5 -1.5t30.5 -5t29 -11t22 -18.5
t5.5 -28t-15.5 -39zM522 609l23 66q32 82 60 74l4 -2q12 -6 13.5 -22.5t-7.5 -35t-22.5 -36.5t-33 -30.5t-37.5 -13.5zM281 230q-8 -17 18 -52.5t63 -62.5t57 -23q107 76 224 17q3 -1 5 -2q-9 2 -22 3t-43.5 -6t-65.5 -22.5t-88 -53t-109 -91.5q-5 -7 -21 -5t-37.5 11.5
t-46 24.5t-46 33.5t-38 39.5t-23 43t-0.5 42q92 96 127 168t46 160q18 -27 26.5 -55.5t6.5 -56.5t-10 -55t-23 -57zM648 107zM671 -35q-1 -3 -9.5 -18t-10.5 -18.5t-10.5 -16.5t-12.5 -17t-12.5 -13.5t-15.5 -13t-17 -9t-20.5 -7t-22.5 -2.5q-16 10 -46.5 21t-55 25.5
t-42.5 40.5q10 11 29 34t29 35q54 -11 94 -18t54.5 -9.5t31 -6t37.5 -7.5z" />
    <glyph glyph-name="uniE650" unicode="&#xe650;" 
d="M512 748q-91 0 -174 -35.5t-143 -95.5t-95.5 -143t-35.5 -174t35.5 -174t95.5 -143t143 -95.5t174 -35.5t174 35.5t143 95.5t95.5 143t35.5 174t-35.5 174t-95.5 143t-143 95.5t-174 35.5zM512 -133q-70 0 -136.5 22t-119.5 62t-93 93t-62 119.5t-22 136.5q0 88 34.5 168
t92.5 138t138 92.5t168 34.5t168 -34.5t138 -92.5t92.5 -138t34.5 -168q0 -165 -111 -289q-107 -119 -265 -140q-29 -4 -57 -4zM534 494h-44v-172h-172v-44h172v-172h44v172h172v44h-172v172z" />
    <glyph glyph-name="uniE651" unicode="&#xe651;" 
d="M898 64q-27 21 -86 52t-104 52l-46 21l-113 -209l-17 50l31 63l-62 63l-62 -63l31 -63l-20 -51l-111 210q-175 -78 -236 -125q-17 -14 -32 -39t-24.5 -48.5t-17.5 -50.5t-10 -37t-3 -16h971q0 5 -2 14.5t-9 36t-16 49.5t-25.5 49t-36.5 42zM507 207q26 0 51 8.5t46 23
t40.5 34.5t34.5 42.5t27.5 47t20.5 48.5t12.5 46.5t4.5 41.5v37q0 14 -2.5 40t-6.5 42.5t-12 40.5t-19.5 39.5t-30 33t-41.5 27.5t-55 17t-70.5 7t-70.5 -7t-55 -17t-41.5 -27.5t-30 -33t-19.5 -39.5t-12 -40.5t-6.5 -42.5t-2.5 -40v-37q0 -39 17.5 -88.5t47.5 -95.5t76 -77
t97 -31zM507 207z" />
    <glyph glyph-name="uniE652" unicode="&#xe652;" 
d="M724 496q5 -3 8 -5l8 -5v-10q1 -43 -10 -70q-11 -26 -30 -37q-16 -56 -36 -89q-28 -47 -73 -64q-23 -8 -88 -7q-28 0 -51 3t-33 7q-21 10 -37.5 26.5t-28.5 39.5q-7 11 -13 25.5t-10 28t-9 29.5q-21 11 -31 37q-4 9 -6.5 20t-3.5 24t-1 27v10l8 5l6 4q-8 83 -1 125.5
t37 76.5q40 32 108 44t135.5 1t108.5 -41q40 -38 49 -88t-6 -117zM552 170l2 -26l-16 -25l22 -140l87 188l133 4q51 -47 80.5 -144t21.5 -174h-742q5 226 106 314l120 -1l112 -186l22 139l-16 25l2 26q33 2 66 0zM652 536q-32 -6 -60.5 -8.5t-66.5 3t-67 21.5
q-13 7 -44.5 -3t-43.5 -9q-13 -27 -19 -57l-3 -17l-17 2q-5 0 -10 -1q-3 -1 -5 -2q1 -10 1.5 -18t2.5 -15t4 -13q7 -16 18 -19l10 -3l3 -10q7 -27 14.5 -47.5t16.5 -36.5q9 -18 21 -30.5t28 -19.5q3 -1 10 -2.5t16 -2t20 -1.5t22 -1q59 -1 75 5q33 13 54 48q18 31 34 88
l2 10l10 3q11 4 17 20q7 17 8 45q-1 0 -2.5 0.5t-2.5 1.5q-5 1 -9 1l-17 -1l-3 16q-5 28 -17 53z" />
    <glyph glyph-name="uniE653" unicode="&#xe653;" 
d="M372 873q-1 -3 -2.5 -8.5t-4 -21.5t-3 -30.5t3.5 -33t13 -32.5l-23 -22l-2 1q-2 0 -6.5 1t-9.5 3t-11.5 5t-12.5 7.5t-12.5 10.5t-11.5 14q0 -3 -0.5 -7.5t-1 -18.5t1 -26.5t7 -28.5t13.5 -28q-2 -7 -5.5 -18.5t-8 -39.5t-1.5 -47q-3 1 -7 0.5t-15 -3t-19 -8t-14.5 -17.5
t-5.5 -28l9 -37v-2q0 -1 1 -4.5t2.5 -7.5t4 -9t5 -9t6.5 -9t8.5 -8.5t10.5 -6.5t12 -4q-1 -10 -2 -25.5t2 -50t13 -53.5q7 -13 17.5 -25.5t22.5 -23t25 -19.5t25 -16t23 -11l-47 -48q-4 1 -11.5 1t-30 -1t-44.5 -3.5t-52 -9.5t-55.5 -17.5t-51.5 -28t-44 -40.5
q-6 -7 -15 -20.5t-23 -49t-13 -65.5h974q0 6 -0.5 15.5t-7.5 36.5t-19.5 50.5t-40 50t-64.5 41.5q-7 5 -21 11.5t-68 17.5t-120 12l-48 51q3 1 9.5 3t23.5 11.5t31 21t29 31.5t22 43q1 2 2 5.5t3.5 15t3.5 23t2 29.5t-1 33h1q1 0 4 1l6 2q3 1 7.5 4t8 7.5t8 11.5t8.5 15
q7 19 11.5 36.5t4.5 25.5l1 8q-1 5 -3 11.5t-12 19.5t-25 16l-21 -2q0 4 0.5 11t-1.5 28t-8 41.5t-21 48.5t-38 52l-25 18q0 1 -1 4.5t-9.5 10.5t-21.5 11q-6 2 -24.5 4.5t-39.5 5t-47.5 9t-50 15t-46 25t-36.5 37.5z" />
  </font>
</defs>
</svg>
