<?xml version="1.0" standalone="no"?><!DOCTYPE svg PUBLIC "-//W3C//DTD SVG 1.1//EN" "http://www.w3.org/Graphics/SVG/1.1/DTD/svg11.dtd"><svg width="200" height="200" viewBox="0 0 200 200" version="1.1" xmlns="http://www.w3.org/2000/svg" xmlns:xlink="http://www.w3.org/1999/xlink"><defs><style type="text/css"><![CDATA[
@font-face { font-family: ifont; src: url("http://at.alicdn.com/t/font_1442373896_4754455.eot?#iefix") format("embedded-opentype"), url("http://at.alicdn.com/t/font_1442373896_4754455.woff") format("woff"), url("http://at.alicdn.com/t/font_1442373896_4754455.ttf") format("truetype"), url("http://at.alicdn.com/t/font_1442373896_4754455.svg#ifont") format("svg"); }

]]></style></defs><g class="transform-group"><g transform="scale(0.1953125, 0.1953125)"><path d="M910.823 200.024c-43.836-42.646-104.235-64.068-181.592-64.068-21.423 0-43.241 3.768-65.458 11.108-22.314 7.438-42.844 17.554-62.084 30.05-19.041 12.596-35.604 24.298-49.391 35.406-13.883 11.009-26.776 22.712-39.272 35.109-12.498-12.497-25.588-24.101-39.274-35.109-13.885-11.008-30.25-22.909-49.389-35.406-19.043-12.595-39.77-22.612-62.085-30.05-22.116-7.438-44.134-11.108-65.458-11.108-77.258 0-137.755 21.422-181.591 64.068C71.392 242.67 49.672 302.077 49.672 377.947c0 23.108 4.166 46.812 12.298 71.308 8.133 24.497 17.356 45.422 27.671 62.679 10.314 17.356 22.116 34.019 35.109 50.383 12.992 16.363 22.71 27.67 28.663 33.918 5.95 6.148 10.81 10.611 14.182 13.488l322.721 311.415c6.051 6.048 13.885 9.421 22.712 9.421 8.826 0 16.562-3.074 22.712-9.421l322.225-310.325c78.945-78.944 118.515-156.5 118.515-232.667C976.378 302.077 954.659 242.67 910.823 200.024zM813.135 562.018 513.026 851.316 212.422 561.423c-64.465-64.464-96.798-125.656-96.798-183.675 0-27.967 3.769-52.563 11.109-73.986 7.438-21.422 16.859-38.282 28.463-50.977 11.504-12.595 25.587-22.91 42.15-30.843 16.562-7.935 32.728-13.29 48.598-16.067 15.868-2.777 32.728-4.165 50.579-4.165 18.05 0 37.291 4.363 58.019 13.19 20.728 8.827 39.769 19.736 57.126 33.224 17.554 13.29 32.232 25.786 44.729 37.291 12.497 11.504 22.711 22.117 31.042 31.835 6.049 7.537 14.677 11.307 25.389 11.307 10.612 0 19.042-3.77 25.391-11.307 8.231-9.719 18.545-20.232 31.041-31.835 12.496-11.505 27.373-23.902 44.729-37.291 17.555-13.29 36.397-24.298 57.126-33.224 20.728-8.926 39.967-13.19 58.019-13.19 18.05 0 34.712 1.488 50.579 4.165 15.869 2.678 32.035 8.132 48.597 16.067 16.563 7.934 30.646 18.249 42.15 30.843 11.505 12.596 21.125 29.555 28.464 50.977 7.439 21.422 11.107 46.019 11.107 73.986C910.328 435.965 877.896 497.157 813.135 562.018z" fill="#ea8010"></path></g></g></svg>