<?xml version="1.0" standalone="no"?>
<!DOCTYPE svg PUBLIC "-//W3C//DTD SVG 1.1//EN" "http://www.w3.org/Graphics/SVG/1.1/DTD/svg11.dtd" >
<svg>
<metadata>
Created by FontForge 20090914 at Mon Apr 25 18:50:25 2016
 By www-data
</metadata>
<defs>
<font id="ElegantIcons" horiz-adv-x="512" >
  <font-face 
    font-family="ElegantIcons"
    font-weight="400"
    font-stretch="normal"
    units-per-em="512"
    panose-1="2 0 5 3 0 0 0 0 0 0"
    ascent="480"
    descent="-32"
    x-height="384"
    cap-height="448"
    bbox="-1 -72.998 585.001 480.752"
    underline-thickness="0"
    underline-position="0"
    unicode-range="U+0021-U+F000"
  />
<missing-glyph 
 />
    <glyph glyph-name=".notdef" 
 />
    <glyph glyph-name=".notdef" 
 />
    <glyph glyph-name="exclam" unicode="!" 
d="M283 32c4.66699 0 8.5 1.5 11.5 4.5s4.5 6.83301 4.5 11.5v313l69 -68c7.33301 -8 14.833 -8.16699 22.5 -0.5s7.5 15.167 -0.5 22.5l-96 96c-1.33301 2 -3 3.33301 -5 4c-4 1.33301 -8 1.33301 -12 0c-2 -0.666992 -3.66699 -2 -5 -4l-96 -96
c-8 -7.33301 -8.16699 -14.833 -0.5 -22.5s15.167 -7.5 22.5 0.5l69 68v-313c0 -4.66699 1.5 -8.5 4.5 -11.5s6.83301 -4.5 11.5 -4.5z" />
    <glyph glyph-name="quotedbl" unicode="&#x22;" 
d="M283 416c-4.66699 0 -8.5 -1.5 -11.5 -4.5s-4.5 -6.83301 -4.5 -11.5v-313l-69 68c-7.33301 8 -14.833 8.16699 -22.5 0.5s-7.5 -15.167 0.5 -22.5l96 -96c1.33301 -2 3 -3.33301 5 -4c4 -1.33301 8 -1.33301 12 0c2 0.666992 3.66699 2 5 4l96 96
c8 7.33301 8.16699 14.833 0.5 22.5s-15.167 7.5 -22.5 -0.5l-69 -68v313c0 4.66699 -1.5 8.5 -4.5 11.5s-6.83301 4.5 -11.5 4.5z" />
    <glyph glyph-name="numbersign" unicode="#" 
d="M64 240c0 -2 0.333008 -4 1 -6s2 -3.66699 4 -5l96 -96c7.33301 -8 14.833 -8.16699 22.5 -0.5s7.5 15.167 -0.5 22.5l-68 69h313c4.66699 0 8.5 1.5 11.5 4.5s4.5 6.83301 4.5 11.5s-1.5 8.5 -4.5 11.5s-6.83301 4.5 -11.5 4.5h-313l68 69
c8 7.33301 8.16699 14.833 0.5 22.5s-15.167 7.5 -22.5 -0.5l-96 -96c-2 -1.33301 -3.33301 -3 -4 -5s-1 -4 -1 -6v0z" />
    <glyph glyph-name="dollar" unicode="$" 
d="M64 240c0 -4.66699 1.5 -8.5 4.5 -11.5s6.83301 -4.5 11.5 -4.5h313l-68 -69c-8 -7.33301 -8.16699 -14.833 -0.5 -22.5s15.167 -7.5 22.5 0.5l96 96c2 1.33301 3.33301 3 4 5s1 4 1 6v0c0 2 -0.333008 4 -1 6s-2 3.66699 -4 5l-96 96
c-7.33301 8 -14.833 8.16699 -22.5 0.5s-7.5 -15.167 0.5 -22.5l68 -69h-313c-4.66699 0 -8.5 -1.5 -11.5 -4.5s-4.5 -6.83301 -4.5 -11.5z" />
    <glyph glyph-name="percent" unicode="%" 
d="M64 240c0 -4.66699 1.50098 -8.50195 4.50098 -11.502s6.83301 -4.5 11.5 -4.5s8.5 1.5 11.5 4.5s4.5 6.83301 4.5 11.5v121l325 -324c7.33301 -8 14.666 -8 21.999 0c3.33301 2.66699 5 6.33398 5 11.001s-1.66699 8.33398 -5 11.001l-324 325h121
c4.66699 0 8.5 1.5 11.5 4.5s4.5 6.83301 4.5 11.5s-1.5 8.5 -4.5 11.5s-6.83301 4.5 -11.5 4.5h-160c-2 0 -4 -0.333008 -6 -1s-3.66699 -2 -5 -4v0c-2 -1.33301 -3.33301 -3 -4 -5s-1 -4 -1 -6v-160z" />
    <glyph glyph-name="ampersand" unicode="&#x26;" 
d="M68 37c7.33301 -8 14.667 -7.99805 22 0.00195312l325 324v-121c0 -4.66699 1.5 -8.5 4.5 -11.5s6.83301 -4.5 11.5 -4.5s8.5 1.5 11.5 4.5s4.5 6.83301 4.5 11.5v160c0 2 -0.333008 4 -1 6c-2 4 -5 7 -9 9c-2 0.666992 -4 1 -6 1h-160c-4.66699 0 -8.5 -1.5 -11.5 -4.5
s-4.5 -6.83301 -4.5 -11.5s1.5 -8.5 4.5 -11.5s6.83301 -4.5 11.5 -4.5h121l-324 -325c-3.33301 -2.66699 -5 -6.33398 -5 -11.001s1.66699 -8.33398 5 -11.001z" />
    <glyph glyph-name="quotesingle" unicode="'" 
d="M443 224c-4.66699 0 -8.49805 -1.50098 -11.498 -4.50098s-4.5 -6.83301 -4.5 -11.5v-121l-325 324c-2.66699 3.33301 -6.33398 5 -11.001 5s-8.33398 -1.66699 -11.001 -5c-8 -7.33301 -8 -14.666 0 -21.999l324 -325h-121c-4.66699 0 -8.5 -1.5 -11.5 -4.5
s-4.5 -6.83301 -4.5 -11.5s1.5 -8.5 4.5 -11.5s6.83301 -4.5 11.5 -4.5h160c2 0 4 0.333008 6 1c4 2 7 5 9 9c0.666992 2 1 4 1 6v160c0 4.66699 -1.5 8.5 -4.5 11.5s-6.83301 4.5 -11.5 4.5z" />
    <glyph glyph-name="parenleft" unicode="(" 
d="M80 224c-4.66699 0 -8.5 -1.5 -11.5 -4.5s-4.5 -6.83301 -4.5 -11.5v-160c0 -2 0.333008 -4 1 -6s2 -3.66699 4 -5v0c1.33301 -2 3 -3.33301 5 -4s4 -1 6 -1h160c4.66699 0 8.5 1.5 11.5 4.5s4.5 6.83301 4.5 11.5s-1.5 8.5 -4.5 11.5s-6.83301 4.5 -11.5 4.5h-121
l324 325c8 7.33301 8.16699 14.833 0.5 22.5s-15.167 7.5 -22.5 -0.5l-325 -324v121c0 4.66699 -1.5 8.5 -4.5 11.5s-6.83301 4.5 -11.5 4.5z" />
    <glyph glyph-name="parenright" unicode=")" 
d="M336 389c7.33301 -8 14.833 -8.16699 22.5 -0.5s7.5 15.167 -0.5 22.5l-64 64c-1.33301 2 -3 3.33301 -5 4c-4 1.33301 -8 1.33301 -12 0c-2 -0.666992 -3.66699 -2 -5 -4l-64 -64c-8 -7.33301 -8.16699 -14.833 -0.5 -22.5s15.167 -7.5 22.5 0.5l37 36v-402l-37 36
c-7.33301 8 -14.833 8.16699 -22.5 0.5s-7.5 -15.167 0.5 -22.5l64 -64c1.33301 -2 3 -3.33301 5 -4c4 -1.33301 8 -1.33301 12 0c2 0.666992 3.66699 2 5 4l64 64c8 7.33301 8.16699 14.833 0.5 22.5s-15.167 7.5 -22.5 -0.5l-37 -36v402z" />
    <glyph glyph-name="asterisk" unicode="*" 
d="M303 -27c3.33301 -3.33301 7.33105 -5.00293 11.998 -5.00293s8.33398 1.66699 11.001 5l62 61c7.33301 7.33301 7.33301 14.833 0 22.5s-15 7.83398 -23 0.500977l-34 -34v281c0 4 -1.5 7.66699 -4.5 11s-6.83301 5 -11.5 5s-8.5 -1.66699 -11.5 -5s-4.5 -7 -4.5 -11
v-282l-37 37c-7.33301 7.33301 -14.666 7.33301 -21.999 0c-3.33301 -3.33301 -5 -7.16602 -5 -11.499s1.66699 -8.16602 5 -11.499zM218.998 127.997c4.66699 0 8.50098 1.5 11.501 4.5s4.5 6.83301 4.5 11.5v281l37 -36c7.33301 -8 14.833 -8.16699 22.5 -0.5
s7.5 15.167 -0.5 22.5l-63 64c-3.33301 3.33301 -7.33301 5 -12 5s-8.33398 -1.66699 -11.001 -5l-62 -61c-7.33301 -8 -7.33301 -15.667 0 -23s15 -7.33301 23 0l34 34v-281c0 -4.66699 1.5 -8.5 4.5 -11.5s6.83301 -4.5 11.5 -4.5z" />
    <glyph glyph-name="plus" unicode="+" 
d="M89 103c7.33301 7.33301 7.33301 15.002 0 23.002l-34 34h281c4.66699 0 8.5 1.5 11.5 4.5s4.5 6.83301 4.5 11.5s-1.5 8.5 -4.5 11.5s-6.83301 4.5 -11.5 4.5h-281l36 37c8 7.33301 8.16699 14.833 0.5 22.5s-15.167 7.5 -22.5 -0.5l-64 -64
c-3.33301 -2.66699 -5 -6.33398 -5 -11.001s1.66699 -8.33398 5 -11.001l61 -62c8 -7.33301 15.667 -7.33301 23 0zM507 283.002l-61 62.0029c-8 7.33301 -15.667 7.16602 -23 -0.500977s-7.33301 -15.167 0 -22.5l34 -34h-281c-4.66699 0 -8.5 -1.66699 -11.5 -5
s-4.5 -7.16602 -4.5 -11.499s1.5 -8 4.5 -11s6.83301 -4.5 11.5 -4.5h281l-36 -37c-8 -7.33301 -8.16699 -14.833 -0.5 -22.5s15.167 -7.83398 22.5 -0.500977l64 64c3.33301 3.33301 5 7.16602 5 11.499s-1.66699 8.16602 -5 11.499z" />
    <glyph glyph-name="comma" unicode="," 
d="M511 214c-0.666992 2 -2 3.66699 -4 5l-64 64c-7.33301 8 -14.833 8.16699 -22.5 0.5s-7.5 -15.167 0.5 -22.5l36 -37h-402l36 37c8 7.33301 8.16699 14.833 0.5 22.5s-15.167 7.5 -22.5 -0.5l-64 -64c-2 -1.33301 -3.33301 -3 -4 -5s-1 -4 -1 -6v0
c-0 -2 0.333008 -4 1 -6s2 -3.66699 4 -5l64 -64c7.33301 -8 14.833 -8.16699 22.5 -0.5s7.5 15.167 -0.5 22.5l-36 37h402l-36 -37c-8 -7.33301 -8.16699 -14.833 -0.5 -22.5s15.167 -7.5 22.5 0.5l64 64c2 1.33301 3.33301 3 4 5s1 4 1 6v0c0 2 -0.333008 4 -1 6z" />
    <glyph glyph-name="hyphen" unicode="-" 
d="M64 240c0 -4.66699 1.5 -8.5 4.5 -11.5s6.83301 -4.5 11.5 -4.5s8.5 1.5 11.5 4.5s4.5 6.83301 4.5 11.5v121l297 -297h-121c-4.66699 0 -8.5 -1.5 -11.5 -4.5s-4.5 -6.83301 -4.5 -11.5s1.5 -8.5 4.5 -11.5s6.83301 -4.5 11.5 -4.5h160c2 0 4 0.333008 6 1c4 2 7 5 9 9
c0.666992 2 1 4 1 6v160c0 4.66699 -1.5 8.5 -4.5 11.5s-6.83301 4.5 -11.5 4.5s-8.5 -1.5 -11.5 -4.5s-4.5 -6.83301 -4.5 -11.5v-121l-297 297h121c4.66699 0 8.5 1.5 11.5 4.5s4.5 6.83301 4.5 11.5s-1.5 8.5 -4.5 11.5s-6.83301 4.5 -11.5 4.5h-160
c-2 0 -4 -0.333008 -6 -1s-3.66699 -2 -5 -4v0c-2 -1.33301 -3.33301 -3 -4 -5s-1 -4 -1 -6v-160z" />
    <glyph glyph-name="period" unicode="." 
d="M80 224c-4.66699 0 -8.5 -1.5 -11.5 -4.5s-4.5 -6.83301 -4.5 -11.5v-160c0 -2 0.333008 -4 1 -6s2 -3.66699 4 -5v0c1.33301 -2 3 -3.33301 5 -4s4 -1 6 -1h160c4.66699 0 8.5 1.5 11.5 4.5s4.5 6.83301 4.5 11.5s-1.5 8.5 -4.5 11.5s-6.83301 4.5 -11.5 4.5h-121
l297 297v-121c0 -4.66699 1.5 -8.5 4.5 -11.5s6.83301 -4.5 11.5 -4.5s8.5 1.5 11.5 4.5s4.5 6.83301 4.5 11.5v160c0 2 -0.333008 4 -1 6c-2 4 -5 7 -9 9c-2 0.666992 -4 1 -6 1h-160c-4.66699 0 -8.5 -1.5 -11.5 -4.5s-4.5 -6.83301 -4.5 -11.5s1.5 -8.5 4.5 -11.5
s6.83301 -4.5 11.5 -4.5h121l-297 -297v121c0 4.66699 -1.5 8.5 -4.5 11.5s-6.83301 4.5 -11.5 4.5z" />
    <glyph glyph-name="slash" unicode="/" 
d="M486.5 443.5c-7.66699 7.66699 -15.167 7.5 -22.5 -0.5l-133 -132v89c0 4.66699 -1.5 8.5 -4.5 11.5s-6.83301 4.5 -11.5 4.5s-8.5 -1.5 -11.5 -4.5s-4.5 -6.83301 -4.5 -11.5v-128c0 -2 0.333008 -4 1 -6s2 -3.66699 4 -5v0c1.33301 -2 3 -3.33301 5 -4s4 -1 6 -1h128
c4.66699 0 8.5 1.5 11.5 4.5s4.5 6.83301 4.5 11.5s-1.5 8.5 -4.5 11.5s-6.83301 4.5 -11.5 4.5h-89l132 133c8 7.33301 8.16699 14.833 0.5 22.5zM47.5 4.5c7.66699 -7.66699 15.167 -7.5 22.5 0.5l133 132v-89c0 -4.66699 1.5 -8.5 4.5 -11.5s6.83301 -4.5 11.5 -4.5
s8.5 1.5 11.5 4.5s4.5 6.83301 4.5 11.5v128c0 2 -0.333008 4 -1 6c-2 4 -5 7 -9 9c-2 0.666992 -4 1 -6 1h-128c-4.66699 0 -8.5 -1.5 -11.5 -4.5s-4.5 -6.83301 -4.5 -11.5s1.5 -8.5 4.5 -11.5s6.83301 -4.5 11.5 -4.5h89l-132 -133
c-8 -7.33301 -8.16699 -14.833 -0.5 -22.5z" />
    <glyph glyph-name="zero" unicode="0" 
d="M479 438c-2 4 -5 7 -9 9c-2 0.666992 -4 1 -6 1h-128c-4.66699 0 -8.5 -1.5 -11.5 -4.5s-4.5 -6.83301 -4.5 -11.5s1.5 -8.5 4.5 -11.5s6.83301 -4.5 11.5 -4.5h89l-132 -133c-8 -7.33301 -8.16699 -14.833 -0.5 -22.5s15.167 -7.5 22.5 0.5l133 132v-89
c0 -4.66699 1.5 -8.5 4.5 -11.5s6.83301 -4.5 11.5 -4.5s8.5 1.5 11.5 4.5s4.5 6.83301 4.5 11.5v128c0 2 -0.333008 4 -1 6zM48 160c-4.66699 0 -8.5 -1.5 -11.5 -4.5s-4.5 -6.83301 -4.5 -11.5v-128c0 -2 0.333008 -4 1 -6s2 -3.66699 4 -5v0c1.33301 -2 3 -3.33301 5 -4
s4 -1 6 -1h128c4.66699 0 8.5 1.5 11.5 4.5s4.5 6.83301 4.5 11.5s-1.5 8.5 -4.5 11.5s-6.83301 4.5 -11.5 4.5h-89l132 133c8 7.33301 8.16699 14.833 0.5 22.5s-15.167 7.5 -22.5 -0.5l-133 -132v89c0 4.66699 -1.5 8.5 -4.5 11.5s-6.83301 4.5 -11.5 4.5z" />
    <glyph glyph-name="one" unicode="1" 
d="M511 214c-0.666992 2 -2.00098 3.66895 -4.00098 5.00195l-64 64c-7.33301 8 -14.833 8.16699 -22.5 0.5s-7.5 -15.167 0.5 -22.5l36 -37h-169v169l37 -36c7.33301 -8 14.833 -8.16699 22.5 -0.5s7.5 15.167 -0.5 22.5l-64 64c-1.33301 2 -3 3.33301 -5 4s-4 1 -6 1
s-4 -0.333008 -6 -1s-3.66699 -2 -5 -4l-64 -64c-8 -7.33301 -8.16699 -14.833 -0.5 -22.5s15.167 -7.5 22.5 0.5l37 36v-169h-169l36 37c8 7.33301 8.16699 14.833 0.5 22.5s-15.167 7.5 -22.5 -0.5l-64 -64c-2 -1.33301 -3.33301 -3 -4 -5s-1 -4 -1 -6s0.333008 -4 1 -6
s2 -3.66699 4 -5l64 -64c7.33301 -8 14.833 -8.16699 22.5 -0.5s7.5 15.167 -0.5 22.5l-36 37h169v-169l-37 36c-7.33301 8 -14.666 8 -21.999 0c-3.33301 -2.66699 -5 -6.33398 -5 -11.001s1.66699 -8.33398 5 -11.001l64 -64c1.33301 -2 3 -3.33301 5 -4s4 -1 6 -1
s4 0.333008 6 1s3.66699 2 5 4l64 64c8 7.33301 8.16699 14.833 0.5 22.5s-15.167 7.5 -22.5 -0.5l-37 -36v169h169l-36 -37c-8 -7.33301 -8.16699 -14.833 -0.5 -22.5s15.167 -7.5 22.5 0.5l64 64c2 1.33301 3.33301 3 4 5s1 4 1 6s-0.333008 4 -1 6z" />
    <glyph glyph-name="two" unicode="2" 
d="M189 157l93.0039 92l93 -92c7.33301 -8 14.666 -8.16699 21.999 -0.5s7.33301 15.167 0 22.5l-104 104c-2.66699 3.33301 -6.33398 5 -11.001 5s-8.33398 -1.66699 -11.001 -5l-104 -104c-7.33301 -7.33301 -7.33301 -14.833 0 -22.5s14.666 -7.5 21.999 0.5z" />
    <glyph glyph-name="three" unicode="3" 
d="M375 259l-93.0039 -92l-93 92c-7.33301 8 -14.666 8.16699 -21.999 0.5s-7.33301 -15.167 0 -22.5l104 -104c2.66699 -3.33301 6.33398 -5 11.001 -5s8.33398 1.66699 11.001 5l104 104c7.33301 7.33301 7.33301 14.833 0 22.5s-14.666 7.5 -21.999 -0.5z" />
    <glyph glyph-name="four" unicode="4" 
d="M197 197l104.001 -103.996c7.33301 -7.33301 14.666 -7.33301 21.999 0c3.33301 3.33301 5 7.16602 5 11.499s-1.66699 7.83301 -5 10.5l-92 93l92 93c8 7.33301 8.16699 14.666 0.5 21.999s-15.167 7.33301 -22.5 0l-104 -104c-3.33301 -2.66699 -5 -6.33398 -5 -11.001
s1.66699 -8.33398 5 -11.001z" />
    <glyph glyph-name="five" unicode="5" 
d="M231.5 93c7.66699 -7.33301 15.167 -7.33691 22.5 -0.00390625l104 104c3.33301 2.66699 5 6.33398 5 11.001s-1.66699 8.33398 -5 11.001l-104 104c-7.33301 7.33301 -14.833 7.33301 -22.5 0s-7.5 -14.666 0.5 -21.999l92 -93l-92 -93
c-8 -7.33301 -8.16699 -14.666 -0.5 -21.999z" />
    <glyph glyph-name="six" unicode="6" 
d="M381 253l-107 94c-3.33301 3.33301 -7 5 -11 5c-4.66699 0 -8.66699 -1.66699 -12 -5l-107 -94c-7.33301 -8 -7.33301 -15.833 0 -23.5s15 -7.5 23 0.5l96 85l95 -85c8 -8 15.833 -8.16699 23.5 -0.5s7.5 15.5 -0.5 23.5zM274 233
c-3.33301 2.66699 -7 3.99805 -11 3.99805c-4.66699 0 -8.66699 -1.33301 -12 -4l-107 -95c-3.33301 -3.33301 -5 -7.16602 -5 -11.499s1.66699 -8.16602 5 -11.499c7.33301 -7.33301 15 -7.33301 23 0l96 85l95 -85c8 -7.33301 15.833 -7.33301 23.5 0s7.5 15 -0.5 23z" />
    <glyph glyph-name="seven" unicode="7" 
d="M362 218l-96 -85l-95 85c-8 8 -15.833 8.16699 -23.5 0.5s-7.5 -15.5 0.5 -23.5l107 -94c3.33301 -3.33301 7 -5 11 -5c4.66699 0 8.66699 1.66699 12 5l107 94c7.33301 8 7.33301 15.833 0 23.5s-15 7.5 -23 -0.5zM385 333c-7.33301 7.33301 -15 7.33301 -23 0l-96 -85
l-95 85c-8 7.33301 -15.833 7.33301 -23.5 0s-7.5 -15 0.5 -23l107 -95c3.33301 -2.66699 7 -4 11 -4c4.66699 0 8.66699 1.33301 12 4l107 95c7.33301 8 7.33301 15.667 0 23z" />
    <glyph glyph-name="eight" unicode="8" 
d="M133 213l94 -107.002c8 -7.33301 15.833 -7.33301 23.5 0s7.5 15 -0.5 23l-85 96l85 95c8 8 8.16699 15.833 0.5 23.5s-15.5 7.5 -23.5 -0.5l-94 -107c-3.33301 -3.33301 -5 -7.16602 -5 -11.499s1.66699 -8.16602 5 -11.499zM365 343.498
c-7.33301 7.66699 -15 7.49805 -23 -0.501953l-95 -107c-2.66699 -3.33301 -4 -7.16602 -4 -11.499s1.33301 -8.16602 4 -11.499l95 -107c8 -7.33301 15.667 -7.33301 23 0s7.33301 15 0 23l-85 96l85 95c7.33301 8 7.33301 15.833 0 23.5z" />
    <glyph glyph-name="nine" unicode="9" 
d="M390 235l-94 107c-8 7.33301 -15.833 7.33301 -23.5 0s-7.5 -15 0.5 -23l85 -96l-85 -95c-3.33301 -3.33301 -5 -7.16602 -5 -11.499s1.66699 -8.16602 5 -11.499c7.33301 -8 15 -8 23 0l94 107c3.33301 3.33301 5 7.16602 5 11.499s-1.66699 8.16602 -5 11.499z
M158 104.5c7.33301 -7.66699 14.998 -7.5 22.998 0.5l95 107c2.66699 3.33301 4 7 4 11c0 4.66699 -1.33301 8.66699 -4 12l-95 107c-3.33301 3.33301 -7.16602 5 -11.499 5s-8.16602 -1.66699 -11.499 -5c-7.33301 -7.33301 -7.33301 -15 0 -23l85 -96l-85 -95
c-7.33301 -8 -7.33301 -15.833 0 -23.5z" />
    <glyph glyph-name="colon" unicode=":" 
d="M283 283c-2.66699 3.33301 -6.33008 5 -10.9971 5s-8.33398 -1.66699 -11.001 -5l-104 -104c-7.33301 -7.33301 -7.33301 -14.833 0 -22.5s14.666 -7.5 21.999 0.5l93 92l93 -92c7.33301 -8 14.666 -8.16699 21.999 -0.5s7.33301 15.167 0 22.5zM273.004 446
c-66 0 -122.333 -23.333 -169 -70s-70 -103 -70 -169s23.333 -122.333 70 -169s103 -70 169 -70s122.333 23.333 169 70s70 103 70 169s-23.333 122.333 -70 169s-103 70 -169 70zM273.004 0c-57.333 0 -106.166 20.167 -146.499 60.5s-60.5 89.166 -60.5 146.499
s20.167 106.166 60.5 146.499s89.166 60.5 146.499 60.5s106.166 -20.167 146.499 -60.5s60.5 -89.166 60.5 -146.499s-20.167 -106.166 -60.5 -146.499s-89.166 -60.5 -146.499 -60.5z" />
    <glyph glyph-name="semicolon" unicode=";" 
d="M365 259l-93.0039 -92l-93 92c-7.33301 8 -14.666 8.16699 -21.999 0.5s-7.33301 -15.167 0 -22.5l104 -104c2.66699 -3.33301 6.33398 -5 11.001 -5s8.33398 1.66699 11.001 5l104 104c7.33301 7.33301 7.33301 14.833 0 22.5s-14.666 7.5 -21.999 -0.5zM272.996 446
c-66 0 -122.333 -23.333 -169 -70s-70 -103 -70 -169s23.333 -122.333 70 -169s103 -70 169 -70s122.333 23.333 169 70s70 103 70 169s-23.333 122.333 -70 169s-103 70 -169 70zM273.496 0c-57 0 -105.833 20.167 -146.5 60.5s-61 89 -61 146s20.333 105.833 61 146.5
s89.5 61 146.5 61s105.667 -20.333 146 -61s60.5 -89.5 60.5 -146.5s-20.167 -105.667 -60.5 -146s-89 -60.5 -146 -60.5z" />
    <glyph glyph-name="less" unicode="&#x3c;" 
d="M323.5 323c-7.66699 7.33301 -15.166 7.33691 -22.499 0.00390625l-104 -104c-3.33301 -2.66699 -5 -6.33398 -5 -11.001s1.66699 -8.33398 5 -11.001l104 -104c7.33301 -7.33301 14.666 -7.33301 21.999 0c3.33301 3.33301 5 7.16602 5 11.499s-1.66699 7.83301 -5 10.5
l-92 93l92 93c8 7.33301 8.16699 14.666 0.5 21.999zM272.001 448.004c-66 0 -122.5 -23.5 -169.5 -70.5s-70.5 -103.5 -70.5 -169.5s23.5 -122.5 70.5 -169.5s103.5 -70.5 169.5 -70.5s122.5 23.5 169.5 70.5s70.5 103.5 70.5 169.5s-23.5 122.5 -70.5 169.5
s-103.5 70.5 -169.5 70.5zM272.001 0.00390625c-57.333 0 -106.333 20.333 -147 61s-61 89.667 -61 147s20.333 106.333 61 147s89.667 61 147 61s106.333 -20.333 147 -61s61 -89.667 61 -147s-20.333 -106.333 -61 -147s-89.667 -61 -147 -61z" />
    <glyph glyph-name="equal" unicode="=" 
d="M347 219l-104 103.996c-7.33301 7.33301 -14.833 7.33301 -22.5 0s-7.5 -14.666 0.5 -21.999l92 -93l-92 -93c-8 -7.33301 -8.16699 -14.666 -0.5 -21.999s15.167 -7.33301 22.5 0l104 104c3.33301 2.66699 5 6.33398 5 11.001s-1.66699 8.33398 -5 11.001zM273 445.996
c-66 0 -122.333 -23.333 -169 -70s-70 -103 -70 -169s23.333 -122.333 70 -169s103 -70 169 -70s122.333 23.333 169 70s70 103 70 169s-23.333 122.333 -70 169s-103 70 -169 70zM273.5 -0.00390625c-57 0 -105.833 20.167 -146.5 60.5s-61 89 -61 146
s20.333 105.833 61 146.5s89.5 61 146.5 61s105.667 -20.333 146 -61s60.5 -89.5 60.5 -146.5s-20.167 -105.667 -60.5 -146s-89 -60.5 -146 -60.5z" />
    <glyph glyph-name="greater" unicode="&#x3e;" 
d="M284 331c-3.33301 3.33301 -7 5 -11 5c-4.66699 0 -8.66699 -1.66699 -12 -5l-107 -94c-7.33301 -8 -7.33301 -15.833 0 -23.5s15 -7.5 23 0.5l96 85l95 -85c8 -8 15.833 -8.16699 23.5 -0.5s7.5 15.5 -0.5 23.5zM284 217c-3.33301 2.66699 -7 4 -11 4
c-4.66699 0 -8.66699 -1.33301 -12 -4l-107 -95c-7.33301 -8 -7.33301 -15.667 0 -23s15 -7.33301 23 0l96 85l95 -85c8 -7.33301 15.833 -7.33301 23.5 0s7.5 15 -0.5 23zM273 446c-66 0 -122.333 -23.333 -169 -70s-70 -103 -70 -169s23.333 -122.333 70 -169
s103 -70 169 -70s122.333 23.333 169 70s70 103 70 169s-23.333 122.333 -70 169s-103 70 -169 70zM273.5 0c-57 0 -105.833 20.167 -146.5 60.5s-61 89 -61 146s20.333 105.833 61 146.5s89.5 61 146.5 61s105.667 -20.333 146 -61s60.5 -89.5 60.5 -146.5
s-20.167 -105.667 -60.5 -146s-89 -60.5 -146 -60.5z" />
    <glyph glyph-name="question" unicode="?" 
d="M367 202l-96.002 -85l-95 85c-3.33301 3.33301 -7.16602 5 -11.499 5s-8.16602 -1.66699 -11.499 -5c-8 -7.33301 -8 -15 0 -23l107 -94c3.33301 -3.33301 7 -5 11 -5c4.66699 0 8.66699 1.66699 12 5l107 94c7.33301 8 7.33301 15.833 0 23.5s-15 7.5 -23 -0.5z
M366.998 317l-96 -85l-95 85c-8 7.33301 -15.833 7.33301 -23.5 0s-7.5 -15 0.5 -23l107 -95c3.33301 -2.66699 7 -4 11 -4c4.66699 0 8.66699 1.33301 12 4l107 95c7.33301 8 7.33301 15.667 0 23s-15 7.33301 -23 0zM272.998 446c-66 0 -122.333 -23.333 -169 -70
s-70 -103 -70 -169s23.333 -122.333 70 -169s103 -70 169 -70s122.333 23.333 169 70s70 103 70 169s-23.333 122.333 -70 169s-103 70 -169 70zM273.498 0c-57 0 -105.833 20.167 -146.5 60.5s-61 89 -61 146s20.333 105.833 61 146.5s89.5 61 146.5 61
s105.667 -20.333 146 -61s60.5 -89.5 60.5 -146.5s-20.167 -105.667 -60.5 -146s-89 -60.5 -146 -60.5z" />
    <glyph glyph-name="at" unicode="@" 
d="M181 209l85 94.998c8 8 8.16699 15.833 0.5 23.5s-15.5 7.5 -23.5 -0.5l-94 -107c-3.33301 -3.33301 -5 -7.16602 -5 -11.499s1.66699 -8.16602 5 -11.499l94 -107c8 -7.33301 15.833 -7.33301 23.5 0s7.5 15 -0.5 23zM381 327.498
c-7.33301 7.66699 -15 7.49805 -23 -0.501953l-95 -107c-2.66699 -3.33301 -4 -7.16602 -4 -11.499s1.33301 -8.16602 4 -11.499l95 -107c8 -7.33301 15.667 -7.33301 23 0s7.33301 15 0 23l-85 96l85 95c7.33301 8 7.33301 15.833 0 23.5zM272 447.996
c-66 0 -122.5 -23.5 -169.5 -70.5s-70.5 -103.5 -70.5 -169.5s23.5 -122.5 70.5 -169.5s103.5 -70.5 169.5 -70.5s122.5 23.5 169.5 70.5s70.5 103.5 70.5 169.5s-23.5 122.5 -70.5 169.5s-103.5 70.5 -169.5 70.5zM272 -0.00390625c-57.333 0 -106.333 20.333 -147 61
s-61 89.667 -61 147s20.333 106.333 61 147s89.667 61 147 61s106.333 -20.333 147 -61s61 -89.667 61 -147s-20.333 -106.333 -61 -147s-89.667 -61 -147 -61z" />
    <glyph glyph-name="A" unicode="A" 
d="M395 219l-94 107.002c-8 7.33301 -15.833 7.33301 -23.5 0s-7.5 -15 0.5 -23l85 -96l-85 -95c-8 -8 -8.16699 -15.833 -0.5 -23.5s15.5 -7.5 23.5 0.5l94 107c3.33301 3.33301 5 7.16602 5 11.499s-1.66699 8.16602 -5 11.499zM285 207.002
c0 4.66699 -1.33496 8.66504 -4.00195 11.998l-95 107c-3.33301 3.33301 -7.16602 5 -11.499 5s-8.16602 -1.66699 -11.499 -5c-7.33301 -7.33301 -7.33301 -15 0 -23l85 -96l-85 -95c-3.33301 -3.33301 -5 -7.16602 -5 -11.499s1.66699 -8.16602 5 -11.499
c7.33301 -8 15 -8 23 0l95 107c2.66699 3.33301 4 7 4 11zM271.998 448c-66 0 -122.5 -23.5 -169.5 -70.5s-70.5 -103.5 -70.5 -169.5s23.5 -122.5 70.5 -169.5s103.5 -70.5 169.5 -70.5s122.5 23.5 169.5 70.5s70.5 103.5 70.5 169.5s-23.5 122.5 -70.5 169.5
s-103.5 70.5 -169.5 70.5zM271.998 0c-57.333 0 -106.333 20.333 -147 61s-61 89.667 -61 147s20.333 106.333 61 147s89.667 61 147 61s106.333 -20.333 147 -61s61 -89.667 61 -147s-20.333 -106.333 -61 -147s-89.667 -61 -147 -61z" />
    <glyph glyph-name="B" unicode="B" 
d="M155 160h222.997c4.66699 0 8.66699 2 12 6c7.33301 8 7.33301 16.333 0 25l-112 124c-3.33301 3.33301 -7.16602 5 -11.499 5s-8.16602 -1.66699 -11.499 -5v-1l-112 -123c-7.33301 -8.66699 -7.33301 -17 0 -25l1 -1c2.66699 -3.33301 6.33398 -5 11.001 -5z" />
    <glyph glyph-name="C" unicode="C" 
d="M278 165l0.00195312 1l112 123c7.33301 8.66699 7.33301 17 0 25v1c-3.33301 3.33301 -7.33301 5 -12 5h-223c-4.66699 0 -8.66699 -2 -12 -6c-7.33301 -8 -7.33301 -16.333 0 -25l112 -124c3.33301 -3.33301 7.16602 -5 11.499 -5s8.16602 1.66699 11.499 5z" />
    <glyph glyph-name="D" unicode="D" 
d="M289 348l-124 -112.002c-3.33301 -3.33301 -5 -7.16602 -5 -11.499s1.66699 -8.16602 5 -11.499h1l123 -112c8.66699 -7.33301 17 -7.33301 25 0h1c3.33301 3.33301 5 7.33301 5 12v223c0 4.66699 -2 8.66699 -6 12c-8 7.33301 -16.333 7.33301 -25 0z" />
    <glyph glyph-name="E" unicode="E" 
d="M222 100l123 112.999c3.33301 2.66699 5 6.33398 5 11.001s-1.66699 8.33398 -5 11.001l-0.5 0.5l-0.5 0.5l-122 112c-8 7.33301 -16.333 7.33301 -25 0v-1c-3.33301 -2.66699 -5 -6.33398 -5 -11.001v-224c0 -4.66699 2 -8.66699 6 -12h-1
c8.66699 -7.33301 17 -7.33301 25 0z" />
    <glyph glyph-name="F" unicode="F" 
d="M272 448c-66 0 -122.5 -23.5 -169.5 -70.5s-70.5 -103.5 -70.5 -169.5s23.5 -122.5 70.5 -169.5s103.5 -70.5 169.5 -70.5s122.5 23.5 169.5 70.5s70.5 103.5 70.5 169.5s-23.5 122.5 -70.5 169.5s-103.5 70.5 -169.5 70.5zM272 0c-57.333 0 -106.333 20.333 -147 61
s-61 89.667 -61 147s20.333 106.333 61 147s89.667 61 147 61s106.333 -20.333 147 -61s61 -89.667 61 -147s-20.333 -106.333 -61 -147s-89.667 -61 -147 -61zM282 283c-2.66699 3.33301 -6 5 -10 5s-7.33301 -1.66699 -10 -5v-1l-98 -123
c-6.66699 -8.66699 -6.66699 -17 0 -25v-1c2.66699 -3.33301 6 -5 10 -5h195c4 0 7.66699 2 11 6c6 8 6 16.333 0 25z" />
    <glyph glyph-name="G" unicode="G" 
d="M272 448c-66 0 -122.5 -23.5 -169.5 -70.5s-70.5 -103.5 -70.5 -169.5s23.5 -122.5 70.5 -169.5s103.5 -70.5 169.5 -70.5s122.5 23.5 169.5 70.5s70.5 103.5 70.5 169.5s-23.5 122.5 -70.5 169.5s-103.5 70.5 -169.5 70.5zM272 0c-57.333 0 -106.333 20.333 -147 61
s-61 89.667 -61 147s20.333 106.333 61 147s89.667 61 147 61s106.333 -20.333 147 -61s61 -89.667 61 -147s-20.333 -106.333 -61 -147s-89.667 -61 -147 -61zM380 251c-2.66699 3.33301 -6 5 -10 5h-196c-4 0 -7.33301 -2 -10 -6c-6.66699 -8 -6.66699 -16.333 0 -25
l98 -124c2.66699 -3.33301 6 -5 10 -5s7.33301 1.66699 10 5v1l98 123c6.66699 8.66699 6.66699 17 0 25v1z" />
    <glyph glyph-name="H" unicode="H" 
d="M272 448c-66 0 -122.5 -23.5 -169.5 -70.5s-70.5 -103.5 -70.5 -169.5s23.5 -122.5 70.5 -169.5s103.5 -70.5 169.5 -70.5s122.5 23.5 169.5 70.5s70.5 103.5 70.5 169.5s-23.5 122.5 -70.5 169.5s-103.5 70.5 -169.5 70.5zM272 0c-57.333 0 -106.333 20.333 -147 61
s-61 89.667 -61 147s20.333 106.333 61 147s89.667 61 147 61s106.333 -20.333 147 -61s61 -89.667 61 -147s-20.333 -106.333 -61 -147s-89.667 -61 -147 -61zM314 316c-8 6.66699 -16.333 6.66797 -25 0.000976562l-124 -98c-3.33301 -2.66699 -5 -5.83398 -5 -9.50098
s1.66699 -7.16699 5 -10.5h1l123 -98c8.66699 -6 17 -6 25 0l1 1c3.33301 2.66699 5 6 5 10v195c0 4 -2 7.33301 -6 10z" />
    <glyph glyph-name="I" unicode="I" 
d="M272 448c-66 0 -122.5 -23.5 -169.5 -70.5s-70.5 -103.5 -70.5 -169.5s23.5 -122.5 70.5 -169.5s103.5 -70.5 169.5 -70.5s122.5 23.5 169.5 70.5s70.5 103.5 70.5 169.5s-23.5 122.5 -70.5 169.5s-103.5 70.5 -169.5 70.5zM272 0c-57.333 0 -106.333 20.333 -147 61
s-61 89.667 -61 147s20.333 106.333 61 147s89.667 61 147 61s106.333 -20.333 147 -61s61 -89.667 61 -147s-20.333 -106.333 -61 -147s-89.667 -61 -147 -61zM378 218l-123 98c-8.66699 6.66699 -17 6.66699 -25 0h-1c-3.33301 -2.66699 -5 -6 -5 -10v-195
c0 -4 2 -7.66699 6 -11c8 -6 16.333 -6 25 0l124 98c3.33301 2.66699 5 6 5 10s-1.66699 7.33301 -5 10h-1z" />
    <glyph glyph-name="J" unicode="J" 
d="M80 229l96 -96.001c7.33301 -8 14.833 -8.16699 22.5 -0.5s7.5 15.167 -0.5 22.5l-68 69h233c30 0 53.5 -11.333 70.5 -34s25.5 -48.667 25.5 -78c0 -4.66699 1.5 -8.5 4.5 -11.5s6.83301 -4.5 11.5 -4.5s8.5 1.5 11.5 4.5s4.5 6.83301 4.5 11.5c0 40 -10.333 74 -31 102
s-53 42 -97 42h-233l68 69c8 7.33301 8.16699 14.833 0.5 22.5s-15.167 7.5 -22.5 -0.5l-96 -96c-8 -7.33301 -8 -14.666 0 -21.999z" />
    <glyph glyph-name="K" unicode="K" 
d="M144 192h256c4.66699 0 8.5 1.5 11.5 4.5s4.5 6.83301 4.5 11.5s-1.5 8.5 -4.5 11.5s-6.83301 4.5 -11.5 4.5h-256c-4.66699 0 -8.5 -1.5 -11.5 -4.5s-4.5 -6.83301 -4.5 -11.5s1.5 -8.5 4.5 -11.5s6.83301 -4.5 11.5 -4.5z" />
    <glyph glyph-name="L" unicode="L" 
d="M144 192h112v-112c0 -4.66699 1.5 -8.5 4.5 -11.5s6.83301 -4.5 11.5 -4.5s8.5 1.5 11.5 4.5s4.5 6.83301 4.5 11.5v112h112c4.66699 0 8.5 1.5 11.5 4.5s4.5 6.83301 4.5 11.5s-1.5 8.5 -4.5 11.5s-6.83301 4.5 -11.5 4.5h-112v112c0 4.66699 -1.5 8.5 -4.5 11.5
s-6.83301 4.5 -11.5 4.5s-8.5 -1.5 -11.5 -4.5s-4.5 -6.83301 -4.5 -11.5v-112h-112c-4.66699 0 -8.5 -1.5 -11.5 -4.5s-4.5 -6.83301 -4.5 -11.5s1.5 -8.5 4.5 -11.5s6.83301 -4.5 11.5 -4.5z" />
    <glyph glyph-name="M" unicode="M" 
d="M171.5 96.5c7.66699 -7.66699 15.167 -7.5 22.5 0.5l89 88l89 -88c7.33301 -8 14.833 -8.16699 22.5 -0.5s7.5 15.167 -0.5 22.5l-88 89l88 89c8 7.33301 8.16699 14.833 0.5 22.5s-15.167 7.5 -22.5 -0.5l-89 -88l-89 88c-7.33301 8 -14.833 8.16699 -22.5 0.5
s-7.5 -15.167 0.5 -22.5l88 -89l-88 -89c-8 -7.33301 -8.16699 -14.833 -0.5 -22.5z" />
    <glyph glyph-name="N" unicode="N" 
d="M220.5 70.5l1 -0.998047l0.5 -0.5c0.666992 0 1.33398 -0.166992 2.00098 -0.5l1 -0.5c2 -0.666992 3.33301 -1.33398 4 -2.00098h4c2 -0.666992 3.66699 -0.666992 5 0h2c2.66699 0.666992 5 1.66699 7 3l1 1c2 1.33301 3.16699 2.16602 3.5 2.49902
s0.666016 0.833008 0.999023 1.5l0.5 1l191 306c3.33301 5.33301 4.33301 11 3 17s-4.5 10.667 -9.5 14s-10.5 4.33301 -16.5 3s-10.667 -4.33301 -14 -9l-177 -283l-97 95c-4.66699 4 -10 6 -16 6s-11.167 -2.33301 -15.5 -7s-6.33301 -10.167 -6 -16.5
s2.83301 -11.5 7.5 -15.5l117 -114z" />
    <glyph glyph-name="O" unicode="O" 
d="M272 448c-66 0 -122.5 -23.5 -169.5 -70.5s-70.5 -103.5 -70.5 -169.5s23.5 -122.5 70.5 -169.5s103.5 -70.5 169.5 -70.5s122.5 23.5 169.5 70.5s70.5 103.5 70.5 169.5s-23.5 122.5 -70.5 169.5s-103.5 70.5 -169.5 70.5zM272 0c-57.333 0 -106.333 20.333 -147 61
s-61 89.667 -61 147s20.333 106.333 61 147s89.667 61 147 61s106.333 -20.333 147 -61s61 -89.667 61 -147s-20.333 -106.333 -61 -147s-89.667 -61 -147 -61zM400 224h-256c-4.66699 0 -8.5 -1.5 -11.5 -4.5s-4.5 -6.83301 -4.5 -11.5s1.5 -8.5 4.5 -11.5
s6.83301 -4.5 11.5 -4.5h256c4.66699 0 8.5 1.5 11.5 4.5s4.5 6.83301 4.5 11.5s-1.5 8.5 -4.5 11.5s-6.83301 4.5 -11.5 4.5z" />
    <glyph glyph-name="P" unicode="P" 
d="M272 448c-66 0 -122.5 -23.5 -169.5 -70.5s-70.5 -103.5 -70.5 -169.5s23.5 -122.5 70.5 -169.5s103.5 -70.5 169.5 -70.5s122.5 23.5 169.5 70.5s70.5 103.5 70.5 169.5s-23.5 122.5 -70.5 169.5s-103.5 70.5 -169.5 70.5zM272 0c-57.333 0 -106.333 20.333 -147 61
s-61 89.667 -61 147s20.333 106.333 61 147s89.667 61 147 61s106.333 -20.333 147 -61s61 -89.667 61 -147s-20.333 -106.333 -61 -147s-89.667 -61 -147 -61zM400 224h-112v112c0 4.66699 -1.5 8.5 -4.5 11.5s-6.83301 4.5 -11.5 4.5s-8.5 -1.5 -11.5 -4.5
s-4.5 -6.83301 -4.5 -11.5v-112h-112c-4.66699 0 -8.5 -1.5 -11.5 -4.5s-4.5 -6.83301 -4.5 -11.5s1.5 -8.5 4.5 -11.5s6.83301 -4.5 11.5 -4.5h112v-112c0 -4.66699 1.5 -8.5 4.5 -11.5s6.83301 -4.5 11.5 -4.5s8.5 1.5 11.5 4.5s4.5 6.83301 4.5 11.5v112h112
c4.66699 0 8.5 1.5 11.5 4.5s4.5 6.83301 4.5 11.5s-1.5 8.5 -4.5 11.5s-6.83301 4.5 -11.5 4.5z" />
    <glyph glyph-name="Q" unicode="Q" 
d="M272 448c-66 0 -122.5 -23.5 -169.5 -70.5s-70.5 -103.5 -70.5 -169.5s23.5 -122.5 70.5 -169.5s103.5 -70.5 169.5 -70.5s122.5 23.5 169.5 70.5s70.5 103.5 70.5 169.5s-23.5 122.5 -70.5 169.5s-103.5 70.5 -169.5 70.5zM272 0c-57.333 0 -106.333 20.333 -147 61
s-61 89.667 -61 147s20.333 106.333 61 147s89.667 61 147 61s106.333 -20.333 147 -61s61 -89.667 61 -147s-20.333 -106.333 -61 -147s-89.667 -61 -147 -61zM361 319l-87.999 -88l-79 88c-8 8 -15.667 8.16699 -23 0.5s-7.33301 -15.167 0 -22.5l79 -88l-89 -90
c-7.33301 -7.33301 -7.33301 -14.833 0 -22.5s14.666 -7.5 21.999 0.5l88 88l79 -88c8 -8 15.667 -8.16699 23 -0.5s7.33301 15.167 0 22.5l-79 88l89 90c8 7.33301 8.16699 14.833 0.5 22.5s-15.167 7.5 -22.5 -0.5z" />
    <glyph glyph-name="R" unicode="R" 
d="M257 480c-70.667 0 -131 -25 -181 -75s-75 -110.333 -75 -181s25 -131 75 -181s110.333 -75 181 -75s131 25 181 75s75 110.333 75 181s-25 131 -75 181s-110.333 75 -181 75zM257.5 0c-61.667 0 -114.5 21.833 -158.5 65.5s-66 96.5 -66 158.5s22 114.833 66 158.5
s96.833 65.5 158.5 65.5s114.334 -21.833 158.001 -65.5s65.5 -96.5 65.5 -158.5s-21.833 -114.833 -65.5 -158.5s-96.334 -65.5 -158.001 -65.5zM369.5 326c-5 3.33301 -10.5 4.33398 -16.5 3.00098s-11 -4.66602 -15 -9.99902l-108 -165l-51 48
c-4.66699 4 -10.167 6 -16.5 6s-11.5 -2.33301 -15.5 -7s-5.83301 -10.167 -5.5 -16.5s2.5 -11.5 6.5 -15.5l72 -66l0.5 -0.5l1 -1l0.5 -0.5c0.666992 0 1.33398 -0.166992 2.00098 -0.5l1 -0.5c2 -0.666992 3.33301 -1.33398 4 -2.00098h4
c2 -0.666992 3.66699 -0.666992 5 0h2c2.66699 0.666992 5 1.66699 7 3l1 1c2 1.33301 3.16699 2.16602 3.5 2.49902s0.666016 0.833008 0.999023 1.5l0.5 1l123 188c3.33301 5.33301 4.33301 11 3 17s-4.5 10.667 -9.5 14z" />
    <glyph glyph-name="S" unicode="S" 
d="M304 480c-57.333 0 -106.333 -20.333 -147 -61s-61 -89.667 -61 -147c0 -48.667 15.333 -92 46 -130l-135 -136c-4.66699 -4.66699 -7 -10 -7 -16s2.16699 -11.167 6.5 -15.5s9.5 -6.5 15.5 -6.5s11.333 2.33301 16 7l136 135c38 -30.667 81.333 -46 130 -46
c57.333 0 106.333 20.333 147 61s61 89.667 61 147s-20.333 106.333 -61 147s-89.667 61 -147 61zM304 96c-48.667 0 -90.167 17.167 -124.5 51.5s-51.5 75.833 -51.5 124.5s17.167 90.167 51.5 124.5s75.833 51.5 124.5 51.5s90.167 -17.167 124.5 -51.5
s51.5 -75.833 51.5 -124.5s-17.167 -90.167 -51.5 -124.5s-75.833 -51.5 -124.5 -51.5zM400 288h-192c-4.66699 0 -8.5 -1.5 -11.5 -4.5s-4.5 -6.83301 -4.5 -11.5s1.5 -8.5 4.5 -11.5s6.83301 -4.5 11.5 -4.5h192c4.66699 0 8.5 1.5 11.5 4.5s4.5 6.83301 4.5 11.5
s-1.5 8.5 -4.5 11.5s-6.83301 4.5 -11.5 4.5z" />
    <glyph glyph-name="T" unicode="T" 
d="M304 480c-57.333 0 -106.333 -20.333 -147 -61s-61 -89.667 -61 -147c0 -48.667 15.333 -92 46 -130l-135 -136c-4.66699 -4.66699 -7 -10 -7 -16s2.16699 -11.167 6.5 -15.5s9.5 -6.5 15.5 -6.5s11.333 2.33301 16 7l136 135c38 -30.667 81.333 -46 130 -46
c57.333 0 106.333 20.333 147 61s61 89.667 61 147s-20.333 106.333 -61 147s-89.667 61 -147 61zM304 96c-48.667 0 -90.167 17.167 -124.5 51.5s-51.5 75.833 -51.5 124.5s17.167 90.167 51.5 124.5s75.833 51.5 124.5 51.5s90.167 -17.167 124.5 -51.5
s51.5 -75.833 51.5 -124.5s-17.167 -90.167 -51.5 -124.5s-75.833 -51.5 -124.5 -51.5zM400 288h-80v80c0 4.66699 -1.5 8.5 -4.5 11.5s-6.83301 4.5 -11.5 4.5s-8.5 -1.5 -11.5 -4.5s-4.5 -6.83301 -4.5 -11.5v-80h-80c-4.66699 0 -8.5 -1.5 -11.5 -4.5
s-4.5 -6.83301 -4.5 -11.5s1.5 -8.5 4.5 -11.5s6.83301 -4.5 11.5 -4.5h80v-80c0 -4.66699 1.5 -8.5 4.5 -11.5s6.83301 -4.5 11.5 -4.5s8.5 1.5 11.5 4.5s4.5 6.83301 4.5 11.5v80h80c4.66699 0 8.5 1.5 11.5 4.5s4.5 6.83301 4.5 11.5s-1.5 8.5 -4.5 11.5
s-6.83301 4.5 -11.5 4.5z" />
    <glyph glyph-name="U" unicode="U" 
d="M305 480c-57.333 0 -106.333 -20.333 -147 -61s-61 -89.667 -61 -147c0 -48.667 15.333 -92.334 46 -131.001l-137 -137c-4.66699 -4 -7 -9.16699 -7 -15.5s2.16699 -11.666 6.5 -15.999s9.66602 -6.5 15.999 -6.5s11.5 2.33301 15.5 7l137 137
c38.667 -30.667 82.334 -46 131.001 -46c57.333 0 106.333 20.333 147 61s61 89.667 61 147s-20.333 106.333 -61 147s-89.667 61 -147 61zM305 96c-48.667 0 -90.167 17.167 -124.5 51.5s-51.5 75.833 -51.5 124.5s17.167 90.167 51.5 124.5s75.833 51.5 124.5 51.5
s90.167 -17.167 124.5 -51.5s51.5 -75.833 51.5 -124.5s-17.167 -90.167 -51.5 -124.5s-75.833 -51.5 -124.5 -51.5z" />
    <glyph glyph-name="V" unicode="V" 
d="M416 416h-320c-8.66699 0 -16.167 -3.16699 -22.5 -9.5s-9.5 -13.833 -9.5 -22.5v-320c0 -8.66699 3.16699 -16.167 9.5 -22.5s13.833 -9.5 22.5 -9.5h320c8.66699 0 16.167 3.16699 22.5 9.5s9.5 13.833 9.5 22.5v320c0 8.66699 -3.16699 16.167 -9.5 22.5
s-13.833 9.5 -22.5 9.5zM416 64h-320v320h320v-320z" />
    <glyph glyph-name="W" unicode="W" 
d="M416 416h-320c-8.66699 0 -16.167 -3.16699 -22.5 -9.5s-9.5 -13.833 -9.5 -22.5v-320c0 -8.66699 3.16699 -16.167 9.5 -22.5s13.833 -9.5 22.5 -9.5h320c8.66699 0 16.167 3.16699 22.5 9.5s9.5 13.833 9.5 22.5v320c0 8.66699 -3.16699 16.167 -9.5 22.5
s-13.833 9.5 -22.5 9.5zM416 64h-320v320h320v-320zM192 128h128c8.66699 0 16.167 3.16699 22.5 9.5s9.5 13.833 9.5 22.5v128c0 8.66699 -3.16699 16.167 -9.5 22.5s-13.833 9.5 -22.5 9.5h-128c-8.66699 0 -16.167 -3.16699 -22.5 -9.5s-9.5 -13.833 -9.5 -22.5v-128
c0 -8.66699 3.16699 -16.167 9.5 -22.5s13.833 -9.5 22.5 -9.5z" />
    <glyph glyph-name="X" unicode="X" 
d="M128 320v-224c0 -8.66699 3.16699 -16.167 9.5 -22.5s13.833 -9.5 22.5 -9.5h224c8.66699 0 16.167 3.16699 22.5 9.5s9.5 13.833 9.5 22.5v224c0 8.66699 -3.16699 16.167 -9.5 22.5s-13.833 9.5 -22.5 9.5h-224c-8.66699 0 -16.167 -3.16699 -22.5 -9.5
s-9.5 -13.833 -9.5 -22.5zM384 96h-224v224h224v-224zM208 192h128c4.66699 0 8.5 1.5 11.5 4.5s4.5 6.83301 4.5 11.5s-1.5 8.5 -4.5 11.5s-6.83301 4.5 -11.5 4.5h-128c-4.66699 0 -8.5 -1.5 -11.5 -4.5s-4.5 -6.83301 -4.5 -11.5s1.5 -8.5 4.5 -11.5
s6.83301 -4.5 11.5 -4.5z" />
    <glyph glyph-name="Y" unicode="Y" 
d="M128 320v-224c0 -8.66699 3.16699 -16.167 9.5 -22.5s13.833 -9.5 22.5 -9.5h224c8.66699 0 16.167 3.16699 22.5 9.5s9.5 13.833 9.5 22.5v224c0 8.66699 -3.16699 16.167 -9.5 22.5s-13.833 9.5 -22.5 9.5h-224c-8.66699 0 -16.167 -3.16699 -22.5 -9.5
s-9.5 -13.833 -9.5 -22.5zM384 96h-224v224h224v-224zM208 192h48v-48c0 -4.66699 1.5 -8.5 4.5 -11.5s6.83301 -4.5 11.5 -4.5s8.5 1.5 11.5 4.5s4.5 6.83301 4.5 11.5v48h48c4.66699 0 8.5 1.5 11.5 4.5s4.5 6.83301 4.5 11.5s-1.5 8.5 -4.5 11.5s-6.83301 4.5 -11.5 4.5
h-48v48c0 4.66699 -1.5 8.5 -4.5 11.5s-6.83301 4.5 -11.5 4.5s-8.5 -1.5 -11.5 -4.5s-4.5 -6.83301 -4.5 -11.5v-48h-48c-4.66699 0 -8.5 -1.5 -11.5 -4.5s-4.5 -6.83301 -4.5 -11.5s1.5 -8.5 4.5 -11.5s6.83301 -4.5 11.5 -4.5z" />
    <glyph glyph-name="Z" unicode="Z" 
d="M416 64h-320v320h236l20 32h-256c-8.66699 0 -16.167 -3.16699 -22.5 -9.5s-9.5 -13.833 -9.5 -22.5v-320c0 -8.66699 3.16699 -16.167 9.5 -22.5s13.833 -9.5 22.5 -9.5h320c8.66699 0 16.167 3.16699 22.5 9.5s9.5 13.833 9.5 22.5v211l-32 -51v-160zM470 444
c-4 2.66699 -8.00098 3.99805 -12.001 3.99805c-8 0 -14.333 -3.33301 -19 -10l-174 -251l-67 77c-4.66699 4 -10.167 5.83301 -16.5 5.5s-11.5 -2.66602 -15.5 -6.99902s-6 -9.66602 -6 -15.999s2.33301 -11.5 7 -15.5l81 -92c0 -0.666992 0.333008 -1.33398 1 -2.00098
l1 -1l2 -2h0.5c0.333008 0 0.5 -0.166992 0.5 -0.5s0.166992 -0.666016 0.5 -0.999023s0.833008 -0.5 1.5 -0.5c0.666992 -0.666992 2 -1.33398 4 -2.00098l1 -1c2.66699 -0.666992 5 -1 7 -1c6.66699 0 12.334 2.33301 17.001 7c0 0.666992 0.166992 1.33398 0.5 2.00098
s0.833008 1 1.5 1l190 275c3.33301 5.33301 4.5 11 3.5 17s-4.16699 10.667 -9.5 14z" />
    <glyph glyph-name="bracketleft" unicode="[" 
d="M256 416c-53.333 0 -98.666 -18.667 -135.999 -56s-56 -82.666 -56 -135.999s18.667 -98.666 56 -135.999s82.666 -56 135.999 -56s98.666 18.667 135.999 56s56 82.666 56 135.999s-18.667 98.666 -56 135.999s-82.666 56 -135.999 56zM256 64
c-44 0 -81.667 15.667 -113 47s-47 69 -47 113s15.667 81.667 47 113s69 47 113 47s81.667 -15.667 113 -47s47 -69 47 -113s-15.667 -81.667 -47 -113s-69 -47 -113 -47z" />
    <glyph glyph-name="backslash" unicode="\" 
d="M256 416c-53.333 0 -98.666 -18.667 -135.999 -56s-56 -82.666 -56 -135.999s18.667 -98.666 56 -135.999s82.666 -56 135.999 -56s98.666 18.667 135.999 56s56 82.666 56 135.999s-18.667 98.666 -56 135.999s-82.666 56 -135.999 56zM256 64
c-44 0 -81.667 15.667 -113 47s-47 69 -47 113s15.667 81.667 47 113s69 47 113 47s81.667 -15.667 113 -47s47 -69 47 -113s-15.667 -81.667 -47 -113s-69 -47 -113 -47zM160 224c0 -26.667 9.33301 -49.334 28 -68.001s41.334 -28 68.001 -28s49.334 9.33301 68.001 28
s28 41.334 28 68.001s-9.33301 49.334 -28 68.001s-41.334 28 -68.001 28s-49.334 -9.33301 -68.001 -28s-28 -41.334 -28 -68.001z" />
    <glyph glyph-name="bracketright" unicode="]" 
d="M256 480c-70.667 0 -131 -25 -181 -75s-75 -110.333 -75 -181s25 -131 75 -181s110.333 -75 181 -75s131 25 181 75s75 110.333 75 181s-25 131 -75 181s-110.333 75 -181 75zM256 0c-62 0 -114.833 21.833 -158.5 65.5s-65.5 96.5 -65.5 158.5
s21.833 114.833 65.5 158.5s96.5 65.5 158.5 65.5s114.833 -21.833 158.5 -65.5s65.5 -96.5 65.5 -158.5s-21.833 -114.833 -65.5 -158.5s-96.5 -65.5 -158.5 -65.5zM320 320h-128c-8.66699 0 -16.167 -3.16699 -22.5 -9.5s-9.5 -13.833 -9.5 -22.5v-128
c0 -8.66699 3.16699 -16.167 9.5 -22.5s13.833 -9.5 22.5 -9.5h128c8.66699 0 16.167 3.16699 22.5 9.5s9.5 13.833 9.5 22.5v128c0 8.66699 -3.16699 16.167 -9.5 22.5s-13.833 9.5 -22.5 9.5z" />
    <glyph glyph-name="asciicircum" unicode="^" 
d="M320 128c8.66699 0 16.167 3.16699 22.5 9.5s9.5 13.833 9.5 22.5v128c0 8.66699 -3.16699 16.167 -9.5 22.5s-13.833 9.5 -22.5 9.5h-128c-8.66699 0 -16.167 -3.16699 -22.5 -9.5s-9.5 -13.833 -9.5 -22.5v-128c0 -8.66699 3.16699 -16.167 9.5 -22.5
s13.833 -9.5 22.5 -9.5h128z" />
    <glyph glyph-name="underscore" unicode="_" 
d="M256 -32c70.667 0 131 25 181 75s75 110.333 75 181s-25 131 -75 181s-110.333 75 -181 75s-131 -25 -181 -75s-75 -110.333 -75 -181s25 -131 75 -181s110.333 -75 181 -75zM256 448c62 0 114.833 -21.833 158.5 -65.5s65.5 -96.5 65.5 -158.5
s-21.833 -114.833 -65.5 -158.5s-96.5 -65.5 -158.5 -65.5s-114.833 21.833 -158.5 65.5s-65.5 96.5 -65.5 158.5s21.833 114.833 65.5 158.5s96.5 65.5 158.5 65.5zM192 128c8.66699 0 16.167 3.16699 22.5 9.5s9.5 13.833 9.5 22.5v128
c0 8.66699 -3.16699 16.167 -9.5 22.5s-13.833 9.5 -22.5 9.5s-16.167 -3.16699 -22.5 -9.5s-9.5 -13.833 -9.5 -22.5v-128c0 -8.66699 3.16699 -16.167 9.5 -22.5s13.833 -9.5 22.5 -9.5zM320 128c8.66699 0 16.167 3.16699 22.5 9.5s9.5 13.833 9.5 22.5v128
c0 8.66699 -3.16699 16.167 -9.5 22.5s-13.833 9.5 -22.5 9.5s-16.167 -3.16699 -22.5 -9.5s-9.5 -13.833 -9.5 -22.5v-128c0 -8.66699 3.16699 -16.167 9.5 -22.5s13.833 -9.5 22.5 -9.5z" />
    <glyph glyph-name="grave" unicode="`" 
d="M192 320c-8.66699 0 -16.167 -3.16699 -22.5 -9.5s-9.5 -13.833 -9.5 -22.5v-128c0 -8.66699 3.16699 -16.167 9.5 -22.5s13.833 -9.5 22.5 -9.5s16.167 3.16699 22.5 9.5s9.5 13.833 9.5 22.5v128c0 8.66699 -3.16699 16.167 -9.5 22.5s-13.833 9.5 -22.5 9.5zM288 160
c0 -8.66699 3.16699 -16.167 9.5 -22.5s13.833 -9.5 22.5 -9.5s16.167 3.16699 22.5 9.5s9.5 13.833 9.5 22.5v128c0 8.66699 -3.16699 16.167 -9.5 22.5s-13.833 9.5 -22.5 9.5s-16.167 -3.16699 -22.5 -9.5s-9.5 -13.833 -9.5 -22.5v-128z" />
    <glyph glyph-name="a" unicode="a" 
d="M112 224h288c4.66699 0 8.5 1.5 11.5 4.5s4.5 6.83301 4.5 11.5s-1.5 8.5 -4.5 11.5s-6.83301 4.5 -11.5 4.5h-288c-4.66699 0 -8.5 -1.5 -11.5 -4.5s-4.5 -6.83301 -4.5 -11.5s1.5 -8.5 4.5 -11.5s6.83301 -4.5 11.5 -4.5zM112 320h288c4.66699 0 8.5 1.5 11.5 4.5
s4.5 6.83301 4.5 11.5s-1.5 8.5 -4.5 11.5s-6.83301 4.5 -11.5 4.5h-288c-4.66699 0 -8.5 -1.5 -11.5 -4.5s-4.5 -6.83301 -4.5 -11.5s1.5 -8.5 4.5 -11.5s6.83301 -4.5 11.5 -4.5zM112 128h288c4.66699 0 8.5 1.5 11.5 4.5s4.5 6.83301 4.5 11.5s-1.5 8.5 -4.5 11.5
s-6.83301 4.5 -11.5 4.5h-288c-4.66699 0 -8.5 -1.5 -11.5 -4.5s-4.5 -6.83301 -4.5 -11.5s1.5 -8.5 4.5 -11.5s6.83301 -4.5 11.5 -4.5z" />
    <glyph glyph-name="b" unicode="b" 
d="M480 448h-416c-8.66699 0 -16.167 -3.16699 -22.5 -9.5s-9.5 -13.833 -9.5 -22.5v-416c0 -8.66699 3.16699 -16.167 9.5 -22.5s13.833 -9.5 22.5 -9.5h416c8.66699 0 16.167 3.16699 22.5 9.5s9.5 13.833 9.5 22.5v416c0 8.66699 -3.16699 16.167 -9.5 22.5
s-13.833 9.5 -22.5 9.5zM480 0h-416v416h416v-416zM144 192h256c4.66699 0 8.5 1.5 11.5 4.5s4.5 6.83301 4.5 11.5s-1.5 8.5 -4.5 11.5s-6.83301 4.5 -11.5 4.5h-256c-4.66699 0 -8.5 -1.5 -11.5 -4.5s-4.5 -6.83301 -4.5 -11.5s1.5 -8.5 4.5 -11.5s6.83301 -4.5 11.5 -4.5
zM144 288h256c4.66699 0 8.5 1.5 11.5 4.5s4.5 6.83301 4.5 11.5s-1.5 8.5 -4.5 11.5s-6.83301 4.5 -11.5 4.5h-256c-4.66699 0 -8.5 -1.5 -11.5 -4.5s-4.5 -6.83301 -4.5 -11.5s1.5 -8.5 4.5 -11.5s6.83301 -4.5 11.5 -4.5zM144 96h256c4.66699 0 8.5 1.5 11.5 4.5
s4.5 6.83301 4.5 11.5s-1.5 8.5 -4.5 11.5s-6.83301 4.5 -11.5 4.5h-256c-4.66699 0 -8.5 -1.5 -11.5 -4.5s-4.5 -6.83301 -4.5 -11.5s1.5 -8.5 4.5 -11.5s6.83301 -4.5 11.5 -4.5z" />
    <glyph glyph-name="c" unicode="c" 
d="M272 448c-66 0 -122.5 -23.5 -169.5 -70.5s-70.5 -103.5 -70.5 -169.5s23.5 -122.5 70.5 -169.5s103.5 -70.5 169.5 -70.5s122.5 23.5 169.5 70.5s70.5 103.5 70.5 169.5s-23.5 122.5 -70.5 169.5s-103.5 70.5 -169.5 70.5zM272 0c-57.333 0 -106.333 20.333 -147 61
s-61 89.667 -61 147s20.333 106.333 61 147s89.667 61 147 61s106.333 -20.333 147 -61s61 -89.667 61 -147s-20.333 -106.333 -61 -147s-89.667 -61 -147 -61zM400 224h-256c-4.66699 0 -8.5 -1.5 -11.5 -4.5s-4.5 -6.83301 -4.5 -11.5s1.5 -8.5 4.5 -11.5
s6.83301 -4.5 11.5 -4.5h256c4.66699 0 8.5 1.5 11.5 4.5s4.5 6.83301 4.5 11.5s-1.5 8.5 -4.5 11.5s-6.83301 4.5 -11.5 4.5zM400 320h-256c-4.66699 0 -8.5 -1.5 -11.5 -4.5s-4.5 -6.83301 -4.5 -11.5s1.5 -8.5 4.5 -11.5s6.83301 -4.5 11.5 -4.5h256
c4.66699 0 8.5 1.5 11.5 4.5s4.5 6.83301 4.5 11.5s-1.5 8.5 -4.5 11.5s-6.83301 4.5 -11.5 4.5zM400 128h-256c-4.66699 0 -8.5 -1.5 -11.5 -4.5s-4.5 -6.83301 -4.5 -11.5s1.5 -8.5 4.5 -11.5s6.83301 -4.5 11.5 -4.5h256c4.66699 0 8.5 1.5 11.5 4.5
s4.5 6.83301 4.5 11.5s-1.5 8.5 -4.5 11.5s-6.83301 4.5 -11.5 4.5z" />
    <glyph glyph-name="d" unicode="d" 
d="M176 224h256c4.66699 0 8.5 1.5 11.5 4.5s4.5 6.83301 4.5 11.5s-1.5 8.5 -4.5 11.5s-6.83301 4.5 -11.5 4.5h-256c-4.66699 0 -8.5 -1.5 -11.5 -4.5s-4.5 -6.83301 -4.5 -11.5s1.5 -8.5 4.5 -11.5s6.83301 -4.5 11.5 -4.5zM176 352h256c4.66699 0 8.5 1.5 11.5 4.5
s4.5 6.83301 4.5 11.5s-1.5 8.5 -4.5 11.5s-6.83301 4.5 -11.5 4.5h-256c-4.66699 0 -8.5 -1.5 -11.5 -4.5s-4.5 -6.83301 -4.5 -11.5s1.5 -8.5 4.5 -11.5s6.83301 -4.5 11.5 -4.5zM176 96h256c4.66699 0 8.5 1.5 11.5 4.5s4.5 6.83301 4.5 11.5s-1.5 8.5 -4.5 11.5
s-6.83301 4.5 -11.5 4.5h-256c-4.66699 0 -8.5 -1.5 -11.5 -4.5s-4.5 -6.83301 -4.5 -11.5s1.5 -8.5 4.5 -11.5s6.83301 -4.5 11.5 -4.5zM64 368c0 -4.66699 1.5 -8.5 4.5 -11.5s6.83301 -4.5 11.5 -4.5s8.5 1.5 11.5 4.5s4.5 6.83301 4.5 11.5s-1.5 8.5 -4.5 11.5
s-6.83301 4.5 -11.5 4.5s-8.5 -1.5 -11.5 -4.5s-4.5 -6.83301 -4.5 -11.5zM64 240c0 -4.66699 1.5 -8.5 4.5 -11.5s6.83301 -4.5 11.5 -4.5s8.5 1.5 11.5 4.5s4.5 6.83301 4.5 11.5s-1.5 8.5 -4.5 11.5s-6.83301 4.5 -11.5 4.5s-8.5 -1.5 -11.5 -4.5
s-4.5 -6.83301 -4.5 -11.5zM64 112c0 -4.66699 1.5 -8.5 4.5 -11.5s6.83301 -4.5 11.5 -4.5s8.5 1.5 11.5 4.5s4.5 6.83301 4.5 11.5s-1.5 8.5 -4.5 11.5s-6.83301 4.5 -11.5 4.5s-8.5 -1.5 -11.5 -4.5s-4.5 -6.83301 -4.5 -11.5z" />
    <glyph glyph-name="e" unicode="e" 
d="M431 256h-256c-4.66699 0 -8.5 -1.5 -11.5 -4.5s-4.5 -6.83301 -4.5 -11.5s1.5 -8.5 4.5 -11.5s6.83301 -4.5 11.5 -4.5h256c4.66699 0 8.5 1.5 11.5 4.5s4.5 6.83301 4.5 11.5s-1.5 8.5 -4.5 11.5s-6.83301 4.5 -11.5 4.5zM431 384h-256
c-4.66699 0 -8.5 -1.5 -11.5 -4.5s-4.5 -6.83301 -4.5 -11.5s1.5 -8.5 4.5 -11.5s6.83301 -4.5 11.5 -4.5h256c4.66699 0 8.5 1.5 11.5 4.5s4.5 6.83301 4.5 11.5s-1.5 8.5 -4.5 11.5s-6.83301 4.5 -11.5 4.5zM431 128h-256c-4.66699 0 -8.5 -1.5 -11.5 -4.5
s-4.5 -6.83301 -4.5 -11.5s1.5 -8.5 4.5 -11.5s6.83301 -4.5 11.5 -4.5h256c4.66699 0 8.5 1.5 11.5 4.5s4.5 6.83301 4.5 11.5s-1.5 8.5 -4.5 11.5s-6.83301 4.5 -11.5 4.5zM110 329v78h-9l-17 -9l2 -8l14 8v-69h10zM85 215l-8 -7.99902v-6h50v8h-35v1l6 5
c18 18 27 32.333 27 43c0 6 -2 11.333 -6 16s-10 7 -18 7c-8.66699 0 -16 -2.66699 -22 -8l3 -8c5.33301 4.66699 11 7 17 7c10 0 15 -5.33301 15 -16c0 -8.66699 -9.66699 -22.334 -29 -41.001zM98 81.001c-6.66699 0 -12.333 1.66602 -17 4.99902l-3 -8
c5.33301 -3.33301 12 -5 20 -5c9.33301 0 16.5 2.16699 21.5 6.5s7.5 9.83301 7.5 16.5c0 11.333 -6 18 -18 20v1c10 3.33301 15 9.33301 15 18c0 5.33301 -2 9.83301 -6 13.5s-9.66699 5.5 -17 5.5c-8 0 -14.667 -2 -20 -6l3 -8c4.66699 3.33301 9.66699 5 15 5
c9.33301 0 14 -3.66699 14 -11c0 -9.33301 -5.66699 -14 -17 -14h-6v-8h6c13.333 0 20 -5.33301 20 -16c0 -3.33301 -1.5 -6.66602 -4.5 -9.99902s-7.5 -5 -13.5 -5z" />
    <glyph glyph-name="f" unicode="f" 
d="M432 384h-48c0 8.66699 -3.16699 16.167 -9.5 22.5s-13.833 9.5 -22.5 9.5h-32c-8.66699 0 -16.167 -3.16699 -22.5 -9.5s-9.5 -13.833 -9.5 -22.5h-208c-4.66699 0 -8.5 -1.5 -11.5 -4.5s-4.5 -6.83301 -4.5 -11.5s1.5 -8.5 4.5 -11.5s6.83301 -4.5 11.5 -4.5h208
c0 -8.66699 3.16699 -16.167 9.5 -22.5s13.833 -9.5 22.5 -9.5h32c8.66699 0 16.167 3.16699 22.5 9.5s9.5 13.833 9.5 22.5h48c4.66699 0 8.5 1.5 11.5 4.5s4.5 6.83301 4.5 11.5s-1.5 8.5 -4.5 11.5s-6.83301 4.5 -11.5 4.5zM352 352h-32v32h32v-32zM432 256h-208
c0 8.66699 -3.16699 16.167 -9.5 22.5s-13.833 9.5 -22.5 9.5h-32c-8.66699 0 -16.167 -3.16699 -22.5 -9.5s-9.5 -13.833 -9.5 -22.5h-48c-4.66699 0 -8.5 -1.5 -11.5 -4.5s-4.5 -6.83301 -4.5 -11.5s1.5 -8.5 4.5 -11.5s6.83301 -4.5 11.5 -4.5h48
c0 -8.66699 3.16699 -16.167 9.5 -22.5s13.833 -9.5 22.5 -9.5h32c8.66699 0 16.167 3.16699 22.5 9.5s9.5 13.833 9.5 22.5h208c4.66699 0 8.5 1.5 11.5 4.5s4.5 6.83301 4.5 11.5s-1.5 8.5 -4.5 11.5s-6.83301 4.5 -11.5 4.5zM192 224h-32v32h32v-32zM432 128h-112
c0 8.66699 -3.16699 16.167 -9.5 22.5s-13.833 9.5 -22.5 9.5h-32c-8.66699 0 -16.167 -3.16699 -22.5 -9.5s-9.5 -13.833 -9.5 -22.5h-144c-4.66699 0 -8.5 -1.5 -11.5 -4.5s-4.5 -6.83301 -4.5 -11.5s1.5 -8.5 4.5 -11.5s6.83301 -4.5 11.5 -4.5h144
c0 -8.66699 3.16699 -16.167 9.5 -22.5s13.833 -9.5 22.5 -9.5h32c8.66699 0 16.167 3.16699 22.5 9.5s9.5 13.833 9.5 22.5h112c4.66699 0 8.5 1.5 11.5 4.5s4.5 6.83301 4.5 11.5s-1.5 8.5 -4.5 11.5s-6.83301 4.5 -11.5 4.5zM288 96h-32v32h32v-32z" />
    <glyph glyph-name="g" unicode="g" 
d="M160 352v48c0 4.66699 -1.5 8.5 -4.5 11.5s-6.83301 4.5 -11.5 4.5s-8.5 -1.5 -11.5 -4.5s-4.5 -6.83301 -4.5 -11.5v-48c-8.66699 0 -16.167 -3.16699 -22.5 -9.5s-9.5 -13.833 -9.5 -22.5v-32c0 -8.66699 3.16699 -16.167 9.5 -22.5s13.833 -9.5 22.5 -9.5v-208
c0 -4.66699 1.5 -8.5 4.5 -11.5s6.83301 -4.5 11.5 -4.5s8.5 1.5 11.5 4.5s4.5 6.83301 4.5 11.5v208c8.66699 0 16.167 3.16699 22.5 9.5s9.5 13.833 9.5 22.5v32c0 8.66699 -3.16699 16.167 -9.5 22.5s-13.833 9.5 -22.5 9.5zM128 320h32v-32h-32v32zM288 192v208
c0 4.66699 -1.5 8.5 -4.5 11.5s-6.83301 4.5 -11.5 4.5s-8.5 -1.5 -11.5 -4.5s-4.5 -6.83301 -4.5 -11.5v-208c-8.66699 0 -16.167 -3.16699 -22.5 -9.5s-9.5 -13.833 -9.5 -22.5v-32c0 -8.66699 3.16699 -16.167 9.5 -22.5s13.833 -9.5 22.5 -9.5v-48
c0 -4.66699 1.5 -8.5 4.5 -11.5s6.83301 -4.5 11.5 -4.5s8.5 1.5 11.5 4.5s4.5 6.83301 4.5 11.5v48c8.66699 0 16.167 3.16699 22.5 9.5s9.5 13.833 9.5 22.5v32c0 8.66699 -3.16699 16.167 -9.5 22.5s-13.833 9.5 -22.5 9.5zM256 160h32v-32h-32v32zM416 288v112
c0 4.66699 -1.5 8.5 -4.5 11.5s-6.83301 4.5 -11.5 4.5s-8.5 -1.5 -11.5 -4.5s-4.5 -6.83301 -4.5 -11.5v-112c-8.66699 0 -16.167 -3.16699 -22.5 -9.5s-9.5 -13.833 -9.5 -22.5v-32c0 -8.66699 3.16699 -16.167 9.5 -22.5s13.833 -9.5 22.5 -9.5v-144
c0 -4.66699 1.5 -8.5 4.5 -11.5s6.83301 -4.5 11.5 -4.5s8.5 1.5 11.5 4.5s4.5 6.83301 4.5 11.5v144c8.66699 0 16.167 3.16699 22.5 9.5s9.5 13.833 9.5 22.5v32c0 8.66699 -3.16699 16.167 -9.5 22.5s-13.833 9.5 -22.5 9.5zM384 256h32v-32h-32v32z" />
    <glyph glyph-name="h" unicode="h" 
d="M64 -32h384c8.66699 0 16.167 3.16699 22.5 9.5s9.5 13.833 9.5 22.5v448c0 8.66699 -3.16699 16.167 -9.5 22.5s-13.833 9.5 -22.5 9.5h-384c-8.66699 0 -16.167 -3.16699 -22.5 -9.5s-9.5 -13.833 -9.5 -22.5v-448c0 -8.66699 3.16699 -16.167 9.5 -22.5
s13.833 -9.5 22.5 -9.5zM64 448h384v-448h-384v448zM368 384h-128c-4.66699 0 -8.5 -1.5 -11.5 -4.5s-4.5 -6.83301 -4.5 -11.5s1.5 -8.5 4.5 -11.5s6.83301 -4.5 11.5 -4.5h128c4.66699 0 8.5 1.5 11.5 4.5s4.5 6.83301 4.5 11.5s-1.5 8.5 -4.5 11.5
s-6.83301 4.5 -11.5 4.5zM368 288h-224c-4.66699 0 -8.5 -1.5 -11.5 -4.5s-4.5 -6.83301 -4.5 -11.5s1.5 -8.5 4.5 -11.5s6.83301 -4.5 11.5 -4.5h224c4.66699 0 8.5 1.5 11.5 4.5s4.5 6.83301 4.5 11.5s-1.5 8.5 -4.5 11.5s-6.83301 4.5 -11.5 4.5zM368 192h-224
c-4.66699 0 -8.5 -1.5 -11.5 -4.5s-4.5 -6.83301 -4.5 -11.5s1.5 -8.5 4.5 -11.5s6.83301 -4.5 11.5 -4.5h224c4.66699 0 8.5 1.5 11.5 4.5s4.5 6.83301 4.5 11.5s-1.5 8.5 -4.5 11.5s-6.83301 4.5 -11.5 4.5zM368 96h-224c-4.66699 0 -8.5 -1.5 -11.5 -4.5
s-4.5 -6.83301 -4.5 -11.5s1.5 -8.5 4.5 -11.5s6.83301 -4.5 11.5 -4.5h224c4.66699 0 8.5 1.5 11.5 4.5s4.5 6.83301 4.5 11.5s-1.5 8.5 -4.5 11.5s-6.83301 4.5 -11.5 4.5z" />
    <glyph glyph-name="i" unicode="i" 
d="M64 32h32v-32c0 -8.66699 3.16699 -16.167 9.5 -22.5s13.833 -9.5 22.5 -9.5h320c8.66699 0 16.167 3.16699 22.5 9.5s9.5 13.833 9.5 22.5v384c0 8.66699 -3.16699 16.167 -9.5 22.5s-13.833 9.5 -22.5 9.5h-32v32c0 8.66699 -3.16699 16.167 -9.5 22.5
s-13.833 9.5 -22.5 9.5h-320c-8.66699 0 -16.167 -3.16699 -22.5 -9.5s-9.5 -13.833 -9.5 -22.5v-384c0 -8.66699 3.16699 -16.167 9.5 -22.5s13.833 -9.5 22.5 -9.5zM384 64h-320v384h320v-384zM448 384v-384h-320v32h256c8.66699 0 16.167 3.16699 22.5 9.5
s9.5 13.833 9.5 22.5v320h32zM160 368c0 -4.66699 1.5 -8.5 4.5 -11.5s6.83301 -4.5 11.5 -4.5h160c4.66699 0 8.5 1.5 11.5 4.5s4.5 6.83301 4.5 11.5s-1.5 8.5 -4.5 11.5s-6.83301 4.5 -11.5 4.5h-160c-4.66699 0 -8.5 -1.5 -11.5 -4.5s-4.5 -6.83301 -4.5 -11.5zM112 256
h224c4.66699 0 8.5 1.5 11.5 4.5s4.5 6.83301 4.5 11.5s-1.5 8.5 -4.5 11.5s-6.83301 4.5 -11.5 4.5h-224c-4.66699 0 -8.5 -1.5 -11.5 -4.5s-4.5 -6.83301 -4.5 -11.5s1.5 -8.5 4.5 -11.5s6.83301 -4.5 11.5 -4.5zM112 192h224c4.66699 0 8.5 1.5 11.5 4.5
s4.5 6.83301 4.5 11.5s-1.5 8.5 -4.5 11.5s-6.83301 4.5 -11.5 4.5h-224c-4.66699 0 -8.5 -1.5 -11.5 -4.5s-4.5 -6.83301 -4.5 -11.5s1.5 -8.5 4.5 -11.5s6.83301 -4.5 11.5 -4.5zM112 128h224c4.66699 0 8.5 1.5 11.5 4.5s4.5 6.83301 4.5 11.5s-1.5 8.5 -4.5 11.5
s-6.83301 4.5 -11.5 4.5h-224c-4.66699 0 -8.5 -1.5 -11.5 -4.5s-4.5 -6.83301 -4.5 -11.5s1.5 -8.5 4.5 -11.5s6.83301 -4.5 11.5 -4.5z" />
    <glyph glyph-name="j" unicode="j" 
d="M482 -2l-34 102l-271 271l-17 -17l-51 -51l271 -271zM64 348l67.998 67.998l-34 34c-9.33301 9.33301 -20.666 14 -33.999 14s-24.666 -4.66699 -33.999 -14s-14 -20.666 -14 -33.999s4.66699 -24.666 14 -33.999z" />
    <glyph glyph-name="k" unicode="k" 
d="M330 93l86 -29l-29 86l-164 165l-58 -58zM132 291l57 57l-42 43c-8 8 -17.667 12 -29 12s-21 -4 -29 -12s-12 -17.667 -12 -29s4 -21 12 -29zM480 480h-448c-8.66699 0 -16.167 -3.16699 -22.5 -9.5s-9.5 -13.833 -9.5 -22.5v-448c0 -8.66699 3.16699 -16.167 9.5 -22.5
s13.833 -9.5 22.5 -9.5h448c8.66699 0 16.167 3.16699 22.5 9.5s9.5 13.833 9.5 22.5v448c0 8.66699 -3.16699 16.167 -9.5 22.5s-13.833 9.5 -22.5 9.5zM480 0h-448v448h448v-448z" />
    <glyph glyph-name="l" unicode="l" 
d="M339 141l-29 86l-164 165l-58 -58l165 -164zM12 468c-8 -8 -12 -17.667 -12 -29s4 -21 12 -29l42 -42l58 58l-42 42c-8 8 -17.667 12 -29 12s-21 -4 -29 -12zM480 384h-227l32 -32h195v-352h-352v195l-32 32v-227c0 -8.66699 3.16699 -16.167 9.5 -22.5
s13.833 -9.5 22.5 -9.5h352c8.66699 0 16.167 3.16699 22.5 9.5s9.5 13.833 9.5 22.5v352c0 8.66699 -3.16699 16.167 -9.5 22.5s-13.833 9.5 -22.5 9.5z" />
    <glyph glyph-name="m" unicode="m" 
d="M480 384h-144.998c-22.667 0 -38.334 -10.667 -47.001 -32c-2.66699 -19.333 -13.334 -30 -32.001 -32h-224c-8.66699 0 -16.167 -3 -22.5 -9s-9.5 -13.333 -9.5 -22v-289c0 -8.66699 3.16699 -16.167 9.5 -22.5s13.833 -9.5 22.5 -9.5h448
c8.66699 0 16.167 3.16699 22.5 9.5s9.5 13.833 9.5 22.5v256v33v63c0 8.66699 -3.16699 16.167 -9.5 22.5s-13.833 9.5 -22.5 9.5zM480.002 289l-0.00195312 -33v-256h-448v288h224h3c27.333 2.66699 46.333 18 57 46c2.66699 6 5.83398 10.5 9.50098 13.5
s6.83398 4.5 9.50098 4.5h4h141v-63z" />
    <glyph glyph-name="n" unicode="n" 
d="M512 321l0.000976562 63c0 8.66699 -3.16699 16.167 -9.5 22.5s-13.833 9.5 -22.5 9.5h-160c-8.66699 0 -16.167 -3.16699 -22.5 -9.5s-9.5 -13.833 -9.5 -22.5c-2.66699 -19.333 -13.334 -30 -32.001 -32h-224c-8.66699 0 -16.167 -3 -22.5 -9s-9.5 -13.333 -9.5 -22
v-33h512v33zM32.001 -32h448c8.66699 0 16.167 3.16699 22.5 9.5s9.5 13.833 9.5 22.5v256h-512v-256c0 -8.66699 3.16699 -16.167 9.5 -22.5s13.833 -9.5 22.5 -9.5zM32.001 224h448v-224h-448v224z" />
    <glyph glyph-name="o" unicode="o" 
d="M480 384h-112.998c-22.667 0 -38.334 -10.667 -47.001 -32c-2.66699 -19.333 -13.334 -30 -32.001 -32h-224c-8.66699 0 -16.167 -3 -22.5 -9s-9.5 -13.333 -9.5 -22v-289c0 -8.66699 3.16699 -16.167 9.5 -22.5s13.833 -9.5 22.5 -9.5h416
c8.66699 0 16.167 3.16699 22.5 9.5s9.5 13.833 9.5 22.5v256v33v63c0 8.66699 -3.16699 16.167 -9.5 22.5s-13.833 9.5 -22.5 9.5zM480.002 289l-0.00195312 -33v-256h-416v288h224h3c27.333 2.66699 46.333 18 57 46c2.66699 6 5.83398 10.5 9.50098 13.5
s6.83398 4.5 9.50098 4.5h4h109v-63zM352 160h-64v64c0 4.66699 -1.5 8.5 -4.5 11.5s-6.83301 4.5 -11.5 4.5s-8.5 -1.5 -11.5 -4.5s-4.5 -6.83301 -4.5 -11.5v-64h-64c-4.66699 0 -8.5 -1.5 -11.5 -4.5s-4.5 -6.83301 -4.5 -11.5s1.5 -8.5 4.5 -11.5
s6.83301 -4.5 11.5 -4.5h64v-64c0 -4.66699 1.5 -8.5 4.5 -11.5s6.83301 -4.5 11.5 -4.5s8.5 1.5 11.5 4.5s4.5 6.83301 4.5 11.5v64h64c4.66699 0 8.5 1.5 11.5 4.5s4.5 6.83301 4.5 11.5s-1.5 8.5 -4.5 11.5s-6.83301 4.5 -11.5 4.5z" />
    <glyph glyph-name="p" unicode="p" 
d="M256 480c-70.667 0 -131 -25 -181 -75s-75 -110.333 -75 -181s25 -131 75 -181s110.333 -75 181 -75s131 25 181 75s75 110.333 75 181s-25 131 -75 181s-110.333 75 -181 75zM256 0c-62 0 -114.833 21.833 -158.5 65.5s-65.5 96.5 -65.5 158.5
s21.833 114.833 65.5 158.5s96.5 65.5 158.5 65.5s114.833 -21.833 158.5 -65.5s65.5 -96.5 65.5 -158.5s-21.833 -114.833 -65.5 -158.5s-96.5 -65.5 -158.5 -65.5zM256 288c-8.66699 0 -16.167 -3.16699 -22.5 -9.5s-9.5 -13.833 -9.5 -22.5v-160
c0 -8.66699 3.16699 -16.167 9.5 -22.5s13.833 -9.5 22.5 -9.5s16.167 3.16699 22.5 9.5s9.5 13.833 9.5 22.5v160c0 8.66699 -3.16699 16.167 -9.5 22.5s-13.833 9.5 -22.5 9.5zM224 351.5c0 -9 3.16699 -16.667 9.5 -23s13.833 -9.5 22.5 -9.5s16.167 3.16699 22.5 9.5
s9.5 14 9.5 23s-3.16699 16.5 -9.5 22.5s-13.833 9 -22.5 9s-16.167 -3 -22.5 -9s-9.5 -13.5 -9.5 -22.5z" />
    <glyph glyph-name="q" unicode="q" 
d="M371 471c-6 6 -13.333 9 -22 9h-186c-8.66699 0 -16 -3 -22 -9l-132 -132c-6 -6 -9 -13.333 -9 -22v-186c0 -8.66699 3 -16 9 -22l132 -132c6 -6 13.333 -9 22 -9h186c8.66699 0 16 3 22 9l132 132c6 6 9 13.333 9 22v186c0 8.66699 -3 16 -9 22zM480 131l-131 -131h-186
l-131 131v186l131 131h186l131 -131v-186zM256 384c-8.66699 0 -16.167 -3.16699 -22.5 -9.5s-9.5 -13.833 -9.5 -22.5v-160c0 -8.66699 3.16699 -16.167 9.5 -22.5s13.833 -9.5 22.5 -9.5s16.167 3.16699 22.5 9.5s9.5 13.833 9.5 22.5v160
c0 8.66699 -3.16699 16.167 -9.5 22.5s-13.833 9.5 -22.5 9.5zM224 96c0 -8.66699 3.16699 -16.167 9.5 -22.5s13.833 -9.5 22.5 -9.5s16.167 3.16699 22.5 9.5s9.5 13.833 9.5 22.5s-3.16699 16.167 -9.5 22.5s-13.833 9.5 -22.5 9.5s-16.167 -3.16699 -22.5 -9.5
s-9.5 -13.833 -9.5 -22.5z" />
    <glyph glyph-name="r" unicode="r" 
d="M256 480c-70.667 0 -131 -25 -181 -75s-75 -110.333 -75 -181s25 -131 75 -181s110.333 -75 181 -75s131 25 181 75s75 110.333 75 181s-25 131 -75 181s-110.333 75 -181 75zM256 0c-62 0 -114.833 21.833 -158.5 65.5s-65.5 96.5 -65.5 158.5
s21.833 114.833 65.5 158.5s96.5 65.5 158.5 65.5s114.833 -21.833 158.5 -65.5s65.5 -96.5 65.5 -158.5s-21.833 -114.833 -65.5 -158.5s-96.5 -65.5 -158.5 -65.5zM256 384c-8.66699 0 -16.167 -3.16699 -22.5 -9.5s-9.5 -13.833 -9.5 -22.5v-160
c0 -8.66699 3.16699 -16.167 9.5 -22.5s13.833 -9.5 22.5 -9.5s16.167 3.16699 22.5 9.5s9.5 13.833 9.5 22.5v160c0 8.66699 -3.16699 16.167 -9.5 22.5s-13.833 9.5 -22.5 9.5zM224 96.5c0 -9 3.16699 -16.5 9.5 -22.5s13.833 -9 22.5 -9s16.167 3 22.5 9
s9.5 13.5 9.5 22.5s-3.16699 16.667 -9.5 23s-13.833 9.5 -22.5 9.5s-16.167 -3.16699 -22.5 -9.5s-9.5 -14 -9.5 -23z" />
    <glyph glyph-name="s" unicode="s" 
d="M514 15l-222 416c-6 11.333 -15.333 17 -28 17s-22 -5.66699 -28 -17l-223 -416c-6 -10.667 -5.83301 -21.167 0.5 -31.5s15.5 -15.5 27.5 -15.5h445c12 0 21.167 5.16699 27.5 15.5s6.5 20.833 0.5 31.5zM41 0l223 416l222 -416h-445zM232 255v-96
c0 -8.66699 3.16699 -16.167 9.5 -22.5s13.833 -9.5 22.5 -9.5s16.167 3.16699 22.5 9.5s9.5 13.833 9.5 22.5v96c0 9.33301 -3.16699 17 -9.5 23s-13.833 9 -22.5 9s-16.167 -3 -22.5 -9s-9.5 -13.667 -9.5 -23zM232 64c0 -8.66699 3.16699 -16.167 9.5 -22.5
s13.833 -9.5 22.5 -9.5s16.167 3.16699 22.5 9.5s9.5 13.833 9.5 22.5s-3.16699 16.167 -9.5 22.5s-13.833 9.5 -22.5 9.5s-16.167 -3.16699 -22.5 -9.5s-9.5 -13.833 -9.5 -22.5z" />
    <glyph glyph-name="t" unicode="t" 
d="M256 480c-70.667 0 -131 -25 -181 -75s-75 -110.333 -75 -181s25 -131 75 -181s110.333 -75 181 -75s131 25 181 75s75 110.333 75 181s-25 131 -75 181s-110.333 75 -181 75zM256 0c-62 0 -114.833 21.833 -158.5 65.5s-65.5 96.5 -65.5 158.5
s21.833 114.833 65.5 158.5s96.5 65.5 158.5 65.5s114.833 -21.833 158.5 -65.5s65.5 -96.5 65.5 -158.5s-21.833 -114.833 -65.5 -158.5s-96.5 -65.5 -158.5 -65.5zM220 63.5c0 -9 3.33301 -16.667 10 -23s14.5 -9.5 23.5 -9.5s16.667 3.16699 23 9.5
s9.5 14.166 9.5 23.499v0c0 8.66699 -3.16699 16.334 -9.5 23.001s-14 10 -23 10s-16.833 -3.33301 -23.5 -10s-10 -14.5 -10 -23.5zM253 416c-33.333 0 -62.999 -11.5 -88.999 -34.5s-39 -54.5 -39 -94.5c0 -8.66699 3.16699 -16.167 9.5 -22.5s14 -9.5 23 -9.5
s16.5 3.16699 22.5 9.5s9 13.833 9 22.5c0 20.667 6.5 36.667 19.5 48s27.833 17 44.5 17c42.667 0 64 -18 64 -54c0 -22.667 -12 -40.667 -36 -54c-14.667 -8 -28.334 -19.5 -41.001 -34.5s-19 -31.5 -19 -49.5c0 -8.66699 3.16699 -16.167 9.5 -22.5s14 -9.5 23 -9.5
s16.5 3.16699 22.5 9.5s9 13.833 9 22.5c0 3.33301 2.83301 8 8.5 14s11.5 10.667 17.5 14c46.667 25.333 70 62 70 110c0 38 -12.5 67.167 -37.5 87.5s-55.167 30.5 -90.5 30.5z" />
    <glyph glyph-name="u" unicode="u" 
d="M220 63.5c0 -9 3.33301 -16.667 10 -23s14.5 -9.5 23.5 -9.5s16.667 3.16699 23 9.5s9.5 14.166 9.5 23.499v0c0 8.66699 -3.16699 16.334 -9.5 23.001s-14 10 -23 10s-16.833 -3.33301 -23.5 -10s-10 -14.5 -10 -23.5zM311 188c46.667 25.333 70.001 62 70.001 110
c0 38 -12.5 67.167 -37.5 87.5s-55.167 30.5 -90.5 30.5c-33.333 0 -63 -11.5 -89 -34.5s-39 -54.5 -39 -94.5c0 -8.66699 3.16699 -16.167 9.5 -22.5s14 -9.5 23 -9.5s16.5 3.16699 22.5 9.5s9 13.833 9 22.5c0 20.667 6.5 36.667 19.5 48s27.833 17 44.5 17
c42.667 0 64 -18 64 -54c0 -22.667 -12 -40.667 -36 -54c-14.667 -8 -28.334 -19.5 -41.001 -34.5s-19 -31.5 -19 -49.5c0 -8.66699 3.16699 -16.167 9.5 -22.5s14 -9.5 23 -9.5s16.5 3.16699 22.5 9.5s9 13.833 9 22.5c0 3.33301 2.83301 8 8.5 14s11.5 10.667 17.5 14z
" />
    <glyph glyph-name="v" unicode="v" 
d="M29.5 10c3 -6 7.83398 -8.99902 14.501 -8.99902c44 0 87 12.333 129 37c32 -5.33301 59.333 -8 82 -8c70 0 129.833 20.5 179.5 61.5s74.5 90.167 74.5 147.5s-24.833 106.333 -74.5 147s-109.5 61 -179.5 61s-129.833 -20.333 -179.5 -61s-74.5 -89.667 -74.5 -147
c0 -56.667 24 -105.334 72 -146.001c-10.667 -23.333 -24.334 -45.333 -41.001 -66c-4.66699 -5.33301 -5.5 -11 -2.5 -17zM33.001 239.001c0 48.667 21.6689 90.168 65.002 124.501s95.666 51.5 156.999 51.5s113.666 -17.167 156.999 -51.5s65 -75.833 65 -124.5
s-21.667 -90.334 -65 -125.001s-95.666 -52 -156.999 -52c-27.333 0 -54.666 2.66699 -81.999 8c-4 0.666992 -8 0 -12 -2c-28.667 -17.333 -56.334 -28.333 -83.001 -33c12 18.667 21.667 38 29 58c3.33301 7.33301 1.66602 13.333 -5.00098 18c-46 35.333 -69 78 -69 128z
" />
    <glyph glyph-name="w" unicode="w" 
d="M446 291c2.66699 -13.333 3.99902 -26.335 3.99902 -39.002c0 -51.333 -19.333 -96.5 -58 -135.5s-87 -63.167 -145 -72.5c26 -10 53 -15 81 -15c26.667 0 52.334 4.66699 77.001 14c24.667 -8.66699 54 -13 88 -13c-12 14.667 -22 30.334 -30 47.001
c32 28.667 48 62.334 48 101.001c0 46 -21.667 83.667 -65 113zM22.999 72.998c2.66699 -5.33301 7.33105 -8.00098 13.998 -8.00098c23.333 0.666992 52.333 12 87 34c36.667 -6 62 -9 76 -9c56.667 0 104.334 17.167 143.001 51.5s58 76.5 58 126.5
c0 49.333 -19.667 91.5 -59 126.5s-86.666 52.5 -141.999 52.5s-102.5 -17.5 -141.5 -52.5s-58.5 -77.167 -58.5 -126.5c0 -47.333 18.333 -88.333 55 -123c-8 -19.333 -18.333 -37.666 -31 -54.999c-4 -5.33301 -4.33301 -11 -1 -17zM31.9961 267.997
c0 40.667 16.5 75.335 49.5 104.002s72.667 43 119 43s86 -14.333 119 -43s49.5 -63.334 49.5 -104.001c0 -41.333 -16 -76 -48 -104s-72 -42 -120 -42c-19.333 0 -45 3.33301 -77 10c-4.66699 0.666992 -8.66699 0 -12 -2c-12.667 -8.66699 -25.334 -15.667 -38.001 -21
c6 11.333 11 23 15 35c2.66699 7.33301 1.33398 13.333 -3.99902 18c-35.333 29.333 -53 64.666 -53 105.999z" />
    <glyph glyph-name="x" unicode="x" 
d="M32 92l73 0.00195312c2 -2 14.667 -12.833 38 -32.5l68 -57.5c22 -18.667 33.333 -28 34 -28c6 -4 12 -6 18 -6h2c12 1.33301 19.667 8.66602 23 21.999v468c-3.33301 13.333 -11 20.666 -23 21.999h-2c-6 0 -12 -2 -18 -6c-89.333 -77.333 -136 -118 -140 -122h-73
c-8.66699 0 -16.167 -3.16699 -22.5 -9.5s-9.5 -13.833 -9.5 -22.5v-4v-188v-4c0 -8.66699 3.16699 -16.167 9.5 -22.5s13.833 -9.5 22.5 -9.5zM32 128.002l-0.00195312 188.001v4h73c8.66699 0 16.334 3 23.001 9c4.66699 5.33301 47.334 43 128.001 113v-436
c-80 67.333 -122.667 103.666 -128 108.999c-6 6 -13.667 9 -23 9h-73v4zM506.498 307.003c-3.66699 4 -8.33398 6 -14.001 6s-10.167 -2 -13.5 -6l-56 -55l-55 55c-4 4 -8.66699 6 -14 6s-9.83301 -2 -13.5 -6s-5.5 -8.66699 -5.5 -14s2 -10 6 -14l55 -55l-55 -55
c-4 -4 -6 -8.66699 -6 -14s1.83301 -10 5.5 -14s8.16699 -6 13.5 -6s10 2 14 6l55 55l56 -55c3.33301 -4 7.83301 -6 13.5 -6s10.334 2 14.001 6s5.5 8.66699 5.5 14s-2 10 -6 14l-55 55l55 55c4 4 6 8.66699 6 14s-1.83301 10 -5.5 14z" />
    <glyph glyph-name="y" unicode="y" 
d="M327 480c-6 0 -12 -1.99805 -18 -5.99805c-89.333 -77.333 -136 -118 -140 -122h-73c-8.66699 0 -16.167 -3.16699 -22.5 -9.5s-9.5 -13.833 -9.5 -22.5v-4v-188v-4c0 -8.66699 3.16699 -16.167 9.5 -22.5s13.833 -9.5 22.5 -9.5h73c2 -2 14.667 -12.833 38 -32.5
l68.5 -57.5l33.5 -28c6 -4 12 -6 18 -6h2c12 1.33301 19.667 8.66602 23 21.999v468c-3.33301 13.333 -11 20.666 -23 21.999h-2zM320 6.00195c-80 67.333 -122.669 103.667 -128.002 109c-6 6 -13.667 9 -23 9h-73v4v188v4h73c8.66699 0 16.334 3 23.001 9
c4.66699 5.33301 47.334 43 128.001 113v-436zM400.998 168.003c-4 -2 -6.66797 -5 -8.00098 -9s-1 -8 1 -12c3.33301 -6 8 -9 14 -9c2.66699 0 5.33398 0.333008 8.00098 1c16 8.66699 28.667 20.5 38 35.5s14 31.5 14 49.5s-4.66699 34.5 -14 49.5s-22 26.833 -38 35.5
c-4 2 -8.16699 2.16699 -12.5 0.5s-7.5 -4.5 -9.5 -8.5s-2.33301 -8 -1 -12s4 -7 8 -9c23.333 -12 35 -30.667 35 -56s-11.667 -44 -35 -56z" />
    <glyph glyph-name="z" unicode="z" 
d="M32 92l73 0.00195312c2 -2 14.667 -12.833 38 -32.5l68 -57.5c22 -18.667 33.333 -28 34 -28c6 -4 12 -6 18 -6h2c12 1.33301 19.667 8.66602 23 21.999v468c-3.33301 13.333 -11 20.666 -23 21.999h-2c-6 0 -12 -2 -18 -6c-89.333 -77.333 -136 -118 -140 -122h-73
c-8.66699 0 -16.167 -3.16699 -22.5 -9.5s-9.5 -13.833 -9.5 -22.5v-4v-188v-4c0 -8.66699 3.16699 -16.167 9.5 -22.5s13.833 -9.5 22.5 -9.5zM32 128.002l-0.00195312 188.001v4h73c8.66699 0 16.334 3 23.001 9c4.66699 5.33301 47.334 43 128.001 113v-436
c-80 67.333 -122.667 103.666 -128 108.999c-6 6 -13.667 9 -23 9h-73v4zM336.998 168.003c-4 -2 -6.66797 -5 -8.00098 -9s-1 -8 1 -12c3.33301 -6 8 -9 14 -9c2.66699 0 5.33398 0.333008 8.00098 1c16 8.66699 28.667 20.5 38 35.5s14 31.5 14 49.5
s-4.66699 34.5 -14 49.5s-22 26.833 -38 35.5c-4 2 -8.16699 2.16699 -12.5 0.5s-7.5 -4.5 -9.5 -8.5s-2.33301 -8 -1 -12s4 -7 8 -9c23.333 -12 35 -30.667 35 -56s-11.667 -44 -35 -56zM314.997 40.0029c2 -8.66699 7.33203 -12.9961 15.999 -12.9961
c0.666992 0 1.66699 0.333008 3 1c46.667 8.66699 85.334 31.5 116.001 68.5s46 79.5 46 127.5s-15.333 90.5 -46 127.5s-69.334 59.833 -116.001 68.5c-4 1.33301 -7.83301 0.666016 -11.5 -2.00098s-6 -6.16699 -7 -10.5s-0.333008 -8.33301 2 -12
s5.83301 -5.83398 10.5 -6.50098c39.333 -8 71.833 -27.5 97.5 -58.5s38.5 -66.5 38.5 -106.5s-12.833 -75.5 -38.5 -106.5s-58.167 -50.5 -97.5 -58.5c-4.66699 -0.666992 -8.16699 -2.83398 -10.5 -6.50098s-3.16602 -7.83398 -2.49902 -12.501z" />
    <glyph glyph-name="braceleft" unicode="{" 
d="M133 270c0 -13.333 4.66699 -24.833 14 -34.5s20.333 -14.5 33 -14.5c8 0 15.667 2.33301 23 7c-3.33301 -37.333 -24.666 -72 -63.999 -104c-8 -6.66699 -9 -14 -3 -22c3.33301 -4.66699 7.66602 -7 12.999 -7c3.33301 0 6.33301 1.33301 9 4
c48 38.667 73.333 82 76 130c2.66699 33.333 -4.33301 58.333 -21 75c-2 2 -3 3.33301 -3 4c-2.66699 2 -5 3.66699 -7 5h-1l-6 3l1 -1c-6 2.66699 -11.667 4 -17 4c-12.667 0 -23.667 -4.83301 -33 -14.5s-14 -21.167 -14 -34.5zM288 270
c0 -13.333 4.66602 -24.833 13.999 -34.5s20.333 -14.5 33 -14.5c8 0 15.667 2.33301 23 7c-3.33301 -37.333 -24.666 -72 -63.999 -104c-8 -6.66699 -8.66699 -14 -2 -22c2.66699 -4.66699 6.66699 -7 12 -7c3.33301 0 6.33301 1.33301 9 4c48 38.667 73.333 82 76 130
c2.66699 33.333 -4.33301 58.333 -21 75c-2 2 -3 3.33301 -3 4c-2 2 -4.33301 3.66699 -7 5h-1c-2 1.33301 -4 2.33301 -6 3l1 -1c-6 2.66699 -11.667 4 -17 4c-12.667 0 -23.667 -4.83301 -33 -14.5s-14 -21.167 -14 -34.5z" />
    <glyph glyph-name="bar" unicode="|" 
d="M256 480c-70.667 0 -131 -25 -181 -75s-75 -110.333 -75 -181s25 -131 75 -181s110.333 -75 181 -75s131 25 181 75s75 110.333 75 181s-25 131 -75 181s-110.333 75 -181 75zM256 0c-62 0 -114.833 21.833 -158.5 65.5s-65.5 96.5 -65.5 158.5
s21.833 114.833 65.5 158.5s96.5 65.5 158.5 65.5s114.833 -21.833 158.5 -65.5s65.5 -96.5 65.5 -158.5s-21.833 -114.833 -65.5 -158.5s-96.5 -65.5 -158.5 -65.5zM205 308c-2.66699 2 -5 3.66699 -7 5h-1l-6 3l1 -1c-6 2.66699 -11.667 4 -17 4
c-12.667 0 -23.667 -4.83301 -33 -14.5s-14 -21.167 -14 -34.5s4.66699 -24.833 14 -34.5s20.333 -14.5 33 -14.5c8 0 15.667 2.33301 23 7c-3.33301 -37.333 -24.666 -72 -63.999 -104c-8 -6.66699 -9 -14 -3 -22c3.33301 -4.66699 7.66602 -7 12.999 -7
c3.33301 0 6.33301 1.33301 9 4c48 38.667 73.333 82 76 130c2.66699 33.333 -4.33301 58.333 -21 75c-2 2 -3 3.33301 -3 4zM360 308c-2 2 -4.33398 3.66699 -7.00098 5h-1c-2 1.33301 -3.66699 2.33301 -5 3v-1c-6 2.66699 -11.667 4 -17 4
c-12.667 0 -23.667 -4.83301 -33 -14.5s-14 -21.167 -14 -34.5s4.66699 -24.833 14 -34.5s20.333 -14.5 33 -14.5c8 0 15.667 2.33301 23 7c-3.33301 -37.333 -24.666 -72 -63.999 -104c-8 -6.66699 -8.66699 -14 -2 -22c2.66699 -4.66699 6.66699 -7 12 -7
c3.33301 0 6.33301 1.33301 9 4c48 38.667 73.333 82 76 130c2.66699 33.333 -4.33301 58.333 -21 75c-1.33301 2 -2.33301 3.33301 -3 4z" />
    <glyph glyph-name="braceright" unicode="}" 
d="M273 446c-66 0 -122.333 -23.333 -169 -70s-70 -103 -70 -169s23.333 -122.333 70 -169s103 -70 169 -70s122.333 23.333 169 70s70 103 70 169s-23.333 122.333 -70 169s-103 70 -169 70zM419.5 60.5c-40.333 -40.333 -89.166 -60.5 -146.499 -60.5
s-106.166 20.167 -146.499 60.5s-60.5 89.166 -60.5 146.499s20.167 106.166 60.5 146.499s89.166 60.5 146.499 60.5s106.166 -20.167 146.499 -60.5s60.5 -89.166 60.5 -146.499s-20.167 -106.166 -60.5 -146.499zM368 224h-80v112c0 4.66699 -1.5 8.5 -4.5 11.5
s-6.83301 4.5 -11.5 4.5s-8.5 -1.5 -11.5 -4.5s-4.5 -6.83301 -4.5 -11.5v-128v0c0 -4.66699 1.5 -8.5 4.5 -11.5s6.83301 -4.5 11.5 -4.5h96c4.66699 0 8.5 1.5 11.5 4.5s4.5 6.83301 4.5 11.5s-1.5 8.5 -4.5 11.5s-6.83301 4.5 -11.5 4.5z" />
    <glyph glyph-name="asciitilde" unicode="~" 
d="M256 480c-44 0 -81.667 -15.833 -113 -47.5s-47 -69.834 -47 -114.501v-30h-32c-8.66699 0 -16.167 -3.16699 -22.5 -9.5s-9.5 -13.833 -9.5 -22.5v-256c0 -8.66699 3.16699 -16.167 9.5 -22.5s13.833 -9.5 22.5 -9.5h384c8.66699 0 16.167 3.16699 22.5 9.5
s9.5 13.833 9.5 22.5v256c0 8.66699 -3.16699 16.167 -9.5 22.5s-13.833 9.5 -22.5 9.5h-32v30c0 44.667 -15.667 82.834 -47 114.501s-69 47.5 -113 47.5zM128 318c0 35.333 12.5 65.833 37.5 91.5s55.167 38.5 90.5 38.5s65.5 -12.833 90.5 -38.5s37.5 -56.167 37.5 -91.5
v-30h-256v30zM448 0h-384v256h384v-256zM320 128c0 18 -6.16699 33.167 -18.5 45.5s-27.5 18.5 -45.5 18.5s-33.167 -6.16699 -45.5 -18.5s-18.5 -27.5 -18.5 -45.5s6.16699 -33.167 18.5 -45.5s27.5 -18.5 45.5 -18.5s33.167 6.16699 45.5 18.5s18.5 27.5 18.5 45.5z
M256 96c-8.66699 0 -16.167 3.16699 -22.5 9.5s-9.5 13.833 -9.5 22.5s3.16699 16.167 9.5 22.5s13.833 9.5 22.5 9.5s16.167 -3.16699 22.5 -9.5s9.5 -13.833 9.5 -22.5s-3.16699 -16.167 -9.5 -22.5s-13.833 -9.5 -22.5 -9.5z" />
    <glyph glyph-name="uniE000" unicode="&#xe000;" 
d="M480 0v256c0 8.66699 -3.16699 16.167 -9.5 22.5s-13.833 9.5 -22.5 9.5h-320v14c0 42.667 12 77.667 36 105s55.333 41 94 41c27.333 0 52.666 -7.5 75.999 -22.5s41 -35.5 53 -61.5c2 -4 5.16699 -6.66699 9.5 -8s8.5 -1.16602 12.5 0.500977s6.66699 4.66699 8 9
s1 8.5 -1 12.5c-14.667 31.333 -36.167 56.166 -64.5 74.499s-59.5 27.5 -93.5 27.5c-47.333 0 -86.166 -16.833 -116.499 -50.5s-45.5 -76.167 -45.5 -127.5v-14h-32c-8.66699 0 -16.167 -3.16699 -22.5 -9.5s-9.5 -13.833 -9.5 -22.5v-256
c0 -8.66699 3.16699 -16.167 9.5 -22.5s13.833 -9.5 22.5 -9.5h384c8.66699 0 16.167 3.16699 22.5 9.5s9.5 13.833 9.5 22.5zM64 256h384v-256h-384v256zM256 192c-18 0 -33.167 -6.16699 -45.5 -18.5s-18.5 -27.5 -18.5 -45.5s6.16699 -33.167 18.5 -45.5
s27.5 -18.5 45.5 -18.5s33.167 6.16699 45.5 18.5s18.5 27.5 18.5 45.5s-6.16699 33.167 -18.5 45.5s-27.5 18.5 -45.5 18.5zM256 96c-8.66699 0 -16.167 3.16699 -22.5 9.5s-9.5 13.833 -9.5 22.5s3.16699 16.167 9.5 22.5s13.833 9.5 22.5 9.5s16.167 -3.16699 22.5 -9.5
s9.5 -13.833 9.5 -22.5s-3.16699 -16.167 -9.5 -22.5s-13.833 -9.5 -22.5 -9.5z" />
    <glyph glyph-name="uniE001" unicode="&#xe001;" 
d="M176 80c0 9.33301 -2.00098 18.333 -6.00098 27c-5.33301 11.333 -13.166 20.333 -23.499 27s-21.833 10 -34.5 10c-17.333 0 -32.333 -6.33301 -45 -19s-19 -27.667 -19 -45c0 -5.33301 1 -11.333 3 -18c10.667 -18 25 -32.333 43 -43c6.66699 -2 12.667 -3 18 -3
c17.333 0 32.333 6.33301 45 19s19 27.667 19 45zM111.999 112c13.333 0 23 -5.99902 29 -17.999c2 -4.66699 3 -9.33398 3 -14.001c0 -8.66699 -3.16699 -16.167 -9.5 -22.5s-13.833 -9.5 -22.5 -9.5s-16.167 3.16699 -22.5 9.5s-9.5 13.833 -9.5 22.5
s3.16699 16.167 9.5 22.5s13.833 9.5 22.5 9.5zM495.999 480.001l-69 -0.00292969c-4 0 -7.66699 -1.33301 -11 -4l-226 -191c-10.667 2 -20.667 3 -30 3c-44 0 -81.667 -15.667 -113 -47s-47 -69 -47 -113s15.667 -81.667 47 -113s69 -47 113 -47s81.667 15.667 113 47
s47 69 47 113c0 16.667 -2.66699 33.334 -8 50.001l49 31c4.66699 3.33301 7 8 7 14v58l61 3c9.33301 0.666992 14.333 5.33398 15 14.001l6 62l53 26c6 2.66699 9 7.33398 9 14.001v64c0 4.66699 -1.5 8.5 -4.5 11.5s-6.83301 4.5 -11.5 4.5zM479.999 409.998l-52 -25
c-5.33301 -2.66699 -8.33301 -7 -9 -13l-6 -57l-62 -3c-4 0 -7.5 -1.66699 -10.5 -5s-4.5 -7 -4.5 -11v-65l-52 -34c-7.33301 -4.66699 -9.33301 -11 -6 -19c6.66699 -16 10 -32.667 10 -50c0 -35.333 -12.5 -65.5 -37.5 -90.5s-55.167 -37.5 -90.5 -37.5
c-23.333 0 -45.333 6.33301 -66 19c-18 10.667 -32.333 25 -43 43c-12.667 20.667 -19 42.667 -19 66c0 35.333 12.5 65.5 37.5 90.5s55.167 37.5 90.5 37.5c9.33301 0 19.333 -1.33301 30 -4c5.33301 -1.33301 10 -0.333008 14 3l229 193h47v-38z" />
    <glyph glyph-name="uniE002" unicode="&#xe002;" 
d="M416 224l-2 -0.00292969h-1c2 10.667 3 21.334 3 32.001c0 44 -15.667 81.667 -47 113s-69 47 -113 47s-81.667 -15.667 -113 -47s-47 -69 -47 -113v-0.5v-1.5c-27.333 -3.33301 -50.166 -15.5 -68.499 -36.5s-27.5 -45.5 -27.5 -73.5s9.16699 -52.333 27.5 -73
s41.166 -33 68.499 -37v-2h320c26.667 0 49.334 9.33301 68.001 28s28 41.334 28 68.001s-9.33301 49.334 -28 68.001s-41.334 28 -68.001 28zM416 63.9971h-310c-2 0.666992 -3.66699 1 -5 1c-20 3.33301 -36.5 12.5 -49.5 27.5s-19.5 32.167 -19.5 51.5
s6.5 36.666 19.5 51.999s29.5 24.333 49.5 27c8 0.666992 14.5 4.16699 19.5 10.5s7.5 13.5 7.5 21.5v3c0.666992 34.667 13.334 64.334 38.001 89.001s54.667 37 90 37s65.5 -12.5 90.5 -37.5s37.5 -55.167 37.5 -90.5c0 -8.66699 -1 -17.334 -3 -26.001
c-2 -10 0.333008 -19 7 -27c6.66699 -7.33301 15 -11 25 -11h1h3c17.333 -0.666992 32.166 -7.16699 44.499 -19.5s18.5 -27.166 18.5 -44.499s-6.33301 -32.333 -19 -45s-27.667 -19 -45 -19z" />
    <glyph glyph-name="uniE003" unicode="&#xe003;" 
d="M417 224l-4 -0.00585938c2 10.667 3 21.334 3 32.001c0 44 -15.667 81.667 -47 113s-69 47 -113 47s-81.667 -15.5 -113 -46.5s-47 -68.167 -47 -111.5v-4c-27.333 -3.33301 -50.166 -15.666 -68.499 -36.999s-27.5 -45.666 -27.5 -72.999c0 -28 9 -52.667 27 -74
s41 -34 69 -38h80c4.66699 0 8.5 1.5 11.5 4.5s4.5 6.83301 4.5 11.5s-1.5 8.5 -4.5 11.5s-6.83301 4.5 -11.5 4.5h-78c-18.667 2.66699 -34.334 11.667 -47.001 27s-19 32.833 -19 52.5s6.5 37.167 19.5 52.5s29.5 24.333 49.5 27l13 2
c9.33301 1.33301 14 6.66602 14 15.999v17c0 34.667 12.5 64.334 37.5 89.001s55.167 37 90.5 37s65.5 -12.5 90.5 -37.5s37.5 -55.167 37.5 -90.5c0 -8.66699 -1 -17.334 -3 -26.001l-4 -20c-1.33301 -5.33301 0 -10.166 4 -14.499s8.66699 -5.83301 14 -4.5
c10 0.666992 17.333 1 22 1c17.333 0 32.166 -6.33301 44.499 -19s18.5 -27.667 18.5 -45s-6.33301 -32.333 -19 -45s-27.667 -19 -45 -19h-112c-13.333 0 -24 2.5 -32 7.5s-12.667 9.5 -14 13.5s-2 7.66699 -2 11v106l38 -38
c7.33301 -7.33301 14.833 -7.16602 22.5 0.500977s7.5 15.167 -0.5 22.5l-64 64c-3.33301 3.33301 -7 5 -11 5h-1c-4.66699 0 -8.66699 -1.66699 -12 -5l-64 -64c-7.33301 -8 -7.33301 -15.667 0 -23s15 -7.33301 23 0l37 37v-105c0 -14.667 6.33301 -29 19 -43
s33 -21 61 -21h112c26.667 0 49.334 9.33301 68.001 28s28 41.334 28 68.001s-9.33301 49.334 -28 68.001s-41 28 -67 28z" />
    <glyph glyph-name="uniE004" unicode="&#xe004;" 
d="M419 224c22.667 53.333 21.335 97.665 -3.99805 132.998c-11.333 16 -26.333 28 -45 36s-37.334 10.333 -56.001 7c-31.333 -6 -54.166 -20.333 -68.499 -43s-21.5 -56.334 -21.5 -101.001v-74l-37 37c-7.33301 7.33301 -14.833 7.33301 -22.5 0
s-7.83398 -15 -0.500977 -23l65 -64c2.66699 -3.33301 6.33398 -5 11.001 -5s8.66699 1.66699 12 5l65 65c7.33301 7.33301 7.33301 14.833 0 22.5s-15 7.5 -23 -0.5l-38 -38v75c0 22 1.66699 40.333 5 55s8.5 25.834 15.5 33.501s13.667 13 20 16s14.166 5.5 23.499 7.5
c11.333 2 23.666 0.5 36.999 -4.5s24 -13.167 32 -24.5c22 -31.333 18 -73.333 -12 -126c-3.33301 -6 -3 -11.667 1 -17s9.33301 -7.33301 16 -6c9.33301 1.33301 17 2 23 2c17.333 0 32.166 -6.33301 44.499 -19s18.5 -27.667 18.5 -45s-6.33301 -32.333 -19 -45
s-27.667 -19 -45 -19h-318c-18.667 2.66699 -34.334 11.667 -47.001 27s-19 32.833 -19 52.5s6.5 37.167 19.5 52.5s29.5 24.333 49.5 27l13 2c9.33301 1.33301 14 6.66602 14 15.999v17c0 28.667 8 53.5 24 74.5s36 33.5 60 37.5c4.66699 0.666992 8.16699 2.66699 10.5 6
s3.16602 7.16602 2.49902 11.499s-2.66699 7.83301 -6 10.5s-7.33301 3.66699 -12 3c-32 -4.66699 -58.5 -20.5 -79.5 -47.5s-31.5 -58.833 -31.5 -95.5v-4c-27.333 -3.33301 -50.166 -15.666 -68.499 -36.999s-27.5 -45.666 -27.5 -72.999c0 -28 9 -52.667 27 -74
s41 -34 69 -38h320c26.667 0 49.334 9.33301 68.001 28s28 41.334 28 68.001c0 26 -9.16699 48.333 -27.5 67s-40.166 28.334 -65.499 29.001z" />
    <glyph glyph-name="uniE005" unicode="&#xe005;" 
d="M276 293c0 -12 4.33301 -22.5 13 -31.5s19.167 -13.5 31.5 -13.5s22.833 4.5 31.5 13.5s13 19.5 13 31.5v0c0 12 -4.33301 22.5 -13 31.5s-19.167 13.5 -31.5 13.5s-22.833 -4.5 -31.5 -13.5s-13 -19.5 -13 -31.5zM416 32h32v32v64v96l-128 -96l-160 128l-96 -96v-32v-64
v-32h32h320zM480 416h-448c-8.66699 0 -16.167 -3.16699 -22.5 -9.5s-9.5 -13.833 -9.5 -22.5v-384c0 -8.66699 3.16699 -16.167 9.5 -22.5s13.833 -9.5 22.5 -9.5h448c8.66699 0 16.167 3.16699 22.5 9.5s9.5 13.833 9.5 22.5v384c0 8.66699 -3.16699 16.167 -9.5 22.5
s-13.833 9.5 -22.5 9.5zM480 0h-448v384h448v-384z" />
    <glyph glyph-name="uniE006" unicode="&#xe006;" 
d="M480 384h-32v64c0 8.66699 -3.16699 16.167 -9.5 22.5s-13.833 9.5 -22.5 9.5h-384c-8.66699 0 -16.167 -3.16699 -22.5 -9.5s-9.5 -13.833 -9.5 -22.5v-352c0 -8.66699 3.16699 -16.167 9.5 -22.5s13.833 -9.5 22.5 -9.5h32v-64c0 -8.66699 3.16699 -16.167 9.5 -22.5
s13.833 -9.5 22.5 -9.5h384c8.66699 0 16.167 3.16699 22.5 9.5s9.5 13.833 9.5 22.5v352c0 8.66699 -3.16699 16.167 -9.5 22.5s-13.833 9.5 -22.5 9.5zM32 96v352h384v-352h-384zM480 0h-384v64h32v-32h32h256h32v32v32v96v160h32v-352zM237 349
c0 -12 4.33301 -22.5 13 -31.5s19.167 -13.5 31.5 -13.5s22.833 4.5 31.5 13.5s13 19.5 13 31.5s-4.33301 22.5 -13 31.5s-19.167 13.5 -31.5 13.5s-22.833 -4.5 -31.5 -13.5s-13 -19.5 -13 -31.5zM160 320l-96 -64v-64v-32v-32h32h256h32v32v32v96l-128 -64z" />
    <glyph glyph-name="uniE007" unicode="&#xe007;" 
d="M256 480c-52.667 0 -97.8301 -18.832 -135.497 -56.499s-56.5 -82.834 -56.5 -135.501c0 -30.667 7.16699 -59.834 21.5 -87.501s34.166 -50.5 59.499 -68.5l2 -2c4.66699 -2.66699 8 -7.66699 10 -15s2.66699 -13.333 2 -18v-2v-63c0 -13.333 6 -22.666 18 -27.999
l64 -33c4.66699 -2.66699 9.66699 -4 15 -4s10 1 14 3l66 33c11.333 6 17 15.667 17 29v63c0 9.33301 1.83301 17.5 5.5 24.5s6.66699 11.5 9 13.5s4.16602 3.33301 5.49902 4c2.66699 1.33301 5 2.66602 7 3.99902c45.333 38.667 68 87.667 68 147
c0 52.667 -18.833 97.834 -56.5 135.501s-82.834 56.5 -135.501 56.5zM191.004 95.001v1h130v-1v-31h-130v31zM256.004 -0.999023l-65 33h130zM359.004 166.001c-14 -6.66699 -24.666 -19.335 -31.999 -38.002h-141c-4.66699 13.333 -12.334 23.333 -23.001 30
c-20.667 14.667 -37 33.334 -49 56.001s-18 47.334 -18 74.001c0 44 15.667 81.667 47 113s69 47 113 47s81.667 -15.667 113 -47s47 -69 47 -113c0 -49.333 -19 -90 -57 -122zM272.005 416c-4.66699 0 -8.5 -1.50098 -11.5 -4.50098s-4.5 -6.83301 -4.5 -11.5
s1.5 -8.5 4.5 -11.5s6.83301 -4.5 11.5 -4.5c19.333 0 37.5 -7.83301 54.5 -23.5s25.5 -35.167 25.5 -58.5c0 -4 1.5 -7.66699 4.5 -11s6.83301 -5 11.5 -5s8.5 1.66699 11.5 5s4.5 7 4.5 11c0 34.667 -11.333 62.334 -34 83.001s-48.667 31 -78 31z" />
    <glyph glyph-name="uniE008" unicode="&#xe008;" 
d="M480 352h-191h-65h-192c-8.66699 0 -16.167 -3.16699 -22.5 -9.5s-9.5 -13.833 -9.5 -22.5v-96h32v-224c0 -8.66699 3.16699 -16.167 9.5 -22.5s13.833 -9.5 22.5 -9.5h160h65h159c8.66699 0 16.167 3.16699 22.5 9.5s9.5 13.833 9.5 22.5v224h32v96
c0 8.66699 -3.16699 16.167 -9.5 22.5s-13.833 9.5 -22.5 9.5zM32 320h192v-64h-192v64zM64 0v224h160v-224h-160zM448 0h-159v224h159v-224zM480 256h-191v64h191v-64zM256 384h128.002c21.333 0 37.333 4.5 48 13.5s16 20.5 16 34.5s-5.33301 25.5 -16 34.5
s-26.667 13.5 -48 13.5c-36.667 0 -68.667 -13.333 -96 -40c-10.667 6 -21.667 9 -33 9c-10.667 0 -21.334 -3 -32.001 -9c-26.667 26.667 -58.334 40 -95.001 40c-21.333 0 -37.333 -4.5 -48 -13.5s-16 -20.5 -16 -34.5s5.33301 -25.5 16 -34.5s26.667 -13.5 48 -13.5h128z
M416.002 432c0 -10.667 -10.667 -16 -32 -16h-73v1c20.667 20.667 45 31 73 31c21.333 0 32 -5.33301 32 -16zM96.002 432c0 10.667 10.667 16 32 16c27.333 0 51.333 -10 72 -30l-0.5 -1l-0.5 -1h-71c-21.333 0 -32 5.33301 -32 16z" />
    <glyph glyph-name="uniE009" unicode="&#xe009;" 
d="M35 195l38.002 30.999v-226c0 -8.66699 3.16699 -16.167 9.5 -22.5s13.833 -9.5 22.5 -9.5h96c8.66699 0 16.167 3.16699 22.5 9.5s9.5 13.833 9.5 22.5v128h64v-128c0 -8.66699 3.16699 -16.167 9.5 -22.5s13.833 -9.5 22.5 -9.5h96c8.66699 0 16.167 3.16699 22.5 9.5
s9.5 13.833 9.5 22.5v226l38 -31c2.66699 -2 6 -3 10 -3c5.33301 0 9.66602 2 12.999 6c6 8.66699 5 16.334 -3 23.001l-240 192c-6.66699 4.66699 -13.334 4.66699 -20.001 0l-86 -69v40c0 8.66699 -3.16699 16.167 -9.5 22.5s-13.833 9.5 -22.5 9.5
s-16.167 -3.16699 -22.5 -9.5s-9.5 -13.833 -9.5 -22.5v-91l-90 -72c-8 -6.66699 -8.83301 -14.167 -2.5 -22.5s13.833 -9.5 22.5 -3.5zM265.002 379.999l160 -128v-252h-96v160h-128v-160h-96v251z" />
    <glyph glyph-name="uniE00A" unicode="&#xe00a;" 
d="M72 86c11.333 -18 30.333 -27 57 -27c20 0 45.667 5.66699 77 17c16.667 -72 43.667 -108 81 -108c38 0 65 37 81 111c31.333 -10.667 57.333 -16 78 -16c28.667 0 48.667 9.33301 60 28c20.667 34 0.333984 79 -60.999 135c9.33301 8.66699 17.333 16.667 24 24
c40.667 46.667 51.667 84 33 112c-11.333 18 -30.333 27 -57 27c-20 0 -45.667 -5.66699 -77 -17c-16.667 72 -43.667 108 -81 108c-38 0 -65 -37 -81 -111c-31.333 10.667 -57.333 16 -78 16c-28.667 0 -48.667 -9.33301 -60 -28c-20.667 -34 -0.333984 -79 60.999 -135
c-9.33301 -8.66699 -17.333 -16.667 -24 -24c-40.667 -46.667 -51.667 -84 -33 -112zM287 0c-20.667 0 -37.666 29.334 -50.999 88.001c17.333 7.33301 34.666 15.666 51.999 24.999l50 -23c-12.667 -60 -29.667 -90 -51 -90zM223.001 224.001c0 10 0.333008 21.333 1 34
l28 20c10.667 6.66699 22 13.334 34 20.001c12.667 -6.66699 24 -13 34 -19l30 -20c0.666992 -12.667 1 -24.334 1 -35.001c0 -10 -0.333008 -21.333 -1 -34l-28 -20c-10.667 -6.66699 -22 -13.334 -34 -20.001c-12.667 6.66699 -24 13 -34 19l-30 20
c-0.666992 12.667 -1 24.334 -1 35.001zM191.001 212.001c-4.66699 4 -9.33398 7.66699 -14.001 11c4.66699 3.33301 9.33398 7 14.001 11v-10v-12zM227.001 299.001c0.666992 9.33301 1.66699 18 3 26c6 -2 13.333 -5.33301 22 -10l-17 -10
c-0.666992 -0.666992 -2 -1.66699 -4 -3s-3.33301 -2.33301 -4 -3zM319.001 316.001c8.66699 4.66699 17.001 8.66699 25.001 12c1.33301 -8.66699 2.33301 -18 3 -28c-4 2 -7.33301 4 -10 6c-2 1.33301 -3.83301 2.5 -5.5 3.5s-3.83398 2.16699 -6.50098 3.5z
M383.002 236.001c4.66699 -4 9.33301 -7.66602 14 -10.999c-4 -2.66699 -8.66699 -6.33398 -14 -11.001v10v12zM347.001 149.002c-0.666992 -10 -1.66699 -18.667 -3 -26c-6.66699 2.66699 -14 6 -22 10l17 10c0.666992 0.666992 2 1.66699 4 3s3.33301 2.33301 4 3z
M237.001 142.002c1.33301 -0.666992 7.33398 -4 18.001 -10c-8.66699 -4.66699 -17 -8.66699 -25 -12c-1.33301 8.66699 -2.33301 18 -3 28c5.33301 -3.33301 8.66602 -5.33301 9.99902 -6zM478.002 107.002c-4.66699 -8 -15.3301 -12 -31.9971 -12
c-18 0 -42 5.33301 -72 16c3.33301 19.333 5.66602 39.666 6.99902 60.999c13.333 10 26.666 20.667 39.999 32c23.333 -20.667 40.166 -39.667 50.499 -57s12.5 -30.666 6.5 -39.999zM445.006 357.002c15.333 0 25.3311 -4.00195 29.998 -12.002
c6 -9.33301 4 -22.666 -6 -39.999s-26 -36.666 -48 -57.999c-13.333 10.667 -26.666 20.667 -39.999 30c-1.33301 22.667 -3.66602 43.667 -6.99902 63c29.333 11.333 53 17 71 17zM287.004 448c20.667 0 37.666 -29.335 50.999 -88.002
c-17.333 -7.33301 -34.666 -15.666 -51.999 -24.999c-17.333 8.66699 -34 16.334 -50 23.001c12.667 60 29.667 90 51 90zM96.0029 340.998c4.66699 8 15.3301 12 31.9971 12c18 0 42 -5.33301 72 -16c-3.33301 -19.333 -5.66602 -39.666 -6.99902 -60.999
c-13.333 -10 -26.666 -20.667 -39.999 -32c-23.333 20.667 -40.166 39.667 -50.499 57s-12.5 30.666 -6.5 39.999zM192.999 170.998c1.33301 -22.667 3.66797 -43.665 7.00098 -62.998c-29.333 -11.333 -53 -17 -71 -17c-15.333 0 -25.333 4 -30 12
c-6 9.33301 -4 22.666 6 39.999s26 36.666 48 57.999c13.333 -10.667 26.666 -20.667 39.999 -30z" />
    <glyph glyph-name="uniE00B" unicode="&#xe00b;" 
d="M384 -32c8.66699 0 16.167 3.16699 22.5 9.5s9.5 13.833 9.5 22.5v448c0 8.66699 -3.16699 16.167 -9.5 22.5s-13.833 9.5 -22.5 9.5h-224c-8.66699 0 -16.167 -3.16699 -22.5 -9.5s-9.5 -13.833 -9.5 -22.5v-448c0 -8.66699 3.16699 -16.167 9.5 -22.5
s13.833 -9.5 22.5 -9.5h224zM256 18c0 4.66699 1.83301 8.83398 5.5 12.501s7.83398 5.5 12.501 5.5s8.83398 -1.83301 12.501 -5.5s5.5 -7.83398 5.5 -12.501s-1.83301 -8.83398 -5.5 -12.501s-7.83398 -5.5 -12.501 -5.5s-8.83398 1.83301 -12.501 5.5
s-5.5 7.83398 -5.5 12.501zM336 448c4.66699 0 8.5 -1.5 11.5 -4.5s4.5 -6.83301 4.5 -11.5s-1.5 -8.5 -4.5 -11.5s-6.83301 -4.5 -11.5 -4.5h-32c-4.66699 0 -8.5 1.5 -11.5 4.5s-4.5 6.83301 -4.5 11.5s1.5 8.5 4.5 11.5s6.83301 4.5 11.5 4.5h32zM256 432
c0 -4.66699 -1.5 -8.5 -4.5 -11.5s-6.83301 -4.5 -11.5 -4.5s-8.5 1.5 -11.5 4.5s-4.5 6.83301 -4.5 11.5s1.5 8.5 4.5 11.5s6.83301 4.5 11.5 4.5s8.5 -1.5 11.5 -4.5s4.5 -6.83301 4.5 -11.5zM160 384h224v-320h-224v320z" />
    <glyph glyph-name="uniE00C" unicode="&#xe00c;" 
d="M416 -32c8.66699 0 16.167 3.16699 22.5 9.5s9.5 13.833 9.5 22.5v448c0 8.66699 -3.16699 16.167 -9.5 22.5s-13.833 9.5 -22.5 9.5h-320c-8.66699 0 -16.167 -3.16699 -22.5 -9.5s-9.5 -13.833 -9.5 -22.5v-448c0 -8.66699 3.16699 -16.167 9.5 -22.5
s13.833 -9.5 22.5 -9.5h320zM256 -18c-4.66699 0 -8.83398 1.83301 -12.501 5.5s-5.5 7.83398 -5.5 12.501s1.83301 8.83398 5.5 12.501s7.83398 5.5 12.501 5.5s8.83398 -1.83301 12.501 -5.5s5.5 -7.83398 5.5 -12.501s-1.83301 -8.83398 -5.5 -12.501
s-7.83398 -5.5 -12.501 -5.5zM128 416h256v-384h-256v384z" />
    <glyph glyph-name="uniE00D" unicode="&#xe00d;" 
d="M495 96h-15v288c0 8.66699 -3.16699 16.167 -9.5 22.5s-13.833 9.5 -22.5 9.5h-384c-8.66699 0 -16.167 -3.16699 -22.5 -9.5s-9.5 -13.833 -9.5 -22.5v-288h-15c-4.66699 0 -8.66699 -1.5 -12 -4.5s-5 -6.83301 -5 -11.5s1.66699 -8.5 5 -11.5s7.33301 -4.5 12 -4.5h47
h384h47c4.66699 0 8.66699 1.5 12 4.5s5 6.83301 5 11.5s-1.66699 8.5 -5 11.5s-7.33301 4.5 -12 4.5zM448 384v-255h-384v255h384z" />
    <glyph glyph-name="uniE00E" unicode="&#xe00e;" 
d="M480 448h-448c-8.66699 0 -16.167 -3.16699 -22.5 -9.5s-9.5 -13.833 -9.5 -22.5v-288c0 -8.66699 3.16699 -16.167 9.5 -22.5s13.833 -9.5 22.5 -9.5h160c0 -34.667 -3.33301 -56 -10 -64h-6c-4.66699 0 -8.5 -1.5 -11.5 -4.5s-4.5 -6.83301 -4.5 -11.5
s1.5 -8.5 4.5 -11.5s6.83301 -4.5 11.5 -4.5h160c4.66699 0 8.5 1.5 11.5 4.5s4.5 6.83301 4.5 11.5s-1.5 8.5 -4.5 11.5s-6.83301 4.5 -11.5 4.5h-6c-6.66699 8 -10 29.333 -10 64h160c8.66699 0 16.167 3.16699 22.5 9.5s9.5 13.833 9.5 22.5v288
c0 8.66699 -3.16699 16.167 -9.5 22.5s-13.833 9.5 -22.5 9.5zM480 160h-448v256h448v-256z" />
    <glyph glyph-name="uniE00F" unicode="&#xe00f;" 
d="M480 320h-64.001c-1.33301 0 -3.16602 0.333008 -5.49902 1s-6.33301 3.66699 -12 9s-10.5 12.666 -14.5 21.999c-9.33301 21.333 -20 32 -32 32h-128c-12.667 0 -23.334 -10.667 -32.001 -32c-4 -9.33301 -8.66699 -16.666 -14 -21.999s-9.66602 -8.33301 -12.999 -9
l-5 -1h-32c0 8.66699 -3.16699 16.167 -9.5 22.5s-13.833 9.5 -22.5 9.5h-32c-8.66699 0 -16.167 -3.16699 -22.5 -9.5s-9.5 -13.833 -9.5 -22.5c-8.66699 0 -16.167 -3.16699 -22.5 -9.5s-9.5 -13.833 -9.5 -22.5v-256c0 -8.66699 3.16699 -16.167 9.5 -22.5
s13.833 -9.5 22.5 -9.5h448c8.66699 0 16.167 3.16699 22.5 9.5s9.5 13.833 9.5 22.5v132v28v96c0 8.66699 -3.16699 16.167 -9.5 22.5s-13.833 9.5 -22.5 9.5zM479.999 32l-448 -0.000976562v128h146c4 -27.333 16.333 -50.166 37 -68.499s45 -27.5 73 -27.5
c28.667 0 53.5 9.66699 74.5 29s33.167 43 36.5 71h81v-132zM207.999 175.999c0 22 7.83301 40.833 23.5 56.5s34.5 23.5 56.5 23.5s40.833 -7.83301 56.5 -23.5s23.5 -34.5 23.5 -56.5s-7.83301 -40.833 -23.5 -56.5s-34.5 -23.5 -56.5 -23.5s-40.833 7.83301 -56.5 23.5
s-23.5 34.5 -23.5 56.5zM397.999 191.999c-4 27.333 -16.334 50.1641 -37.001 68.4971s-45 27.5 -73 27.5s-52.333 -9.16699 -73 -27.5s-33 -41.166 -37 -68.499h-146v96h32h32h64c10.667 0 21.834 4.33301 33.501 13s21.167 21.667 28.5 39c2 5.33301 3.66699 9.33301 5 12
h122l6 -12c6 -15.333 13.833 -27.166 23.5 -35.499s17.167 -13.166 22.5 -14.499s10.333 -2 15 -2h64v-96h-82zM63.998 239.497c0 -4.33301 1.5 -8 4.5 -11s6.83301 -4.5 11.5 -4.5s8.5 1.5 11.5 4.5s4.5 6.66699 4.5 11s-1.5 8.16602 -4.5 11.499s-6.83301 5 -11.5 5
s-8.5 -1.66699 -11.5 -5s-4.5 -7.16602 -4.5 -11.499z" />
    <glyph glyph-name="uniE010" unicode="&#xe010;" 
d="M480 352h-448c-8.66699 0 -16.167 -3.16699 -22.5 -9.5s-9.5 -13.833 -9.5 -22.5v-320c0 -8.66699 3.16699 -16.167 9.5 -22.5s13.833 -9.5 22.5 -9.5h448c8.66699 0 16.167 3.16699 22.5 9.5s9.5 13.833 9.5 22.5v320c0 8.66699 -3.16699 16.167 -9.5 22.5
s-13.833 9.5 -22.5 9.5zM182 127l74 -50l74 50l127 -127h-402zM32 23v206l123 -84zM357 146l123 85v-208zM480 320v-52l-1 1l-223 -154l-224 153v52h448z" />
    <glyph glyph-name="uniE011" unicode="&#xe011;" 
d="M399 160l-12 32h-34h-194h-34l-12 -32l-49 -128h384zM147 160h218l37 -96h-292zM329 256h34l-12 32l-65 172c-5.33301 13.333 -15.333 20 -30 20s-24.667 -6.66699 -30 -20l-65 -172l-12 -32h34h146zM256 448l61 -160h-122zM496 0h-480c-4.66699 0 -8.5 -1.5 -11.5 -4.5
s-4.5 -6.66699 -4.5 -11s1.66699 -8.16602 5 -11.499s7 -5 11 -5h480c4 0 7.66699 1.66699 11 5s5 7.16602 5 11.499s-1.5 8 -4.5 11s-6.83301 4.5 -11.5 4.5z" />
    <glyph glyph-name="uniE012" unicode="&#xe012;" 
d="M84 -30c4 -1.33301 7.99805 -2 11.998 -2c8.66699 0 16.334 3 23.001 9l137 138l137 -138c6.66699 -6 14.334 -9 23.001 -9c4 0 8 0.666992 12 2c13.333 6 20 16 20 30v448c0 8.66699 -3.16699 16.167 -9.5 22.5s-13.833 9.5 -22.5 9.5h-320
c-8.66699 0 -16.167 -3.16699 -22.5 -9.5s-9.5 -13.833 -9.5 -22.5v-448c0 -14 6.66699 -24 20 -30zM255.998 160l-160 -160v352h320v-352zM415.998 448v-64h-320v64h320z" />
    <glyph glyph-name="uniE013" unicode="&#xe013;" 
d="M96 -32h320.002c8.66699 0 16.167 3.16699 22.5 9.5s9.5 13.833 9.5 22.5v352c0 8.66699 -3.16699 16.167 -9.5 22.5s-13.833 9.5 -22.5 9.5h-64c-0.666992 26.667 -10.334 49.334 -29.001 68.001s-41 28 -67 28s-48.333 -9.33301 -67 -28
s-28.334 -41.334 -29.001 -68.001h-64c-8.66699 0 -16.167 -3.16699 -22.5 -9.5s-9.5 -13.833 -9.5 -22.5v-352c0 -8.66699 3.16699 -16.167 9.5 -22.5s13.833 -9.5 22.5 -9.5zM416.002 352v-352h-320v352h320zM256.002 448c17.333 0 32.168 -6.16699 44.501 -18.5
s18.833 -27.5 19.5 -45.5h-128c0.666992 18 7.16699 33.167 19.5 45.5s27.166 18.5 44.499 18.5zM208.004 288h96c4.66699 0 8.5 1.5 11.5 4.5s4.5 6.83301 4.5 11.5s-1.5 8.5 -4.5 11.5s-6.83301 4.5 -11.5 4.5h-96c-4.66699 0 -8.5 -1.5 -11.5 -4.5
s-4.5 -6.83301 -4.5 -11.5s1.5 -8.5 4.5 -11.5s6.83301 -4.5 11.5 -4.5z" />
    <glyph glyph-name="uniE014" unicode="&#xe014;" 
d="M480 416h-448c-8.66699 0 -16.167 -3.16699 -22.5 -9.5s-9.5 -13.833 -9.5 -22.5v-65v-63v-192c0 -8.66699 3.16699 -16.167 9.5 -22.5s13.833 -9.5 22.5 -9.5h448c8.66699 0 16.167 3.16699 22.5 9.5s9.5 13.833 9.5 22.5v192v63v65
c0 8.66699 -3.16699 16.167 -9.5 22.5s-13.833 9.5 -22.5 9.5zM480 64h-448v192h448v-192zM32 319v65h448v-65h-448zM80 96h160c4.66699 0 8.5 1.5 11.5 4.5s4.5 6.83301 4.5 11.5s-1.5 8.5 -4.5 11.5s-6.83301 4.5 -11.5 4.5h-160c-4.66699 0 -8.5 -1.5 -11.5 -4.5
s-4.5 -6.83301 -4.5 -11.5s1.5 -8.5 4.5 -11.5s6.83301 -4.5 11.5 -4.5zM288 112c0 -4.66699 1.5 -8.5 4.5 -11.5s6.83301 -4.5 11.5 -4.5s8.5 1.5 11.5 4.5s4.5 6.83301 4.5 11.5s-1.5 8.5 -4.5 11.5s-6.83301 4.5 -11.5 4.5s-8.5 -1.5 -11.5 -4.5
s-4.5 -6.83301 -4.5 -11.5zM352 112c0 -4.66699 1.5 -8.5 4.5 -11.5s6.83301 -4.5 11.5 -4.5s8.5 1.5 11.5 4.5s4.5 6.83301 4.5 11.5s-1.5 8.5 -4.5 11.5s-6.83301 4.5 -11.5 4.5s-8.5 -1.5 -11.5 -4.5s-4.5 -6.83301 -4.5 -11.5zM416 112c0 -4.66699 1.5 -8.5 4.5 -11.5
s6.83301 -4.5 11.5 -4.5s8.5 1.5 11.5 4.5s4.5 6.83301 4.5 11.5s-1.5 8.5 -4.5 11.5s-6.83301 4.5 -11.5 4.5s-8.5 -1.5 -11.5 -4.5s-4.5 -6.83301 -4.5 -11.5z" />
    <glyph glyph-name="uniE015" unicode="&#xe015;" 
d="M97 0c0 -8.66699 3.16699 -16.167 9.5 -22.5s13.833 -9.5 22.5 -9.5s16.167 3.16699 22.5 9.5s9.5 13.833 9.5 22.5s-3.16699 16.167 -9.5 22.5s-13.833 9.5 -22.5 9.5s-16.167 -3.16699 -22.5 -9.5s-9.5 -13.833 -9.5 -22.5zM385 0
c0 -8.66699 3.16699 -16.167 9.5 -22.5s13.833 -9.5 22.5 -9.5s16.167 3.16699 22.5 9.5s9.5 13.833 9.5 22.5s-3.16699 16.167 -9.5 22.5s-13.833 9.5 -22.5 9.5s-16.167 -3.16699 -22.5 -9.5s-9.5 -13.833 -9.5 -22.5zM0 400c0 -4.66699 1.50098 -8.49902 4.50098 -11.499
s6.83301 -4.5 11.5 -4.5h33l20 -85l28 -139c0 -0.666992 0.166992 -1.33398 0.5 -2.00098l0.5 -1l-17 -74c-0.666992 -4.66699 0.5 -9 3.5 -13s7.16699 -6 12.5 -6h363c4.66699 0 8.5 1.5 11.5 4.5s4.5 6.83301 4.5 11.5s-1.5 8.5 -4.5 11.5s-6.83301 4.5 -11.5 4.5h-343
l7 33c0.666992 0 1.5 -0.166992 2.5 -0.5s1.83301 -0.5 2.5 -0.5h292c9.33301 0 16.666 1.5 21.999 4.5s10.333 9.5 15 19.5l51 159c4.66699 13.333 3.66699 23.5 -3 30.5s-15 10.5 -25 10.5h-384c-0.666992 0 -3 -0.333008 -7 -1l-12 53c-2 8 -7.33301 12 -16 12h-46
c-4.66699 0 -8.5 -1.5 -11.5 -4.5s-4.5 -6.83301 -4.5 -11.5zM98.001 320.001h381.001l-51 -157c-0.666992 -1.33301 -1.33398 -2.33301 -2.00098 -3h-5h-292v3l-1 3z" />
    <glyph glyph-name="uniE016" unicode="&#xe016;" 
d="M229 368c-16.667 17.333 -34.8311 26.6709 -54.498 28.0039s-36.834 -5.5 -51.501 -20.5s-21.334 -32.167 -20.001 -51.5s10.333 -37.666 27 -54.999l183 -183c8 -7.33301 15.667 -7.16602 23 0.500977s7.33301 15.167 0 22.5l-183 183c-9.33301 9.33301 -15 19 -17 29
s1.33301 20.667 10 32c10.667 8.66699 21.167 12 31.5 10s20.166 -7.66699 29.499 -17l203 -204c20.667 -20.667 35.334 -37.334 44.001 -50.001s12.834 -24.667 12.501 -36s-6.5 -22.666 -18.5 -33.999c-17.333 -17.333 -36 -23.833 -56 -19.5s-44 20.833 -72 49.5
l-227 226c-12.667 13.333 -22.834 27.666 -30.501 42.999s-10.5 32.166 -8.5 50.499s10.333 35.166 25 50.499c13.333 13.333 27.666 21.5 42.999 24.5s29.666 1.33301 42.999 -5s24.166 -12.333 32.499 -18s15.833 -12.167 22.5 -19.5l208 -207
c7.33301 -8 14.833 -8.16699 22.5 -0.5s7.83398 15.167 0.500977 22.5l-208 208c-31.333 31.333 -63.666 48.666 -96.999 51.999s-63 -8 -89 -34c-26.667 -26.667 -38.667 -57.334 -36 -92.001s19.334 -67.334 50.001 -98.001l226 -226c40 -40 76 -60 108 -60
c23.333 0 45.333 10 66 30c12 12.667 20 25.5 24 38.5s5.16699 24.5 3.5 34.5s-7 21.5 -16 34.5s-16.5 23 -22.5 30s-15 16.5 -27 28.5z" />
    <glyph glyph-name="uniE017" unicode="&#xe017;" 
d="M465 448h-0.999023h-1h-201c-5.33301 -0.666992 -11 -3.66699 -17 -9l-236 -236c-6 -6 -9 -13.5 -9 -22.5s3 -16.5 9 -22.5l181 -181c6 -6 13.5 -9 22.5 -9s16.5 3 22.5 9l236 236c6 6 9 11.667 9 17v202c0 4.66699 -1.33301 8.5 -4 11.5s-6.33398 4.5 -11.001 4.5z
M448.001 236l-1.00098 -2l-234 -234l-181 181l234 234c0.666992 0 1.33398 0.333008 2.00098 1h180v-180zM384 368c0 -4.66699 1.5 -8.5 4.5 -11.5s6.83301 -4.5 11.5 -4.5s8.5 1.5 11.5 4.5s4.5 6.83301 4.5 11.5s-1.5 8.5 -4.5 11.5s-6.83301 4.5 -11.5 4.5
s-8.5 -1.5 -11.5 -4.5s-4.5 -6.83301 -4.5 -11.5z" />
    <glyph glyph-name="uniE018" unicode="&#xe018;" 
d="M464 480h-0.999023v0h-170c-5.33301 0 -11 -3 -17 -9l-204 -204c-6 -6 -9 -13.5 -9 -22.5s3 -16.5 9 -22.5l26 -26l-26 -25c-6 -6 -9 -13.5 -9 -22.5s3 -16.5 9 -22.5l149 -149c6 -6 13.5 -9 22.5 -9s16.5 3 22.5 9l204 204c6 6 9 11.667 9 17v266
c0 4.66699 -1.33301 8.5 -4 11.5s-6.33398 4.5 -11.001 4.5zM447.001 204v-1l-203 -203l-149 148l25 26l101 -101c6 -6 13.5 -9 22.5 -9s16.5 3 22.5 9l181 181v-50zM447.001 352l-0.000976562 -52v-1v0l-203 -203l-149 148l202 203c0.666992 0 1.33398 0.333008 2.00098 1
h148v-96zM383 400.5c0 -4.33301 1.66699 -8.16602 5 -11.499s7.16602 -5 11.499 -5s8 1.66699 11 5s4.5 7.16602 4.5 11.499s-1.5 8 -4.5 11s-6.66699 4.5 -11 4.5s-8.16602 -1.5 -11.499 -4.5s-5 -6.66699 -5 -11z" />
    <glyph glyph-name="uniE019" unicode="&#xe019;" 
d="M416 448h-64c0 8.66699 -3.16699 16.167 -9.5 22.5s-13.833 9.5 -22.5 9.5h-96c-8.66699 0 -16.167 -3.16699 -22.5 -9.5s-9.5 -13.833 -9.5 -22.5h-64c-8.66699 0 -16.167 -3.16699 -22.5 -9.5s-9.5 -13.833 -9.5 -22.5h352c0 8.66699 -3.16699 16.167 -9.5 22.5
s-13.833 9.5 -22.5 9.5zM96 0c0 -8.66699 3.16699 -16.167 9.5 -22.5s13.833 -9.5 22.5 -9.5h288c8.66699 0 16.167 3.16699 22.5 9.5s9.5 13.833 9.5 22.5v384h-352v-384zM128 352h288v-352h-288v352zM176 320c-4.66699 0 -8.5 -1.5 -11.5 -4.5s-4.5 -6.83301 -4.5 -11.5
v-256c0 -4.66699 1.5 -8.5 4.5 -11.5s6.83301 -4.5 11.5 -4.5s8.5 1.5 11.5 4.5s4.5 6.83301 4.5 11.5v256c0 4.66699 -1.5 8.5 -4.5 11.5s-6.83301 4.5 -11.5 4.5zM272 320c-4.66699 0 -8.5 -1.5 -11.5 -4.5s-4.5 -6.83301 -4.5 -11.5v-256c0 -4.66699 1.5 -8.5 4.5 -11.5
s6.83301 -4.5 11.5 -4.5s8.5 1.5 11.5 4.5s4.5 6.83301 4.5 11.5v256c0 4.66699 -1.5 8.5 -4.5 11.5s-6.83301 4.5 -11.5 4.5zM368 320c-4.66699 0 -8.5 -1.5 -11.5 -4.5s-4.5 -6.83301 -4.5 -11.5v-256c0 -4.66699 1.5 -8.5 4.5 -11.5s6.83301 -4.5 11.5 -4.5
s8.5 1.5 11.5 4.5s4.5 6.83301 4.5 11.5v256c0 4.66699 -1.5 8.5 -4.5 11.5s-6.83301 4.5 -11.5 4.5z" />
    <glyph glyph-name="uniE01A" unicode="&#xe01a;" 
d="M156 474c-4.66699 6 -10.499 7.66602 -17.499 4.99902s-10.5 -7.66699 -10.5 -15v-418c0 -7.33301 3.66699 -12.333 11 -15c1.33301 -0.666992 3 -1 5 -1c5.33301 0 9.66602 2.33301 12.999 7l71 96l50 -142c3.33301 -8.66699 9.33301 -15.167 18 -19.5
s17.5 -4.83301 26.5 -1.5s15.667 9.33301 20 18s4.83301 17.334 1.5 26.001l-49 140l112 -22c7.33301 -1.33301 13 1.16699 17 7.5s3.33301 12.5 -2 18.5zM246.001 195.999c-6.66699 1.33301 -12 -0.666992 -16 -6l-70 -95v325l209 -248z" />
    <glyph glyph-name="uniE01B" unicode="&#xe01b;" 
d="M224 67v-67h-48c-4.66699 0 -8.5 -1.5 -11.5 -4.5s-4.5 -6.83301 -4.5 -11.5s1.5 -8.5 4.5 -11.5s6.83301 -4.5 11.5 -4.5h80h80c4.66699 0 8.5 1.5 11.5 4.5s4.5 6.83301 4.5 11.5s-1.5 8.5 -4.5 11.5s-6.83301 4.5 -11.5 4.5h-48v67
c36 7.33301 66.333 24.666 91 51.999s37 62.333 37 105v48c0 4.66699 -1.5 8.5 -4.5 11.5s-6.83301 4.5 -11.5 4.5s-8.5 -1.5 -11.5 -4.5s-4.5 -6.83301 -4.5 -11.5v-48c0 -40 -12.833 -71.333 -38.5 -94s-55.5 -34 -89.5 -34s-63.833 11 -89.5 33s-38.5 53.667 -38.5 95v48
c0 4.66699 -1.5 8.5 -4.5 11.5s-6.83301 4.5 -11.5 4.5s-8.5 -1.5 -11.5 -4.5s-4.5 -6.83301 -4.5 -11.5v-48c0 -43.333 12.167 -78.666 36.5 -105.999s54.833 -44.333 91.5 -51zM256 128c26.667 0 49.334 9.33301 68.001 28s28 41.334 28 68.001v160
c0 26.667 -9.33301 49.334 -28 68.001s-41.334 28 -68.001 28s-49.334 -9.33301 -68.001 -28s-28 -41.334 -28 -68.001v-160c0 -26.667 9.33301 -49.334 28 -68.001s41.334 -28 68.001 -28zM192 384c0 18 6.16699 33.167 18.5 45.5s27.5 18.5 45.5 18.5
s33.167 -6.16699 45.5 -18.5s18.5 -27.5 18.5 -45.5v-160c0 -18 -6.16699 -33.167 -18.5 -45.5s-27.5 -18.5 -45.5 -18.5s-33.167 6.16699 -45.5 18.5s-18.5 27.5 -18.5 45.5v160z" />
    <glyph glyph-name="uniE01C" unicode="&#xe01c;" 
d="M256 480c-70.667 0 -131 -25 -181 -75s-75 -110.333 -75 -181s25 -131 75 -181s110.333 -75 181 -75s131 25 181 75s75 110.333 75 181s-25 131 -75 181s-110.333 75 -181 75zM256 0c-62 0 -114.833 21.833 -158.5 65.5s-65.5 96.5 -65.5 158.5
s21.833 114.833 65.5 158.5s96.5 65.5 158.5 65.5s114.833 -21.833 158.5 -65.5s65.5 -96.5 65.5 -158.5s-21.833 -114.833 -65.5 -158.5s-96.5 -65.5 -158.5 -65.5zM360 350l-59.999 -38.001l-40 -24c16 -1.33301 29.667 -7.66602 41 -18.999s17.666 -25 18.999 -41l24 40
l38 60c4 6.66699 3 13 -3 19s-12.333 7 -19 3zM192.001 219.999l-24.002 -39.999l-38 -60c-4 -6.66699 -3 -13 3 -19c2.66699 -3.33301 6.33398 -5 11.001 -5c3.33301 0 6 0.666992 8 2l60 38l40 24c-16 1.33301 -29.667 7.66602 -41 18.999s-17.666 25 -18.999 41z
M259.999 288h-1.5h-2.5c-18 0 -33.167 -6.16699 -45.5 -18.5s-18.5 -27.5 -18.5 -45.5v-2.5v-1.5c1.33301 -16 7.66602 -29.667 18.999 -41s25 -17.666 41 -18.999h1.5h2.5c18 0 33.167 6.16699 45.5 18.5s18.5 27.5 18.5 45.5v2.5v1.5
c-1.33301 16 -7.66602 29.667 -18.999 41s-25 17.666 -41 18.999zM223.999 224c0 8.66699 3.16699 16.167 9.5 22.5s13.833 9.5 22.5 9.5s16.167 -3.16699 22.5 -9.5s9.5 -13.833 9.5 -22.5s-3.16699 -16.167 -9.5 -22.5s-13.833 -9.5 -22.5 -9.5s-16.167 3.16699 -22.5 9.5
s-9.5 13.833 -9.5 22.5z" />
    <glyph glyph-name="uniE01D" unicode="&#xe01d;" 
d="M243.5 217c23 0 42.667 8.16699 59 24.5s24.5 36 24.5 59s-8.16699 42.667 -24.5 59s-36 24.5 -59 24.5s-42.667 -8.16699 -59 -24.5s-24.5 -36 -24.5 -59s8.16699 -42.667 24.5 -59s36 -24.5 59 -24.5zM243.5 352c14.333 0 26.5 -5 36.5 -15s15 -22.167 15 -36.5
s-5 -26.5 -15 -36.5s-22.167 -15 -36.5 -15s-26.5 5 -36.5 15s-15 22.167 -15 36.5s5 26.5 15 36.5s22.167 15 36.5 15zM232 -23c2 -2.66699 4.66309 -4.99902 7.99609 -6.99902c2 -0.666992 3.66699 -1 5 -1s3 0.333008 5 1c2.66699 2 5.33398 4.33301 8.00098 7
c4 4 9.33301 10 16 18s18.834 23.833 36.501 47.5s33.5 47 47.5 70s27.333 49.833 40 80.5s20.334 59.334 23.001 86.001c1.33301 8 2 15.333 2 22c0 49.333 -17.5 91.5 -52.5 126.5s-77.333 52.5 -127 52.5s-92 -17.5 -127 -52.5s-52.5 -77.167 -52.5 -126.5
c0 -7.33301 0.666992 -15 2 -23c2.66699 -26 10.167 -54.167 22.5 -84.5s26.333 -57.833 42 -82.5s31.334 -47.334 47.001 -68.001s28.5 -36.834 38.5 -48.501s15.333 -17.5 16 -17.5zM242.996 448.001c40.667 0 75.498 -14.333 104.498 -43s43.5 -63.334 43.5 -104.001
c0 -5.33301 -0.666992 -11.666 -2 -18.999c-2.66699 -24.667 -9.83398 -51.5 -21.501 -80.5s-26.167 -56.5 -43.5 -82.5s-32 -47.167 -44 -63.5l-35 -45.5c-12 14 -24.167 29.167 -36.5 45.5s-27.166 37.5 -44.499 63.5s-32.166 53.5 -44.499 82.5
s-19.833 55.833 -22.5 80.5c-0.666992 7.33301 -1 13.666 -1 18.999c0 40.667 14.333 75.334 43 104.001s63.334 43 104.001 43z" />
    <glyph glyph-name="uniE01E" unicode="&#xe01e;" 
d="M142 196c-7.33301 -8.66699 -9.66504 -18.333 -6.99805 -29s9 -18 19 -22c23.333 -10 58.333 -15.667 105 -17v-96c0 -10.667 1.66699 -24 5 -40s7 -24 11 -24s7.66699 8 11 24s5 29.333 5 40v96c46.667 1.33301 81.667 7 105 17c10 4 16.333 11.333 19 22
s0.333984 20.334 -6.99902 29.001c-10.667 12 -28.334 21 -53.001 27v166c16.667 5.33301 30.667 12.333 42 21c10.667 7.33301 15 17.5 13 30.5s-9.33301 21.5 -22 25.5c-27.333 9.33301 -65 14 -113 14c-48.667 0 -87 -4.66699 -115 -14
c-12 -4.66699 -19 -13.334 -21 -26.001s2.33301 -22.667 13 -30c11.333 -8.66699 25.666 -16 42.999 -22v-165c-24.667 -6 -42.334 -15 -53.001 -27zM205.001 419.001c-14 4.66699 -25.3359 10.001 -34.0029 16.001c24.667 8.66699 59.334 13 104.001 13
c44 0 78.333 -4 103 -12c-8.66699 -6.66699 -19.667 -12.334 -33 -17.001l-22 -7v-214l24 -6c18.667 -4.66699 31 -10.667 37 -18c-23.333 -9.33301 -59.666 -14 -108.999 -14s-85.666 4.66699 -108.999 14c6 7.33301 18.333 13.333 37 18l24 6v213z" />
    <glyph glyph-name="uniE01F" unicode="&#xe01f;" 
d="M487 415l-144 64c-2 0.666992 -4.33301 1 -7 1c-2 0 -4 -0.333008 -6 -1l-154 -62l-137 62c-2 0.666992 -4.33301 1 -7 1c-7.33301 0 -14 -2.33301 -20 -7c-8 -6.66699 -12 -15 -12 -25v-384c-0 -7.33301 2.33301 -14 7 -20s10.667 -9.66699 18 -11l143 -64
c2.66699 -0.666992 5 -1 7 -1c2.66699 0 5 0.333008 7 1l154 62l137 -62c2.66699 -0.666992 5 -1 7 -1c7.33301 0 14 2.33301 20 7c8 6.66699 12 15 12 25v384c0 7.33301 -2.33301 14 -7 20s-10.667 9.66699 -18 11zM192 391l128 51v-384l-128 -51v384zM32 448l128 -57v-384
l-128 57v384zM480 0l-128 57v384l128 -57v-384z" />
    <glyph glyph-name="uniE020" unicode="&#xe020;" 
d="M405 448h-301.001c-18 0 -31.333 -10.667 -40 -32l-64 -223v-17v-34v-126c0 -4.66699 1.5 -8.5 4.5 -11.5s6.83301 -4.5 11.5 -4.5h480c4.66699 0 8.5 1.5 11.5 4.5s4.5 6.83301 4.5 11.5v128v32v15l-64 225c-9.33301 21.333 -23.666 32 -42.999 32zM93.999 405
c3.33301 7.33301 6.66699 11 10 11h301c4.66699 0 9 -3.66699 13 -11l60 -213h-142c-4.66699 0 -8.5 -1.5 -11.5 -4.5s-4.5 -6.83301 -4.5 -11.5v-48h-128v48c0 4.66699 -1.5 8.5 -4.5 11.5s-6.83301 4.5 -11.5 4.5h-143zM480 32h-448v112v16h128v-48
c0 -4.66699 1.5 -8.5 4.5 -11.5s6.83301 -4.5 11.5 -4.5h160c4.66699 0 8.5 1.5 11.5 4.5s4.5 6.83301 4.5 11.5v48h128v-15v-113z" />
    <glyph glyph-name="uniE021" unicode="&#xe021;" 
d="M480 320h-128c0 -8.66699 -3.16699 -16.167 -9.5 -22.5s-13.833 -9.5 -22.5 -9.5h160v-64h-160c8.66699 0 16.167 -3.16699 22.5 -9.5s9.5 -13.833 9.5 -22.5h128v-192h-448v192h128c0 8.66699 3.16699 16.167 9.5 22.5s13.833 9.5 22.5 9.5h-160v64h160
c-8.66699 0 -16.167 3.16699 -22.5 9.5s-9.5 13.833 -9.5 22.5h-128c-8.66699 0 -16.167 -3.16699 -22.5 -9.5s-9.5 -13.833 -9.5 -22.5v-64v-32v-192c0 -8.66699 3.16699 -16.167 9.5 -22.5s13.833 -9.5 22.5 -9.5h448c8.66699 0 16.167 3.16699 22.5 9.5
s9.5 13.833 9.5 22.5v192v32v64c0 8.66699 -3.16699 16.167 -9.5 22.5s-13.833 9.5 -22.5 9.5zM192 288h128c8.66699 0 16.167 3.16699 22.5 9.5s9.5 13.833 9.5 22.5v32c0 8.66699 -3.16699 16.167 -9.5 22.5s-13.833 9.5 -22.5 9.5h-128
c-8.66699 0 -16.167 -3.16699 -22.5 -9.5s-9.5 -13.833 -9.5 -22.5v-32c0 -8.66699 3.16699 -16.167 9.5 -22.5s13.833 -9.5 22.5 -9.5zM192 352h128v-32h-128v32zM160 192v-32c0 -8.66699 3.16699 -16.167 9.5 -22.5s13.833 -9.5 22.5 -9.5h128
c8.66699 0 16.167 3.16699 22.5 9.5s9.5 13.833 9.5 22.5v32c0 8.66699 -3.16699 16.167 -9.5 22.5s-13.833 9.5 -22.5 9.5h-128c-8.66699 0 -16.167 -3.16699 -22.5 -9.5s-9.5 -13.833 -9.5 -22.5zM320 160h-128v32h128v-32z" />
    <glyph glyph-name="uniE022" unicode="&#xe022;" 
d="M433 480l-144.999 0.000976562h-144h-63c-22 0 -40.833 -7.66699 -56.5 -23s-23.834 -34 -24.501 -56v-67v-46v-175v-40v-24c-0 -22.667 7.83301 -41.834 23.5 -57.501s34.834 -23.5 57.501 -23.5h14h129h44h21h64c8.66699 0 16 3.16699 22 9.5s9 13.833 9 22.5v336
c0 4.66699 -1.5 8.5 -4.5 11.5s-6.5 4.5 -10.5 4.5h-288c-14 0 -25.667 4.5 -35 13.5s-14 20.167 -14 33.5s4.83301 24.833 14.5 34.5s21.167 14.5 34.5 14.5h63h149h123v-368c0 -4.66699 1.66699 -8.5 5 -11.5s7.16602 -4.5 11.499 -4.5s8 1.5 11 4.5s4.5 6.83301 4.5 11.5
v384c0 4.66699 -1.5 8.5 -4.5 11.5s-6.5 4.5 -10.5 4.5zM81.001 320.001h271l1 -320h-64h-21h-44h-129h-14c-13.333 0 -24.833 4.83301 -34.5 14.5s-14.5 21.167 -14.5 34.5v24v40v175v46v2c14 -10.667 30.333 -16 49 -16z" />
    <glyph glyph-name="uniE023" unicode="&#xe023;" 
d="M510 390c-4.66699 15.333 -14.6709 23 -30.0039 23h-32v-32v-18c0 -13.333 -4.66699 -24.666 -14 -33.999s-20.666 -14 -33.999 -14s-24.666 4.66699 -33.999 14s-14 20.666 -14 33.999v18v32h-192v-32v-18c0 -13.333 -4.66699 -24.666 -14 -33.999
s-20.666 -14 -33.999 -14s-24.666 4.66699 -33.999 14s-14 20.666 -14 33.999v18v32h-32c-15.333 0 -25.333 -7.66699 -30 -23h-2v-9v-100v-281c0 -8.66699 3.16699 -16.167 9.5 -22.5s13.833 -9.5 22.5 -9.5h448c8.66699 0 16.167 3.16699 22.5 9.5s9.5 13.833 9.5 22.5
v281v100v9h-2zM479.996 0h-448v256h448v-256zM111.496 347c4.33301 0 8.16602 1.5 11.499 4.5s5 6.83301 5 11.5v101c0 4.66699 -1.66699 8.5 -5 11.5s-7.16602 4.5 -11.499 4.5s-8 -1.5 -11 -4.5s-4.5 -6.83301 -4.5 -11.5v-101c0 -4.66699 1.5 -8.5 4.5 -11.5
s6.66699 -4.5 11 -4.5zM399.996 347c4.66699 0 8.5 1.5 11.5 4.5s4.5 6.83301 4.5 11.5v101c0 4.66699 -1.5 8.5 -4.5 11.5s-6.83301 4.5 -11.5 4.5s-8.5 -1.5 -11.5 -4.5s-4.5 -6.83301 -4.5 -11.5v-101c0 -4.66699 1.5 -8.5 4.5 -11.5s6.83301 -4.5 11.5 -4.5z" />
    <glyph glyph-name="uniE024" unicode="&#xe024;" 
d="M480 480h-448c-8.66699 0 -16.167 -3.16699 -22.5 -9.5s-9.5 -13.833 -9.5 -22.5v-448c0 -8.66699 3.16699 -16.167 9.5 -22.5s13.833 -9.5 22.5 -9.5h448c8.66699 0 16.167 3.16699 22.5 9.5s9.5 13.833 9.5 22.5v448c0 8.66699 -3.16699 16.167 -9.5 22.5
s-13.833 9.5 -22.5 9.5zM96 192v-64h-64v64h64zM32 256v64h64v-64h-64zM128 160h256v-160h-256v160zM384 192h-256v256h256v-256zM416 192h64v-64h-64v64zM416 256v64h64v-64h-64zM416 384v64h64v-64h-64zM96 384h-64v64h64v-64zM32 64h64v-64h-64v64zM416 64h64v-64h-64v64
z" />
    <glyph glyph-name="uniE025" unicode="&#xe025;" 
d="M511 418c-0.666992 8 -4 15 -10 21s-13 9 -21 9h-448c-8 0 -15 -3 -21 -9s-9.33301 -13 -10 -21h-1v-3v-63v-227v-29v-96c0 -8.66699 3.16699 -16.167 9.5 -22.5s13.833 -9.5 22.5 -9.5h448c8.66699 0 16.167 3.16699 22.5 9.5s9.5 13.833 9.5 22.5v352v63v3h-1zM192 256
v96h128v-96h-128zM320 224v-99h-128v99h128zM160 352v-96h-128v96h128zM32 224h128v-99h-128v99zM32 0v96h128v-96h-128zM192 0v96h128v-96h-128zM480 0h-128v96h128v-96zM480 125h-128v99h128v-99zM480 256h-128v96h128v-96z" />
    <glyph glyph-name="uniE026" unicode="&#xe026;" 
d="M416 480h-384c-8.66699 0 -16.167 -3.16699 -22.5 -9.5s-9.5 -13.833 -9.5 -22.5v-448c0 -8.66699 3.16699 -16.167 9.5 -22.5s13.833 -9.5 22.5 -9.5h384c8.66699 0 16.167 3.16699 22.5 9.5s9.5 13.833 9.5 22.5v448c0 8.66699 -3.16699 16.167 -9.5 22.5
s-13.833 9.5 -22.5 9.5zM32 448h64v-448h-64v448zM416 0h-288v448h288v-448zM222 308c0 -13.333 4.66699 -24.666 14 -33.999s20.666 -14 33.999 -14s24.833 4.66699 34.5 14s14.5 20.666 14.5 33.999v0c0 13.333 -4.83301 24.833 -14.5 34.5s-21.167 14.5 -34.5 14.5
s-24.666 -4.83301 -33.999 -14.5s-14 -21.167 -14 -34.5zM271 240c-22 0 -40.666 -10.333 -55.999 -31s-23 -45.667 -23 -75c0 -18.667 13.167 -31.667 39.5 -39s52.666 -7.33301 78.999 0s39.5 20.333 39.5 39c0 29.333 -7.66699 54.333 -23 75s-34 31 -56 31zM480.001 448
h32v-96h-32v96zM480.001 320h32v-96h-32v96zM480.001 192h32v-96h-32v96z" />
    <glyph glyph-name="uniE027" unicode="&#xe027;" 
d="M480 160l0.00195312 64c0 69.333 -22.333 124 -67 164s-97 60 -157 60c-58.667 0 -110.667 -20.167 -156 -60.5s-68 -94.833 -68 -163.5v-64c-8.66699 0 -16.167 -3.16699 -22.5 -9.5s-9.5 -13.833 -9.5 -22.5v-64c0 -8.66699 3.16699 -16.167 9.5 -22.5
s13.833 -9.5 22.5 -9.5c0 -8.66699 3.16699 -16.167 9.5 -22.5s13.833 -9.5 22.5 -9.5s16.167 3.16699 22.5 9.5s9.5 13.833 9.5 22.5v128c0 8.66699 -3.16699 16.167 -9.5 22.5s-13.833 9.5 -22.5 9.5v32c0 59.333 19.167 106.166 57.5 140.499s83.166 51.5 134.499 51.5
s96.166 -16.667 134.499 -50s57.5 -80.666 57.5 -141.999v-32c-8.66699 0 -16.167 -3.16699 -22.5 -9.5s-9.5 -13.833 -9.5 -22.5v-128c0 -8.66699 3.16699 -16.167 9.5 -22.5s13.833 -9.5 22.5 -9.5s16.167 3.16699 22.5 9.5s9.5 13.833 9.5 22.5
c8.66699 0 16.167 3.16699 22.5 9.5s9.5 13.833 9.5 22.5v64c0 8.66699 -3.16699 16.167 -9.5 22.5s-13.833 9.5 -22.5 9.5z" />
    <glyph glyph-name="uniE028" unicode="&#xe028;" 
d="M256 480c-70.667 0 -131 -25 -181 -75s-75 -110.333 -75 -181s25 -131 75 -181s110.333 -75 181 -75s131 25 181 75s75 110.333 75 181s-25 131 -75 181s-110.333 75 -181 75zM165.5 133.5c-25 25 -37.5 55.167 -37.5 90.5s12.5 65.5 37.5 90.5s55.167 37.5 90.5 37.5
s65.5 -12.5 90.5 -37.5s37.5 -55.167 37.5 -90.5s-12.5 -65.5 -37.5 -90.5s-55.167 -37.5 -90.5 -37.5s-65.5 12.5 -90.5 37.5zM355 425l-49 -50c-18 6 -34.667 9 -50 9c-14 0 -29 -2.33301 -45 -7l-50 50c30 14 61.667 21 95 21c34.667 0 67.667 -7.66699 99 -23zM53 319
l49.999 -50c-9.33301 -32 -8.66602 -63.667 2.00098 -95l-50 -49c-15.333 31.333 -23 64.333 -23 99c0 33.333 7 65 21 95zM164.999 20l50 50c15.333 -4 29 -6 41 -6c14 0 29 2.33301 45 7l50 -50c-30 -14 -61.667 -21 -95 -21c-32 0 -62.333 6.66699 -91 20zM458.999 129
l-50.001 49.999c8 28.667 8.33301 57.334 1 86.001l50 50c13.333 -29.333 19.833 -60.333 19.5 -93s-7.16602 -63.667 -20.499 -93z" />
    <glyph glyph-name="uniE029" unicode="&#xe029;" 
d="M256 -32c40.667 0 78.667 8.83301 114 26.5s65 42.167 89 73.5l-203 156v256c-70.667 0 -131 -25 -181 -75s-75 -110.333 -75 -181s25 -131 75 -181s110.333 -75 181 -75zM224 446l-0.000976562 -222c0 -10.667 4 -19 12 -25l176 -136c-43.333 -42 -95.333 -63 -156 -63
c-62 -0 -114.833 21.833 -158.5 65.5s-65.5 96.5 -65.5 158.5c0 56 18.333 105 55 147s82.334 67 137.001 75zM299.999 476v-228.999l183 -141c19.333 37.333 29 76.666 29 117.999c0 62.667 -20.167 117.667 -60.5 165s-90.833 76.333 -151.5 87z" />
    <glyph glyph-name="uniE02A" unicode="&#xe02a;" 
d="M479.5 480c-9 0 -16.668 -3.16699 -23.001 -9.5s-9.5 -13.833 -9.5 -22.5v-76c-1.33301 1.33301 -5 5.83301 -11 13.5s-10 12.667 -12 15l-12.5 14c-6.33301 7 -11.333 12 -15 15l-16.5 13c-7.33301 5.66699 -13.833 9.83398 -19.5 12.501l-21.5 10
c-8.66699 4 -17.167 6.83301 -25.5 8.5s-17.666 3.16699 -27.999 4.5s-21.166 2 -32.499 2c-70 0 -129.667 -24.667 -179 -74s-74 -108.833 -74 -178.5s24.667 -129.167 74 -178.5s109 -74 179 -74c54.667 0 104 16 148 48s74.667 74 92 126c2.66699 8.66699 2 17 -2 25
s-10.333 13.5 -19 16.5s-17.167 2.33301 -25.5 -2s-13.833 -10.833 -16.5 -19.5c-12.667 -38 -35.334 -68.833 -68.001 -92.5s-69 -35.5 -109 -35.5c-52 0 -96.167 18.167 -132.5 54.5s-54.5 80.333 -54.5 132s18.167 95.667 54.5 132s80.5 54.5 132.5 54.5
c32.667 0 60.167 -8.33301 82.5 -25s43.5 -39.334 63.5 -68.001h-82c-8.66699 0 -16.167 -3.16699 -22.5 -9.5s-9.5 -14 -9.5 -23s3.16699 -16.667 9.5 -23s13.833 -9.5 22.5 -9.5h163c8.66699 0 16.167 3.16699 22.5 9.5s9.5 13.833 9.5 22.5v160
c0 8.66699 -3.16699 16.167 -9.5 22.5s-14 9.5 -23 9.5z" />
    <glyph glyph-name="uniE02B" unicode="&#xe02b;" 
d="M153 415c9.33301 9.33301 20.6699 14.001 34.0029 14.001s24.666 -4.66699 33.999 -14l171 -172c10 36 2 67 -24 93l-113 113c-18.667 18.667 -41.334 28 -68.001 28s-49.334 -9.33301 -68.001 -28l-25 -25c-19.333 -19.333 -29 -42.166 -29 -68.499
s9.66699 -48.833 29 -67.5l113 -113c25.333 -26 56 -34.333 92 -25l-172 172c-9.33301 9.33301 -14 20.666 -14 33.999s4.66699 24.666 14 33.999zM257.004 -0.999023c18.667 -18.667 41.3301 -28.001 67.9971 -28.001s49.334 9.33301 68.001 28l25 25
c19.333 19.333 29 42.166 29 68.499s-9.66699 48.833 -29 67.5l-113 113c-25.333 26 -56 34.333 -92 25l172 -172c9.33301 -9.33301 14 -20.666 14 -33.999s-4.66699 -24.666 -14 -33.999l-26 -25c-9.33301 -9.33301 -20.666 -14 -33.999 -14s-24.666 4.66699 -33.999 14
l-171 172c-10 -36 -2 -67 24 -93z" />
    <glyph glyph-name="uniE02C" unicode="&#xe02c;" 
d="M122 228c22 -22 48 -28.6621 78 -19.9951l-152 151c-4.66699 5.33301 -7 12.333 -7 21c0 16.667 5.66699 30.667 17 42c7.33301 7.33301 17.5 12.666 30.5 15.999s24.167 1.66602 33.5 -5.00098l151 -151c2 7.33301 3 14.666 3 21.999c0 22 -7.66699 40.333 -23 55
l-102 103c-16 14.667 -36.5 20.5 -61.5 17.5s-45.167 -12.5 -60.5 -28.5c-19.333 -18.667 -29 -42.334 -29 -71.001c-0 -20.667 6.33301 -37.334 19 -50.001zM392 220.005c-22 22 -48 28.6621 -78 19.9951l152 -151c4.66699 -5.33301 7 -12.333 7 -21
c0 -16.667 -5.66699 -30.667 -17 -42c-7.33301 -7.33301 -17.5 -12.666 -30.5 -15.999s-24.167 -1.66602 -33.5 5.00098l-151 151c-2 -7.33301 -3 -14.666 -3 -21.999c0 -22 7.66699 -40.333 23 -55l102 -103c16 -14.667 36.333 -20.5 61 -17.5s45 12.5 61 28.5
c19.333 18.667 29 42.334 29 71.001c0 20.667 -6.33301 37.334 -19 50.001zM147.5 333.5c-4.33301 -4.33301 -6.5 -9.5 -6.5 -15.5s2.33301 -11 7 -15l188 -188c4 -4.66699 9 -7 15 -7s11.167 2.16699 15.5 6.5s6.5 9.5 6.5 15.5s-2.33301 11 -7 15l-188 188
c-4 4.66699 -9 7 -15 7s-11.167 -2.16699 -15.5 -6.5z" />
    <glyph glyph-name="uniE02D" unicode="&#xe02d;" 
d="M431 115c0 -2 1 -3 3 -3s3 1 3 3v0c0 2 -1 3 -3 3s-3 -1 -3 -3zM367 48.5c0 -3.66699 2 -5.5 6 -5.5s6 2 6 6v0c0 3.33301 -2 5 -6 5s-6 -1.83301 -6 -5.5zM280 14.5c0 -5.66699 3 -8.5 9 -8.5s9 2.66699 9 8v0c0 6 -3 9 -9 9s-9 -2.83301 -9 -8.5zM187 19
c0 -3.33301 1.16699 -6.16602 3.5 -8.49902s5 -3.5 8 -3.5s5.66699 1.16699 8 3.5s3.5 5.16602 3.5 8.49902s-1.16699 6.16602 -3.5 8.49902s-5 3.5 -8 3.5s-5.66699 -1.16699 -8 -3.5s-3.5 -5.16602 -3.5 -8.49902zM104 61c0 -4 1.5 -7.33301 4.5 -10s6.5 -4 10.5 -4
s7.33301 1.33301 10 4s4 6 4 10v0c0 4 -1.33301 7.5 -4 10.5s-6 4.5 -10 4.5s-7.5 -1.5 -10.5 -4.5s-4.5 -6.5 -4.5 -10.5zM47 133.5c0 -5 1.66699 -9.16602 5 -12.499s7.5 -5 12.5 -5s9.16699 1.66699 12.5 5s5 7.66602 5 12.999v0c0 4.66699 -1.66699 8.66699 -5 12
s-7.5 5 -12.5 5s-9.16699 -1.66699 -12.5 -5s-5 -7.5 -5 -12.5zM26 222.501c0 -5.66699 1.83301 -10.5 5.5 -14.5s8.33398 -6 14.001 -6s10.5 2 14.5 6s6 8.83301 6 14.5s-2 10.5 -6 14.5s-8.83301 6 -14.5 6s-10.334 -2 -14.001 -6s-5.5 -8.83301 -5.5 -14.5zM43 310.501
c0 -6.33301 2.33301 -11.833 7 -16.5s10.167 -7 16.5 -7s11.833 2.33301 16.5 7s7 10.167 7 16.5s-2.33301 11.833 -7 16.5s-10.167 7 -16.5 7s-11.833 -2.33301 -16.5 -7s-7 -10.167 -7 -16.5zM96 381.501c0 -7 2.66699 -13.167 8 -18.5s11.5 -8 18.5 -8
s13.167 2.66699 18.5 8s8 11.5 8 18.5s-2.66699 13 -8 18s-11.5 7.5 -18.5 7.5s-13.167 -2.5 -18.5 -7.5s-8 -11 -8 -18zM174 422.001c0 -8 2.83301 -14.833 8.5 -20.5s12.5 -8.5 20.5 -8.5s14.833 2.83301 20.5 8.5s8.5 12.5 8.5 20.5v0c0 8 -2.83301 14.833 -8.5 20.5
s-12.5 8.5 -20.5 8.5s-14.833 -2.83301 -20.5 -8.5s-8.5 -12.5 -8.5 -20.5zM262 424.501c0 -9 3.16699 -16.5 9.5 -22.5s13.833 -9 22.5 -9s16.167 3 22.5 9s9.5 13.667 9.5 23v0c0 8.66699 -3.16699 16 -9.5 22s-13.833 9 -22.5 9s-16.167 -3 -22.5 -9
s-9.5 -13.5 -9.5 -22.5zM342 388.501c0 -9.66699 3.33301 -17.834 10 -24.501s14.834 -10 24.501 -10s18 3.33301 25 10s10.5 14.834 10.5 24.501s-3.5 17.834 -10.5 24.501s-15.333 10 -25 10s-17.834 -3.33301 -24.501 -10s-10 -14.834 -10 -24.501zM399 320.501
c0 -10.333 3.66699 -19.168 11 -26.501s16.166 -11 26.499 -11s19.166 3.66699 26.499 11s11 16.333 11 27v0c0 10 -3.66699 18.667 -11 26s-16.166 11 -26.499 11s-19.166 -3.66699 -26.499 -11s-11 -16.166 -11 -26.499zM422 232.999c0 -11.333 3.83301 -21 11.5 -29
s17.167 -12 28.5 -12s21 4 29 12s12 17.667 12 29s-4 21 -12 29s-17.667 12 -29 12s-20.833 -4 -28.5 -12s-11.5 -17.667 -11.5 -29z" />
    <glyph glyph-name="uniE02E" unicode="&#xe02e;" 
d="M256 480c-70.667 0 -131 -25 -181 -75s-75 -110.333 -75 -181s25 -131 75 -181s110.333 -75 181 -75s131 25 181 75s75 110.333 75 181s-25 131 -75 181s-110.333 75 -181 75zM256 416c52.667 0 97.833 -18.832 135.5 -56.499s56.5 -82.834 56.5 -135.501
c0 -40.667 -12 -77.667 -36 -111l-267 267c33.333 24 70.333 36 111 36zM63.999 224.001c0 40.667 12.001 77.666 36.001 110.999l267 -267c-33.333 -24 -70.333 -36 -111 -36c-52.667 0 -97.834 18.833 -135.501 56.5s-56.5 82.834 -56.5 135.501z" />
    <glyph glyph-name="uniE02F" unicode="&#xe02f;" 
d="M480 416h-448c-8.66699 0 -16.167 -3.16699 -22.5 -9.5s-9.5 -13.833 -9.5 -22.5v-64h512v64c0 8.66699 -3.16699 16.167 -9.5 22.5s-13.833 9.5 -22.5 9.5zM480 352h-448v32h448v-32zM32 0c0 -8.66699 3.16699 -16.167 9.5 -22.5s13.833 -9.5 22.5 -9.5h384
c8.66699 0 16.167 3.16699 22.5 9.5s9.5 13.833 9.5 22.5v288h-448v-288zM64 256h384v-256h-384v256zM336 224h-160c-4.66699 0 -8.5 -1.5 -11.5 -4.5s-4.5 -6.83301 -4.5 -11.5s1.5 -8.5 4.5 -11.5s6.83301 -4.5 11.5 -4.5h160c4.66699 0 8.5 1.5 11.5 4.5
s4.5 6.83301 4.5 11.5s-1.5 8.5 -4.5 11.5s-6.83301 4.5 -11.5 4.5z" />
    <glyph glyph-name="uniE030" unicode="&#xe030;" 
d="M512 259c-0.666992 39.333 -15.167 73.833 -43.5 103.5s-61.833 44.5 -100.5 44.5c-45.333 0 -82.666 -19.667 -111.999 -59c-29.333 39.333 -66.666 59 -111.999 59c-38.667 0 -72.167 -14.833 -100.5 -44.5s-42.833 -64.167 -43.5 -103.5v-1.5v-0.5v-1
c0 -0.666992 0.166992 -1.66699 0.5 -3s0.5 -2.33301 0.5 -3c0.666992 -27.333 6 -53.5 16 -78.5s22.167 -46.5 36.5 -64.5s31.166 -35.167 50.499 -51.5s36.833 -29.5 52.5 -39.5s32 -19 49 -27s28.5 -13.167 34.5 -15.5l14 -5.5c3.33301 1.33301 8 3 14 5
s17.667 7.16699 35 15.5s34 17.5 50 27.5s33.833 23 53.5 39s36.667 33.167 51 51.5s26.666 40 36.999 65s15.833 51.167 16.5 78.5c0 0.666992 0.166992 1.66699 0.5 3s0.5 2.33301 0.5 3v1v1v1zM479 251c-0.666992 -28.667 -7.83691 -56.332 -21.5039 -82.999
s-29.167 -48.667 -46.5 -66s-37.5 -33.666 -60.5 -48.999s-41.667 -26.333 -56 -33s-27.833 -12.667 -40.5 -18c-12.667 5.33301 -26 11.333 -40 18s-32.333 17.667 -55 33s-42.5 31.666 -59.5 48.999s-32.167 39.333 -45.5 66s-20.333 54.667 -21 84
c0 1.33301 -0.333008 2.66602 -1 3.99902v2c0.666992 32 12 59.5 34 82.5s48 34.5 78 34.5c34.667 0 63.334 -15.333 86.001 -46c6.66699 -8.66699 15.334 -13 26.001 -13s19.334 4.33301 26.001 13c22.667 30.667 51.334 46 86.001 46c30 0 56 -11.5 78 -34.5
s33.333 -50.5 34 -82.5v-2c-0.666992 -1.33301 -1 -3 -1 -5z" />
    <glyph glyph-name="uniE031" unicode="&#xe031;" 
d="M515 273c-4 12.667 -12.665 20 -25.998 22l-138 20l-61 125c-6 12 -15.667 18 -29 18s-23 -6 -29 -18l-61 -125l-138 -20c-13.333 -2 -22 -9.33301 -26 -22s-1.33301 -23.667 8 -33l100 -97l-24 -138c-2 -12.667 2.33301 -23 13 -31c5.33301 -4 11.666 -6 18.999 -6
c5.33301 0 10.333 1.33301 15 4l123 65l123 -65c4.66699 -2.66699 9.66699 -4 15 -4c7.33301 0 13.666 2 18.999 6c10.667 8 15 18.333 13 31l-24 138l100 97c9.33301 9.33301 12 20.333 8 33zM373.002 154l26 -154l-138 73l-138 -73l26 154l-112 109l155 22l69 141l69 -141
l155 -22z" />
    <glyph glyph-name="uniE032" unicode="&#xe032;" 
d="M515 273c-4 12.667 -12.665 20 -25.998 22l-138 20l-61 125c-6 12 -15.667 18 -29 18s-23 -6 -29 -18l-61 -125l-138 -20c-13.333 -2 -22 -9.33301 -26 -22s-1.33301 -23.667 8 -33l100 -97l-24 -138c-2 -12.667 2.33301 -23 13 -31c5.33301 -4 11.666 -6 18.999 -6
c5.33301 0 10.333 1.33301 15 4l123 65l123 -65c4.66699 -2.66699 9.66699 -4 15 -4c7.33301 0 13.666 2 18.999 6c10.667 8 15 18.333 13 31l-24 138l100 97c9.33301 9.33301 12 20.333 8 33zM373.002 154l26 -154l-138 73v353l69 -141l155 -22z" />
    <glyph glyph-name="uniE033" unicode="&#xe033;" 
d="M332 292l-78 159l-79 -159l-175 -26l127 -123l-30 -175l157 82l156 -82l-29 175l126 123z" />
    <glyph glyph-name="uniE034" unicode="&#xe034;" 
d="M256 50v401l-78 -159l-176 -26l127 -123l-30 -175z" />
    <glyph glyph-name="uniE035" unicode="&#xe035;" 
d="M14 49c-9.33301 -9.33301 -14 -20.5 -14 -33.5s4.66699 -24.167 14 -33.5s20.5 -14 33.5 -14s24.167 4.66699 33.5 14l158 157l-68 68zM407 342l69 35l36 69l-34 34l-69 -36l-35 -69l-84 -83l34 -34zM422 159l-2.5 0.5c-1.66699 0.333008 -2.83398 0.5 -3.50098 0.5
c-10.667 0 -21.667 -2 -33 -6l-197 197c4 11.333 6 22.333 6 33c0 0.666992 -0.166992 1.83398 -0.5 3.50098l-0.5 2.5c-1.33301 25.333 -11.166 46.666 -29.499 63.999s-40.166 26 -65.499 26c-14 0 -27.667 -3.33301 -41 -10l64 -63c2.66699 -3.33301 5 -7.33301 7 -12
c4.66699 -12.667 2.33398 -24 -6.99902 -34c-6.66699 -6 -14.334 -9 -23.001 -9c-3.33301 0 -7 0.666992 -11 2c-4.66699 2 -8.66699 4.33301 -12 7l-63 64c-6.66699 -13.333 -10 -27 -10 -41c0 -25.333 8.66699 -47.166 26 -65.499s38.666 -28.166 63.999 -29.499l2.5 -0.5
c1.66699 -0.333008 2.83398 -0.5 3.50098 -0.5c10.667 0 21.667 2 33 6l197 -197c-4 -11.333 -6 -22.333 -6 -33c0 -0.666992 0.166992 -1.83398 0.5 -3.50098l0.5 -2.5c1.33301 -25.333 11.166 -46.666 29.499 -63.999s40.166 -26 65.499 -26c14 0 27.667 3.33301 41 10
l-64 63c-2.66699 3.33301 -5 7.33301 -7 12c-4.66699 12.667 -2.33398 24 6.99902 34c6.66699 6 14.334 9 23.001 9c3.33301 0 7 -0.666992 11 -2c4.66699 -2 8.66699 -4.33301 12 -7l63 -64c6.66699 13.333 10 27 10 41c0 25.333 -8.66699 47.166 -26 65.499
s-38.666 28.166 -63.999 29.499z" />
    <glyph glyph-name="uniE036" unicode="&#xe036;" 
d="M416 96c3.33301 0 7 -0.666992 11 -2c4.66699 -2 8.66699 -4.33301 12 -7l63 -64c6.66699 13.333 10 27 10 41c0 25.333 -8.66699 47.166 -26 65.499s-38.666 28.166 -63.999 29.499l-2.5 0.5c-1.66699 0.333008 -2.83398 0.5 -3.50098 0.5c-10.667 0 -21.667 -2 -33 -6
l-197 197c4 11.333 6 22.333 6 33c0 0.666992 -0.166992 1.83398 -0.5 3.50098l-0.5 2.5c-1.33301 25.333 -11.166 46.666 -29.499 63.999s-40.166 26 -65.499 26c-14 0 -27.667 -3.33301 -41 -10l64 -63c2.66699 -3.33301 5 -7.33301 7 -12
c4.66699 -12.667 2.33398 -24 -6.99902 -34c-6.66699 -6 -14.334 -9 -23.001 -9c-3.33301 0 -7 0.666992 -11 2c-4.66699 2 -8.66699 4.33301 -12 7l-63 64c-6.66699 -13.333 -10 -27 -10 -41c0 -25.333 8.66699 -47.166 26 -65.499s38.666 -28.166 63.999 -29.499l2.5 -0.5
c1.66699 -0.333008 2.83398 -0.5 3.50098 -0.5c10.667 0 21.667 2 33 6l197 -197c-4 -11.333 -6 -22.333 -6 -33c0 -0.666992 0.166992 -1.83398 0.5 -3.50098l0.5 -2.5c1.33301 -25.333 11.166 -46.666 29.499 -63.999s40.166 -26 65.499 -26c14 0 27.667 3.33301 41 10
l-64 63c-2.66699 3.33301 -5 7.33301 -7 12c-4.66699 12.667 -2.33398 24 6.99902 34c6.66699 6 14.334 9 23.001 9z" />
    <glyph glyph-name="uniE037" unicode="&#xe037;" 
d="M440 277c-4 14 -9.33301 27.333 -16 40l32 67c-12 14.667 -25.333 28 -40 40l-67 -32c-12.667 6.66699 -26 12 -40 16l-25 70c-10 1.33301 -19.333 2 -28 2s-18 -0.666992 -28 -2l-25 -70c-14 -4 -27.333 -9.33301 -40 -16l-67 32c-14.667 -12 -28 -25.333 -40 -40
l32 -67c-6.66699 -12.667 -12 -26 -16 -40l-70 -25c-1.33301 -10 -2 -19.333 -2 -28s0.666992 -18 2 -28l70 -25c4 -14 9.33301 -27.333 16 -40l-32 -67c12 -14.667 25.333 -28 40 -40l67 32c12.667 -6.66699 26 -12 40 -16l25 -70c10 -1.33301 19.333 -2 28 -2
s18 0.666992 28 2l25 70c14 4 27.333 9.33301 40 16l67 -32c14.667 12 28 25.333 40 40l-32 67c6.66699 12.667 12 26 16 40l70 25c1.33301 10 2 19.333 2 28s-0.666992 18 -2 28zM256 96c-35.333 0 -65.5 12.5 -90.5 37.5s-37.5 55.167 -37.5 90.5s12.5 65.5 37.5 90.5
s55.167 37.5 90.5 37.5s65.5 -12.5 90.5 -37.5s37.5 -55.167 37.5 -90.5s-12.5 -65.5 -37.5 -90.5s-55.167 -37.5 -90.5 -37.5zM192 224c0 -17.333 6.33301 -32.333 19 -45s27.667 -19 45 -19s32.333 6.33301 45 19s19 27.667 19 45s-6.33301 32.333 -19 45
s-27.667 19 -45 19s-32.333 -6.33301 -45 -19s-19 -27.667 -19 -45z" />
    <glyph glyph-name="uniE038" unicode="&#xe038;" 
d="M16 205l54.998 2.00195c6.66699 -8.66699 14.334 -16.334 23.001 -23.001l-4 -56c6.66699 -3.33301 13 -6.33301 19 -9s12.667 -5.33398 20 -8.00098l38 41c10.667 -1.33301 21.334 -1.33301 32.001 0l37 -42c13.333 3.33301 26.333 8.66602 39 15.999l-2 55
c8.66699 6.66699 16.334 14.334 23.001 23.001l56 -4c3.33301 6.66699 6.33301 13 9 19s5.33398 12.667 8.00098 20l-41 38c1.33301 10.667 1.33301 21.334 0 32.001l42 37c-3.33301 13.333 -8.66602 26.333 -15.999 39l-55 -2
c-6.66699 8.66699 -14.334 16.334 -23.001 23.001l4 56c-6.66699 3.33301 -13 6.33301 -19 9s-12.667 5 -20 7l-38 -40c-10.667 1.33301 -21.334 1.33301 -32.001 0l-37 42c-13.333 -4 -26.333 -9.33301 -39 -16l2 -55c-8.66699 -6.66699 -16.334 -14.334 -23.001 -23.001
l-56 4c-3.33301 -6.66699 -6.33301 -13 -9 -19s-5 -12.667 -7 -20l40 -38c-1.33301 -10.667 -1.33301 -21.334 0 -32.001l-42 -37c4 -13.333 9.33301 -26.333 16 -39zM223.498 383.002c24.333 -10.667 41.3311 -28.332 50.998 -52.999s9.16699 -49.167 -1.5 -73.5
s-28.167 -41.333 -52.5 -51s-48.666 -9.16699 -72.999 1.5s-41.5 28.167 -51.5 52.5s-9.66699 48.666 1 72.999s28.334 41.5 53.001 51.5s49.167 9.66699 73.5 -1zM136.996 295.004c0 -13.333 4.66699 -24.666 14 -33.999s20.666 -14 33.999 -14s24.666 4.66699 33.999 14
s14 20.666 14 33.999s-4.66699 24.666 -14 33.999s-20.666 14 -33.999 14s-24.666 -4.66699 -33.999 -14s-14 -20.666 -14 -33.999zM480.996 103.004l-14 5l6 13l14 29c-4.66699 6.66699 -10.334 12.334 -17.001 17.001l-29 -13l-13 -7l-5 14l-11 30c-4 0.666992 -8 1 -12 1
s-8 -0.333008 -12 -1l-11 -30l-5 -14l-13 6l-29 14c-6.66699 -4.66699 -12.334 -10.334 -17.001 -17.001l13 -29l7 -13l-14 -5l-30 -11c-0.666992 -4 -1 -8 -1 -12s0.333008 -8 1 -12l30 -11l14 -5l-6 -13l-14 -29c4.66699 -6.66699 10.334 -12.334 17.001 -17.001l29 14
l13 6l5 -14l11 -30c4 -0.666992 8 -1 12 -1s8 0.333008 12 1l11 30l5 14l13 -6l29 -14c6.66699 4.66699 12.334 10.334 17.001 17.001l-13 29l-7 13l14 5l30 11c0.666992 4 1 8 1 12s-0.333008 8 -1 12zM399.996 56.0039c-6.66699 0 -12.334 2.33301 -17.001 7
s-7 10.334 -7 17.001s2.33301 12.334 7 17.001s10.334 7 17.001 7s12.334 -2.33301 17.001 -7s7 -10.334 7 -17.001s-2.33301 -12.334 -7 -17.001s-10.334 -7 -17.001 -7z" />
    <glyph glyph-name="uniE039" unicode="&#xe039;" 
d="M272 448c-66 0 -122.5 -23.5 -169.5 -70.5s-70.5 -103.5 -70.5 -169.5s23.5 -122.5 70.5 -169.5s103.5 -70.5 169.5 -70.5s122.5 23.5 169.5 70.5s70.5 103.5 70.5 169.5s-23.5 122.5 -70.5 169.5s-103.5 70.5 -169.5 70.5zM379.5 228.5
c-7.66699 -7.66699 -15.167 -7.5 -22.5 0.5l-69 68v-249c0 -4.66699 -1.5 -8.5 -4.5 -11.5s-6.83301 -4.5 -11.5 -4.5s-8.5 1.5 -11.5 4.5s-4.5 6.83301 -4.5 11.5v249l-69 -68c-7.33301 -8 -14.833 -8.16699 -22.5 -0.5s-7.5 15.167 0.5 22.5l96 96
c1.33301 2 3 3.33301 5 4c4 1.33301 8 1.33301 12 0c2 -0.666992 3.66699 -2 5 -4l96 -96c8 -7.33301 8.16699 -14.833 0.5 -22.5z" />
    <glyph glyph-name="uniE03A" unicode="&#xe03a;" 
d="M272 448c-66 0 -122.5 -23.5 -169.5 -70.5s-70.5 -103.5 -70.5 -169.5s23.5 -122.5 70.5 -169.5s103.5 -70.5 169.5 -70.5s122.5 23.5 169.5 70.5s70.5 103.5 70.5 169.5s-23.5 122.5 -70.5 169.5s-103.5 70.5 -169.5 70.5zM379 165l-96 -96
c-1.33301 -2 -3 -3.33301 -5 -4c-4 -1.33301 -8 -1.33301 -12 0c-2 0.666992 -3.66699 2 -5 4l-96 96c-8 7.33301 -8.16699 14.833 -0.5 22.5s15.167 7.5 22.5 -0.5l69 -68v249c0 4.66699 1.5 8.5 4.5 11.5s6.83301 4.5 11.5 4.5s8.5 -1.5 11.5 -4.5s4.5 -6.83301 4.5 -11.5
v-249l69 68c7.33301 8 14.833 8.16699 22.5 0.5s7.5 -15.167 -0.5 -22.5z" />
    <glyph glyph-name="uniE03B" unicode="&#xe03b;" 
d="M272 448c-66 0 -122.5 -23.5 -169.5 -70.5s-70.5 -103.5 -70.5 -169.5s23.5 -122.5 70.5 -169.5s103.5 -70.5 169.5 -70.5s122.5 23.5 169.5 70.5s70.5 103.5 70.5 169.5s-23.5 122.5 -70.5 169.5s-103.5 70.5 -169.5 70.5zM448 208
c0 -4.66699 -1.50098 -8.49805 -4.50098 -11.498s-6.83301 -4.5 -11.5 -4.5h-249l68 -69c3.33301 -2.66699 5 -6.33398 5 -11.001s-1.66699 -8.33398 -5 -11.001c-7.33301 -8 -14.666 -8 -21.999 0l-96 96c-2 1.33301 -3.33301 3 -4 5s-1 4 -1 6v0c0 2 0.333008 4 1 6
s2 3.66699 4 5l96 96c7.33301 8 14.833 8.16699 22.5 0.5s7.5 -15.167 -0.5 -22.5l-68 -69h249c4.66699 0 8.5 -1.5 11.5 -4.5s4.5 -6.83301 4.5 -11.5z" />
    <glyph glyph-name="uniE03C" unicode="&#xe03c;" 
d="M272 448c-66 0 -122.5 -23.5 -169.5 -70.5s-70.5 -103.5 -70.5 -169.5s23.5 -122.5 70.5 -169.5s103.5 -70.5 169.5 -70.5s122.5 23.5 169.5 70.5s70.5 103.5 70.5 169.5s-23.5 122.5 -70.5 169.5s-103.5 70.5 -169.5 70.5zM416 208c0 -2 -0.333008 -4 -1 -6
s-2 -3.66699 -4 -5l-96 -96c-7.33301 -8 -14.833 -8.16699 -22.5 -0.5s-7.5 15.167 0.5 22.5l68 69h-249c-4.66699 0 -8.5 1.5 -11.5 4.5s-4.5 6.83301 -4.5 11.5s1.5 8.5 4.5 11.5s6.83301 4.5 11.5 4.5h249l-68 69c-8 7.33301 -8.16699 14.833 -0.5 22.5
s15.167 7.5 22.5 -0.5l96 -96c2 -1.33301 3.33301 -3 4 -5s1 -4 1 -6z" />
    <glyph glyph-name="uniE03D" unicode="&#xe03d;" 
d="M102.5 377.5c-47 -47 -70.5 -103.5 -70.5 -169.5s23.5 -122.5 70.5 -169.5s103.5 -70.5 169.5 -70.5s122.5 23.5 169.5 70.5s70.5 103.5 70.5 169.5s-23.5 122.5 -70.5 169.5s-103.5 70.5 -169.5 70.5s-122.5 -23.5 -169.5 -70.5zM391 89
c-7.33301 -7.33301 -15 -7.33301 -23 0l-176 176v-97c0 -4 -1.5 -7.66699 -4.5 -11s-6.83301 -5 -11.5 -5s-8.5 1.66699 -11.5 5s-4.5 7 -4.5 11v136c0 2 0.333008 4 1 6s2 3.66699 4 5v0c1.33301 2 3 3.33301 5 4s4 1 6 1h136c4 0 7.66699 -1.5 11 -4.5s5 -6.83301 5 -11.5
s-1.66699 -8.5 -5 -11.5s-7 -4.5 -11 -4.5h-97l176 -176c7.33301 -8 7.33301 -15.667 0 -23z" />
    <glyph glyph-name="uniE03E" unicode="&#xe03e;" 
d="M102.5 377.5c-47 -47 -70.5 -103.5 -70.5 -169.5s23.5 -122.5 70.5 -169.5s103.5 -70.5 169.5 -70.5s122.5 23.5 169.5 70.5s70.5 103.5 70.5 169.5s-23.5 122.5 -70.5 169.5s-103.5 70.5 -169.5 70.5s-122.5 -23.5 -169.5 -70.5zM384 304v-136
c0 -4 -1.5 -7.66699 -4.5 -11s-6.83301 -5 -11.5 -5s-8.5 1.66699 -11.5 5s-4.5 7 -4.5 11v97l-176 -176c-8 -7.33301 -15.667 -7.33301 -23 0s-7.33301 15 0 23l176 176h-97c-4 0 -7.66699 1.5 -11 4.5s-5 6.83301 -5 11.5s1.66699 8.5 5 11.5s7 4.5 11 4.5h136
c2 0 4 -0.333008 6 -1c4 -2 7 -5 9 -9c0.666992 -2 1 -4 1 -6z" />
    <glyph glyph-name="uniE03F" unicode="&#xe03f;" 
d="M102.5 377.5c-47 -47 -70.5 -103.5 -70.5 -169.5s23.5 -122.5 70.5 -169.5s103.5 -70.5 169.5 -70.5s122.5 23.5 169.5 70.5s70.5 103.5 70.5 169.5s-23.5 122.5 -70.5 169.5s-103.5 70.5 -169.5 70.5s-122.5 -23.5 -169.5 -70.5zM384 112c0 -2 -0.333008 -4 -1 -6
c-2 -4 -5 -7 -9 -9c-2 -0.666992 -4 -1 -6 -1h-136c-4 0 -7.66699 1.5 -11 4.5s-5 6.83301 -5 11.5s1.66699 8.5 5 11.5s7 4.5 11 4.5h97l-176 176c-7.33301 8 -7.33301 15.667 0 23s15 7.33301 23 0l176 -176v97c0 4 1.5 7.66699 4.5 11s6.83301 5 11.5 5
s8.5 -1.66699 11.5 -5s4.5 -7 4.5 -11v-136z" />
    <glyph glyph-name="uniE040" unicode="&#xe040;" 
d="M102.5 377.5c-47 -47 -70.5 -103.5 -70.5 -169.5s23.5 -122.5 70.5 -169.5s103.5 -70.5 169.5 -70.5s122.5 23.5 169.5 70.5s70.5 103.5 70.5 169.5s-23.5 122.5 -70.5 169.5s-103.5 70.5 -169.5 70.5s-122.5 -23.5 -169.5 -70.5zM391 304l-176 -176h97
c4 0 7.66699 -1.5 11 -4.5s5 -6.83301 5 -11.5s-1.66699 -8.5 -5 -11.5s-7 -4.5 -11 -4.5h-136c-2 0 -4 0.333008 -6 1s-3.66699 2 -5 4v0c-2 1.33301 -3.33301 3 -4 5s-1 4 -1 6v136c0 4 1.5 7.66699 4.5 11s6.83301 5 11.5 5s8.5 -1.66699 11.5 -5s4.5 -7 4.5 -11v-97
l176 176c8 7.33301 15.667 7.33301 23 0s7.33301 -15 0 -23z" />
    <glyph glyph-name="uniE041" unicode="&#xe041;" 
d="M480 480h-448c-8.66699 0 -16.167 -3.16699 -22.5 -9.5s-9.5 -13.833 -9.5 -22.5v-448c0 -8.66699 3.16699 -16.167 9.5 -22.5s13.833 -9.5 22.5 -9.5h448c8.66699 0 16.167 3.16699 22.5 9.5s9.5 13.833 9.5 22.5v448c0 8.66699 -3.16699 16.167 -9.5 22.5
s-13.833 9.5 -22.5 9.5zM224 176l0.00195312 -127.999c0 -4.66699 -1.5 -8.5 -4.5 -11.5s-6.83301 -4.5 -11.5 -4.5s-8.5 1.5 -11.5 4.5s-4.5 6.83301 -4.5 11.5v89l-101 -100c-2.66699 -3.33301 -6.33398 -5 -11.001 -5s-8.33398 1.66699 -11.001 5
c-8 7.33301 -8 14.666 0 21.999l100 101h-89c-4.66699 0 -8.5 1.5 -11.5 4.5s-4.5 6.83301 -4.5 11.5s1.5 8.5 4.5 11.5s6.83301 4.5 11.5 4.5h128c2 0 4 -0.333008 6 -1c4 -2 7 -5 9 -9c0.666992 -2 1 -4 1 -6zM432.002 288.001c4.66699 0 8.5 -1.5 11.5 -4.5
s4.5 -6.83301 4.5 -11.5s-1.5 -8.5 -4.5 -11.5s-6.83301 -4.5 -11.5 -4.5h-128c-2 0 -4 0.333008 -6 1s-3.66699 2 -5 4v0c-2 1.33301 -3.33301 3 -4 5s-1 4 -1 6v128c0 4.66699 1.5 8.5 4.5 11.5s6.83301 4.5 11.5 4.5s8.5 -1.5 11.5 -4.5s4.5 -6.83301 4.5 -11.5v-89
l101 100c7.33301 8 14.833 8.16699 22.5 0.5s7.5 -15.167 -0.5 -22.5l-100 -101h89z" />
    <glyph glyph-name="uniE042" unicode="&#xe042;" 
d="M480 480h-448c-8.66699 0 -16.167 -3.16699 -22.5 -9.5s-9.5 -13.833 -9.5 -22.5v-448c0 -8.66699 3.16699 -16.167 9.5 -22.5s13.833 -9.5 22.5 -9.5h448c8.66699 0 16.167 3.16699 22.5 9.5s9.5 13.833 9.5 22.5v448c0 8.66699 -3.16699 16.167 -9.5 22.5
s-13.833 9.5 -22.5 9.5zM208 64c4.66699 0 8.5 -1.5 11.5 -4.5s4.5 -6.83301 4.5 -11.5s-1.5 -8.5 -4.5 -11.5s-6.83301 -4.5 -11.5 -4.5h-128c-2 0 -4 0.333008 -6 1s-3.66699 2 -5 4v0c-2 1.33301 -3.33301 3 -4 5s-1 4 -1 6v128c0 4.66699 1.5 8.5 4.5 11.5
s6.83301 4.5 11.5 4.5s8.5 -1.5 11.5 -4.5s4.5 -6.83301 4.5 -11.5v-89l101 100c7.33301 8 14.833 8.16699 22.5 0.5s7.5 -15.167 -0.5 -22.5l-100 -101h89zM448 400v-128c0 -4.66699 -1.5 -8.5 -4.5 -11.5s-6.83301 -4.5 -11.5 -4.5s-8.5 1.5 -11.5 4.5
s-4.5 6.83301 -4.5 11.5v89l-101 -100c-7.33301 -8 -14.833 -8.16699 -22.5 -0.5s-7.5 15.167 0.5 22.5l100 101h-89c-4.66699 0 -8.5 1.5 -11.5 4.5s-4.5 6.83301 -4.5 11.5s1.5 8.5 4.5 11.5s6.83301 4.5 11.5 4.5h128c2 0 4 -0.333008 6 -1c4 -2 7 -5 9 -9
c0.666992 -2 1 -4 1 -6z" />
    <glyph glyph-name="uniE043" unicode="&#xe043;" 
d="M272 -32c66 0 122.5 23.5 169.5 70.5s70.5 103.5 70.5 169.5s-23.5 122.5 -70.5 169.5s-103.5 70.5 -169.5 70.5s-122.5 -23.5 -169.5 -70.5s-70.5 -103.5 -70.5 -169.5s23.5 -122.5 70.5 -169.5s103.5 -70.5 169.5 -70.5zM157 179l103.996 104
c2.66699 3.33301 6.33398 5 11.001 5s8.33398 -1.66699 11.001 -5l104 -104c7.33301 -7.33301 7.33301 -14.833 0 -22.5s-14.666 -7.5 -21.999 0.5l-93 92l-93 -92c-7.33301 -8 -14.666 -8.16699 -21.999 -0.5s-7.33301 15.167 0 22.5z" />
    <glyph glyph-name="uniE044" unicode="&#xe044;" 
d="M272 448c-66 0 -122.5 -23.5 -169.5 -70.5s-70.5 -103.5 -70.5 -169.5s23.5 -122.5 70.5 -169.5s103.5 -70.5 169.5 -70.5s122.5 23.5 169.5 70.5s70.5 103.5 70.5 169.5s-23.5 122.5 -70.5 169.5s-103.5 70.5 -169.5 70.5zM387 237l-103.996 -104
c-2.66699 -3.33301 -6.33398 -5 -11.001 -5s-8.33398 1.66699 -11.001 5l-104 104c-7.33301 7.33301 -7.33301 14.833 0 22.5s14.666 7.5 21.999 -0.5l93 -92l93 92c7.33301 8 14.666 8.16699 21.999 0.5s7.33301 -15.167 0 -22.5z" />
    <glyph glyph-name="uniE045" unicode="&#xe045;" 
d="M272 448c-66 0 -122.5 -23.5 -169.5 -70.5s-70.5 -103.5 -70.5 -169.5s23.5 -122.5 70.5 -169.5s103.5 -70.5 169.5 -70.5s122.5 23.5 169.5 70.5s70.5 103.5 70.5 169.5s-23.5 122.5 -70.5 169.5s-103.5 70.5 -169.5 70.5zM323 115
c8 -7.33301 8.16699 -14.6699 0.5 -22.0029s-15.167 -7.33301 -22.5 0l-104 104c-3.33301 2.66699 -5 6.33398 -5 11.001s1.66699 8.33398 5 11.001l104 104c7.33301 7.33301 14.833 7.33301 22.5 0s7.5 -14.666 -0.5 -21.999l-92 -93z" />
    <glyph glyph-name="uniE046" unicode="&#xe046;" 
d="M272 448c-66 0 -122.5 -23.5 -169.5 -70.5s-70.5 -103.5 -70.5 -169.5s23.5 -122.5 70.5 -169.5s103.5 -70.5 169.5 -70.5s122.5 23.5 169.5 70.5s70.5 103.5 70.5 169.5s-23.5 122.5 -70.5 169.5s-103.5 70.5 -169.5 70.5zM347 197l-104 -103.996
c-7.33301 -7.33301 -14.833 -7.33301 -22.5 0s-7.5 14.666 0.5 21.999l92 93l-92 93c-8 7.33301 -8.16699 14.666 -0.5 21.999s15.167 7.33301 22.5 0l104 -104c3.33301 -2.66699 5 -6.33398 5 -11.001s-1.66699 -8.33398 -5 -11.001z" />
    <glyph glyph-name="uniE047" unicode="&#xe047;" 
d="M272 448c-66 0 -122.5 -23.5 -169.5 -70.5s-70.5 -103.5 -70.5 -169.5s23.5 -122.5 70.5 -169.5s103.5 -70.5 169.5 -70.5s122.5 23.5 169.5 70.5s70.5 103.5 70.5 169.5s-23.5 122.5 -70.5 169.5s-103.5 70.5 -169.5 70.5zM391.5 99
c-7.66699 -7.33301 -15.5 -7.33301 -23.5 0l-95 85l-96 -85c-8 -7.33301 -15.667 -7.33301 -23 0s-7.33301 15 0 23l107 95c3.33301 2.66699 7.33301 4 12 4c4 0 7.66699 -1.33301 11 -4l107 -95c8 -8 8.16699 -15.667 0.5 -23zM391.5 213.5
c-7.66699 -7.66699 -15.5 -7.5 -23.5 0.5l-95 85l-96 -85c-8 -8 -15.667 -8.16699 -23 -0.5s-7.33301 15.5 0 23.5l107 94c3.33301 3.33301 7.33301 5 12 5c4 0 7.66699 -1.66699 11 -5l107 -94c8 -8 8.16699 -15.833 0.5 -23.5z" />
    <glyph glyph-name="uniE048" unicode="&#xe048;" 
d="M273 446c-66 0 -122.333 -23.333 -169 -70s-70 -103 -70 -169s23.333 -122.333 70 -169s103 -70 169 -70s122.333 23.333 169 70s70 103 70 169s-23.333 122.333 -70 169s-103 70 -169 70zM390 179l-107.002 -94c-3.33301 -3.33301 -7.16602 -5 -11.499 -5
s-8.16602 1.66699 -11.499 5l-107 94c-8 8 -8.16699 15.833 -0.5 23.5s15.5 7.5 23.5 -0.5l95 -85l96 85c8 8 15.667 8.16699 23 0.5s7.33301 -15.5 0 -23.5zM389.998 294l-107.002 -95c-3.33301 -2.66699 -7.16602 -4 -11.499 -4s-8.16602 1.33301 -11.499 4l-107 95
c-8 8 -8.16699 15.667 -0.5 23s15.5 7.33301 23.5 0l95 -85l96 85c8 7.33301 15.667 7.33301 23 0s7.33301 -15 0 -23z" />
    <glyph glyph-name="uniE049" unicode="&#xe049;" 
d="M273 446c-66 0 -122.333 -23.333 -169 -70s-70 -103 -70 -169s23.333 -122.333 70 -169s103 -70 169 -70s122.333 23.333 169 70s70 103 70 169s-23.333 122.333 -70 169s-103 70 -169 70zM266.5 90c-7.66699 -7.33301 -15.5 -7.33105 -23.5 0.00195312l-94 107
c-3.33301 3.33301 -5 7.16602 -5 11.499s1.66699 8.16602 5 11.499l94 107c8 8 15.833 8.16699 23.5 0.5s7.5 -15.5 -0.5 -23.5l-85 -95l85 -96c8 -8 8.16699 -15.667 0.5 -23zM381 113.002c7.33301 -8 7.33301 -15.665 0 -22.998s-15 -7.33301 -23 0l-95 107
c-2.66699 3.33301 -4 7.16602 -4 11.499s1.33301 8.16602 4 11.499l95 107c8 8 15.667 8.16699 23 0.5s7.33301 -15.5 0 -23.5l-85 -95z" />
    <glyph glyph-name="uniE04A" unicode="&#xe04a;" 
d="M273 446c-66 0 -122.333 -23.333 -169 -70s-70 -103 -70 -169s23.333 -122.333 70 -169s103 -70 169 -70s122.333 23.333 169 70s70 103 70 169s-23.333 122.333 -70 169s-103 70 -169 70zM163 88.5c-7.33301 7.66699 -7.33301 15.5 0 23.5l85 95l-85 96
c-7.33301 8 -7.33301 15.667 0 23s15 7.33301 23 0l95 -107c2.66699 -3.33301 4 -7.33301 4 -12c0 -4 -1.33301 -7.66699 -4 -11l-95 -107c-8 -8 -15.667 -8.16699 -23 -0.5zM395 196l-94 -107.003c-8 -8 -15.667 -8 -23 0c-3.33301 2.66699 -5 6.33398 -5 11.001
s1.66699 8.66699 5 12l85 95l-85 96c-8 8 -8.16699 15.667 -0.5 23s15.5 7.33301 23.5 0l94 -107c3.33301 -3.33301 5 -7.16602 5 -11.499s-1.66699 -8.16602 -5 -11.499z" />
    <glyph glyph-name="uniE04B" unicode="&#xe04b;" 
d="M272 448c-66 0 -122.5 -23.5 -169.5 -70.5s-70.5 -103.5 -70.5 -169.5s23.5 -122.5 70.5 -169.5s103.5 -70.5 169.5 -70.5s122.5 23.5 169.5 70.5s70.5 103.5 70.5 169.5s-23.5 122.5 -70.5 169.5s-103.5 70.5 -169.5 70.5zM380 166c-3.33301 -4 -7 -6 -11 -6h-195
c-4 0 -7.33301 1.66699 -10 5v1c-6.66699 8 -6.66699 16.333 0 25l98 123v1c2.66699 3.33301 6 5 10 5s7.33301 -1.66699 10 -5l98 -124c6 -8.66699 6 -17 0 -25z" />
    <glyph glyph-name="uniE04C" unicode="&#xe04c;" 
d="M272 448c-66 0 -122.5 -23.5 -169.5 -70.5s-70.5 -103.5 -70.5 -169.5s23.5 -122.5 70.5 -169.5s103.5 -70.5 169.5 -70.5s122.5 23.5 169.5 70.5s70.5 103.5 70.5 169.5s-23.5 122.5 -70.5 169.5s-103.5 70.5 -169.5 70.5zM380 225l-97.998 -123
c0 -0.666992 -0.333008 -1 -1 -1c-2.66699 -3.33301 -5.83398 -5 -9.50098 -5s-6.83398 1.66699 -9.50098 5l-98 124c-6.66699 8.66699 -6.66699 17 0 25c2.66699 4 6 6 10 6h195c4 0 7.33301 -1.66699 10 -5l1 -1c6 -8 6 -16.333 0 -25z" />
    <glyph glyph-name="uniE04D" unicode="&#xe04d;" 
d="M272 448c-66 0 -122.5 -23.5 -169.5 -70.5s-70.5 -103.5 -70.5 -169.5s23.5 -122.5 70.5 -169.5s103.5 -70.5 169.5 -70.5s122.5 23.5 169.5 70.5s70.5 103.5 70.5 169.5s-23.5 122.5 -70.5 169.5s-103.5 70.5 -169.5 70.5zM320 111c0 -4 -1.66699 -7.33398 -5 -10.001
l-1 -1c-8 -6 -16.333 -6 -25 0l-123 98h-1c-3.33301 3.33301 -5 6.83301 -5 10.5s1.66699 6.83398 5 9.50098l124 98c8.66699 6.66699 17 6.66699 25 0c4 -2.66699 6 -6 6 -10v-195z" />
    <glyph glyph-name="uniE04E" unicode="&#xe04e;" 
d="M272 448c-66 0 -122.5 -23.5 -169.5 -70.5s-70.5 -103.5 -70.5 -169.5s23.5 -122.5 70.5 -169.5s103.5 -70.5 169.5 -70.5s122.5 23.5 169.5 70.5s70.5 103.5 70.5 169.5s-23.5 122.5 -70.5 169.5s-103.5 70.5 -169.5 70.5zM379 198l-124 -98c-8.66699 -6 -17 -6 -25 0
c-4 3.33301 -6 7 -6 11v195c0 4 1.66699 7.33301 5 10h1c8 6.66699 16.333 6.66699 25 0l123 -98h1c3.33301 -2.66699 5 -6 5 -10s-1.66699 -7.33301 -5 -10z" />
    <glyph glyph-name="uniE04F" unicode="&#xe04f;" 
d="M272 448c-66 0 -122.5 -23.5 -169.5 -70.5s-70.5 -103.5 -70.5 -169.5s23.5 -122.5 70.5 -169.5s103.5 -70.5 169.5 -70.5s122.5 23.5 169.5 70.5s70.5 103.5 70.5 169.5s-23.5 122.5 -70.5 169.5s-103.5 70.5 -169.5 70.5zM400 192h-256c-4.66699 0 -8.5 1.5 -11.5 4.5
s-4.5 6.83301 -4.5 11.5s1.5 8.5 4.5 11.5s6.83301 4.5 11.5 4.5h256c4.66699 0 8.5 -1.5 11.5 -4.5s4.5 -6.83301 4.5 -11.5s-1.5 -8.5 -4.5 -11.5s-6.83301 -4.5 -11.5 -4.5z" />
    <glyph glyph-name="uniE050" unicode="&#xe050;" 
d="M272 448c-66 0 -122.5 -23.5 -169.5 -70.5s-70.5 -103.5 -70.5 -169.5s23.5 -122.5 70.5 -169.5s103.5 -70.5 169.5 -70.5s122.5 23.5 169.5 70.5s70.5 103.5 70.5 169.5s-23.5 122.5 -70.5 169.5s-103.5 70.5 -169.5 70.5zM400 192h-112v-112
c0 -4.66699 -1.5 -8.5 -4.5 -11.5s-6.83301 -4.5 -11.5 -4.5s-8.5 1.5 -11.5 4.5s-4.5 6.83301 -4.5 11.5v112h-112c-4.66699 0 -8.5 1.5 -11.5 4.5s-4.5 6.83301 -4.5 11.5s1.5 8.5 4.5 11.5s6.83301 4.5 11.5 4.5h112v112c0 4.66699 1.5 8.5 4.5 11.5
s6.83301 4.5 11.5 4.5s8.5 -1.5 11.5 -4.5s4.5 -6.83301 4.5 -11.5v-112h112c4.66699 0 8.5 -1.5 11.5 -4.5s4.5 -6.83301 4.5 -11.5s-1.5 -8.5 -4.5 -11.5s-6.83301 -4.5 -11.5 -4.5z" />
    <glyph glyph-name="uniE051" unicode="&#xe051;" 
d="M272 448c-66 0 -122.5 -23.5 -169.5 -70.5s-70.5 -103.5 -70.5 -169.5s23.5 -122.5 70.5 -169.5s103.5 -70.5 169.5 -70.5s122.5 23.5 169.5 70.5s70.5 103.5 70.5 169.5s-23.5 122.5 -70.5 169.5s-103.5 70.5 -169.5 70.5zM383 297l-89.001 -90.002l79 -88
c7.33301 -7.33301 7.33301 -14.833 0 -22.5s-15 -7.5 -23 0.5l-79 88l-88 -88c-7.33301 -8 -14.666 -8 -21.999 0c-3.33301 2.66699 -5 6.33398 -5 11.001s1.66699 8.33398 5 11.001l89 90l-79 88c-7.33301 7.33301 -7.33301 14.833 0 22.5s15 7.5 23 -0.5l79 -88l88 88
c7.33301 8 14.833 8.16699 22.5 0.5s7.5 -15.167 -0.5 -22.5z" />
    <glyph glyph-name="uniE052" unicode="&#xe052;" 
d="M257 480c-70.667 0 -131 -25 -181 -75s-75 -110.333 -75 -181s25 -131 75 -181s110.333 -75 181 -75s131 25 181 75s75 110.333 75 181s-25 131 -75 181s-110.333 75 -181 75zM376 295l-123.001 -187.999l-0.5 -1c-0.333008 -0.666992 -0.833008 -1.33398 -1.5 -2.00098
l-3 -2l-1 -1c-2 -1.33301 -4.33301 -2.33301 -7 -3h-2c-1.33301 -0.666992 -3 -0.666992 -5 0h-4c-0.666992 0.666992 -2 1.33398 -4 2.00098l-1 0.5c-0.666992 0.333008 -1.16699 0.5 -1.5 0.5s-0.666016 0.166992 -0.999023 0.5l-1 1l-0.5 0.5l-72 66
c-4 4 -6.16699 9.16699 -6.5 15.5s1.5 11.833 5.5 16.5s9.16699 7 15.5 7s11.833 -2 16.5 -6l51 -48l108 165c4 5.33301 9 8.66602 15 9.99902s11.5 0.333008 16.5 -3s8.16699 -8 9.5 -14s0.333008 -11.667 -3 -17z" />
    <glyph glyph-name="uniE053" unicode="&#xe053;" 
d="M304 480c-57.333 0 -106.333 -20.333 -147 -61s-61 -89.667 -61 -147c0 -48.667 15.333 -92 46 -130l-135 -136c-4.66699 -4.66699 -7 -10 -7 -16s2.16699 -11.167 6.5 -15.5s9.5 -6.5 15.5 -6.5s11.333 2.33301 16 7l136 135c38 -30.667 81.333 -46 130 -46
c57.333 0 106.333 20.333 147 61s61 89.667 61 147s-20.333 106.333 -61 147s-89.667 61 -147 61zM400 256h-192c-4.66699 0 -8.5 1.5 -11.5 4.5s-4.5 6.83301 -4.5 11.5s1.5 8.5 4.5 11.5s6.83301 4.5 11.5 4.5h192c4.66699 0 8.5 -1.5 11.5 -4.5s4.5 -6.83301 4.5 -11.5
s-1.5 -8.5 -4.5 -11.5s-6.83301 -4.5 -11.5 -4.5z" />
    <glyph glyph-name="uniE054" unicode="&#xe054;" 
d="M304 480c-57.333 0 -106.333 -20.333 -147 -61s-61 -89.667 -61 -147c0 -48.667 15.333 -92 46 -130l-135 -136c-4.66699 -4.66699 -7 -10 -7 -16s2.16699 -11.167 6.5 -15.5s9.5 -6.5 15.5 -6.5s11.333 2.33301 16 7l136 135c38 -30.667 81.333 -46 130 -46
c57.333 0 106.333 20.333 147 61s61 89.667 61 147s-20.333 106.333 -61 147s-89.667 61 -147 61zM400 256h-80v-80c0 -4.66699 -1.5 -8.5 -4.5 -11.5s-6.83301 -4.5 -11.5 -4.5s-8.5 1.5 -11.5 4.5s-4.5 6.83301 -4.5 11.5v80h-80c-4.66699 0 -8.5 1.5 -11.5 4.5
s-4.5 6.83301 -4.5 11.5s1.5 8.5 4.5 11.5s6.83301 4.5 11.5 4.5h80v80c0 4.66699 1.5 8.5 4.5 11.5s6.83301 4.5 11.5 4.5s8.5 -1.5 11.5 -4.5s4.5 -6.83301 4.5 -11.5v-80h80c4.66699 0 8.5 -1.5 11.5 -4.5s4.5 -6.83301 4.5 -11.5s-1.5 -8.5 -4.5 -11.5
s-6.83301 -4.5 -11.5 -4.5z" />
    <glyph glyph-name="uniE055" unicode="&#xe055;" 
d="M256 480c-70.667 0 -131 -25 -181 -75s-75 -110.333 -75 -181s25 -131 75 -181s110.333 -75 181 -75s131 25 181 75s75 110.333 75 181s-25 131 -75 181s-110.333 75 -181 75zM352 160c0 -8.66699 -3.16699 -16.167 -9.5 -22.5s-13.833 -9.5 -22.5 -9.5h-128
c-8.66699 0 -16.167 3.16699 -22.5 9.5s-9.5 13.833 -9.5 22.5v128c0 8.66699 3.16699 16.167 9.5 22.5s13.833 9.5 22.5 9.5h128c8.66699 0 16.167 -3.16699 22.5 -9.5s9.5 -13.833 9.5 -22.5v-128z" />
    <glyph glyph-name="uniE056" unicode="&#xe056;" 
d="M480 448h-416c-8.66699 0 -16.167 -3.16699 -22.5 -9.5s-9.5 -13.833 -9.5 -22.5v-416c0 -8.66699 3.16699 -16.167 9.5 -22.5s13.833 -9.5 22.5 -9.5h416c8.66699 0 16.167 3.16699 22.5 9.5s9.5 13.833 9.5 22.5v416c0 8.66699 -3.16699 16.167 -9.5 22.5
s-13.833 9.5 -22.5 9.5zM400 96h-256c-4.66699 0 -8.5 1.5 -11.5 4.5s-4.5 6.83301 -4.5 11.5s1.5 8.5 4.5 11.5s6.83301 4.5 11.5 4.5h256c4.66699 0 8.5 -1.5 11.5 -4.5s4.5 -6.83301 4.5 -11.5s-1.5 -8.5 -4.5 -11.5s-6.83301 -4.5 -11.5 -4.5zM400 192h-256
c-4.66699 0 -8.5 1.5 -11.5 4.5s-4.5 6.83301 -4.5 11.5s1.5 8.5 4.5 11.5s6.83301 4.5 11.5 4.5h256c4.66699 0 8.5 -1.5 11.5 -4.5s4.5 -6.83301 4.5 -11.5s-1.5 -8.5 -4.5 -11.5s-6.83301 -4.5 -11.5 -4.5zM400 288h-256c-4.66699 0 -8.5 1.5 -11.5 4.5
s-4.5 6.83301 -4.5 11.5s1.5 8.5 4.5 11.5s6.83301 4.5 11.5 4.5h256c4.66699 0 8.5 -1.5 11.5 -4.5s4.5 -6.83301 4.5 -11.5s-1.5 -8.5 -4.5 -11.5s-6.83301 -4.5 -11.5 -4.5z" />
    <glyph glyph-name="uniE057" unicode="&#xe057;" 
d="M272 448c-66 0 -122.5 -23.5 -169.5 -70.5s-70.5 -103.5 -70.5 -169.5s23.5 -122.5 70.5 -169.5s103.5 -70.5 169.5 -70.5s122.5 23.5 169.5 70.5s70.5 103.5 70.5 169.5s-23.5 122.5 -70.5 169.5s-103.5 70.5 -169.5 70.5zM400 96h-256c-4.66699 0 -8.5 1.5 -11.5 4.5
s-4.5 6.83301 -4.5 11.5s1.5 8.5 4.5 11.5s6.83301 4.5 11.5 4.5h256c4.66699 0 8.5 -1.5 11.5 -4.5s4.5 -6.83301 4.5 -11.5s-1.5 -8.5 -4.5 -11.5s-6.83301 -4.5 -11.5 -4.5zM400 192h-256c-4.66699 0 -8.5 1.5 -11.5 4.5s-4.5 6.83301 -4.5 11.5s1.5 8.5 4.5 11.5
s6.83301 4.5 11.5 4.5h256c4.66699 0 8.5 -1.5 11.5 -4.5s4.5 -6.83301 4.5 -11.5s-1.5 -8.5 -4.5 -11.5s-6.83301 -4.5 -11.5 -4.5zM400 288h-256c-4.66699 0 -8.5 1.5 -11.5 4.5s-4.5 6.83301 -4.5 11.5s1.5 8.5 4.5 11.5s6.83301 4.5 11.5 4.5h256
c4.66699 0 8.5 -1.5 11.5 -4.5s4.5 -6.83301 4.5 -11.5s-1.5 -8.5 -4.5 -11.5s-6.83301 -4.5 -11.5 -4.5z" />
    <glyph glyph-name="uniE058" unicode="&#xe058;" 
d="M64 -32h385c9.33301 0 17 3.16699 23 9.5s9 13.833 9 22.5v448c0 8.66699 -3 16.167 -9 22.5s-13.667 9.5 -23 9.5h-385c-8.66699 0 -16.167 -3.16699 -22.5 -9.5s-9.5 -13.833 -9.5 -22.5v-448c0 -8.66699 3.16699 -16.167 9.5 -22.5s13.833 -9.5 22.5 -9.5zM240 384
h129c4.66699 0 8.5 -1.5 11.5 -4.5s4.5 -6.83301 4.5 -11.5s-1.5 -8.5 -4.5 -11.5s-6.83301 -4.5 -11.5 -4.5h-129c-4.66699 0 -8.5 1.5 -11.5 4.5s-4.5 6.83301 -4.5 11.5s1.5 8.5 4.5 11.5s6.83301 4.5 11.5 4.5zM144 288h225c4.66699 0 8.5 -1.5 11.5 -4.5
s4.5 -6.83301 4.5 -11.5s-1.5 -8.5 -4.5 -11.5s-6.83301 -4.5 -11.5 -4.5h-225c-4.66699 0 -8.5 1.5 -11.5 4.5s-4.5 6.83301 -4.5 11.5s1.5 8.5 4.5 11.5s6.83301 4.5 11.5 4.5zM144 192h225c4.66699 0 8.5 -1.5 11.5 -4.5s4.5 -6.83301 4.5 -11.5s-1.5 -8.5 -4.5 -11.5
s-6.83301 -4.5 -11.5 -4.5h-225c-4.66699 0 -8.5 1.5 -11.5 4.5s-4.5 6.83301 -4.5 11.5s1.5 8.5 4.5 11.5s6.83301 4.5 11.5 4.5zM144 96h225c4.66699 0 8.5 -1.5 11.5 -4.5s4.5 -6.83301 4.5 -11.5s-1.5 -8.5 -4.5 -11.5s-6.83301 -4.5 -11.5 -4.5h-225
c-4.66699 0 -8.5 1.5 -11.5 4.5s-4.5 6.83301 -4.5 11.5s1.5 8.5 4.5 11.5s6.83301 4.5 11.5 4.5z" />
    <glyph glyph-name="uniE059" unicode="&#xe059;" 
d="M64 32h32v-32c0 -8.66699 3.16699 -16.167 9.5 -22.5s13.833 -9.5 22.5 -9.5h320c8.66699 0 16.167 3.16699 22.5 9.5s9.5 13.833 9.5 22.5v384c0 8.66699 -3.16699 16.167 -9.5 22.5s-13.833 9.5 -22.5 9.5h-32v32c0 8.66699 -3.16699 16.167 -9.5 22.5
s-13.833 9.5 -22.5 9.5h-320c-8.66699 0 -16.167 -3.16699 -22.5 -9.5s-9.5 -13.833 -9.5 -22.5v-384c0 -8.66699 3.16699 -16.167 9.5 -22.5s13.833 -9.5 22.5 -9.5zM448 384v-384h-320v32h256c8.66699 0 16.167 3.16699 22.5 9.5s9.5 13.833 9.5 22.5v320h32zM336 416
c4.66699 0 8.5 -1.5 11.5 -4.5s4.5 -6.83301 4.5 -11.5s-1.5 -8.5 -4.5 -11.5s-6.83301 -4.5 -11.5 -4.5h-129c-4.66699 0 -8.5 1.5 -11.5 4.5s-4.5 6.83301 -4.5 11.5s1.5 8.5 4.5 11.5s6.83301 4.5 11.5 4.5h129zM111 320h225c4.66699 0 8.5 -1.5 11.5 -4.5
s4.5 -6.83301 4.5 -11.5s-1.5 -8.5 -4.5 -11.5s-6.83301 -4.5 -11.5 -4.5h-225c-4.66699 0 -8.5 1.5 -11.5 4.5s-4.5 6.83301 -4.5 11.5s1.5 8.5 4.5 11.5s6.83301 4.5 11.5 4.5zM111 224h225c4.66699 0 8.5 -1.5 11.5 -4.5s4.5 -6.83301 4.5 -11.5s-1.5 -8.5 -4.5 -11.5
s-6.83301 -4.5 -11.5 -4.5h-225c-4.66699 0 -8.5 1.5 -11.5 4.5s-4.5 6.83301 -4.5 11.5s1.5 8.5 4.5 11.5s6.83301 4.5 11.5 4.5zM111 128h225c4.66699 0 8.5 -1.5 11.5 -4.5s4.5 -6.83301 4.5 -11.5s-1.5 -8.5 -4.5 -11.5s-6.83301 -4.5 -11.5 -4.5h-225
c-4.66699 0 -8.5 1.5 -11.5 4.5s-4.5 6.83301 -4.5 11.5s1.5 8.5 4.5 11.5s6.83301 4.5 11.5 4.5z" />
    <glyph glyph-name="uniE05A" unicode="&#xe05a;" 
d="M480 480h-448c-8.66699 0 -16.167 -3.16699 -22.5 -9.5s-9.5 -13.833 -9.5 -22.5v-448c0 -8.66699 3.16699 -16.167 9.5 -22.5s13.833 -9.5 22.5 -9.5h448c8.66699 0 16.167 3.16699 22.5 9.5s9.5 13.833 9.5 22.5v448c0 8.66699 -3.16699 16.167 -9.5 22.5
s-13.833 9.5 -22.5 9.5zM89 333c-8 8 -12 17.667 -12 29s4 21 12 29s17.667 12 29 12s21 -4 29 -12l42 -43l-57 -57zM330 93l-165 164l58 58l164 -165l29 -86z" />
    <glyph glyph-name="uniE05B" unicode="&#xe05b;" 
d="M480 384h-159.999c-8.66699 0 -16.167 -3.16699 -22.5 -9.5s-9.5 -13.833 -9.5 -22.5c-2.66699 -19.333 -13.334 -30 -32.001 -32h-224c-8.66699 0 -16.167 -3 -22.5 -9s-9.5 -13.333 -9.5 -22v-289c0 -8.66699 3.16699 -16.167 9.5 -22.5s13.833 -9.5 22.5 -9.5h448
c8.66699 0 16.167 3.16699 22.5 9.5s9.5 13.833 9.5 22.5v256v33v63c0 8.66699 -3.16699 16.167 -9.5 22.5s-13.833 9.5 -22.5 9.5z" />
    <glyph glyph-name="uniE05C" unicode="&#xe05c;" 
d="M480 416h-159.999c-8.66699 0 -16.167 -3.16699 -22.5 -9.5s-9.5 -13.833 -9.5 -22.5c-2.66699 -19.333 -13.334 -30 -32.001 -32h-224c-8.66699 0 -16.167 -3 -22.5 -9s-9.5 -13.333 -9.5 -22v-33h512v33v63c0 8.66699 -3.16699 16.167 -9.5 22.5s-13.833 9.5 -22.5 9.5
zM0.000976562 0c0 -8.66699 3.16699 -16.167 9.5 -22.5s13.833 -9.5 22.5 -9.5h448c8.66699 0 16.167 3.16699 22.5 9.5s9.5 13.833 9.5 22.5v256h-512v-256z" />
    <glyph glyph-name="uniE05D" unicode="&#xe05d;" 
d="M480 384h-127.999c-8.66699 0 -16.167 -3.16699 -22.5 -9.5s-9.5 -13.833 -9.5 -22.5c-2.66699 -19.333 -13.334 -30 -32.001 -32h-224c-8.66699 0 -16.167 -3.16699 -22.5 -9.5s-9.5 -13.833 -9.5 -22.5v-288c0 -8.66699 3.16699 -16.167 9.5 -22.5
s13.833 -9.5 22.5 -9.5h416c8.66699 0 16.167 3.16699 22.5 9.5s9.5 13.833 9.5 22.5v352c0 8.66699 -3.16699 16.167 -9.5 22.5s-13.833 9.5 -22.5 9.5zM368.001 128h-80v-80c0 -4.66699 -1.5 -8.5 -4.5 -11.5s-6.83301 -4.5 -11.5 -4.5s-8.5 1.5 -11.5 4.5
s-4.5 6.83301 -4.5 11.5v80h-80c-4.66699 0 -8.5 1.5 -11.5 4.5s-4.5 6.83301 -4.5 11.5s1.5 8.5 4.5 11.5s6.83301 4.5 11.5 4.5h80v80c0 4.66699 1.5 8.5 4.5 11.5s6.83301 4.5 11.5 4.5s8.5 -1.5 11.5 -4.5s4.5 -6.83301 4.5 -11.5v-80h80c4.66699 0 8.5 -1.5 11.5 -4.5
s4.5 -6.83301 4.5 -11.5s-1.5 -8.5 -4.5 -11.5s-6.83301 -4.5 -11.5 -4.5z" />
    <glyph glyph-name="uniE05E" unicode="&#xe05e;" 
d="M480 416h-159.999c-8.66699 0 -16.167 -3.16699 -22.5 -9.5s-9.5 -13.833 -9.5 -22.5c-2.66699 -19.333 -13.334 -30 -32.001 -32h-224c-8.66699 0 -16.167 -3 -22.5 -9s-9.5 -13.333 -9.5 -22v-289c0 -8.66699 3.16699 -16.167 9.5 -22.5s13.833 -9.5 22.5 -9.5h192v160
h-68l100 128l100 -128h-68v-160h192c8.66699 0 16.167 3.16699 22.5 9.5s9.5 13.833 9.5 22.5v256v33v63c0 8.66699 -3.16699 16.167 -9.5 22.5s-13.833 9.5 -22.5 9.5z" />
    <glyph glyph-name="uniE05F" unicode="&#xe05f;" 
d="M480 416h-159.999c-8.66699 0 -16.167 -3.16699 -22.5 -9.5s-9.5 -13.833 -9.5 -22.5c-2.66699 -19.333 -13.334 -30 -32.001 -32h-224c-8.66699 0 -16.167 -3 -22.5 -9s-9.5 -13.333 -9.5 -22v-289c0 -8.66699 3.16699 -16.167 9.5 -22.5s13.833 -9.5 22.5 -9.5h448
c8.66699 0 16.167 3.16699 22.5 9.5s9.5 13.833 9.5 22.5v256v33v63c0 8.66699 -3.16699 16.167 -9.5 22.5s-13.833 9.5 -22.5 9.5zM256.001 0l-100 128h68v128c0 8.66699 3.16699 16.167 9.5 22.5s13.833 9.5 22.5 9.5s16.167 -3.16699 22.5 -9.5s9.5 -13.833 9.5 -22.5
v-128h68z" />
    <glyph glyph-name="uniE060" unicode="&#xe060;" 
d="M256 480c-70.667 0 -131 -25 -181 -75s-75 -110.333 -75 -181s25 -131 75 -181s110.333 -75 181 -75s131 25 181 75s75 110.333 75 181s-25 131 -75 181s-110.333 75 -181 75zM224 256c0 8.66699 3.16699 16.167 9.5 22.5s13.833 9.5 22.5 9.5s16.167 -3.16699 22.5 -9.5
s9.5 -13.833 9.5 -22.5v-160c0 -8.66699 -3.16699 -16.167 -9.5 -22.5s-13.833 -9.5 -22.5 -9.5s-16.167 3.16699 -22.5 9.5s-9.5 13.833 -9.5 22.5v160zM256 319c-8.66699 0 -16.167 3.16699 -22.5 9.5s-9.5 14 -9.5 23s3.16699 16.5 9.5 22.5s13.833 9 22.5 9
s16.167 -3 22.5 -9s9.5 -13.5 9.5 -22.5s-3.16699 -16.667 -9.5 -23s-13.833 -9.5 -22.5 -9.5z" />
    <glyph glyph-name="uniE061" unicode="&#xe061;" 
d="M256 -32c70.667 0 131 25 181 75s75 110.333 75 181s-25 131 -75 181s-110.333 75 -181 75s-131 -25 -181 -75s-75 -110.333 -75 -181s25 -131 75 -181s110.333 -75 181 -75zM288 192c0 -8.66699 -3.16699 -16.167 -9.5 -22.5s-13.833 -9.5 -22.5 -9.5
s-16.167 3.16699 -22.5 9.5s-9.5 13.833 -9.5 22.5v160c0 8.66699 3.16699 16.167 9.5 22.5s13.833 9.5 22.5 9.5s16.167 -3.16699 22.5 -9.5s9.5 -13.833 9.5 -22.5v-160zM256 129c8.66699 0 16.167 -3.16699 22.5 -9.5s9.5 -14 9.5 -23s-3.16699 -16.5 -9.5 -22.5
s-13.833 -9 -22.5 -9s-16.167 3 -22.5 9s-9.5 13.5 -9.5 22.5s3.16699 16.667 9.5 23s13.833 9.5 22.5 9.5z" />
    <glyph glyph-name="uniE062" unicode="&#xe062;" 
d="M371 471c-6 6 -13.333 9 -22 9h-186c-8.66699 0 -16 -3 -22 -9l-132 -132c-6 -6 -9 -13.333 -9 -22v-186c0 -8.66699 3 -16 9 -22l132 -132c6 -6 13.333 -9 22 -9h186c8.66699 0 16 3 22 9l132 132c6 6 9 13.333 9 22v186c0 8.66699 -3 16 -9 22zM256 160
c-8.66699 0 -16.167 3.16699 -22.5 9.5s-9.5 13.833 -9.5 22.5v192c0 8.66699 3.16699 16.167 9.5 22.5s13.833 9.5 22.5 9.5s16.167 -3.16699 22.5 -9.5s9.5 -13.833 9.5 -22.5v-192c0 -8.66699 -3.16699 -16.167 -9.5 -22.5s-13.833 -9.5 -22.5 -9.5zM288 64
c0 -8.66699 -3.16699 -16.167 -9.5 -22.5s-13.833 -9.5 -22.5 -9.5s-16.167 3.16699 -22.5 9.5s-9.5 13.833 -9.5 22.5s3.16699 16.167 9.5 22.5s13.833 9.5 22.5 9.5s16.167 -3.16699 22.5 -9.5s9.5 -13.833 9.5 -22.5z" />
    <glyph glyph-name="uniE063" unicode="&#xe063;" 
d="M41 -32h445c12 0 21.167 5.16699 27.5 15.5s6.5 20.833 0.5 31.5l-222 416c-6 11.333 -15.333 17 -28 17s-22 -5.66699 -28 -17l-223 -416c-6 -10.667 -5.83301 -21.167 0.5 -31.5s15.5 -15.5 27.5 -15.5zM264 96c8.66699 0 16.167 -3.16699 22.5 -9.5
s9.5 -13.833 9.5 -22.5s-3.16699 -16.167 -9.5 -22.5s-13.833 -9.5 -22.5 -9.5s-16.167 3.16699 -22.5 9.5s-9.5 13.833 -9.5 22.5s3.16699 16.167 9.5 22.5s13.833 9.5 22.5 9.5zM232 159v128c0 9.33301 3.16699 17 9.5 23s13.833 9 22.5 9s16.167 -3 22.5 -9
s9.5 -13.667 9.5 -23v-128c0 -8.66699 -3.16699 -16.167 -9.5 -22.5s-13.833 -9.5 -22.5 -9.5s-16.167 3.16699 -22.5 9.5s-9.5 13.833 -9.5 22.5z" />
    <glyph glyph-name="uniE064" unicode="&#xe064;" 
d="M256 -32c70.667 0 131 25 181 75s75 110.333 75 181s-25 131 -75 181s-110.333 75 -181 75s-131 -25 -181 -75s-75 -110.333 -75 -181s25 -131 75 -181s110.333 -75 181 -75zM256 416c35.333 0 65.5 -10.167 90.5 -30.5s37.5 -49.5 37.5 -87.5
c0 -48 -23.333 -84.667 -70 -110c-6.66699 -3.33301 -12.667 -8 -18 -14s-8 -10.667 -8 -14c0 -8.66699 -3.16699 -16.167 -9.5 -22.5s-13.833 -9.5 -22.5 -9.5s-16.167 3.16699 -22.5 9.5s-9.5 13.833 -9.5 22.5c0 18 6.33301 34.5 19 49.5s26 26.5 40 34.5
c24.667 13.333 37 31.333 37 54c0 36 -21.333 54 -64 54c-17.333 0 -32.333 -5.66699 -45 -17s-19 -27.333 -19 -48c0 -8.66699 -3.16699 -16.167 -9.5 -22.5s-13.833 -9.5 -22.5 -9.5s-16.167 3.16699 -22.5 9.5s-9.5 13.833 -9.5 22.5c0 40 13 71.5 39 94.5
s55.667 34.5 89 34.5zM256 31c-9.33301 0 -17.166 3.16699 -23.499 9.5s-9.5 14 -9.5 23s3.16699 16.833 9.5 23.5s14.166 10 23.499 10s17.166 -3.33301 23.499 -10s9.5 -14.5 9.5 -23.5s-3.16699 -16.667 -9.5 -23s-14.166 -9.5 -23.499 -9.5z" />
    <glyph glyph-name="uniE065" unicode="&#xe065;" 
d="M81 88c-12 -31.333 -29.333 -60.667 -52 -88c70.667 0 126.667 12.667 168 38c20 -4 39.667 -6 59 -6c70.667 0 131 20.333 181 61s75 89.667 75 147s-25 106.333 -75 147s-110.333 61 -181 61s-131 -20.333 -181 -61s-75 -89.667 -75 -147c0 -60 27 -110.667 81 -152z
" />
    <glyph glyph-name="uniE066" unicode="&#xe066;" 
d="M447 291c2.66699 -13.333 3.99902 -26.335 3.99902 -39.002c0 -51.333 -19.333 -96.5 -58 -135.5s-87 -63.167 -145 -72.5c26 -10 53 -15 81 -15c26.667 0 52.334 4.66699 77.001 14c24.667 -8.66699 54 -13 88 -13c-12 14.667 -22 30.334 -30 47.001
c32 28.667 48 62.334 48 101.001c0 46 -21.667 83.667 -65 113zM402.999 251.998c0 45.333 -19.666 84 -58.999 116s-86.833 48 -142.5 48s-103.167 -16 -142.5 -48s-59 -70.667 -59 -116c-0 -46.667 21.333 -86.334 64 -119.001c-10 -25.333 -23.667 -48.666 -41 -69.999
c55.333 0 99.333 10 132 30c16 -2.66699 31.667 -4 47 -4c55.333 0 102.666 15.833 141.999 47.5s59 70.167 59 115.5z" />
    <glyph glyph-name="uniE067" unicode="&#xe067;" 
d="M32 92l73 0.00195312c2 -2 14.667 -12.833 38 -32.5l68.5 -57.5l33.5 -28c7.33301 -4.66699 14 -6.66699 20 -6c12 1.33301 19.667 8.66602 23 21.999v234v234c-3.33301 13.333 -11 20.666 -23 21.999c-6 0.666992 -12.667 -1.33301 -20 -6
c-89.333 -77.333 -136 -118 -140 -122h-73c-8.66699 0 -16.167 -3.16699 -22.5 -9.5s-9.5 -13.833 -9.5 -22.5v-4v-188v-4c0 -8.66699 3.16699 -16.167 9.5 -22.5s13.833 -9.5 22.5 -9.5zM506.5 307.002c-3.66699 4 -8.33398 6 -14.001 6s-10.167 -2 -13.5 -6l-56 -55
l-55 55c-4 4 -8.66699 6 -14 6s-9.83301 -2 -13.5 -6s-5.5 -8.66699 -5.5 -14s2 -10 6 -14l55 -55l-55 -55c-4 -4 -6 -8.66699 -6 -14s1.83301 -10 5.5 -14s8.16699 -6 13.5 -6s10 2 14 6l55 55l56 -55c3.33301 -4 7.83301 -6 13.5 -6s10.334 2 14.001 6s5.5 8.66699 5.5 14
s-2 10 -6 14l-55 55l55 55c4 4 6 8.66699 6 14s-1.83301 10 -5.5 14z" />
    <glyph glyph-name="uniE068" unicode="&#xe068;" 
d="M329 480c-6 0.666992 -12.667 -1.33105 -20 -5.99805c-89.333 -77.333 -136 -118 -140 -122h-73c-8.66699 0 -16.167 -3.16699 -22.5 -9.5s-9.5 -13.833 -9.5 -22.5v-4v-188v-4c0 -8.66699 3.16699 -16.167 9.5 -22.5s13.833 -9.5 22.5 -9.5h73l140 -118
c7.33301 -4.66699 14 -6.66699 20 -6c12 1.33301 19.667 8.66602 23 21.999v234v234c-3.33301 13.333 -11 20.666 -23 21.999zM401 168.002c-4 -2 -6.66797 -5 -8.00098 -9s-1 -8 1 -12c3.33301 -6 8 -9 14 -9c2.66699 0 5.33398 0.333008 8.00098 1
c16 8.66699 28.667 20.5 38 35.5s14 31.5 14 49.5s-4.66699 34.5 -14 49.5s-22 26.833 -38 35.5c-4 2 -8.16699 2.16699 -12.5 0.5s-7.5 -4.5 -9.5 -8.5s-2.33301 -8 -1 -12s4 -7 8 -9c23.333 -12 35 -30.667 35 -56s-11.667 -44 -35 -56z" />
    <glyph glyph-name="uniE069" unicode="&#xe069;" 
d="M32 92l73 0.00195312c2 -2 14.667 -12.833 38 -32.5l68.5 -57.5l33.5 -28c7.33301 -4.66699 14 -6.66699 20 -6c12 1.33301 19.667 8.66602 23 21.999v234v234c-3.33301 13.333 -11 20.666 -23 21.999c-6 0.666992 -12.667 -1.33301 -20 -6
c-89.333 -77.333 -136 -118 -140 -122h-73c-8.66699 0 -16.167 -3.16699 -22.5 -9.5s-9.5 -13.833 -9.5 -22.5v-4v-188v-4c0 -8.66699 3.16699 -16.167 9.5 -22.5s13.833 -9.5 22.5 -9.5zM337 168.002c-4 -2 -6.66797 -5 -8.00098 -9s-1 -8 1 -12c3.33301 -6 8 -9 14 -9
c2.66699 0 5.33398 0.333008 8.00098 1c16 8.66699 28.667 20.5 38 35.5s14 31.5 14 49.5s-4.66699 34.5 -14 49.5s-22 26.833 -38 35.5c-4 2 -8.16699 2.16699 -12.5 0.5s-7.5 -4.5 -9.5 -8.5s-2.33301 -8 -1 -12s4 -7 8 -9c23.333 -12 35 -30.667 35 -56
s-11.667 -44 -35 -56zM314.999 40.002c2 -8.66699 7.33203 -12.9961 15.999 -12.9961c0.666992 0 1.66699 0.333008 3 1c46.667 8.66699 85.334 31.5 116.001 68.5s46 79.5 46 127.5s-15.333 90.5 -46 127.5s-69.334 59.833 -116.001 68.5
c-4 1.33301 -7.83301 0.666016 -11.5 -2.00098s-6 -6.16699 -7 -10.5s-0.333008 -8.33301 2 -12s5.83301 -5.83398 10.5 -6.50098c39.333 -8 71.833 -27.5 97.5 -58.5s38.5 -66.5 38.5 -106.5s-12.833 -75.5 -38.5 -106.5s-58.167 -50.5 -97.5 -58.5
c-4.66699 -0.666992 -8.16699 -2.83398 -10.5 -6.50098s-3.16602 -7.83398 -2.49902 -12.501z" />
    <glyph glyph-name="uniE06A" unicode="&#xe06a;" 
d="M256 480c-70.667 0 -131 -25 -181 -75s-75 -110.333 -75 -181s25 -131 75 -181s110.333 -75 181 -75s131 25 181 75s75 110.333 75 181s-25 131 -75 181s-110.333 75 -181 75zM384 229c-2.66699 -48 -27.999 -91.333 -75.999 -130c-2.66699 -2.66699 -5.66699 -4 -9 -4
c-5.33301 0 -9.33301 2.33301 -12 7c-6.66699 8 -6 15.333 2 22c39.333 32 60.666 66.667 63.999 104c-7.33301 -4.66699 -15 -7 -23 -7c-12.667 0 -23.667 4.83301 -33 14.5s-14 21.167 -14 34.5s4.66699 24.833 14 34.5s20.333 14.5 33 14.5c5.33301 0 11 -1.33301 17 -4
v1c1.33301 -0.666992 3 -1.66699 5 -3h1c2.66699 -1.33301 5 -3 7 -5c0 -0.666992 1 -2 3 -4c16.667 -16.667 23.667 -41.667 21 -75zM175.001 221c-12.667 0 -23.667 4.83301 -33 14.5s-14 21.167 -14 34.5s4.66699 24.833 14 34.5s20.333 14.5 33 14.5
c5.33301 0 11 -1.33301 17 -4l-1 1c2 -0.666992 4 -1.66699 6 -3h1c2 -1.33301 4.33301 -3 7 -5c0 -0.666992 1 -2 3 -4c16.667 -16.667 23.667 -41.667 21 -75c-2.66699 -48 -28 -91.333 -76 -130c-2.66699 -2.66699 -5.66699 -4 -9 -4
c-5.33301 0 -9.66602 2.33301 -12.999 7c-6 8 -5 15.333 3 22c39.333 32 60.666 66.667 63.999 104c-7.33301 -4.66699 -15 -7 -23 -7z" />
    <glyph glyph-name="uniE06B" unicode="&#xe06b;" 
d="M104 376c-46.667 -46.667 -70 -103 -70 -169s23.333 -122.333 70 -169s103 -70 169 -70s122.333 23.333 169 70s70 103 70 169s-23.333 122.333 -70 169s-103 70 -169 70s-122.333 -23.333 -169 -70zM400 192h-127h-1c-4.66699 0 -8.5 1.5 -11.5 4.5
s-4.5 6.83301 -4.5 11.5v160c0 4.66699 1.5 8.5 4.5 11.5s6.83301 4.5 11.5 4.5s8.5 -1.5 11.5 -4.5s4.5 -6.83301 4.5 -11.5v-144h112c4.66699 0 8.5 -1.5 11.5 -4.5s4.5 -6.83301 4.5 -11.5s-1.5 -8.5 -4.5 -11.5s-6.83301 -4.5 -11.5 -4.5z" />
    <glyph glyph-name="uniE06C" unicode="&#xe06c;" 
d="M256 480c-44.667 0 -82.832 -15.833 -114.499 -47.5s-47.5 -69.834 -47.5 -114.501v-30h-30c-8.66699 0 -16.167 -3.16699 -22.5 -9.5s-9.5 -13.833 -9.5 -22.5v-256c0 -8.66699 3.16699 -16.167 9.5 -22.5s13.833 -9.5 22.5 -9.5h384c8.66699 0 16.167 3.16699 22.5 9.5
s9.5 13.833 9.5 22.5v256c0 8.66699 -3.16699 16.167 -9.5 22.5s-13.833 9.5 -22.5 9.5h-30v30c0 44.667 -15.833 82.834 -47.5 114.501s-69.834 47.5 -114.501 47.5zM158.002 318c0 26.667 9.5 49.667 28.5 69s42.167 29 69.5 29s50.5 -9.66699 69.5 -29
s28.5 -42.333 28.5 -69v-30h-196v30zM256.002 64c-18 0 -33.167 6.16699 -45.5 18.5s-18.5 27.5 -18.5 45.5s6.16699 33.167 18.5 45.5s27.5 18.5 45.5 18.5s33.167 -6.16699 45.5 -18.5s18.5 -27.5 18.5 -45.5s-6.16699 -33.167 -18.5 -45.5s-27.5 -18.5 -45.5 -18.5z" />
    <glyph glyph-name="uniE06D" unicode="&#xe06d;" 
d="M416 288l-289.999 0.00195312v30c0 26.667 9.5 49.667 28.5 69s42.167 29 69.5 29c17.333 0 33.5 -4.33301 48.5 -13s26.833 -20.334 35.5 -35.001c0.666992 0 1 0.333008 1 1c6.66699 -10 15.334 -15 26.001 -15c8.66699 0 16.167 3.16699 22.5 9.5s9.5 13.833 9.5 22.5
c0 4.66699 -1 9 -3 13v0c-1.33301 3.33301 -3.33301 6.33301 -6 9c-14.667 22 -33.834 39.5 -57.501 52.5s-49.167 19.5 -76.5 19.5c-44.667 0 -82.834 -15.833 -114.501 -47.5s-47.5 -69.834 -47.5 -114.501v-30h-30c-8.66699 0 -16.167 -3.16699 -22.5 -9.5
s-9.5 -13.833 -9.5 -22.5v-256c0 -8.66699 3.16699 -16.167 9.5 -22.5s13.833 -9.5 22.5 -9.5h384c8.66699 0 16.167 3.16699 22.5 9.5s9.5 13.833 9.5 22.5v256c0 8.66699 -3.16699 16.167 -9.5 22.5s-13.833 9.5 -22.5 9.5zM224.001 64.002
c-18 0 -33.167 6.16699 -45.5 18.5s-18.5 27.5 -18.5 45.5s6.16699 33.167 18.5 45.5s27.5 18.5 45.5 18.5s33.167 -6.16699 45.5 -18.5s18.5 -27.5 18.5 -45.5s-6.16699 -33.167 -18.5 -45.5s-27.5 -18.5 -45.5 -18.5z" />
    <glyph glyph-name="uniE06E" unicode="&#xe06e;" 
d="M496 480h-64.001c-4 0 -7.66699 -1.33301 -11 -4l-220 -194c-18 4 -31.667 6 -41 6c-44 0 -81.667 -15.667 -113 -47s-47 -69 -47 -113s15.667 -81.667 47 -113s69 -47 113 -47s81.667 15.667 113 47s47 69 47 113c0 20.667 -3.66699 40 -11 58l55 19
c7.33301 2.66699 11 7.66699 11 15l-2 61l61 4c4.66699 0.666992 8.33398 2.5 11.001 5.5s4 6.5 4 10.5l3 73l47 10c8.66699 2 13 7.33301 13 16v64c0 4.66699 -1.5 8.5 -4.5 11.5s-6.83301 4.5 -11.5 4.5zM111.999 128c20 0 34.332 -9.33203 42.999 -27.999
c3.33301 -6 5 -12.667 5 -20c0 -13.333 -4.66699 -24.666 -14 -33.999s-20.666 -14 -33.999 -14s-24.666 4.66699 -33.999 14s-14 20.666 -14 33.999s4.66699 24.666 14 33.999s20.666 14 33.999 14z" />
    <glyph glyph-name="uniE06F" unicode="&#xe06f;" 
d="M416 224l-2 -0.00292969h-1c2 10.667 3 21.334 3 32.001c0 44 -15.667 81.667 -47 113s-69 47 -113 47s-81.667 -15.667 -113 -47s-47 -69 -47 -113v-0.5v-1.5c-27.333 -3.33301 -50.166 -15.5 -68.499 -36.5s-27.5 -45.5 -27.5 -73.5s9.16699 -52.333 27.5 -73
s41.166 -33 68.499 -37v-2h320c26.667 0 49.334 9.33301 68.001 28s28 41.334 28 68.001s-9.33301 49.334 -28 68.001s-41.334 28 -68.001 28z" />
    <glyph glyph-name="uniE070" unicode="&#xe070;" 
d="M416 224l-2.00098 -0.00292969h-1c2 10.667 3 21.334 3 32.001c0 44 -15.667 81.667 -47 113s-69 47 -113 47s-81.667 -15.667 -113 -47s-47 -69 -47 -113v-0.5v-1.5c-27.333 -3.33301 -50.166 -15.5 -68.499 -36.5s-27.5 -45.5 -27.5 -73.5c0 -30.667 11 -57 33 -79
s48.333 -33 79 -33h80c8.66699 0 16.167 3.16699 22.5 9.5s9.5 13.833 9.5 22.5v96h-68l100 128l100 -128h-68v-96c0 -8.66699 3.16699 -16.167 9.5 -22.5s13.833 -9.5 22.5 -9.5h96c26.667 0 49.334 9.33301 68.001 28s28 41.334 28 68.001s-9.33301 49.334 -28 68.001
s-41.334 28 -68.001 28z" />
    <glyph glyph-name="uniE071" unicode="&#xe071;" 
d="M416 224l-2 -0.00292969h-1c2 10.667 3 21.334 3 32.001c0 44 -15.667 81.667 -47 113s-69 47 -113 47s-81.667 -15.667 -113 -47s-47 -69 -47 -113v-0.5v-1.5c-27.333 -3.33301 -50.166 -15.5 -68.499 -36.5s-27.5 -45.5 -27.5 -73.5s9.16699 -52.333 27.5 -73
s41.166 -33 68.499 -37v-2h160l-100 128h68v128c0 8.66699 3.16699 16.167 9.5 22.5s13.833 9.5 22.5 9.5s16.167 -3.16699 22.5 -9.5s9.5 -13.833 9.5 -22.5v-128h68l-100 -128h160c26.667 0 49.334 9.33301 68.001 28s28 41.334 28 68.001s-9.33301 49.334 -28 68.001
s-41.334 28 -68.001 28z" />
    <glyph glyph-name="uniE072" unicode="&#xe072;" 
d="M434 222c2 5.33301 3.99414 11.332 5.99414 17.999v2c0 0.666992 0.333008 1 1 1c0.666992 5.33301 1.66699 11.333 3 18v2.5c0 1 0.333008 1.83301 1 2.5c0.666992 7.33301 1 14.666 1 21.999c0 52.667 -18.833 97.834 -56.5 135.501s-83 56.5 -136 56.5
s-98.167 -18.833 -135.5 -56.5s-56 -82.834 -56 -135.501c0 -7.33301 0.333008 -14.666 1 -21.999c0 -0.666992 0.166992 -1.5 0.5 -2.5s0.5 -1.83301 0.5 -2.5c0.666992 -6.66699 1.66699 -12.667 3 -18l0.5 -1.5l0.5 -1.5c2 -6.66699 4 -12.667 6 -18v-1
c0 -0.666992 0.333008 -1 1 -1c2.66699 -7.33301 5.33398 -13.666 8.00098 -18.999c0 -0.666992 0.333008 -1 1 -1c3.33301 -6.66699 7 -13 11 -19s8.33301 -12 13 -18l0.5 -0.5l0.5 -0.5l14 -14l3 -3l1.5 -1.5l2.5 -2.5l3 -2c6 -4.66699 9.16699 -7.16699 9.5 -7.5
l1.5 -1.5c0.666992 -0.666992 1.33398 -1 2.00098 -1c5.33301 -4.66699 9.5 -10 12.5 -16s5.83301 -10.333 8.5 -13s7.66699 -4 15 -4h144c7.33301 0 12.333 1.33301 15 4s5.33398 7 8.00098 13s7 11.333 13 16l1.5 1c1 0.666992 1.66699 1.16699 2 1.5s3.5 2.83301 9.5 7.5
c0 0.666992 0.333008 1.16699 1 1.5s1.33398 0.5 2.00098 0.5c0.666992 0.666992 1.33398 1.5 2.00098 2.5s1.16699 1.66699 1.5 2s1 0.833008 2 1.5l1.5 1c5.33301 4.66699 10 9.33398 14 14.001l0.5 0.5l0.5 0.5c4.66699 6 9 12 13 18s7.66699 12.333 11 19
c0.666992 0 1 0.333008 1 1c2.66699 5.33301 5.33398 11.666 8.00098 18.999l1 1v1zM366.994 285.999c-4.66699 0 -8.5 1.66797 -11.5 5.00098s-4.5 7 -4.5 11c0 23.333 -8.5 42.833 -25.5 58.5s-35.167 23.5 -54.5 23.5c-4.66699 0 -8.5 1.5 -11.5 4.5
s-4.5 6.83301 -4.5 11.5s1.5 8.5 4.5 11.5s6.83301 4.5 11.5 4.5c29.333 0 55.333 -10.333 78 -31s34 -48.334 34 -83.001c0 -4 -1.5 -7.66699 -4.5 -11s-6.83301 -5 -11.5 -5zM251.994 0h-35h-35l57 -30c4.66699 -2 9.5 -3 14.5 -3s9.83301 1 14.5 3l59 30h-36h-35h-4z
M350.994 48c0 4.66699 -1.5 8.5 -4.5 11.5s-6.83301 4.5 -11.5 4.5h-160c-4.66699 0 -8.5 -1.5 -11.5 -4.5s-4.5 -6.83301 -4.5 -11.5s1.5 -8.5 4.5 -11.5s6.83301 -4.5 11.5 -4.5h160c4.66699 0 8.5 1.5 11.5 4.5s4.5 6.83301 4.5 11.5z" />
    <glyph glyph-name="uniE073" unicode="&#xe073;" 
d="M480 352h-191v-96h223v64c0 8.66699 -3.16699 16.167 -9.5 22.5s-13.833 9.5 -22.5 9.5zM32 352c-8.66699 0 -16.167 -3.16699 -22.5 -9.5s-9.5 -13.833 -9.5 -22.5v-64h224v96h-192zM32 224v-224c0 -8.66699 3.16699 -16.167 9.5 -22.5s13.833 -9.5 22.5 -9.5h160v256
h-192zM448 -32c8.66699 0 16.167 3.16699 22.5 9.5s9.5 13.833 9.5 22.5v224h-191v-256h159zM256 384h33.002h95c21.333 0 37.333 4.5 48 13.5s16 20.5 16 34.5s-5.33301 25.5 -16 34.5s-26.667 13.5 -48 13.5c-36.667 0 -68.667 -13.333 -96 -40c-10.667 6 -21.667 9 -33 9
c-10.667 0 -21.334 -3 -32.001 -9c-26.667 26.667 -58.334 40 -95.001 40c-21.333 0 -37.333 -4.5 -48 -13.5s-16 -20.5 -16 -34.5s5.33301 -25.5 16 -34.5s26.667 -13.5 48 -13.5h96h32zM416.002 432c0 -10.667 -10.667 -16 -32 -16h-73v1c20.667 20.667 45 31 73 31
c21.333 0 32 -5.33301 32 -16zM96.002 432c0 10.667 10.667 16 32 16c27.333 0 51.333 -10 72 -30l-0.5 -1l-0.5 -1h-71c-21.333 0 -32 5.33301 -32 16z" />
    <glyph glyph-name="uniE074" unicode="&#xe074;" 
d="M36 196l230.002 199l230 -199c2.66699 -2.66699 6 -4 10 -4c4.66699 0 8.66699 2 12 6c7.33301 8 6.66602 15.333 -2.00098 22l-240 208c-6.66699 6 -13.334 6 -20.001 0l-86 -74v30c0 8.66699 -3.16699 16.167 -9.5 22.5s-13.833 9.5 -22.5 9.5
s-16.167 -3.16699 -22.5 -9.5s-9.5 -13.833 -9.5 -22.5v-85l-90 -79c-8.66699 -6.66699 -9.5 -14.167 -2.5 -22.5s14.5 -8.83301 22.5 -1.5zM202.002 128h128v-160h96c8.66699 0 16.167 3.16699 22.5 9.5s9.5 13.833 9.5 22.5v157c0 10 -4 18.333 -12 25l-160 131
c-6 4.66699 -12.667 7 -20 7s-14 -2.33301 -20 -7l-160 -131c-8 -6.66699 -12 -15 -12 -25v-157c0 -8.66699 3.16699 -16.167 9.5 -22.5s13.833 -9.5 22.5 -9.5h96v160z" />
    <glyph glyph-name="uniE075" unicode="&#xe075;" 
d="M480 320h-63.9971c-1.33301 0 -3.16602 0.333008 -5.49902 1s-6.33301 3.66699 -12 9s-10.5 12.666 -14.5 21.999c-9.33301 21.333 -20 32 -32 32h-128c-12.667 0 -23.334 -10.667 -32.001 -32c-4 -9.33301 -8.66699 -16.666 -14 -21.999s-9.66602 -8.33301 -12.999 -9
l-5 -1h-32c0 8.66699 -3.16699 16.167 -9.5 22.5s-13.833 9.5 -22.5 9.5h-32c-8.66699 0 -16.167 -3.16699 -22.5 -9.5s-9.5 -13.833 -9.5 -22.5c-8.66699 0 -16.167 -3.16699 -22.5 -9.5s-9.5 -13.833 -9.5 -22.5v-64h178c11.333 19.333 26.666 34.833 45.999 46.5
s40.666 17.5 63.999 17.5s44.666 -5.83301 63.999 -17.5s34.666 -27.167 45.999 -46.5h114v64c0 8.66699 -3.16699 16.167 -9.5 22.5s-13.833 9.5 -22.5 9.5zM112.003 256h-64c-4.66699 0 -8.5 1.5 -11.5 4.5s-4.5 6.83301 -4.5 11.5s1.5 8.5 4.5 11.5s6.83301 4.5 11.5 4.5
h16h32h16c4.66699 0 8.5 -1.5 11.5 -4.5s4.5 -6.83301 4.5 -11.5s-1.5 -8.5 -4.5 -11.5s-6.83301 -4.5 -11.5 -4.5zM192.003 160c0 -26.667 9.33301 -49.334 28 -68.001s41.334 -28 68.001 -28s49.334 9.33301 68.001 28s28 41.334 28 68.001s-9.33301 49.334 -28 68.001
s-41.334 28 -68.001 28s-49.334 -9.33301 -68.001 -28s-28 -41.334 -28 -68.001zM416.003 160c0 -35.333 -12.5 -65.5 -37.5 -90.5s-55.167 -37.5 -90.5 -37.5s-65.5 12.5 -90.5 37.5s-37.5 55.167 -37.5 90.5c0 10 1.66699 20.667 5 32h-165v-160
c0 -8.66699 3.16699 -16.167 9.5 -22.5s13.833 -9.5 22.5 -9.5h448c8.66699 0 16.167 3.16699 22.5 9.5s9.5 13.833 9.5 22.5v160h-101c3.33301 -11.333 5 -22 5 -32z" />
    <glyph glyph-name="uniE076" unicode="&#xe076;" 
d="M480 352h-448c-8.66699 0 -16.167 -3.16699 -22.5 -9.5s-9.5 -13.833 -9.5 -22.5v-54l256 -102l256 102v54c0 8.66699 -3.16699 16.167 -9.5 22.5s-13.833 9.5 -22.5 9.5zM0 214v-214c0 -8.66699 3.16699 -16.167 9.5 -22.5s13.833 -9.5 22.5 -9.5h448
c8.66699 0 16.167 3.16699 22.5 9.5s9.5 13.833 9.5 22.5v214l-256 -102z" />
    <glyph glyph-name="uniE077" unicode="&#xe077;" 
d="M347 288l-61 171c-4.66699 14 -14.667 21 -30 21s-25.333 -7 -30 -21l-61 -171h182zM427 64l-46 128h-250l-46 -128h342zM32 32c-8.66699 0 -16.167 -3.16699 -22.5 -9.5s-9.5 -13.833 -9.5 -22.5s3.16699 -16.167 9.5 -22.5s13.833 -9.5 22.5 -9.5h64h320h64
c8.66699 0 16.167 3.16699 22.5 9.5s9.5 13.833 9.5 22.5s-3.16699 16.167 -9.5 22.5s-13.833 9.5 -22.5 9.5h-448z" />
    <glyph glyph-name="uniE078" unicode="&#xe078;" 
d="M64 384l-0.00195312 -384c0 -14 6.66699 -24 20 -30c4 -1.33301 8 -2 12 -2c8.66699 0 16.334 3 23.001 9l137 138l137 -138c6.66699 -6 14.334 -9 23.001 -9c4 0 8 0.666992 12 2c13.333 6 20 16 20 30v384h-384zM447.998 416v32c0 8.66699 -3.16699 16.167 -9.5 22.5
s-13.833 9.5 -22.5 9.5h-320c-8.66699 0 -16.167 -3.16699 -22.5 -9.5s-9.5 -13.833 -9.5 -22.5v-32h384z" />
    <glyph glyph-name="uniE079" unicode="&#xe079;" 
d="M96 -32h320.002c8.66699 0 16.167 3.16699 22.5 9.5s9.5 13.833 9.5 22.5v352c0 8.66699 -3.16699 16.167 -9.5 22.5s-13.833 9.5 -22.5 9.5h-64c-0.666992 26.667 -10.334 49.334 -29.001 68.001s-41 28 -67 28s-48.333 -9.33301 -67 -28
s-28.334 -41.334 -29.001 -68.001h-64c-8.66699 0 -16.167 -3.16699 -22.5 -9.5s-9.5 -13.833 -9.5 -22.5v-352c0 -8.66699 3.16699 -16.167 9.5 -22.5s13.833 -9.5 22.5 -9.5zM304.002 288h-96c-4.66699 0 -8.5 1.5 -11.5 4.5s-4.5 6.83301 -4.5 11.5s1.5 8.5 4.5 11.5
s6.83301 4.5 11.5 4.5h96c4.66699 0 8.5 -1.5 11.5 -4.5s4.5 -6.83301 4.5 -11.5s-1.5 -8.5 -4.5 -11.5s-6.83301 -4.5 -11.5 -4.5zM256.002 448c17.333 0 32.168 -6.16699 44.501 -18.5s18.833 -27.5 19.5 -45.5h-128c0.666992 18 7.16699 33.167 19.5 45.5
s27.166 18.5 44.499 18.5z" />
    <glyph glyph-name="uniE07A" unicode="&#xe07a;" 
d="M481 352l-383.999 0.000976562c-0.666992 0 -3 -0.333008 -7 -1l-12 53c-2 8 -7.33301 12 -16 12h-46c-4.66699 0 -8.5 -1.5 -11.5 -4.5s-4.5 -6.83301 -4.5 -11.5s1.5 -8.5 4.5 -11.5s6.83301 -4.5 11.5 -4.5h33l20 -85l28 -139
c0 -0.666992 0.166992 -1.33398 0.5 -2.00098l0.5 -1l-17 -74c-0.666992 -4.66699 0.5 -9 3.5 -13s7.16699 -6 12.5 -6h363c4.66699 0 8.5 1.5 11.5 4.5s4.5 6.83301 4.5 11.5s-1.5 8.5 -4.5 11.5s-6.83301 4.5 -11.5 4.5h-343l7 33c0.666992 0 1.5 -0.166992 2.5 -0.5
s1.83301 -0.5 2.5 -0.5h292c9.33301 0 16.666 1.5 21.999 4.5s10.333 9.5 15 19.5l51 159c4.66699 13.333 3.66699 23.5 -3 30.5s-15 10.5 -25 10.5zM97.001 0.000976562c0 -8.66699 3.16699 -16.167 9.5 -22.5s13.833 -9.5 22.5 -9.5s16.167 3.16699 22.5 9.5
s9.5 13.833 9.5 22.5s-3.16699 16.167 -9.5 22.5s-13.833 9.5 -22.5 9.5s-16.167 -3.16699 -22.5 -9.5s-9.5 -13.833 -9.5 -22.5zM385.001 0.000976562c0 -8.66699 3.16699 -16.167 9.5 -22.5s13.833 -9.5 22.5 -9.5s16.167 3.16699 22.5 9.5s9.5 13.833 9.5 22.5
s-3.16699 16.167 -9.5 22.5s-13.833 9.5 -22.5 9.5s-16.167 -3.16699 -22.5 -9.5s-9.5 -13.833 -9.5 -22.5z" />
    <glyph glyph-name="uniE07B" unicode="&#xe07b;" 
d="M465 448h-0.999023h-1h-201c-5.33301 -0.666992 -11 -3.66699 -17 -9l-236 -236c-6 -6 -9 -13.5 -9 -22.5s3 -16.5 9 -22.5l181 -181c6 -6 13.5 -9 22.5 -9s16.5 3 22.5 9l236 236c6 6 9 11.667 9 17v202c0 4.66699 -1.33301 8.5 -4 11.5s-6.33398 4.5 -11.001 4.5z
M432.001 384c-4.66699 0 -8.5 1.5 -11.5 4.5s-4.5 6.83301 -4.5 11.5s1.5 8.5 4.5 11.5s6.83301 4.5 11.5 4.5s8.5 -1.5 11.5 -4.5s4.5 -6.83301 4.5 -11.5s-1.5 -8.5 -4.5 -11.5s-6.83301 -4.5 -11.5 -4.5z" />
    <glyph glyph-name="uniE07C" unicode="&#xe07c;" 
d="M464 480h-0.999023h-1h-169c-5.33301 0 -11 -3 -17 -9l-204 -204c-6 -6 -9 -13.5 -9 -22.5s3 -16.5 9 -22.5l25 -26l-25 -25c-6 -6 -9 -13.5 -9 -22.5s3 -16.5 9 -22.5l149 -149c6 -6 13.5 -9 22.5 -9s16.5 3 22.5 9l203 204c6.66699 6 10 11.667 10 17v96v74v96
c0 4.66699 -1.33301 8.5 -4 11.5s-6.33398 4.5 -11.001 4.5zM431.001 448c4.66699 0 8.5 -1.5 11.5 -4.5s4.5 -6.66699 4.5 -11s-1.5 -8.16602 -4.5 -11.499s-6.83301 -5 -11.5 -5s-8.5 1.66699 -11.5 5s-4.5 7.16602 -4.5 11.499s1.5 8 4.5 11s6.83301 4.5 11.5 4.5z
M447.001 203l-204 -203l-148 148l25 26l101 -101c6 -6 13.5 -9 22.5 -9s16.5 3 22.5 9l181 181v-50v-1z" />
    <glyph glyph-name="uniE07D" unicode="&#xe07d;" 
d="M416 448h-64c0 8.66699 -3.16699 16.167 -9.5 22.5s-13.833 9.5 -22.5 9.5h-96c-8.66699 0 -16.167 -3.16699 -22.5 -9.5s-9.5 -13.833 -9.5 -22.5h-64c-8.66699 0 -16.167 -3.16699 -22.5 -9.5s-9.5 -13.833 -9.5 -22.5h352c0 8.66699 -3.16699 16.167 -9.5 22.5
s-13.833 9.5 -22.5 9.5zM96 0c0 -8.66699 3.16699 -16.167 9.5 -22.5s13.833 -9.5 22.5 -9.5h288c8.66699 0 16.167 3.16699 22.5 9.5s9.5 13.833 9.5 22.5v384h-352v-384zM352 304c0 4.66699 1.5 8.5 4.5 11.5s6.83301 4.5 11.5 4.5s8.5 -1.5 11.5 -4.5
s4.5 -6.83301 4.5 -11.5v-256c0 -4.66699 -1.5 -8.5 -4.5 -11.5s-6.83301 -4.5 -11.5 -4.5s-8.5 1.5 -11.5 4.5s-4.5 6.83301 -4.5 11.5v256zM256 304c0 4.66699 1.5 8.5 4.5 11.5s6.83301 4.5 11.5 4.5s8.5 -1.5 11.5 -4.5s4.5 -6.83301 4.5 -11.5v-256
c0 -4.66699 -1.5 -8.5 -4.5 -11.5s-6.83301 -4.5 -11.5 -4.5s-8.5 1.5 -11.5 4.5s-4.5 6.83301 -4.5 11.5v256zM160 304c0 4.66699 1.5 8.5 4.5 11.5s6.83301 4.5 11.5 4.5s8.5 -1.5 11.5 -4.5s4.5 -6.83301 4.5 -11.5v-256c0 -4.66699 -1.5 -8.5 -4.5 -11.5
s-6.83301 -4.5 -11.5 -4.5s-8.5 1.5 -11.5 4.5s-4.5 6.83301 -4.5 11.5v256z" />
    <glyph glyph-name="uniE07E" unicode="&#xe07e;" 
d="M424 139.5c4 6.33301 3.33398 12.499 -1.99902 18.499l-266 316c-4.66699 6 -10.5 7.66699 -17.5 5s-10.5 -7.66699 -10.5 -15v-418c0 -7.33301 3.66699 -12.333 11 -15c1.33301 -0.666992 3 -1 5 -1c5.33301 0 9.66602 2.33301 12.999 7l71 96l50 -142
c3.33301 -8.66699 9.33301 -15.167 18 -19.5s17.5 -4.83301 26.5 -1.5s15.667 9.33301 20 18s4.83301 17.334 1.5 26.001l-49 140l112 -22c7.33301 -1.33301 13 1.16699 17 7.5z" />
    <glyph glyph-name="uniE07F" unicode="&#xe07f;" 
d="M224 67v-67h-48c-4.66699 0 -8.5 -1.5 -11.5 -4.5s-4.5 -6.83301 -4.5 -11.5s1.5 -8.5 4.5 -11.5s6.83301 -4.5 11.5 -4.5h80h80c4.66699 0 8.5 1.5 11.5 4.5s4.5 6.83301 4.5 11.5s-1.5 8.5 -4.5 11.5s-6.83301 4.5 -11.5 4.5h-48v67
c36 7.33301 66.333 24.666 91 51.999s37 62.333 37 105v48c0 4.66699 -1.5 8.5 -4.5 11.5s-6.83301 4.5 -11.5 4.5s-8.5 -1.5 -11.5 -4.5s-4.5 -6.83301 -4.5 -11.5v-48c0 -40 -12.833 -71.333 -38.5 -94s-55.5 -34 -89.5 -34s-63.833 11 -89.5 33s-38.5 53.667 -38.5 95v48
c0 4.66699 -1.5 8.5 -4.5 11.5s-6.83301 4.5 -11.5 4.5s-8.5 -1.5 -11.5 -4.5s-4.5 -6.83301 -4.5 -11.5v-48c0 -43.333 12.167 -78.666 36.5 -105.999s54.833 -44.333 91.5 -51zM256 160c18 0 33.167 6.16699 45.5 18.5s18.5 27.5 18.5 45.5v192
c0 18 -6.16699 33.167 -18.5 45.5s-27.5 18.5 -45.5 18.5s-33.167 -6.16699 -45.5 -18.5s-18.5 -27.5 -18.5 -45.5v-192c0 -18 6.16699 -33.167 18.5 -45.5s27.5 -18.5 45.5 -18.5z" />
    <glyph glyph-name="uniE080" unicode="&#xe080;" 
d="M256 480c-70.667 0 -131 -25 -181 -75s-75 -110.333 -75 -181s25 -131 75 -181s110.333 -75 181 -75s131 25 181 75s75 110.333 75 181s-25 131 -75 181s-110.333 75 -181 75zM382 328l-37.999 -60l-24 -40v-1.5v-2.5c0 -18 -6.16699 -33.167 -18.5 -45.5
s-27.5 -18.5 -45.5 -18.5h-2.5h-1.5l-40 -24l-60 -38c-2 -1.33301 -4.66699 -2 -8 -2c-4.66699 0 -8.33398 1.66699 -11.001 5c-6 6 -7 12.333 -3 19l38 60l24 40v1.5v2.5c0 18 6.16699 33.167 18.5 45.5s27.5 18.5 45.5 18.5h2.5h1.5l40 24l60 38c6.66699 4 13 3 19 -3
s7 -12.333 3 -19zM224.001 224c0 -8.66699 3.16699 -16.167 9.5 -22.5s13.833 -9.5 22.5 -9.5s16.167 3.16699 22.5 9.5s9.5 13.833 9.5 22.5s-3.16699 16.167 -9.5 22.5s-13.833 9.5 -22.5 9.5s-16.167 -3.16699 -22.5 -9.5s-9.5 -13.833 -9.5 -22.5z" />
    <glyph glyph-name="uniE081" unicode="&#xe081;" 
d="M243 -23c2.66699 -2.66699 5.33105 -4.99902 7.99805 -6.99902c2 -0.666992 3.66699 -1 5 -1s3 0.333008 5 1c3.33301 2 6 4.33301 8 7c4 4 9.33301 10 16 18s18.834 23.833 36.501 47.5s33.5 47 47.5 70s27.5 49.833 40.5 80.5s20.833 59.334 23.5 86.001
c0.666992 8 1 15.333 1 22c0 49.333 -17.5 91.5 -52.5 126.5s-77.167 52.5 -126.5 52.5s-91.5 -17.5 -126.5 -52.5s-52.5 -77.167 -52.5 -126.5c0 -7.33301 0.333008 -15 1 -23c2.66699 -26 10.334 -54.167 23.001 -84.5s26.834 -57.833 42.501 -82.5
s31.167 -47.334 46.5 -68.001s28.166 -36.834 38.499 -48.501zM254.997 416.001c32 0 59.167 -11.333 81.5 -34s33.5 -49.834 33.5 -81.501s-11.167 -58.834 -33.5 -81.501s-49.5 -34 -81.5 -34s-59.167 11.333 -81.5 34s-33.5 49.834 -33.5 81.501
s11.167 58.834 33.5 81.501s49.5 34 81.5 34z" />
    <glyph glyph-name="uniE082" unicode="&#xe082;" 
d="M128 168c0 -12 12.333 -21.332 37 -27.999s55 -10.667 91 -12v-96c0 -10.667 1.66699 -24 5 -40s7 -24 11 -24s7.66699 8 11 24s5 29.333 5 40v96c36 1.33301 66.333 5.33301 91 12s37 16 37 28c0 26 -21.333 44.333 -64 55v166
c19.333 6.66699 34.833 14.834 46.5 24.501s17.5 18.5 17.5 26.5c0 16.667 -24 28.5 -72 35.5s-96 7 -144 0s-72 -18.833 -72 -35.5c0 -8.66699 5.83301 -17.834 17.5 -27.501s27.167 -17.834 46.5 -24.501v-165c-42.667 -10.667 -64 -29 -64 -55z" />
    <glyph glyph-name="uniE083" unicode="&#xe083;" 
d="M161 387l-129 61v-384l129 -61v384zM193 4l128 57v384l-128 -57v-384zM353 60l127 -60v384l-127 60v-384z" />
    <glyph glyph-name="uniE084" unicode="&#xe084;" 
d="M448 416c-9.33301 21.333 -23.667 32 -43 32h-301c-18 0 -31.333 -10.667 -40 -32l-64 -256v-1v-16v-16v-17v-95c0 -4 1.5 -7.66699 4.5 -11s6.83301 -5 11.5 -5h480c4.66699 0 8.5 1.66699 11.5 5s4.5 7 4.5 11v96v1v15v16v15v1zM93.999 405
c3.33301 7.33301 6.66699 11 10 11h301c4.66699 0 9 -3.66699 13 -11l56 -229c0 -4.66699 -1.5 -8.5 -4.5 -11.5s-6.83301 -4.5 -11.5 -4.5v-1h-42h-80c-4.66699 0 -8.5 -1.5 -11.5 -4.5s-4.5 -6.83301 -4.5 -11.5v-31c0 -4.66699 -1.5 -8.5 -4.5 -11.5
s-6.83301 -4.5 -11.5 -4.5h-0.5c-0.333008 0 -0.5 -0.333008 -0.5 -1h-94l-1 1c-4.66699 0 -8.5 1.5 -11.5 4.5s-4.5 6.83301 -4.5 11.5v31c0 4.66699 -1.5 8.5 -4.5 11.5s-6.83301 4.5 -11.5 4.5h-112h-10v1c-4.66699 0 -8.5 1.5 -11.5 4.5s-4.5 6.83301 -4.5 11.5h-1z" />
    <glyph glyph-name="uniE085" unicode="&#xe085;" 
d="M480 320h-128v32c0 8.66699 -3.16699 16.167 -9.5 22.5s-13.833 9.5 -22.5 9.5h-128c-8.66699 0 -16.167 -3.16699 -22.5 -9.5s-9.5 -13.833 -9.5 -22.5v-32h-128c-8.66699 0 -16.167 -3.16699 -22.5 -9.5s-9.5 -13.833 -9.5 -22.5v-64h192h128h192v64
c0 8.66699 -3.16699 16.167 -9.5 22.5s-13.833 9.5 -22.5 9.5zM192 352h128v-32h-128v32zM192 192h128v-32h-128v32zM352 160c0 -8.66699 -3.16699 -16.167 -9.5 -22.5s-13.833 -9.5 -22.5 -9.5h-128c-8.66699 0 -16.167 3.16699 -22.5 9.5s-9.5 13.833 -9.5 22.5v32h-160
v-192c0 -8.66699 3.16699 -16.167 9.5 -22.5s13.833 -9.5 22.5 -9.5h448c8.66699 0 16.167 3.16699 22.5 9.5s9.5 13.833 9.5 22.5v192h-160v-32z" />
    <glyph glyph-name="uniE086" unicode="&#xe086;" 
d="M81 -32l14.002 0.000976562h192h33h11h52c8.66699 0 16.167 3.16699 22.5 9.5s9.5 13.833 9.5 22.5v69v11v256c0 4.66699 -1.5 8.5 -4.5 11.5s-6.83301 4.5 -11.5 4.5h-271h-4h-43c-14 0 -25.667 4.5 -35 13.5s-14 20.167 -14 33.5c0 14 4.66699 25.667 14 35
s20.666 14 33.999 14h64h176h128v-368c0 -4.66699 1.5 -8.5 4.5 -11.5s6.66699 -4.5 11 -4.5s8.16602 1.5 11.499 4.5s5 6.83301 5 11.5v384c0 4.66699 -1.66699 8.5 -5 11.5s-7.33301 4.5 -12 4.5h-111h-208h-63c-22 0 -40.833 -7.66699 -56.5 -23s-23.834 -34 -24.501 -56
v-67v-46v-175v-40v-24c0 -22.667 7.83301 -41.834 23.5 -57.501s34.834 -23.5 57.501 -23.5z" />
    <glyph glyph-name="uniE087" unicode="&#xe087;" 
d="M32 480c-8.66699 0 -16.167 -3.16699 -22.5 -9.5s-9.5 -13.833 -9.5 -22.5v-448c0 -8.66699 3.16699 -16.167 9.5 -22.5s13.833 -9.5 22.5 -9.5h32v512h-32zM416 480h-320v-512h320c8.66699 0 16.167 3.16699 22.5 9.5s9.5 13.833 9.5 22.5v448
c0 8.66699 -3.16699 16.167 -9.5 22.5s-13.833 9.5 -22.5 9.5zM270 357c13.333 0 24.833 -4.83301 34.5 -14.5s14.5 -21.167 14.5 -34.5s-4.83301 -24.666 -14.5 -33.999s-21.167 -14 -34.5 -14s-24.666 4.66699 -33.999 14s-14 20.666 -14 33.999s4.66699 24.833 14 34.5
s20.666 14.5 33.999 14.5zM192 134c0 29.333 7.66602 54.333 22.999 75s34 31 56 31s40.667 -10.333 56 -31s23 -45.667 23 -75c0 -20.667 -16.667 -34.334 -50 -41.001c-35.333 -7.33301 -64.666 -3.66602 -87.999 11.001c-13.333 8 -20 18 -20 30zM479.999 448h32v-96h-32
v96zM479.999 320h32v-96h-32v96zM479.999 192h32v-96h-32v96z" />
    <glyph glyph-name="uniE088" unicode="&#xe088;" 
d="M480 416h-448c-8.66699 0 -16.167 -3.16699 -22.5 -9.5s-9.5 -13.833 -9.5 -22.5v-64h512v64c0 8.66699 -3.16699 16.167 -9.5 22.5s-13.833 9.5 -22.5 9.5zM32 0c0 -8.66699 3.16699 -16.167 9.5 -22.5s13.833 -9.5 22.5 -9.5h384c8.66699 0 16.167 3.16699 22.5 9.5
s9.5 13.833 9.5 22.5v288h-448v-288zM192 224h128c8.66699 0 16.167 -3.16699 22.5 -9.5s9.5 -13.833 9.5 -22.5s-3.16699 -16.167 -9.5 -22.5s-13.833 -9.5 -22.5 -9.5h-128c-8.66699 0 -16.167 3.16699 -22.5 9.5s-9.5 13.833 -9.5 22.5s3.16699 16.167 9.5 22.5
s13.833 9.5 22.5 9.5z" />
    <glyph glyph-name="uniE089" unicode="&#xe089;" 
d="M512 259c-0.666992 39.333 -15.167 73.833 -43.5 103.5s-61.833 44.5 -100.5 44.5c-45.333 0 -82.666 -19.667 -111.999 -59c-29.333 39.333 -66.666 59 -111.999 59c-38.667 0 -72.167 -14.833 -100.5 -44.5s-42.833 -64.167 -43.5 -103.5v-1.5v-0.5v-1
c0 -0.666992 0.166992 -1.66699 0.5 -3s0.5 -2.33301 0.5 -3c0.666992 -27.333 6 -53.5 16 -78.5s22.167 -46.5 36.5 -64.5s31.166 -35.167 50.499 -51.5s36.833 -29.5 52.5 -39.5s32 -19 49 -27s28.5 -13.167 34.5 -15.5l14 -5.5c3.33301 1.33301 8 3 14 5
s17.667 7.16699 35 15.5s34 17.5 50 27.5s33.833 23 53.5 39s36.667 33.167 51 51.5s26.666 40 36.999 65s15.833 51.167 16.5 78.5c0 0.666992 0.166992 1.66699 0.5 3s0.5 2.33301 0.5 3v1v1v1z" />
    <glyph glyph-name="uniE08A" unicode="&#xe08a;" 
d="M352 384c0 26 -9.5 48.5 -28.5 67.5s-41.5 28.5 -67.5 28.5s-48.5 -9.5 -67.5 -28.5s-28.5 -41.5 -28.5 -67.5s9.5 -48.5 28.5 -67.5s41.5 -28.5 67.5 -28.5s48.5 9.5 67.5 28.5s28.5 41.5 28.5 67.5zM256 256c-42.667 0 -80.001 -20 -112.001 -60s-48 -87.667 -48 -143
c0 -16 5.83301 -30 17.5 -42s27 -21.167 46 -27.5s39.833 -11 62.5 -14s45.334 -3 68.001 0s43.5 7.66699 62.5 14s34.333 15.5 46 27.5s17.5 26 17.5 42c0 55.333 -16 103 -48 143s-69.333 60 -112 60z" />
    <glyph glyph-name="uniE08B" unicode="&#xe08b;" 
d="M224 400c0 21.333 -8 40 -24 56s-34.667 24 -56 24s-40 -8 -56 -24s-24 -34.667 -24 -56s8 -40 24 -56s34.667 -24 56 -24s40 8 56 24s24 34.667 24 56zM280 96c0 60.667 -13.501 107.834 -40.501 141.501s-60.167 50.5 -99.5 50.5s-72.5 -16.833 -99.5 -50.5
s-40.5 -80.834 -40.5 -141.501c0 -27.333 23.333 -46.833 70 -58.5s93.334 -11.667 140.001 0s70 31.167 70 58.5zM375.999 258c21.333 0 40 8 56 24s24 34.667 24 56s-8 40 -24 56s-34.667 24 -56 24s-40 -8 -56 -24s-24 -34.667 -24 -56s8 -40 24 -56s34.667 -24 56 -24z
M371.999 226c-22 0 -42.667 -6.00195 -62 -18.002c12 -33.333 18 -70.666 18 -111.999c0 -43.333 -26 -75.333 -78 -96c20 -16.667 51.167 -27 93.5 -31s81 0 116 12s52.5 29.667 52.5 53c0 60.667 -13.5 107.834 -40.5 141.501s-60.167 50.5 -99.5 50.5z" />
    <glyph glyph-name="uniE08C" unicode="&#xe08c;" 
d="M96 256h96c8.66699 0 16.167 3.16699 22.5 9.5s9.5 13.833 9.5 22.5v96c0 8.66699 -3.16699 16.167 -9.5 22.5s-13.833 9.5 -22.5 9.5h-96c-8.66699 0 -16.167 -3.16699 -22.5 -9.5s-9.5 -13.833 -9.5 -22.5v-96c0 -8.66699 3.16699 -16.167 9.5 -22.5
s13.833 -9.5 22.5 -9.5zM320 256h96c8.66699 0 16.167 3.16699 22.5 9.5s9.5 13.833 9.5 22.5v96c0 8.66699 -3.16699 16.167 -9.5 22.5s-13.833 9.5 -22.5 9.5h-96c-8.66699 0 -16.167 -3.16699 -22.5 -9.5s-9.5 -13.833 -9.5 -22.5v-96
c0 -8.66699 3.16699 -16.167 9.5 -22.5s13.833 -9.5 22.5 -9.5zM64 64c0 -8.66699 3.16699 -16.167 9.5 -22.5s13.833 -9.5 22.5 -9.5h96c8.66699 0 16.167 3.16699 22.5 9.5s9.5 13.833 9.5 22.5v96c0 8.66699 -3.16699 16.167 -9.5 22.5s-13.833 9.5 -22.5 9.5h-96
c-8.66699 0 -16.167 -3.16699 -22.5 -9.5s-9.5 -13.833 -9.5 -22.5v-96zM288 64c0 -8.66699 3.16699 -16.167 9.5 -22.5s13.833 -9.5 22.5 -9.5h96c8.66699 0 16.167 3.16699 22.5 9.5s9.5 13.833 9.5 22.5v96c0 8.66699 -3.16699 16.167 -9.5 22.5s-13.833 9.5 -22.5 9.5
h-96c-8.66699 0 -16.167 -3.16699 -22.5 -9.5s-9.5 -13.833 -9.5 -22.5v-96z" />
    <glyph glyph-name="uniE08D" unicode="&#xe08d;" 
d="M64 320h64c8.66699 0 16.167 3.16699 22.5 9.5s9.5 13.833 9.5 22.5v64c0 8.66699 -3.16699 16.167 -9.5 22.5s-13.833 9.5 -22.5 9.5h-64c-8.66699 0 -16.167 -3.16699 -22.5 -9.5s-9.5 -13.833 -9.5 -22.5v-64c0 -8.66699 3.16699 -16.167 9.5 -22.5
s13.833 -9.5 22.5 -9.5zM224 320h64c8.66699 0 16.167 3.16699 22.5 9.5s9.5 13.833 9.5 22.5v64c0 8.66699 -3.16699 16.167 -9.5 22.5s-13.833 9.5 -22.5 9.5h-64c-8.66699 0 -16.167 -3.16699 -22.5 -9.5s-9.5 -13.833 -9.5 -22.5v-64
c0 -8.66699 3.16699 -16.167 9.5 -22.5s13.833 -9.5 22.5 -9.5zM384 320h64c8.66699 0 16.167 3.16699 22.5 9.5s9.5 13.833 9.5 22.5v64c0 8.66699 -3.16699 16.167 -9.5 22.5s-13.833 9.5 -22.5 9.5h-64c-8.66699 0 -16.167 -3.16699 -22.5 -9.5s-9.5 -13.833 -9.5 -22.5
v-64c0 -8.66699 3.16699 -16.167 9.5 -22.5s13.833 -9.5 22.5 -9.5zM32 192c0 -8.66699 3.16699 -16.167 9.5 -22.5s13.833 -9.5 22.5 -9.5h64c8.66699 0 16.167 3.16699 22.5 9.5s9.5 13.833 9.5 22.5v64c0 8.66699 -3.16699 16.167 -9.5 22.5s-13.833 9.5 -22.5 9.5h-64
c-8.66699 0 -16.167 -3.16699 -22.5 -9.5s-9.5 -13.833 -9.5 -22.5v-64zM192 192c0 -8.66699 3.16699 -16.167 9.5 -22.5s13.833 -9.5 22.5 -9.5h64c8.66699 0 16.167 3.16699 22.5 9.5s9.5 13.833 9.5 22.5v64c0 8.66699 -3.16699 16.167 -9.5 22.5s-13.833 9.5 -22.5 9.5
h-64c-8.66699 0 -16.167 -3.16699 -22.5 -9.5s-9.5 -13.833 -9.5 -22.5v-64zM352 192c0 -8.66699 3.16699 -16.167 9.5 -22.5s13.833 -9.5 22.5 -9.5h64c8.66699 0 16.167 3.16699 22.5 9.5s9.5 13.833 9.5 22.5v64c0 8.66699 -3.16699 16.167 -9.5 22.5
s-13.833 9.5 -22.5 9.5h-64c-8.66699 0 -16.167 -3.16699 -22.5 -9.5s-9.5 -13.833 -9.5 -22.5v-64zM32 32c0 -8.66699 3.16699 -16.167 9.5 -22.5s13.833 -9.5 22.5 -9.5h64c8.66699 0 16.167 3.16699 22.5 9.5s9.5 13.833 9.5 22.5v64
c0 8.66699 -3.16699 16.167 -9.5 22.5s-13.833 9.5 -22.5 9.5h-64c-8.66699 0 -16.167 -3.16699 -22.5 -9.5s-9.5 -13.833 -9.5 -22.5v-64zM192 32c0 -8.66699 3.16699 -16.167 9.5 -22.5s13.833 -9.5 22.5 -9.5h64c8.66699 0 16.167 3.16699 22.5 9.5s9.5 13.833 9.5 22.5
v64c0 8.66699 -3.16699 16.167 -9.5 22.5s-13.833 9.5 -22.5 9.5h-64c-8.66699 0 -16.167 -3.16699 -22.5 -9.5s-9.5 -13.833 -9.5 -22.5v-64zM352 32c0 -8.66699 3.16699 -16.167 9.5 -22.5s13.833 -9.5 22.5 -9.5h64c8.66699 0 16.167 3.16699 22.5 9.5
s9.5 13.833 9.5 22.5v64c0 8.66699 -3.16699 16.167 -9.5 22.5s-13.833 9.5 -22.5 9.5h-64c-8.66699 0 -16.167 -3.16699 -22.5 -9.5s-9.5 -13.833 -9.5 -22.5v-64z" />
    <glyph glyph-name="uniE08E" unicode="&#xe08e;" 
d="M19 -7.5c12 -15.667 28.667 -23.8271 50 -24.4941s41.333 6 60 20c14.667 11.333 25 25.333 31 42c4 7.33301 6 16.333 6 27v239l288 55v-127c0 -10 -1.66699 -18.833 -5 -26.5s-7.83301 -13.5 -13.5 -17.5s-10.667 -7 -15 -9s-8.5 -3.33301 -12.5 -4h-2h-1l-2 -1h1
c-15.333 -2.66699 -29.333 -8.66699 -42 -18c-18.667 -14.667 -30.334 -32.5 -35.001 -53.5s-1 -39.167 11 -54.5s28.833 -23.5 50.5 -24.5s41.834 5.5 60.501 19.5c18.667 14.667 30.334 32.667 35.001 54c1.33301 5.33301 2 10.666 2 15.999v311
c0 0.666992 -0.166992 1.66699 -0.5 3s-0.5 2.16602 -0.5 2.49902s0.166992 0.833008 0.5 1.5l0.5 1v32c0 9.33301 -3.16699 16.166 -9.5 20.499s-13.833 5.16602 -22.5 2.49902l-288 -55c-8.66699 -2.66699 -16.167 -8 -22.5 -16s-9.5 -16.667 -9.5 -26v-32v-1v-1v-2v-169
c0 -10.667 -1.66699 -19.834 -5 -27.501s-7.83301 -13.5 -13.5 -17.5s-10.667 -6.83301 -15 -8.5s-8.5 -2.83398 -12.5 -3.50098h-1h-1l-3 -1h1c-15.333 -2.66699 -29 -8.66699 -41 -18c-18.667 -14.667 -30.334 -32.5 -35.001 -53.5s-1 -39.333 11 -55z" />
    <glyph glyph-name="uniE08F" unicode="&#xe08f;" 
d="M256 480c-70.667 0 -131 -25 -181 -75s-75 -110.333 -75 -181s25 -131 75 -181s110.333 -75 181 -75s131 25 181 75s75 110.333 75 181s-25 131 -75 181s-110.333 75 -181 75zM224 160c0 -8.66699 -3.16699 -16.167 -9.5 -22.5s-13.833 -9.5 -22.5 -9.5
s-16.167 3.16699 -22.5 9.5s-9.5 13.833 -9.5 22.5v128c0 8.66699 3.16699 16.167 9.5 22.5s13.833 9.5 22.5 9.5s16.167 -3.16699 22.5 -9.5s9.5 -13.833 9.5 -22.5v-128zM352 160c0 -8.66699 -3.16699 -16.167 -9.5 -22.5s-13.833 -9.5 -22.5 -9.5
s-16.167 3.16699 -22.5 9.5s-9.5 13.833 -9.5 22.5v128c0 8.66699 3.16699 16.167 9.5 22.5s13.833 9.5 22.5 9.5s16.167 -3.16699 22.5 -9.5s9.5 -13.833 9.5 -22.5v-128z" />
    <glyph glyph-name="uniE090" unicode="&#xe090;" 
d="M211 351c-0.666992 13.333 -4.16016 26.002 -10.4932 38.002s-13 21.833 -20 29.5s-14.833 14.667 -23.5 21s-14.834 10.666 -18.501 12.999s-6.83398 3.83301 -9.50098 4.5c-3.33301 1.33301 -6.33301 1.66602 -9 0.999023c-16 -2.66699 -30.333 -6.66699 -43 -12
s-22.167 -10.666 -28.5 -15.999s-11.833 -11.166 -16.5 -17.499s-7.5 -10.666 -8.5 -12.999s-1.5 -4.5 -1.5 -6.5c-0.666992 -2.66699 -0.666992 -5.66699 0 -9c14 -42.667 30.667 -82.334 50 -119.001s38.333 -67.334 57 -92.001s40 -47.334 64 -68.001
s44.667 -36.667 62 -48s37.166 -22 59.499 -32s38.666 -16.667 48.999 -20s23.166 -7 38.499 -11c6.66699 -2 11 -3.33301 13 -4c1.33301 -0.666992 3 -1 5 -1s4 0.666992 6 2c2 0.666992 4.33301 1.83398 7 3.50098s7.16699 5.16699 13.5 10.5s12 11.5 17 18.5
s10.167 16.5 15.5 28.5s9.33301 25.333 12 40c0 3.33301 -0.666992 6.66602 -2 9.99902c-0.666992 1.33301 -1.83398 3.33301 -3.50098 6s-5.33398 7.16699 -11.001 13.5s-12 12.333 -19 18s-16.333 11.5 -28 17.5s-24.167 10.667 -37.5 14
c-5.33301 1.33301 -10.333 0.333008 -15 -3c-30 -26 -52.667 -40.333 -68 -43c-39.333 19.333 -72.666 45.333 -99.999 78s-42 55.667 -44 69c0 4 4.33301 12.833 13 26.5s19 27.167 31 40.5c3.33301 3.33301 4.66602 7.33301 3.99902 12z" />
    <glyph glyph-name="uniE091" unicode="&#xe091;" 
d="M96 288h96v-192h128l-1 192h97l-160 160zM384 32h-256v64h-64v-64v-64h384v64v64h-64v-64z" />
    <glyph glyph-name="uniE092" unicode="&#xe092;" 
d="M256 96l160 160h-96v192h-128l1 -192h-97zM64 32v-64h384v64v64h-64v-64h-256v64h-64v-64z" />
    <glyph glyph-name="uniE093" unicode="&#xe093;" horiz-adv-x="585" 
d="M166 307c0 8 -2.5 14.333 -7.5 19s-11.167 7 -18.5 7c-8.66699 0 -16 -2.33301 -22 -7s-9 -11 -9 -19c0 -7.33301 3 -13.5 9 -18.5s13.333 -7.5 22 -7.5c7.33301 0 13.5 2.33301 18.5 7s7.5 11 7.5 19zM378 162c0 5.33301 -2.5 10.166 -7.5 14.499s-11.167 6.5 -18.5 6.5
c-5.33301 0 -10.166 -2.16699 -14.499 -6.5s-6.5 -9.16602 -6.5 -14.499s2.16699 -10.166 6.5 -14.499s9.16602 -6.5 14.499 -6.5c7.33301 0 13.5 2.16699 18.5 6.5s7.5 9.16602 7.5 14.499zM311 307c0 8 -2.33301 14.333 -7 19s-11 7 -19 7s-15.167 -2.33301 -21.5 -7
s-9.5 -11 -9.5 -19c0 -7.33301 3.16699 -13.5 9.5 -18.5s13.5 -7.5 21.5 -7.5s14.333 2.33301 19 7s7 11 7 19zM492 162c0 5.33301 -2.5 10.166 -7.5 14.499s-11.167 6.5 -18.5 6.5c-5.33301 0 -10.166 -2.16699 -14.499 -6.5s-6.5 -9.16602 -6.5 -14.499
s2.16699 -10.166 6.5 -14.499s9.16602 -6.5 14.499 -6.5c7.33301 0 13.5 2.16699 18.5 6.5s7.5 9.16602 7.5 14.499zM416 276c-6 0.666992 -12.666 1 -19.999 1c-32 0 -61.5 -7.33301 -88.5 -22s-48.333 -34.5 -64 -59.5s-23.5 -52.5 -23.5 -82.5
c0 -14.667 2.33301 -29 7 -43c-6.66699 -0.666992 -13.334 -1 -20.001 -1c-4.66699 0 -9.33398 0.166992 -14.001 0.5s-10 1 -16 2s-10.167 1.66699 -12.5 2s-7.5 1.33301 -15.5 3s-12.667 2.5 -14 2.5l-73 -36l21 62c-55.333 38.667 -83 85.334 -83 140.001
c0 32 9.33301 61.667 28 89s43.834 48.666 75.501 63.999s66.167 23 103.5 23c33.333 0 65 -6.33301 95 -19s55 -30 75 -52s33 -46.667 39 -74zM585.001 115c0 -22 -6.5 -43.166 -19.5 -63.499s-30.5 -38.833 -52.5 -55.5l15 -51l-57 31c-28 -7.33301 -48.667 -11 -62 -11
c-32 0 -61.5 6.66699 -88.5 20s-48.333 31.666 -64 54.999s-23.5 48.5 -23.5 75.5s7.83301 52 23.5 75s37 41.333 64 55s56.5 20.5 88.5 20.5c30.667 0 59.5 -6.83301 86.5 -20.5s48.667 -32 65 -55s24.5 -48.167 24.5 -75.5z" />
    <glyph glyph-name="uniE094" unicode="&#xe094;" horiz-adv-x="365" 
d="M240 275.5c0 -15 -5.33398 -27.9971 -16.001 -38.9971s-23.667 -16.5 -39 -16.5c-11.333 0 -22 3.33301 -32 10c-11.333 -12.667 -22 -26.334 -32 -41.001c-47.333 -70.667 -66.666 -152.667 -57.999 -246c0 -4 -1.33301 -7.66699 -4 -11s-6 -5 -10 -5h-1
c-4 0 -7.33301 1.33301 -10 4s-4.33398 5.66699 -5.00098 9c-2.66699 24 -3 47.667 -1 71s4.83301 44 8.5 62s8.83398 35.667 15.501 53s13.167 32.166 19.5 44.499s13.5 24.166 21.5 35.499c11.333 17.333 24 33 38 47c-3.33301 6.66699 -5 14 -5 22
c0 15.333 5.33301 28.5 16 39.5s23.667 16.5 39 16.5s28.333 -5.5 39 -16.5s16 -24 16 -39zM348.999 272.003c0 -30 -7.33398 -57.668 -22.001 -83.001s-34.834 -45.5 -60.501 -60.5s-53.5 -22.5 -83.5 -22.5c-12.667 0 -25.334 1.33301 -38.001 4
c-4 0.666992 -7 2.83398 -9 6.50098s-2.66699 7.5 -2 11.5s2.83398 7 6.50098 9s7.5 2.66699 11.5 2c9.33301 -2.66699 19.666 -4 30.999 -4c18 0 35.5 3.66699 52.5 11s31.667 17.166 44 29.499s22 27 29 44s10.5 34.667 10.5 53s-3.5 36 -10.5 53s-16.667 31.5 -29 43.5
s-27 21.667 -44 29s-34.667 11 -53 11s-36 -3.66699 -53 -11s-31.667 -17 -44 -29s-22 -26.5 -29 -43.5s-10.5 -34.833 -10.5 -53.5c0 -21.333 5 -42 15 -62c1.33301 -4 1.5 -7.83301 0.5 -11.5s-3.33301 -6.5 -7 -8.5s-7.5 -2.33301 -11.5 -1s-7 4 -9 8
c-12 23.333 -18 48.333 -18 75c0 22.667 4.5 44.334 13.5 65.001s20.833 38.5 35.5 53.5s32.334 26.833 53.001 35.5s42.334 13 65.001 13c30 0 57.833 -7.5 83.5 -22.5s45.834 -35.333 60.501 -61s22 -53.5 22 -83.5z" />
    <glyph glyph-name="uniE095" unicode="&#xe095;" 
d="M77 209c-1.33301 3.33301 -1.99805 7.99512 -1.99805 13.9951c0 4 1 8.83301 3 14.5s4.33301 9.83398 7 12.501c-0.666992 4.66699 -0.166992 9.83398 1.5 15.501s3.83398 9.83398 6.50098 12.501c0 26 8.83301 53.333 26.5 82s38.5 48.667 62.5 60
c26.667 12.667 57.334 19 92.001 19c25.333 0 50.666 -5.33301 75.999 -16c9.33301 -4 18 -8.5 26 -13.5s14.833 -10.333 20.5 -16s10.834 -12.167 15.501 -19.5s8.66699 -14.333 12 -21s6.5 -14.667 9.5 -24s5.5 -17.833 7.5 -25.5s4 -17.167 6 -28.5v-1
c10.667 -16 16 -30.333 16 -43c0 -2.66699 -0.833008 -6.5 -2.5 -11.5s-2.5 -8.5 -2.5 -10.5c0 -0.666992 0.166992 -1.16699 0.5 -1.5s0.666016 -0.833008 0.999023 -1.5l0.5 -1c14.667 -21.333 26.167 -41.666 34.5 -60.999s12.5 -39.333 12.5 -60
c0 -8 -1.83301 -17.5 -5.5 -28.5s-9.16699 -16.5 -16.5 -16.5c-1.33301 0 -3 0.833008 -5 2.5s-3.83301 3.33398 -5.5 5.00098s-3.5 4.16699 -5.5 7.5s-3.5 6 -4.5 8s-2.33301 4.33301 -4 7s-2.5 4.33398 -2.5 5.00098h-1l-1 -1c-11.333 -29.333 -24 -50.666 -38 -63.999
c4 -3.33301 9.83301 -6.83301 17.5 -10.5s14.167 -7.66699 19.5 -12s8.66602 -10.5 9.99902 -18.5c0 -0.666992 -0.166992 -2.16699 -0.5 -4.5s-1.16602 -4.16602 -2.49902 -5.49902c-12 -18 -40.667 -27 -86 -27c-10 0 -20.5 0.833008 -31.5 2.5s-20.333 3.5 -28 5.5
l-30.5 8c-2.66699 1.33301 -4.66699 2 -6 2c-2.66699 1.33301 -7 2 -13 2h-12c-7.33301 -8.66699 -19.333 -14.834 -36 -18.501s-32.667 -5.5 -48 -5.5c-6.66699 0 -13.334 0.166992 -20.001 0.5s-15.5 1.16602 -26.5 2.49902s-20.5 3.16602 -28.5 5.49902
s-15.167 6.16602 -21.5 11.499s-9.5 11.333 -9.5 18c0 8 1 13.833 3 17.5s6 8.16699 12 13.5l11.5 4c5.66699 2 10.167 3 13.5 3c0.666992 0 2 0.333008 4 1l1 1l-1 1c-8.66699 2 -18.834 12 -30.501 30s-18.5 33 -20.5 45l-2 1c-0.666992 0 -1.66699 -2 -3 -6
c-3.33301 -8 -8.5 -15.167 -15.5 -21.5s-14.5 -9.83301 -22.5 -10.5v0c-0.666992 0 -1.33398 0.5 -2.00098 1.5l-1 1.5c-4.66699 10 -7 19.333 -7 28c0 52.667 24 97.334 72 134.001z" />
    <glyph glyph-name="uniE096" unicode="&#xe096;" 
d="M137 14c40.667 0 72.835 9.66992 96.502 29.0029s35.5 42 35.5 68c0 19.333 -3.5 35.5 -10.5 48.5s-19.167 25.833 -36.5 38.5c-8 5.33301 -15.833 12.166 -23.5 20.499s-11.5 15.5 -11.5 21.5c0 7.33301 1.5 13.5 4.5 18.5s9.83301 11.5 20.5 19.5
c25.333 20 38 43.333 38 70c0 17.333 -3.83301 33.166 -11.5 47.499s-18.167 24.166 -31.5 29.499h43l30 22h-134c-30.667 0 -57.834 -9.83301 -81.501 -29.5s-35.5 -42.5 -35.5 -68.5c0 -27.333 9.5 -50.5 28.5 -69.5s43.5 -28.5 73.5 -28.5
c4.66699 0 8.66699 0.333008 12 1c-4 -8.66699 -6 -17 -6 -25c0 -12.667 6 -25 18 -37h-11.5h-11.5c-36.667 0 -67.834 -9.83301 -93.501 -29.5s-38.5 -42.167 -38.5 -67.5c-0 -23.333 13.333 -42.333 40 -57s59 -22 97 -22zM150.501 265.003
c-17 0.666992 -32.666 9.16895 -46.999 25.502s-23 35.833 -26 58.5s0.5 41.667 10.5 57s23.667 22.666 41 21.999s33.166 -9 47.499 -25s23 -35.333 26 -58s-0.666992 -41.834 -11 -57.501s-24 -23.167 -41 -22.5zM146.002 177.005
c11.333 0 22.334 -1.66406 33.001 -4.99707c2.66699 -2 6.5 -4.66699 11.5 -8s8.5 -5.83301 10.5 -7.5s5 -3.83398 9 -6.50098s6.83301 -5 8.5 -7l6 -7c2.33301 -2.66699 4.16602 -5.33398 5.49902 -8.00098s2.33301 -5.66699 3 -9c0.666992 -4.66699 1 -9.33398 1 -14.001
c0 -46 -32.333 -69 -97 -69c-25.333 0 -46.5 7 -63.5 21s-25.5 30.667 -25.5 50s9.83301 35.833 29.5 49.5s42.5 20.5 68.5 20.5zM416.003 352.008v95h-32v-95h-96v-32h96v-97h32v97h96v32h-96z" />
    <glyph glyph-name="uniE097" unicode="&#xe097;" horiz-adv-x="438" 
d="M324 -10c-32.667 -18 -67.668 -27 -105.001 -27s-72.333 9 -105 27c26 16.667 48.333 36.834 67 60.501s31.334 49.167 38.001 76.5c6.66699 -27.333 19.167 -52.833 37.5 -76.5s40.833 -43.834 67.5 -60.501zM181.999 398v-137.998c0 -48 -12 -91.833 -36 -131.5
s-55.333 -68.834 -94 -87.501c-34.667 40.667 -52 87.667 -52 141c0 36 8 69.5 24 100.5s37.833 56.667 65.5 77s58.5 33.166 92.5 38.499zM438.999 182.002c0 -53.333 -17.333 -100.335 -52 -141.002c-38.667 18.667 -70 47.834 -94 87.501s-36 83.5 -36 131.5v138
c34 -5.33301 64.833 -18.166 92.5 -38.499s49.5 -46 65.5 -77s24 -64.5 24 -100.5z" />
    <glyph glyph-name="uniE098" unicode="&#xe098;" 
d="M352 229l-34.002 -12.001l-30 12v-62c0 -29.333 9.33301 -53.833 28 -73.5s41.334 -29.5 68.001 -29.5s49.334 9.33301 68.001 28s28 41.334 28 68.001v64h-64v-64c0 -8.66699 -3.16699 -16.167 -9.5 -22.5s-13.833 -9.5 -22.5 -9.5c-9.33301 0 -17 3.5 -23 10.5
s-9 16.5 -9 28.5v62zM127.998 63.999c26.667 0 49.333 9.33398 68 28.001s28 41.334 28 68.001v128c0 8.66699 3.16699 16.167 9.5 22.5s13.833 9.5 22.5 9.5s16.167 -2.66699 22.5 -8s9.5 -11 9.5 -17v-31l30 -12l34 12v31c0 23.333 -9.5 44 -28.5 62s-41.5 27 -67.5 27
c-26.667 0 -49.334 -9.33301 -68.001 -28s-28 -41.334 -28 -68.001v-128c0 -8.66699 -3.16699 -16.167 -9.5 -22.5s-13.833 -9.5 -22.5 -9.5s-16.167 3.16699 -22.5 9.5s-9.5 13.833 -9.5 22.5v64h-64v-64c0 -26.667 9.33301 -49.334 28 -68.001s41.334 -28 68.001 -28z" />
    <glyph glyph-name="uniE099" unicode="&#xe099;" 
d="M256 480c-70.667 0 -131 -25 -181 -75s-75 -110.333 -75 -181s25 -131 75 -181s110.333 -75 181 -75s131 25 181 75s75 110.333 75 181s-25 131 -75 181s-110.333 75 -181 75zM37 224c0 30 6.33203 59 18.999 87l104 -279c-37.333 17.333 -67.166 43.333 -89.499 78
s-33.5 72.667 -33.5 114zM255.999 10c-21.333 0 -42.002 3 -62.002 9l66 186l67 -180c0.666992 -0.666992 1.33398 -1.66699 2.00098 -3c-23.333 -8 -47.666 -12 -72.999 -12zM285.997 324l25.001 2c6 0.666992 8.83301 3.83398 8.5 9.50098s-3.5 8.5 -9.5 8.5
c-24 -2 -43.667 -3 -59 -3l-57 3c-4 0 -6.83301 -1.33301 -8.5 -4s-1.83398 -5.5 -0.500977 -8.5s3.66602 -4.83301 6.99902 -5.5l23 -2l34 -91l-48 -140l-79 231l25 2c6 0.666992 8.66699 3.83398 8 9.50098s-4 8.5 -10 8.5c-23.333 -2 -42.666 -3 -57.999 -3h-14
c20 30 46 53.667 78 71s67 26 105 26c56.667 0 106 -18.667 148 -56h-1h-2c-10 0 -18.667 -3.83301 -26 -11.5s-11 -16.5 -11 -26.5c0 -10.667 7.33301 -27.334 22 -50.001c12 -20.667 18 -40.334 18 -59.001c0 -11.333 -5.66699 -34.333 -17 -69l-21 -72zM474.998 224
c0 -38.667 -9.83301 -74.332 -29.5 -106.999s-46.167 -58.667 -79.5 -78l67 189c11.333 27.333 17 53 17 77c0 7.33301 -0.333008 14.666 -1 21.999c17.333 -32 26 -66.333 26 -103z" />
    <glyph glyph-name="uniE09A" unicode="&#xe09a;" 
d="M489 480h-466c-6 0 -11.333 -2.33301 -16 -7s-7 -10 -7 -16v-466c-0 -6 2.33301 -11.333 7 -16s10 -7 16 -7h466c6 0 11.333 2.33301 16 7s7 10 7 16v466c0 6 -2.33301 11.333 -7 16s-10 7 -16 7zM345 224c0 -24.667 -8.66699 -45.667 -26 -63s-38.333 -26 -63 -26
s-45.667 8.66699 -63 26s-26 38.333 -26 63s8.66699 45.667 26 63s38.333 26 63 26s45.667 -8.66699 63 -26s26 -38.333 26 -63zM448 32h-384v224h42c-2 -10.667 -3 -21.334 -3 -32.001c0 -42 15 -78 45 -108s66 -45 108 -45s78 15 108 45s45 66 45 108
c0 10.667 -1 21.334 -3 32.001h42v-224zM448 320h-96v96h96v-96z" />
    <glyph glyph-name="uniE09B" unicode="&#xe09b;" 
d="M256 480c-70.667 0 -131 -25 -181 -75s-75 -110.333 -75 -181s25 -131 75 -181s110.333 -75 181 -75s131 25 181 75s75 110.333 75 181s-25 131 -75 181s-110.333 75 -181 75zM256 442c55.333 0 103.667 -18.334 145 -55.001c-3.33301 -4.66699 -8 -10.167 -14 -16.5
s-18.5 -16.166 -37.5 -29.499s-40.167 -24.333 -63.5 -33c-24.667 46 -51.667 88.667 -81 128c16.667 4 33.667 6 51 6zM163.001 421.999c29.333 -40 56.334 -82.333 81.001 -127c-70 -18.667 -137.333 -27.667 -202 -27c7.33301 34 21.666 64.5 42.999 91.5
s47.333 47.833 78 62.5zM37.002 223.999l-0.000976562 6.00293c74.667 -1.33301 149.667 9 225 31c6.66699 -12 12.667 -24.333 18 -37c-3.33301 -0.666992 -6.33301 -1.33398 -9 -2.00098c-26 -8.66699 -50.5 -20.667 -73.5 -36s-42 -31.333 -57 -48
s-25.667 -29.334 -32 -38.001s-11.166 -16.334 -14.499 -23.001c-38 42 -57 91 -57 147zM256.001 5.00195c-50 0 -94.668 15.333 -134.001 46c2 4 4.5 8.5 7.5 13.5s9.33301 13.5 19 25.5s20.334 23.167 32.001 33.5s27.667 21.666 48 33.999s41.833 22.5 64.5 30.5h2
c22 -57.333 37.333 -112.666 46 -165.999c-26.667 -11.333 -55 -17 -85 -17zM378 42.002c-8 48.667 -22 100.667 -42 156c46.667 8 92 5 136 -9c-10 -62 -41.333 -111 -94 -147zM322 233.002c-1.33301 4 -2.66699 7.66602 -4 10.999
c-4.66699 10.667 -9.66699 21.334 -15 32.001c24 10 46.167 22 66.5 36s33.666 24.5 39.999 31.5s11.5 13.167 15.5 18.5c32.667 -40 49.334 -85.333 50.001 -136c-52 10.667 -103 13 -153 7z" />
    <glyph glyph-name="uniE09C" unicode="&#xe09c;" 
d="M295 327c18.667 11.333 34.6621 14.6699 47.9951 10.0029s20.833 -14.334 22.5 -29.001s-2.16602 -31.667 -11.499 -51c-32.667 -61.333 -56.334 -92 -71.001 -92c-6.66699 0 -13 7.83301 -19 23.5s-13.667 41.834 -23 78.501c-2 10 -4.66699 25 -8 45s-6.5 37 -9.5 51
s-7.16699 28.333 -12.5 43s-12.833 25.167 -22.5 31.5s-21.167 8.16602 -34.5 5.49902c-19.333 -4 -41.666 -15.833 -66.999 -35.5s-46.166 -38 -62.499 -55s-24.166 -25.833 -23.499 -26.5l21 -27c1.33301 0.666992 2.83301 1.66699 4.5 3s5.33398 3.66602 11.001 6.99902
s10.834 6 15.501 8s9.5 3 14.5 3s8.83301 -1.66699 11.5 -5c5.33301 -6 19.833 -47.667 43.5 -125s38.167 -121.666 43.5 -132.999c6 -12.667 14.167 -23.834 24.5 -33.501s22.833 -16.834 37.5 -21.501s30 -1.66699 46 9c14.667 10 32.667 24.5 54 43.5s45 42.833 71 71.5
s49.333 62.167 70 100.5s34.334 76.166 41.001 113.499c9.33301 52.667 -4.33398 86.334 -41.001 101.001c-32 13.333 -67 8.66602 -105 -14.001c-39.333 -23.333 -62.333 -56.666 -69 -99.999z" />
    </font>
</defs>
</svg>
