<?xml version="1.0" encoding="utf-8"?>
<!-- Generator: Adobe Illustrator 19.0.0, SVG Export Plug-In . SVG Version: 6.00 Build 0)  -->
<svg version="1.1" id="图层_1" xmlns="http://www.w3.org/2000/svg" xmlns:xlink="http://www.w3.org/1999/xlink" x="0px" y="0px"
	 viewBox="0 0 259 50" style="enable-background:new 0 0 259 50;" xml:space="preserve">
<style type="text/css">
	.st0{fill:#D10412;}
</style>
<g id="XMLID_15_">
	<path id="XMLID_78_" d="M140.1,25.9c-0.8,0.9-1.4,1.8-1.8,2.5c-2.1-1-4-2.2-5.8-3.6v1.9h-8.2v3.6h13.8v2.2H108v-2.2h13.9v-3.6h-8.3
		v-1.9c-1.8,1.5-3.7,2.8-5.7,4c-0.4-0.6-1-1.3-1.8-2.2c3.5-1.7,6.5-3.9,9.1-6.5h-8.7v-2.2h6.8V6.4h-5.7V4.2h5.7V0.5h2.6v3.7h14.6
		V0.5h2.6v3.7h5.7v2.2H133v11.5h6.7v2.2h-9C133.3,22.7,136.4,24.6,140.1,25.9z M121.8,21.2h2.6v3.3h7.8c-1.6-1.3-3.1-2.8-4.5-4.4
		h-9.4c-1.4,1.6-2.9,3.1-4.4,4.4h7.9V21.2z M115.9,8.8h14.6V6.4h-14.6V8.8z M115.9,13.3h14.6v-2.4h-14.6V13.3z M115.9,17.9h14.6
		v-2.4h-14.6V17.9z"/>
	<path id="XMLID_73_" d="M141.9,30h13.8v-8.3h-12v-2.5h12v-4.7H147v-2.4c-1.6,1-3.3,2-5.2,3.1c-0.5-0.9-1-1.7-1.7-2.5
		c7.4-3.5,12.7-7.6,15.8-12.1h3.7l-0.8,0.9c3.6,4.6,8.6,8.2,15.1,10.7c-0.6,0.9-1.2,1.8-1.8,2.7c-1.7-0.7-3.4-1.6-5.1-2.7v2.3h-8.7
		v4.7h11.9v2.5h-11.9V30h13.7v2.5h-30.2V30z M145.2,23.8l2-1.6c1.6,1.7,3.2,3.4,4.8,5.2l-2.3,1.8C148.4,27.5,146.9,25.6,145.2,23.8z
		 M157.1,3.4c-2.3,2.9-5.6,5.8-10,8.6h19.7C163.3,9.8,160,6.9,157.1,3.4z M161.8,27.7c1.8-1.9,3.3-3.8,4.6-5.6l2.3,1.5
		c-1.6,2-3.2,3.9-4.9,5.7L161.8,27.7z"/>
	<path id="XMLID_71_" d="M109.2,43.8v-6.4h-3.1v-0.9h7.4v0.9h-3.1v6.4H109.2z"/>
	<path id="XMLID_69_" d="M114.8,43.8v-7.3h1.2v7.3H114.8z"/>
	<path id="XMLID_66_" d="M116.9,43.8l3.6-7.3h1.3l3.8,7.3h-1.4l-1.1-2.2h-3.9l-1,2.2H116.9z M119.6,40.8h3.2l-1-2
		c-0.3-0.6-0.5-1.1-0.7-1.5c-0.1,0.5-0.3,0.9-0.5,1.4L119.6,40.8z"/>
	<path id="XMLID_64_" d="M126.5,43.8v-7.3h1.3l4.9,5.7v-5.7h1.2v7.3h-1.3l-4.9-5.7v5.7H126.5z"/>
	<path id="XMLID_62_" d="M135.6,43.8v-7.3h1.2v3h4.9v-3h1.2v7.3h-1.2v-3.4h-4.9v3.4H135.6z"/>
	<path id="XMLID_59_" d="M144.3,40.2c0-1.2,0.4-2.1,1.3-2.8c0.8-0.7,1.9-1,3.2-1c0.9,0,1.6,0.2,2.3,0.5c0.7,0.3,1.2,0.8,1.6,1.3
		c0.4,0.6,0.5,1.2,0.5,2c0,0.7-0.2,1.4-0.6,2c-0.4,0.6-0.9,1-1.6,1.3c-0.7,0.3-1.5,0.4-2.3,0.4c-0.9,0-1.7-0.2-2.4-0.5
		c-0.7-0.3-1.2-0.8-1.6-1.4C144.5,41.5,144.3,40.9,144.3,40.2z M145.6,40.2c0,0.9,0.3,1.6,0.9,2.1c0.6,0.5,1.4,0.8,2.3,0.8
		c0.9,0,1.7-0.3,2.3-0.8c0.6-0.5,0.9-1.2,0.9-2.2c0-0.6-0.1-1.1-0.4-1.5c-0.3-0.4-0.6-0.8-1.1-1c-0.5-0.2-1.1-0.4-1.7-0.4
		c-0.9,0-1.6,0.2-2.3,0.7C145.9,38.4,145.6,39.1,145.6,40.2z"/>
	<path id="XMLID_57_" d="M154.6,43.8v-7.3h1.3l4.9,5.7v-5.7h1.2v7.3h-1.3l-4.9-5.7v5.7H154.6z"/>
	<path id="XMLID_55_" d="M168.1,40.9v-0.9l4,0v2.7c-0.6,0.4-1.2,0.7-1.9,0.8c-0.6,0.2-1.3,0.3-2,0.3c-0.9,0-1.8-0.2-2.5-0.5
		c-0.8-0.3-1.3-0.7-1.7-1.3c-0.4-0.6-0.6-1.2-0.6-1.9c0-0.7,0.2-1.4,0.6-2c0.4-0.6,0.9-1.1,1.6-1.4c0.7-0.3,1.5-0.4,2.5-0.4
		c0.7,0,1.3,0.1,1.8,0.3c0.5,0.2,1,0.4,1.3,0.7c0.3,0.3,0.6,0.7,0.7,1.2l-1.1,0.2c-0.1-0.4-0.3-0.7-0.5-0.9
		c-0.2-0.2-0.5-0.4-0.9-0.5c-0.4-0.1-0.8-0.2-1.3-0.2c-0.6,0-1.1,0.1-1.5,0.2c-0.4,0.1-0.7,0.3-1,0.5c-0.3,0.2-0.5,0.5-0.6,0.7
		c-0.2,0.4-0.4,0.9-0.4,1.5c0,0.6,0.1,1.2,0.4,1.6c0.3,0.4,0.7,0.8,1.3,1c0.5,0.2,1.1,0.3,1.7,0.3c0.5,0,1.1-0.1,1.6-0.2
		c0.5-0.2,0.9-0.3,1.2-0.5v-1.4H168.1z"/>
	<path id="XMLID_52_" d="M108,49.4l1.7-3.7h0.6l1.8,3.7h-0.7l-0.5-1.1h-1.8l-0.5,1.1H108z M109.2,47.9h1.5l-0.5-1
		c-0.1-0.3-0.2-0.6-0.3-0.8c-0.1,0.2-0.1,0.5-0.2,0.7L109.2,47.9z"/>
	<path id="XMLID_50_" d="M112.2,48.3l0.5,0c0,0.2,0.1,0.3,0.2,0.5c0.1,0.1,0.2,0.2,0.4,0.3c0.2,0.1,0.4,0.1,0.7,0.1
		c0.2,0,0.4,0,0.6-0.1c0.2-0.1,0.3-0.1,0.4-0.2c0.1-0.1,0.1-0.2,0.1-0.3c0-0.1,0-0.2-0.1-0.3c-0.1-0.1-0.2-0.2-0.4-0.2
		c-0.1,0-0.4-0.1-0.8-0.2c-0.4-0.1-0.7-0.2-0.9-0.2c-0.2-0.1-0.4-0.2-0.5-0.3c-0.1-0.1-0.2-0.3-0.2-0.5c0-0.2,0.1-0.4,0.2-0.5
		c0.1-0.2,0.3-0.3,0.6-0.4c0.2-0.1,0.5-0.1,0.8-0.1c0.3,0,0.6,0,0.9,0.1c0.2,0.1,0.4,0.2,0.6,0.4c0.1,0.2,0.2,0.4,0.2,0.6l-0.6,0
		c0-0.2-0.1-0.4-0.3-0.5c-0.2-0.1-0.4-0.2-0.8-0.2c-0.4,0-0.6,0.1-0.8,0.2c-0.2,0.1-0.2,0.2-0.2,0.4c0,0.1,0.1,0.2,0.2,0.3
		c0.1,0.1,0.4,0.2,0.9,0.3c0.5,0.1,0.8,0.2,1,0.2c0.3,0.1,0.4,0.2,0.6,0.4c0.1,0.1,0.2,0.3,0.2,0.5c0,0.2-0.1,0.4-0.2,0.6
		c-0.1,0.2-0.3,0.3-0.6,0.4c-0.2,0.1-0.5,0.1-0.8,0.1c-0.4,0-0.7,0-1-0.1c-0.3-0.1-0.5-0.2-0.6-0.4
		C112.3,48.7,112.2,48.5,112.2,48.3z"/>
	<path id="XMLID_48_" d="M116,48.3l0.6,0c0,0.2,0.1,0.3,0.2,0.5c0.1,0.1,0.2,0.2,0.4,0.3c0.2,0.1,0.4,0.1,0.7,0.1
		c0.2,0,0.4,0,0.6-0.1c0.2-0.1,0.3-0.1,0.4-0.2c0.1-0.1,0.1-0.2,0.1-0.3c0-0.1,0-0.2-0.1-0.3c-0.1-0.1-0.2-0.2-0.4-0.2
		c-0.1,0-0.4-0.1-0.8-0.2c-0.4-0.1-0.7-0.2-0.9-0.2c-0.2-0.1-0.4-0.2-0.5-0.3c-0.1-0.1-0.2-0.3-0.2-0.5c0-0.2,0.1-0.4,0.2-0.5
		c0.1-0.2,0.3-0.3,0.6-0.4c0.2-0.1,0.5-0.1,0.8-0.1c0.3,0,0.6,0,0.9,0.1c0.3,0.1,0.4,0.2,0.6,0.4c0.1,0.2,0.2,0.4,0.2,0.6l-0.6,0
		c0-0.2-0.1-0.4-0.3-0.5c-0.2-0.1-0.4-0.2-0.8-0.2c-0.4,0-0.6,0.1-0.8,0.2c-0.2,0.1-0.2,0.2-0.2,0.4c0,0.1,0.1,0.2,0.2,0.3
		c0.1,0.1,0.4,0.2,0.9,0.3c0.5,0.1,0.8,0.2,1,0.2c0.3,0.1,0.4,0.2,0.6,0.4c0.1,0.1,0.2,0.3,0.2,0.5c0,0.2-0.1,0.4-0.2,0.6
		c-0.1,0.2-0.3,0.3-0.6,0.4c-0.3,0.1-0.5,0.1-0.9,0.1c-0.4,0-0.7,0-1-0.1c-0.3-0.1-0.5-0.2-0.6-0.4C116.1,48.7,116,48.5,116,48.3z"
		/>
	<path id="XMLID_46_" d="M120,49.4v-3.7h3.2v0.4h-2.6v1.1h2.4v0.4h-2.4V49h2.7v0.4H120z"/>
	<path id="XMLID_44_" d="M125,49.4v-3.3h-1.5v-0.4h3.5v0.4h-1.5v3.3H125z"/>
	<path id="XMLID_42_" d="M129.8,49.4v-3.7h0.9l1,2.6c0.1,0.2,0.2,0.4,0.2,0.5c0-0.1,0.1-0.3,0.2-0.6l1.1-2.6h0.8v3.7h-0.6v-3.1
		l-1.3,3.1h-0.5l-1.3-3.1v3.1H129.8z"/>
	<path id="XMLID_39_" d="M134.3,49.4l1.7-3.7h0.6l1.8,3.7h-0.7l-0.5-1.1h-1.8l-0.5,1.1H134.3z M135.6,47.9h1.5l-0.5-1
		c-0.1-0.3-0.2-0.6-0.3-0.8c-0.1,0.2-0.1,0.5-0.2,0.7L135.6,47.9z"/>
	<path id="XMLID_37_" d="M138.7,49.4v-3.7h0.6l2.3,2.9v-2.9h0.6v3.7h-0.6l-2.3-2.9v2.9H138.7z"/>
	<path id="XMLID_34_" d="M142.5,49.4l1.7-3.7h0.6l1.8,3.7H146l-0.5-1.1h-1.8l-0.5,1.1H142.5z M143.8,47.9h1.5l-0.5-1
		c-0.1-0.3-0.2-0.6-0.3-0.8c-0.1,0.2-0.1,0.5-0.2,0.7L143.8,47.9z"/>
	<path id="XMLID_32_" d="M149,48v-0.4l1.9,0v1.4c-0.3,0.2-0.6,0.3-0.9,0.4c-0.3,0.1-0.6,0.1-0.9,0.1c-0.4,0-0.8-0.1-1.2-0.2
		c-0.4-0.2-0.6-0.4-0.8-0.7c-0.2-0.3-0.3-0.6-0.3-1c0-0.4,0.1-0.7,0.3-1c0.2-0.3,0.4-0.5,0.8-0.7c0.3-0.2,0.7-0.2,1.2-0.2
		c0.3,0,0.6,0,0.9,0.1c0.3,0.1,0.5,0.2,0.6,0.4c0.1,0.2,0.3,0.4,0.3,0.6l-0.5,0.1c-0.1-0.2-0.1-0.3-0.2-0.4
		c-0.1-0.1-0.2-0.2-0.4-0.3c-0.2-0.1-0.4-0.1-0.6-0.1c-0.3,0-0.5,0-0.7,0.1c-0.2,0.1-0.3,0.2-0.5,0.3c-0.1,0.1-0.2,0.2-0.3,0.4
		c-0.1,0.2-0.2,0.5-0.2,0.7c0,0.3,0.1,0.6,0.2,0.8c0.1,0.2,0.3,0.4,0.6,0.5c0.3,0.1,0.5,0.2,0.8,0.2c0.3,0,0.5,0,0.7-0.1
		c0.2-0.1,0.4-0.2,0.5-0.3V48H149z"/>
	<path id="XMLID_30_" d="M151.6,49.4v-3.7h3.2v0.4h-2.6v1.1h2.4v0.4h-2.4V49h2.7v0.4H151.6z"/>
	<path id="XMLID_28_" d="M155.7,49.4v-3.7h0.9l1,2.6c0.1,0.2,0.2,0.4,0.2,0.5c0-0.1,0.1-0.3,0.2-0.6l1.1-2.6h0.8v3.7h-0.6v-3.1
		l-1.3,3.1h-0.5l-1.3-3.1v3.1H155.7z"/>
	<path id="XMLID_26_" d="M160.7,49.4v-3.7h3.2v0.4h-2.6v1.1h2.4v0.4h-2.4V49h2.7v0.4H160.7z"/>
	<path id="XMLID_24_" d="M164.6,49.4v-3.7h0.6l2.3,2.9v-2.9h0.6v3.7h-0.6l-2.3-2.9v2.9H164.6z"/>
	<path id="XMLID_22_" d="M170,49.4v-3.3h-1.5v-0.4h3.5v0.4h-1.5v3.3H170z"/>
	<path id="XMLID_19_" class="st0" d="M61.4,25.1l1-7.7H74v1.9h3.8V0.5H57.1v3.8H74v9.4H58.8l-1.7,15.1h15.1
		c-0.2,4.1-0.4,8.1-0.7,11.9c-0.2,3-1.7,4.7-4.4,4.7c-1.5,0-4-0.1-7.7-0.3c0.4,1.5,0.6,2.9,0.9,4.3c3.4,0,5.8,0.1,7.2,0.1
		c5,0,7.7-3,8-8.7c0.4-6.7,0.7-12,0.9-15.7H61.4z M96.2,20.8l-3.8,1.5c2.4,6.4,4.7,13.1,7.1,20.1c-4.6,0.4-10.5,0.9-17.6,1.4
		c4.3-11.6,8.5-25.8,12.8-42.5l-4.8-0.9c-2.5,11.6-6,24.5-10.7,38.7c-1,2.9-2.1,4.7-3.3,5.5l1.7,4.7c1.2-0.4,2.4-0.7,3.7-0.9
		c5.7-0.7,12.2-1.4,19.4-2.1c0.7,2,0.4,1,1,3.1l4.3-2C103.7,40.7,101,33.8,96.2,20.8z"/>
	<path id="XMLID_16_" class="st0" d="M53.3,0.5H0.6v49h52.8L53.3,0.5z M47.2,46.6c-10.6-4.2-16.7-10.6-20-20.3
		c-2.6,9-8.9,15.7-20.5,21c-0.7-0.9-1.8-2.1-3.2-3.7c12.2-5.1,18.7-12.1,20.7-21.2H4.6v-3.8h20.1c0.1-2.3,0.2-5.6,0.2-11.2H6.4V3.7
		h41.9v3.8h-19c0,3.3-0.1,6.7-0.2,11.2h21v3.8H29.7c3.1,10.1,9.4,16.7,20.9,20.2C49.2,44.2,48.1,45.5,47.2,46.6z"/>
</g>
</svg>
